<?xml version="1.0" encoding="utf-8"?>
<!-- Generator: Adobe Illustrator 16.0.0, SVG Export Plug-In . SVG Version: 6.00 Build 0)  -->
<!DOCTYPE svg PUBLIC "-//W3C//DTD SVG 1.1//EN" "http://www.w3.org/Graphics/SVG/1.1/DTD/svg11.dtd">
<svg version="1.1" id="Layer_1" xmlns="http://www.w3.org/2000/svg" xmlns:xlink="http://www.w3.org/1999/xlink" x="0px" y="0px"
	 width="1920px" height="654.89px" viewBox="0 0 1920 654.89" enable-background="new 0 0 1920 654.89" xml:space="preserve">
<polygon fill="#F2F2F2" points="-29.86,452.978 114.133,310.485 279.125,526.474 651.106,327.445 798.099,451.478 943.591,557.973 
	966.09,359.982 1152.081,421.479 1228.577,463.478 1471.564,320.984 1543.561,361.483 1608.058,410.98 1749.05,442.479 
	1765.549,515.976 1951.54,383.982 2134.531,832.46 -83.858,916.455 -35.86,448.479 "/>
<polygon fill="#F8F9FA" points="0,481.477 177.129,404.98 312.123,481.477 490.614,283.486 649.606,553.473 811.598,499.476 
	897.094,418.479 1101.083,449.978 1203.078,586.471 1362.07,299.985 1456.565,395.98 1651.556,443.978 1785.049,560.972 
	1926.042,362.982 2035.537,769.462 0,865.457 "/>
</svg>
