<?xml version="1.0" encoding="utf-8"?>
<!-- Generator: Adobe Illustrator 16.0.0, SVG Export Plug-In . SVG Version: 6.00 Build 0)  -->
<!DOCTYPE svg PUBLIC "-//W3C//DTD SVG 1.1//EN" "http://www.w3.org/Graphics/SVG/1.1/DTD/svg11.dtd">
<svg version="1.1" id="Layer_1" xmlns="http://www.w3.org/2000/svg" xmlns:xlink="http://www.w3.org/1999/xlink" x="0px" y="0px"
	 width="896.955px" height="364px" viewBox="0 28.739 896.955 364" enable-background="new 0 28.739 896.955 364"
	 xml:space="preserve">
<g id="banner">
	<rect x="-49.614" y="-105.085" display="none" fill="#008EE8" width="1022" height="542"/>
	<g>
		
			<radialGradient id="SVGID_1_" cx="936.5732" cy="78.7275" r="79.8872" gradientTransform="matrix(1 0 0 -1 -171 308.4785)" gradientUnits="userSpaceOnUse">
			<stop  offset="0.5744" style="stop-color:#130C0E"/>
			<stop  offset="0.7977" style="stop-color:#130C0E"/>
			<stop  offset="1" style="stop-color:#130C0E"/>
		</radialGradient>
		<path fill="#FFFFFF" stroke="url(#SVGID_1_)" stroke-width="3" stroke-miterlimit="10" d="M817.51,208.683l-0.974-0.026
			l0.387-0.896c1.549-3.576,2.334-7.377,2.334-11.293c0-15.691-12.768-28.459-28.459-28.459c-9.898,0-18.937,5.029-24.176,13.449
			l-0.479,0.771l-0.586-0.693c-5.53-6.539-13.605-10.291-22.153-10.291c-15.995,0-29.009,13.014-29.009,29.008
			c0,2.551,0.338,5.096,1.004,7.568l0.225,0.832l-0.86,0.002c-22.775,0.061-41.308,18.641-41.308,41.418
			c0,22.84,18.582,41.42,41.422,41.42h101.394c22.84,0,41.421-18.58,41.421-41.42C857.689,227.528,840.04,209.347,817.51,208.683z"
			/>
	</g>
	<rect x="724.271" y="285.378" fill="#FFFFFF" width="79.745" height="27.086"/>
	<rect x="724.271" y="326.532" fill="#FFFFFF" width="79.745" height="27.088"/>
	<g>
		<g>
			<path fill="#231F20" d="M706.368,327.054c-1.545,0-2.8-1.313-2.8-2.926c0-1.615,1.255-2.928,2.8-2.928
				c1.544,0,2.799,1.313,2.799,2.928C709.167,325.741,707.912,327.054,706.368,327.054z M706.368,322.552
				c-0.831,0-1.508,0.707-1.508,1.576c0,0.867,0.677,1.576,1.508,1.576c0.83,0,1.507-0.709,1.507-1.576
				C707.875,323.259,707.198,322.552,706.368,322.552z"/>
		</g>
	</g>
	<g>
		<g>
			<path fill="#231F20" d="M859.657,284.747h-5.468c-0.377,0-0.682-0.318-0.682-0.711c0-0.395,0.305-0.711,0.682-0.711h5.468
				c0.376,0,0.68,0.316,0.68,0.711C860.337,284.429,860.033,284.747,859.657,284.747z"/>
		</g>
	</g>
	<g>
		<g>
			<path fill="#231F20" d="M853.849,206.067h-5.469c-0.376,0-0.68-0.318-0.68-0.711c0-0.396,0.304-0.711,0.68-0.711h5.469
				c0.376,0,0.682,0.315,0.682,0.711C854.529,205.749,854.225,206.067,853.849,206.067z"/>
		</g>
	</g>
	<g>
		<g>
			<path fill="#231F20" d="M689.309,325.55h-5.469c-0.377,0-0.68-0.318-0.68-0.711c0-0.395,0.303-0.713,0.68-0.713h5.469
				c0.376,0,0.681,0.318,0.681,0.713C689.988,325.231,689.685,325.55,689.309,325.55z"/>
		</g>
	</g>
	<g>
		<g>
			<path fill="#231F20" d="M832.026,175.376h-5.47c-0.377,0-0.68-0.318-0.68-0.711s0.303-0.711,0.68-0.711h5.47
				c0.375,0,0.68,0.318,0.68,0.711S832.401,175.376,832.026,175.376z"/>
		</g>
	</g>
	<g>
		<g>
			<path fill="#231F20" d="M787.421,365.241h-4.88c-0.336,0-0.606-0.271-0.606-0.605c0-0.336,0.271-0.607,0.606-0.607h4.88
				c0.335,0,0.606,0.271,0.606,0.607C788.027,364.97,787.756,365.241,787.421,365.241z"/>
		</g>
	</g>
	<g>
		<g>
			<path fill="#231F20" d="M854.327,353.374h-4.88c-0.336,0-0.606-0.271-0.606-0.607s0.271-0.606,0.606-0.606h4.88
				c0.336,0,0.606,0.271,0.606,0.606S854.663,353.374,854.327,353.374z"/>
		</g>
	</g>
	<g>
		<g>
			<path fill="#231F20" d="M714.653,367.519h-4.88c-0.336,0-0.606-0.271-0.606-0.606s0.271-0.606,0.606-0.606h4.88
				c0.336,0,0.606,0.271,0.606,0.606S714.989,367.519,714.653,367.519z"/>
		</g>
	</g>
	<g>
		<g>
			<path fill="#231F20" d="M840.731,344.604c-2.125,0-3.854-1.81-3.854-4.031c0-2.223,1.729-4.029,3.854-4.029
				c2.126,0,3.855,1.807,3.855,4.029C844.587,342.795,842.857,344.604,840.731,344.604z M840.731,337.966
				c-1.375,0-2.492,1.17-2.492,2.607c0,1.437,1.117,2.607,2.492,2.607c1.377,0,2.494-1.171,2.494-2.607
				C843.226,339.136,842.108,337.966,840.731,337.966z"/>
		</g>
	</g>
	<g>
		<path fill="#231F20" d="M753.854,364.634l1.849-1.846c0.235-0.238,0.235-0.621,0-0.859c-0.237-0.236-0.622-0.236-0.859,0
			l-1.847,1.848l-1.848-1.848c-0.237-0.236-0.62-0.236-0.859,0c-0.236,0.238-0.236,0.621,0,0.859l1.848,1.846l-1.848,1.848
			c-0.236,0.238-0.236,0.623,0,0.859c0.119,0.119,0.275,0.178,0.43,0.178c0.156,0,0.312-0.059,0.431-0.178l1.848-1.848l1.847,1.848
			c0.119,0.119,0.274,0.178,0.43,0.178s0.313-0.059,0.431-0.178c0.235-0.236,0.235-0.621,0-0.859L753.854,364.634z"/>
	</g>
	<g>
		<path fill="#231F20" d="M668.782,332.405l1.848-1.846c0.236-0.238,0.236-0.621,0-0.859c-0.237-0.238-0.622-0.238-0.857,0
			l-1.849,1.848l-1.848-1.848c-0.236-0.238-0.62-0.238-0.858,0c-0.236,0.238-0.236,0.621,0,0.859l1.849,1.846l-1.849,1.848
			c-0.236,0.238-0.236,0.623,0,0.859c0.119,0.117,0.273,0.178,0.431,0.178c0.154,0,0.31-0.061,0.429-0.178l1.848-1.848l1.849,1.848
			c0.119,0.117,0.272,0.178,0.429,0.178s0.313-0.061,0.43-0.178c0.236-0.236,0.236-0.621,0-0.859L668.782,332.405z"/>
	</g>
	<g>
		<path fill="#231F20" d="M837.605,191.112l2.069-2.166c0.267-0.277,0.267-0.727,0-1.006c-0.266-0.275-0.696-0.275-0.962,0
			l-2.07,2.164l-2.069-2.164c-0.267-0.275-0.695-0.275-0.963,0c-0.267,0.279-0.267,0.729,0,1.006l2.069,2.166l-2.069,2.164
			c-0.267,0.277-0.267,0.729,0,1.006c0.134,0.139,0.307,0.209,0.48,0.209s0.349-0.07,0.481-0.209l2.069-2.164l2.07,2.164
			c0.133,0.139,0.308,0.209,0.48,0.209c0.175,0,0.35-0.07,0.48-0.209c0.267-0.277,0.267-0.729,0-1.006L837.605,191.112z"/>
	</g>
	<g>
		<path fill="#BCBEC0" d="M723.698,326.272v27.088h81.104v-27.088 M734.367,334.124c3.189,0,5.786,2.555,5.786,5.693
			c0,3.137-2.597,5.688-5.786,5.688c-3.188,0-5.779-2.551-5.779-5.688C728.588,336.679,731.18,334.124,734.367,334.124z"/>
	</g>
	<g>
		<path fill="#BCBEC0" d="M723.698,312.21h80.318v-27.098h-80.318V312.21z M734.264,292.972c3.159,0,5.73,2.549,5.73,5.684
			c0,3.138-2.571,5.691-5.73,5.691c-3.155,0-5.724-2.555-5.724-5.691C728.54,295.521,731.107,292.972,734.264,292.972z"/>
	</g>
	<g>
		<path fill="#BCBEC0" d="M804.018,243.958h-80.318v27.348h80.318V243.958L804.018,243.958z"/>
	</g>
	<g>
		<path d="M804.694,272.667c0.376,0,0.681-0.305,0.681-0.68v-28.445c0-0.375-0.305-0.68-0.681-0.68h-81.099
			c-0.375,0-0.682,0.305-0.682,0.68v28.445c0,0.375,0.307,0.68,0.682,0.68h39.867v11.35h-39.867c-0.375,0-0.682,0.308-0.682,0.685
			v28.444c0,0.375,0.307,0.681,0.682,0.681h39.867v11.352h-39.867c-0.375,0-0.682,0.308-0.682,0.683v28.438
			c0,0.375,0.307,0.68,0.682,0.68h81.099c0.376,0,0.681-0.305,0.681-0.68V325.86c0-0.375-0.305-0.683-0.681-0.683h-39.867v-11.352
			h39.867c0.376,0,0.681-0.306,0.681-0.681V284.7c0-0.377-0.305-0.684-0.681-0.684h-39.867v-11.351L804.694,272.667L804.694,272.667
			z M804.018,326.534v27.088h-79.744v-27.088H804.018z M804.018,285.374v27.098h-79.744v-27.098H804.018z M724.271,271.306V244.22
			h79.745v27.086H724.271z"/>
	</g>
	<g>
		<polygon points="837.581,318.042 836.262,318.042 836.262,299.581 821.662,299.581 821.662,298.261 837.581,298.261 		"/>
		<circle fill="#FFFFFF" cx="734.543" cy="257.771" r="4.908"/>
	</g>
	<g>
		<path d="M734.762,252.075c-3.134,0-5.683,2.553-5.683,5.691c0,3.135,2.549,5.686,5.683,5.686c3.139,0,5.689-2.551,5.689-5.686
			C740.451,254.628,737.899,252.075,734.762,252.075z M734.762,262.368c-2.533,0-4.597-2.064-4.597-4.602
			c0-2.539,2.063-4.604,4.597-4.604c2.54,0,4.606,2.063,4.606,4.604C739.368,260.304,737.302,262.368,734.762,262.368z"/>
	</g>
	<g>
		<path d="M734.762,304.608c3.139,0,5.689-2.553,5.689-5.691c0-3.133-2.552-5.682-5.689-5.682c-3.134,0-5.683,2.549-5.683,5.682
			C729.079,302.056,731.628,304.608,734.762,304.608z M734.762,294.321c2.54,0,4.606,2.063,4.606,4.596
			c0,2.541-2.066,4.607-4.606,4.607c-2.533,0-4.597-2.066-4.597-4.607C730.165,296.384,732.229,294.321,734.762,294.321z"/>
	</g>
	<g>
		<path d="M734.762,345.767c3.139,0,5.689-2.551,5.689-5.688c0-3.139-2.552-5.693-5.689-5.693c-3.134,0-5.683,2.555-5.683,5.693
			C729.079,343.216,731.628,345.767,734.762,345.767z M734.762,335.474c2.54,0,4.606,2.066,4.606,4.605s-2.066,4.604-4.606,4.604
			c-2.533,0-4.597-2.063-4.597-4.604S732.229,335.474,734.762,335.474z"/>
	</g>
	<g>
		<path d="M794.466,258.423h-45.356c-0.365,0-0.66-0.295-0.66-0.66c0-0.363,0.295-0.66,0.66-0.66h45.356
			c0.364,0,0.661,0.297,0.661,0.66C795.127,258.128,794.83,258.423,794.466,258.423z"/>
	</g>
	<g>
		<path d="M794.466,299.579h-45.356c-0.365,0-0.66-0.295-0.66-0.66s0.295-0.66,0.66-0.66h45.356c0.364,0,0.661,0.295,0.661,0.66
			S794.83,299.579,794.466,299.579z"/>
	</g>
	<g>
		<path d="M794.466,340.737h-45.356c-0.365,0-0.66-0.297-0.66-0.66c0-0.365,0.295-0.66,0.66-0.66h45.356
			c0.364,0,0.661,0.295,0.661,0.66C795.127,340.44,794.83,340.737,794.466,340.737z"/>
	</g>
	<g>
		<polygon points="753.654,242.862 752.335,242.862 752.335,206.017 740.451,206.017 740.451,204.696 753.654,204.696 		"/>
	</g>
	<g>
		<path fill="#FF5E3C" d="M821.674,240.282c-1.187,0-2.149,1.145-2.149,2.556s0.964,2.558,2.149,2.558
			c1.185,0,2.147-1.146,2.147-2.558S822.857,240.282,821.674,240.282z"/>
		<path fill="#FF5E3C" d="M821.599,311.421c-1.228,0-2.226,1.207-2.226,2.691s0.998,2.69,2.226,2.69c1.226,0,2.224-1.206,2.224-2.69
			C823.821,312.628,822.823,311.421,821.599,311.421z"/>
		<path fill="#FF5E3C" d="M707.548,271.454c-1.093,0-1.979,0.889-1.979,1.98c0,1.09,0.888,1.981,1.979,1.981
			c1.091,0,1.98-0.892,1.98-1.981C709.528,272.343,708.639,271.454,707.548,271.454z"/>
		<path fill="#FF5E3C" d="M782.651,201.7c-1.267,0-2.294,1.028-2.294,2.293c0,1.264,1.027,2.293,2.294,2.293
			c1.264,0,2.294-1.029,2.294-2.293C784.945,202.729,783.915,201.7,782.651,201.7z"/>
		<circle fill="#FF5E3C" cx="737.882" cy="205.65" r="2.087"/>
		<path fill="#FF5E3C" d="M821.682,372.062c-1.182,0-2.142,1.033-2.142,2.304s0.96,2.303,2.142,2.303
			c1.18,0,2.141-1.032,2.141-2.303S822.86,372.062,821.682,372.062z"/>
		<path fill="#FF5E3C" d="M836.954,317.729c-1.173,0-2.126,1.195-2.126,2.666s0.953,2.668,2.126,2.668s2.127-1.197,2.127-2.668
			C839.081,318.926,838.127,317.729,836.954,317.729z"/>
		<ellipse fill="#FF5E3C" cx="852.067" cy="299.059" rx="1.979" ry="2.243"/>
		<circle fill="#FF5E3C" cx="674.976" cy="294.792" r="1.98"/>
		<circle fill="#FF5E3C" cx="692.386" cy="246.796" r="1.98"/>
		<circle fill="#FF5E3C" cx="683.256" cy="351.525" r="1.981"/>
		<circle fill="#FF5E3C" cx="764.377" cy="214.198" r="2.326"/>
		<ellipse fill="#FF5E3C" cx="846.785" cy="257.965" rx="1.98" ry="2.181"/>
		<path d="M737.81,202.054c-1.819,0-3.301,1.482-3.301,3.302c0,1.821,1.48,3.302,3.301,3.302c1.821,0,3.303-1.48,3.303-3.302
			C741.112,203.536,739.631,202.054,737.81,202.054z M737.81,207.337c-1.092,0-1.979-0.889-1.979-1.98
			c0-1.09,0.889-1.979,1.979-1.979c1.094,0,1.981,0.89,1.981,1.979C739.791,206.448,738.902,207.337,737.81,207.337z"/>
		<path d="M691.206,242.095c-1.82,0-3.301,1.48-3.301,3.301c0,1.821,1.479,3.301,3.301,3.301s3.302-1.479,3.302-3.301
			C694.508,243.575,693.027,242.095,691.206,242.095z M691.206,247.376c-1.092,0-1.98-0.889-1.98-1.98c0-1.09,0.89-1.979,1.98-1.979
			c1.093,0,1.979,0.89,1.979,1.979C693.186,246.487,692.299,247.376,691.206,247.376z"/>
		<path d="M673.797,290.091c-1.821,0-3.302,1.48-3.302,3.301c0,1.821,1.479,3.301,3.302,3.301c1.819,0,3.301-1.479,3.301-3.301
			C677.098,291.571,675.616,290.091,673.797,290.091z M673.797,295.372c-1.093,0-1.979-0.889-1.979-1.98
			c0-1.091,0.888-1.979,1.979-1.979s1.98,0.889,1.98,1.979C675.777,294.483,674.889,295.372,673.797,295.372z"/>
		<path d="M821.662,311.12c-1.82,0-3.302,1.482-3.302,3.301c0,1.822,1.48,3.303,3.302,3.303s3.302-1.479,3.302-3.303
			C824.964,312.603,823.482,311.12,821.662,311.12z M821.662,316.403c-1.093,0-1.98-0.889-1.98-1.982c0-1.092,0.889-1.98,1.98-1.98
			s1.98,0.89,1.98,1.98C823.644,315.515,822.754,316.403,821.662,316.403z"/>
		<path d="M836.922,317.382c-1.82,0-3.302,1.48-3.302,3.301c0,1.821,1.48,3.301,3.302,3.301c1.819,0,3.302-1.479,3.302-3.301
			C840.224,318.862,838.741,317.382,836.922,317.382z M836.922,322.663c-1.093,0-1.98-0.889-1.98-1.98
			c0-1.091,0.889-1.979,1.98-1.979s1.98,0.889,1.98,1.979C838.902,321.774,838.015,322.663,836.922,322.663z"/>
		<path d="M851.888,295.62c-1.82,0-3.302,1.48-3.302,3.301c0,1.821,1.48,3.303,3.302,3.303c1.82,0,3.303-1.481,3.303-3.303
			C855.19,297.101,853.708,295.62,851.888,295.62z M851.888,300.901c-1.093,0-1.979-0.887-1.979-1.98c0-1.092,0.888-1.98,1.979-1.98
			c1.093,0,1.98,0.89,1.98,1.98C853.868,300.015,852.979,300.901,851.888,300.901z"/>
		<path d="M821.662,370.985c-1.82,0-3.302,1.479-3.302,3.301c0,1.82,1.48,3.301,3.302,3.301s3.302-1.48,3.302-3.301
			C824.964,372.465,823.482,370.985,821.662,370.985z M821.662,376.267c-1.093,0-1.98-0.887-1.98-1.979s0.889-1.979,1.98-1.979
			s1.98,0.889,1.98,1.979C823.644,375.38,822.754,376.267,821.662,376.267z"/>
		<path d="M682.077,346.823c-1.82,0-3.302,1.482-3.302,3.303c0,1.821,1.48,3.301,3.302,3.301s3.301-1.48,3.301-3.301
			S683.896,346.823,682.077,346.823z M682.077,352.106c-1.093,0-1.981-0.89-1.981-1.98c0-1.094,0.89-1.982,1.981-1.982
			s1.979,0.89,1.979,1.982C684.058,351.218,683.169,352.106,682.077,352.106z"/>
		<path d="M821.662,239.562c-1.82,0-3.302,1.48-3.302,3.301c0,1.822,1.48,3.302,3.302,3.302s3.302-1.479,3.302-3.302
			C824.964,241.042,823.482,239.562,821.662,239.562z M821.662,244.843c-1.093,0-1.98-0.889-1.98-1.98
			c0-1.09,0.889-1.979,1.98-1.979s1.98,0.89,1.98,1.979C823.643,243.954,822.754,244.843,821.662,244.843z"/>
		<path d="M849.907,257.765c0-1.82-1.482-3.301-3.302-3.301c-1.82,0-3.303,1.48-3.303,3.301c0,1.821,1.481,3.301,3.303,3.301
			C848.425,261.065,849.907,259.585,849.907,257.765z M846.605,259.745c-1.094,0-1.981-0.889-1.981-1.98
			c0-1.091,0.889-1.979,1.981-1.979c1.092,0,1.979,0.889,1.979,1.979C848.585,258.856,847.697,259.745,846.605,259.745z"/>
		<path d="M706.368,268.733c-1.82,0-3.301,1.479-3.301,3.301c0,1.82,1.479,3.301,3.301,3.301s3.302-1.48,3.302-3.301
			C709.67,270.213,708.188,268.733,706.368,268.733z M706.368,274.017c-1.093,0-1.98-0.889-1.98-1.981s0.889-1.979,1.98-1.979
			s1.979,0.889,1.979,1.979C708.349,273.128,707.461,274.017,706.368,274.017z"/>
		<path d="M764.146,211.151c-1.82,0-3.303,1.479-3.303,3.301c0,1.822,1.481,3.303,3.303,3.303c1.82,0,3.302-1.48,3.302-3.303
			C767.447,212.632,765.967,211.151,764.146,211.151z M764.146,216.435c-1.094,0-1.98-0.889-1.98-1.981s0.888-1.979,1.98-1.979
			c1.092,0,1.98,0.889,1.98,1.979C766.127,215.546,765.238,216.435,764.146,216.435z"/>
		<path d="M782.34,200.978c-1.82,0-3.302,1.482-3.302,3.303s1.479,3.301,3.302,3.301c1.82,0,3.301-1.479,3.301-3.301
			S784.16,200.978,782.34,200.978z M782.34,206.261c-1.093,0-1.979-0.889-1.979-1.979c0-1.094,0.888-1.982,1.979-1.982
			s1.98,0.889,1.98,1.982C784.32,205.372,783.432,206.261,782.34,206.261z"/>
	</g>
	<g>
		<rect x="763.485" y="217.095" width="1.319" height="25.768"/>
	</g>
	<g>
		<polygon points="775.175,242.862 773.854,242.862 773.854,211.935 781.68,211.935 781.68,206.921 783,206.921 783,213.255 
			775.175,213.255 		"/>
	</g>
	<g>
		<polygon points="705.708,258.425 705.708,246.056 693.847,246.056 693.847,244.735 707.028,244.735 707.028,257.104 
			722.915,257.103 722.915,258.423 		"/>
	</g>
	<g>
		<rect x="705.708" y="257.765" width="1.32" height="11.629"/>
	</g>
	<g>
		<polygon points="822.322,258.425 805.375,258.425 805.375,257.104 821.001,257.104 821.001,245.396 822.322,245.396 		"/>
	</g>
	<g>
		<polygon points="836.408,270.054 821.001,270.054 821.001,257.765 822.322,257.765 822.322,268.733 835.087,268.733 
			835.087,257.103 843.964,257.103 843.964,258.423 836.408,258.423 		"/>
	</g>
	<g>
		<polygon points="822.322,371.646 821.001,371.646 821.001,340.737 805.375,340.737 805.375,339.417 822.322,339.417 		"/>
	</g>
	<g>
		<polygon points="707.028,350.786 684.718,350.786 684.718,349.466 705.708,349.466 705.708,339.417 722.915,339.417 
			722.915,340.737 707.028,340.737 		"/>
	</g>
	<g>
		<polygon points="822.322,311.78 821.001,311.78 821.001,299.581 805.375,299.579 805.375,298.257 822.322,298.261 		"/>
	</g>
	<g>
		<rect x="836.922" y="298.259" width="12.324" height="1.32"/>
	</g>
	<g>
		<polygon points="709.67,309.142 688.292,309.142 675.03,295.88 675.964,294.946 688.839,307.821 708.349,307.821 708.349,298.261 
			722.915,298.257 722.917,299.579 709.67,299.581 		"/>
	</g>
	
		<line fill="none" stroke="#231F20" stroke-width="3.2" stroke-linejoin="round" stroke-dasharray="7.1162,7.1162" x1="501.049" y1="97.057" x2="765.93" y2="97.057"/>
	<path fill="none" stroke="#231F20" stroke-width="3.2" stroke-linejoin="round" stroke-dasharray="7.1162,7.1162" d="
		M1033.93,97.057"/>
	<path fill="none" stroke="#231F20" stroke-width="3.2" stroke-linejoin="round" stroke-dasharray="7.1162,7.1162" d="
		M679.049,127.057"/>
	
		<line fill="none" stroke="#231F20" stroke-width="3.2" stroke-linejoin="round" stroke-miterlimit="10" stroke-dasharray="7" x1="765.016" y1="102.767" x2="765.016" y2="188.983"/>
	<g>
		
			<line fill="none" stroke="#231F20" stroke-width="3.2" stroke-linejoin="round" stroke-miterlimit="10" stroke-dasharray="7" x1="514.016" y1="105.767" x2="514.016" y2="191.983"/>
		
			<line fill="none" stroke="#231F20" stroke-width="3.2" stroke-linejoin="round" stroke-miterlimit="10" stroke-dasharray="7" x1="164.833" y1="148.786" x2="164.833" y2="277.036"/>
		<g>
			<g>
				
					<line fill="none" stroke="#231F20" stroke-width="3.2" stroke-linejoin="round" x1="212.253" y1="97.057" x2="216.142" y2="97.057"/>
				
					<line fill="none" stroke="#231F20" stroke-width="3.2" stroke-linejoin="round" stroke-dasharray="7.1162,7.1162" x1="224.049" y1="97.057" x2="488.93" y2="97.057"/>
				
					<line fill="none" stroke="#231F20" stroke-width="3.2" stroke-linejoin="round" x1="492.884" y1="97.057" x2="496.772" y2="97.057"/>
			</g>
		</g>
		<g>
			<path fill="none" stroke="#231F20" stroke-width="3.2" stroke-linejoin="round" stroke-miterlimit="10" d="M696.078,203.201"/>
		</g>
		<g>
			
				<rect x="559.28" y="233.927" fill="#F1F2F2" stroke="#231F20" stroke-width="3.2" stroke-linejoin="round" stroke-miterlimit="10" width="157.347" height="40.953"/>
			
				<rect x="559.28" y="274.88" fill="#D1D3D4" stroke="#231F20" stroke-width="3.2" stroke-linejoin="round" stroke-miterlimit="10" width="157.347" height="40.954"/>
			
				<rect x="559.28" y="315.834" fill="#F1F2F2" stroke="#231F20" stroke-width="3.2" stroke-linejoin="round" stroke-miterlimit="10" width="157.347" height="40.953"/>
			<circle fill="#FFFFFF" cx="686.451" cy="294.278" r="9.16"/>
			<circle fill="#FFFFFF" cx="657.352" cy="294.278" r="9.161"/>
			
				<line fill="none" stroke="#231F20" stroke-width="3.2" stroke-linejoin="round" stroke-miterlimit="10" x1="581.912" y1="329.844" x2="695.073" y2="329.844"/>
			
				<line fill="none" stroke="#231F20" stroke-width="3.2" stroke-linejoin="round" stroke-miterlimit="10" x1="581.912" y1="340.621" x2="695.073" y2="340.621"/>
			
				<line fill="none" stroke="#231F20" stroke-width="3.2" stroke-linejoin="round" stroke-miterlimit="10" x1="581.912" y1="287.813" x2="581.912" y2="300.746"/>
			
				<line fill="none" stroke="#231F20" stroke-width="3.2" stroke-linejoin="round" stroke-miterlimit="10" x1="592.689" y1="287.813" x2="592.689" y2="300.746"/>
			
				<line fill="none" stroke="#231F20" stroke-width="3.2" stroke-linejoin="round" stroke-miterlimit="10" x1="603.466" y1="287.813" x2="603.466" y2="300.746"/>
			
				<line fill="none" stroke="#231F20" stroke-width="3.2" stroke-linejoin="round" stroke-miterlimit="10" x1="614.244" y1="287.813" x2="614.244" y2="300.746"/>
			
				<line fill="none" stroke="#231F20" stroke-width="3.2" stroke-linejoin="round" stroke-miterlimit="10" x1="625.021" y1="287.813" x2="625.021" y2="300.746"/>
			
				<line fill="none" stroke="#231F20" stroke-width="3.2" stroke-linejoin="round" stroke-miterlimit="10" x1="654.119" y1="294.278" x2="660.585" y2="294.278"/>
			
				<line fill="none" stroke="#231F20" stroke-width="3.2" stroke-linejoin="round" stroke-miterlimit="10" x1="683.218" y1="294.278" x2="689.685" y2="294.278"/>
			<rect x="689.685" y="246.858" fill="#A7A9AC" width="4.312" height="14.011"/>
			<rect x="678.907" y="246.858" fill="#3B9ADA" width="4.311" height="14.011"/>
			<rect x="668.13" y="246.858" fill="#FFA432" width="4.312" height="14.011"/>
			<rect x="657.354" y="246.858" fill="#3B9ADA" width="4.312" height="14.011"/>
			<rect x="646.575" y="246.858" fill="#FFA432" width="4.311" height="14.011"/>
			
				<line fill="none" stroke="#231F20" stroke-width="3.2" stroke-linejoin="round" stroke-miterlimit="10" x1="574.368" y1="247.938" x2="637.953" y2="247.938"/>
			
				<line fill="none" stroke="#231F20" stroke-width="3.2" stroke-linejoin="round" stroke-miterlimit="10" x1="574.368" y1="258.715" x2="637.953" y2="258.715"/>
		</g>
		<g>
			<polygon fill="none" stroke="#231F20" stroke-width="3.2" stroke-linejoin="round" stroke-miterlimit="10" points="
				581.912,148.786 581.912,114.3 567.902,114.3 567.902,148.786 543.113,148.786 543.113,161.719 606.7,161.719 606.7,148.786 			
				"/>
			
				<line fill="none" stroke="#231F20" stroke-width="3.2" stroke-linejoin="round" stroke-miterlimit="10" x1="567.902" y1="148.786" x2="574.368" y2="148.786"/>
			
				<line fill="none" stroke="#231F20" stroke-width="3.2" stroke-linejoin="round" stroke-miterlimit="10" x1="606.7" y1="155.253" x2="621.787" y2="155.253"/>
			
				<line fill="none" stroke="#231F20" stroke-width="3.2" stroke-linejoin="round" stroke-miterlimit="10" x1="528.025" y1="155.253" x2="543.113" y2="155.253"/>
		</g>
		<g>
			<path fill="#D1D3D4" stroke="#231F20" stroke-width="3.2" stroke-linejoin="round" stroke-miterlimit="10" d="M670.302,132.276"
				/>
		</g>
		<g>
			<path fill="#D1D3D4" stroke="#231F20" stroke-width="3.2" stroke-linejoin="round" stroke-miterlimit="10" d="M87.35,164.73"/>
			<path fill="#D1D3D4" stroke="#231F20" stroke-width="3.2" stroke-linejoin="round" stroke-miterlimit="10" d="M140.197,122.383
				c0,0,5.317,4.264,7.061,5.173"/>
			<path fill="#D1D3D4" stroke="#231F20" stroke-width="3.2" stroke-linejoin="round" stroke-miterlimit="10" d="M244.269,128.897
				c0,0-2.401,4.111-2.505,7.271"/>
		</g>
		<g>
			<rect x="324.336" y="300.746" fill="#D1D3D4" width="61.43" height="40.953"/>
			<g>
				<path fill="#FFFFFF" d="M496.772,125.114c0-8.521-6.332-16.203-15.229-16.203h-253.81c-8.899,0-16.557,7.682-16.557,16.203
					v127.133h285.598L496.772,125.114L496.772,125.114z"/>
				<path fill="#F1F2F2" stroke="#231F20" stroke-width="3.2" stroke-linejoin="round" stroke-miterlimit="10" d="M211.176,252.247
					v33.999c0,8.522,7.658,14.5,16.557,14.5h253.811c8.896,0,15.229-5.978,15.229-14.5v-33.999H211.176z"/>
			</g>
			<path fill="#BCBEC0" d="M364.598,276.627c0,5.497-4.458,9.957-9.959,9.957s-9.958-4.46-9.958-9.957
				c0-5.503,4.457-9.96,9.958-9.96S364.598,271.124,364.598,276.627z"/>
			
				<rect x="312.481" y="341.699" fill="#F1F2F2" stroke="#231F20" stroke-width="3.2" stroke-linejoin="round" stroke-miterlimit="10" width="82.984" height="10.776"/>
			
				<rect x="229.497" y="126.155" fill="#07335B" stroke="#231F20" stroke-width="3.2" stroke-linejoin="round" stroke-miterlimit="10" width="250.031" height="126.092"/>
			<g opacity="0.5">
				<rect x="246.74" y="142.32" fill="#8391E5" width="216.624" height="33.409"/>
				<rect x="340.502" y="184.352" fill="#8391E5" width="49.575" height="26.943"/>
				<rect x="247.818" y="184.352" fill="#8391E5" width="79.75" height="26.943"/>
				<rect x="404.088" y="184.352" fill="#F79234" width="58.196" height="26.943"/>
				<rect x="246.74" y="219.917" fill="#8391E5" width="215.544" height="19.518"/>
			</g>
		</g>
		<g>
			<path fill="#D1D3D4" d="M618.554,188.123c0-5.734-4.32-10.237-10.058-10.237H406.248c-5.736,0-10.782,4.503-10.782,10.237V336.31
				h223.088V188.123L618.554,188.123z"/>
			<path fill="#F1F2F2" stroke="#231F20" stroke-width="3.2" stroke-linejoin="round" stroke-miterlimit="10" d="M379.301,336.31
				v10.26c0,5.729,5.048,10.219,11.647,10.219h232.846c6.604,0,12.004-4.49,12.004-10.219v-10.26H379.301z"/>
			
				<rect x="411.632" y="190.817" fill="#18AFFE" stroke="#231F20" stroke-width="3.2" stroke-linejoin="round" stroke-miterlimit="10" width="191.834" height="129.327"/>
			
				<line fill="none" stroke="#231F20" stroke-width="3.2" stroke-linejoin="round" stroke-miterlimit="10" x1="494.616" y1="347.088" x2="519.405" y2="347.088"/>
			<rect x="571.135" y="202.673" opacity="0.2" fill="#FFFFFF" enable-background="new    " width="21.556" height="34.486"/>
			<rect x="424.564" y="202.673" opacity="0.2" fill="#FFFFFF" enable-background="new    " width="140.104" height="34.486"/>
			<rect x="424.564" y="247.938" opacity="0.2" fill="#FFFFFF" enable-background="new    " width="37.72" height="30.176"/>
			<rect x="469.829" y="247.938" opacity="0.2" fill="#FFFFFF" enable-background="new    " width="121.783" height="30.176"/>
			<rect x="424.564" y="287.813" opacity="0.2" fill="#FFFFFF" enable-background="new    " width="167.048" height="17.244"/>
		</g>
		<g>
			
				<rect x="126.036" y="235.005" fill="#F1F2F2" stroke="#231F20" stroke-width="3.2" stroke-linejoin="round" stroke-miterlimit="10" width="157.347" height="40.953"/>
			
				<rect x="126.036" y="275.958" fill="#D1D3D4" stroke="#231F20" stroke-width="3.2" stroke-linejoin="round" stroke-miterlimit="10" width="157.347" height="40.953"/>
			
				<rect x="126.036" y="316.911" fill="#F1F2F2" stroke="#231F20" stroke-width="3.2" stroke-linejoin="round" stroke-miterlimit="10" width="157.347" height="40.954"/>
			<circle fill="#FFFFFF" cx="253.206" cy="295.357" r="9.161"/>
			<circle fill="#FFFFFF" cx="224.108" cy="295.357" r="9.161"/>
			
				<line fill="none" stroke="#231F20" stroke-width="3.2" stroke-linejoin="round" stroke-miterlimit="10" x1="148.667" y1="330.922" x2="261.829" y2="330.922"/>
			
				<line fill="none" stroke="#231F20" stroke-width="3.2" stroke-linejoin="round" stroke-miterlimit="10" x1="148.667" y1="341.699" x2="261.829" y2="341.699"/>
			
				<line fill="none" stroke="#231F20" stroke-width="3.2" stroke-linejoin="round" stroke-miterlimit="10" x1="148.667" y1="288.892" x2="148.667" y2="301.823"/>
			
				<line fill="none" stroke="#231F20" stroke-width="3.2" stroke-linejoin="round" stroke-miterlimit="10" x1="159.445" y1="288.892" x2="159.445" y2="301.823"/>
			
				<line fill="none" stroke="#231F20" stroke-width="3.2" stroke-linejoin="round" stroke-miterlimit="10" x1="170.222" y1="288.892" x2="170.222" y2="301.823"/>
			
				<line fill="none" stroke="#231F20" stroke-width="3.2" stroke-linejoin="round" stroke-miterlimit="10" x1="181" y1="288.892" x2="181" y2="301.823"/>
			
				<line fill="none" stroke="#231F20" stroke-width="3.2" stroke-linejoin="round" stroke-miterlimit="10" x1="191.777" y1="288.892" x2="191.777" y2="301.823"/>
			
				<line fill="none" stroke="#231F20" stroke-width="3.2" stroke-linejoin="round" stroke-miterlimit="10" x1="220.875" y1="295.356" x2="227.341" y2="295.356"/>
			
				<line fill="none" stroke="#231F20" stroke-width="3.2" stroke-linejoin="round" stroke-miterlimit="10" x1="249.974" y1="295.356" x2="256.44" y2="295.356"/>
			<rect x="256.44" y="247.938" fill="#A7A9AC" width="4.31" height="14.011"/>
			<rect x="245.663" y="247.938" fill="#3B9ADA" width="4.311" height="14.011"/>
			<rect x="234.886" y="247.938" fill="#07335B" width="4.311" height="14.011"/>
			<rect x="224.107" y="247.938" fill="#3B9ADA" width="4.312" height="14.011"/>
			<rect x="213.331" y="247.938" fill="#001382" width="4.311" height="14.011"/>
			
				<line fill="none" stroke="#231F20" stroke-width="3.2" stroke-linejoin="round" stroke-miterlimit="10" x1="141.124" y1="249.015" x2="204.708" y2="249.015"/>
			
				<line fill="none" stroke="#231F20" stroke-width="3.2" stroke-linejoin="round" stroke-miterlimit="10" x1="141.124" y1="259.792" x2="204.708" y2="259.792"/>
		</g>
		<g>
			<path fill="#07335B" stroke="#231F20" stroke-width="3.2" stroke-linejoin="round" stroke-miterlimit="10" d="M88.38,304.752
				c-11.489,0-20.803,9.313-20.803,20.804c0,6.266,2.773,11.879,7.155,15.692c2.411-2.405,6.324-4.229,8.181-5.054
				c1.735-0.771,2.288-2.141,2.444-3.066c-2.063-1.462-3.509-3.87-3.509-5.747v-8.76c0,0-0.833-7.3,6.467-7.3
				c7.299,0,6.466,7.3,6.466,7.3v8.76c0,1.877-1.017,4.285-3.079,5.747c0.155,0.926,0.917,2.296,2.65,3.066
				c1.771,0.785,5.52,2.479,7.945,4.72c4.162-3.804,6.829-9.274,6.829-15.358C109.127,314.065,99.869,304.752,88.38,304.752z"/>
			<path fill="none" stroke="#231F20" stroke-width="3.2" stroke-linejoin="round" stroke-miterlimit="10" d="M92.625,333.128
				c0-0.004,0-0.007,0-0.009c0,0.002-0.685,0.005-0.685,0.009c2.063-1.462,2.841-3.87,2.841-5.747v-8.76c0,0,0.833-7.3-6.466-7.3
				c-7.3,0-6.467,7.3-6.467,7.3v8.76c0,1.877,1.446,4.285,3.509,5.747c0-0.004-0.009-0.007-0.006-0.009
				c-0.002,0.002-0.006,0.005-0.006,0.009c-0.158,0.926-0.695,2.296-2.429,3.066c-1.857,0.824-5.771,2.647-8.184,5.054
				c3.653,3.181,8.426,5.112,13.648,5.112c5.408,0,10.331-2.066,14.029-5.446c-2.425-2.239-5.824-3.935-7.595-4.72
				C93.081,335.424,92.625,334.054,92.625,333.128z"/>
		</g>
		<g>
			<path fill="#07335B" stroke="#231F20" stroke-width="3.2" stroke-linejoin="round" stroke-miterlimit="10" d="M192.213,58.671
				c-11.881,0-21.51,9.633-21.51,21.513c0,6.477,2.867,12.283,7.398,16.228c2.492-2.488,6.539-4.374,8.459-5.227
				c1.795-0.798,2.291-2.214,2.453-3.171c-2.133-1.511-3.703-4.002-3.703-5.943v-9.058c0,0-0.542-7.548,7.005-7.548
				c7.549,0,7.005,7.548,7.005,7.548v9.058c0,1.941-1.294,4.433-3.428,5.943c0.162,0.957,0.826,2.373,2.618,3.171
				c1.831,0.813,5.646,2.564,8.155,4.879c4.302-3.932,7.03-9.59,7.03-15.88C213.696,68.304,204.092,58.671,192.213,58.671z"/>
			<path fill="none" stroke="#231F20" stroke-width="3.2" stroke-linejoin="round" stroke-miterlimit="10" d="M196.112,88.014
				c0-0.004-0.001-0.007-0.001-0.01c0,0.003-0.218,0.006-0.218,0.01c2.133-1.511,3.428-4.002,3.428-5.943v-9.058
				c0,0,0.543-7.548-7.005-7.548c-7.547,0-7.005,7.548-7.005,7.548v9.058c0,1.941,1.569,4.433,3.703,5.943
				c0-0.004,0.03-0.007,0.031-0.01c-0.001,0.003,0.012,0.006,0.012,0.01c-0.162,0.957-0.71,2.373-2.503,3.171
				c-1.919,0.853-5.961,2.738-8.456,5.227c3.778,3.287,8.713,5.285,14.116,5.285c5.59,0,10.683-2.137,14.507-5.633
				c-2.506-2.314-6.269-4.066-8.099-4.879C196.829,90.387,196.273,88.971,196.112,88.014z"/>
		</g>
		<g>
			
				<rect x="53.828" y="79.813" fill="#FFFFFF" stroke="#231F20" stroke-width="3.2" stroke-linejoin="round" stroke-miterlimit="10" width="77.597" height="61.431"/>
			<rect x="60.294" y="86.278" fill="#D1D3D4" width="63.585" height="47.42"/>
			<polyline fill="none" stroke="#231F20" stroke-width="3.2" stroke-linejoin="round" stroke-miterlimit="10" points="
				59.961,117.78 86.391,104.054 112.241,118.949 			"/>
			<polyline fill="none" stroke="#231F20" stroke-width="3.2" stroke-linejoin="round" stroke-miterlimit="10" points="
				101.183,112.577 110.78,104.054 123.923,112.577 			"/>
			<circle fill="#FFFFFF" cx="97.783" cy="95.729" r="5.988"/>
		</g>
		<g>
			<polyline fill="none" stroke="#231F20" stroke-width="3.2" stroke-linejoin="round" stroke-miterlimit="10" points="
				69.994,161.719 148.667,161.719 148.667,212.372 			"/>
			<polygon fill="#07335B" stroke="#231F20" stroke-width="3.2" stroke-linejoin="round" stroke-miterlimit="10" points="
				142.201,168.187 58.139,168.187 58.139,223.149 102.326,223.149 102.326,243.627 122.802,223.149 142.201,223.149 			"/>
			<polygon fill="#18AFFE" points="47.362,208.062 92.625,208.062 92.625,238.237 69.994,238.237 69.994,248.871 57.855,238.237 
				47.362,238.237 			"/>
			
				<line fill="none" stroke="#FFFFFF" stroke-width="3.2" stroke-linejoin="round" stroke-miterlimit="10" x1="68.917" y1="191.896" x2="132.501" y2="191.896"/>
			
				<line fill="none" stroke="#FFFFFF" stroke-width="3.2" stroke-linejoin="round" stroke-miterlimit="10" x1="68.917" y1="180.04" x2="132.501" y2="180.04"/>
			
				<line fill="none" stroke="#FFFFFF" stroke-width="3.2" stroke-linejoin="round" stroke-miterlimit="10" x1="68.917" y1="202.673" x2="132.501" y2="202.673"/>
			
				<line fill="none" stroke="#231F20" stroke-width="3.2" stroke-linejoin="round" stroke-miterlimit="10" x1="68.917" y1="216.685" x2="85.082" y2="216.685"/>
			
				<line fill="none" stroke="#FFFFFF" stroke-width="3.2" stroke-linejoin="round" stroke-miterlimit="10" x1="92.625" y1="213.45" x2="108.792" y2="213.45"/>
			
				<line fill="none" stroke="#FFFFFF" stroke-width="3.2" stroke-linejoin="round" stroke-miterlimit="10" x1="116.336" y1="213.45" x2="132.501" y2="213.45"/>
			
				<line fill="none" stroke="#231F20" stroke-width="3.2" stroke-linejoin="round" stroke-miterlimit="10" x1="85.082" y1="227.46" x2="53.828" y2="227.46"/>
		</g>
		<g>
			<polyline fill="none" stroke="#231F20" stroke-width="3.2" stroke-linejoin="round" stroke-miterlimit="10" points="
				600.233,133.698 678.907,133.698 678.907,184.352 			"/>
			<polygon fill="#D1D3D4" stroke="#231F20" stroke-width="3.2" stroke-linejoin="round" stroke-miterlimit="10" points="
				672.44,140.165 588.378,140.165 588.378,195.128 632.564,195.128 632.564,215.604 653.042,195.128 672.44,195.128 			"/>
			<polygon fill="#07335B" stroke="#231F20" stroke-width="3.2" stroke-linejoin="round" stroke-miterlimit="10" points="
				577.602,180.04 622.866,180.04 622.866,210.218 600.233,210.218 600.233,220.851 588.095,210.218 577.602,210.218 			"/>
			
				<line fill="none" stroke="#231F20" stroke-width="3.2" stroke-linejoin="round" stroke-miterlimit="10" x1="599.155" y1="163.875" x2="662.741" y2="163.875"/>
			
				<line fill="none" stroke="#231F20" stroke-width="3.2" stroke-linejoin="round" stroke-miterlimit="10" x1="599.155" y1="152.02" x2="662.741" y2="152.02"/>
			
				<line fill="none" stroke="#231F20" stroke-width="3.2" stroke-linejoin="round" stroke-miterlimit="10" x1="599.155" y1="174.652" x2="662.741" y2="174.652"/>
			
				<line fill="none" stroke="#F1F2F2" stroke-width="3.2" stroke-linejoin="round" stroke-miterlimit="10" x1="599.155" y1="188.662" x2="615.321" y2="188.662"/>
			
				<line fill="none" stroke="#231F20" stroke-width="3.2" stroke-linejoin="round" stroke-miterlimit="10" x1="622.866" y1="185.429" x2="639.031" y2="185.429"/>
			
				<line fill="none" stroke="#231F20" stroke-width="3.2" stroke-linejoin="round" stroke-miterlimit="10" x1="646.575" y1="185.429" x2="662.741" y2="185.429"/>
			
				<line fill="none" stroke="#F1F2F2" stroke-width="3.2" stroke-linejoin="round" stroke-miterlimit="10" x1="615.321" y1="199.439" x2="584.067" y2="199.439"/>
		</g>
		<g>
			<g>
				
					<rect x="514.016" y="47.48" fill="none" stroke="#FFFFFF" stroke-width="3.2" stroke-linejoin="round" stroke-miterlimit="10" width="29.099" height="26.943"/>
				
					<line fill="none" stroke="#231F20" stroke-width="3.2" stroke-linejoin="round" stroke-miterlimit="10" x1="501.082" y1="69.036" x2="411.632" y2="69.036"/>
				
					<line fill="none" stroke="#231F20" stroke-width="3.2" stroke-linejoin="round" stroke-miterlimit="10" x1="501.082" y1="52.869" x2="456.896" y2="52.869"/>
			</g>
			
				<line fill="none" stroke="#FFFFFF" stroke-width="3.2" stroke-linejoin="round" stroke-miterlimit="10" x1="542.962" y1="74.62" x2="513.814" y2="46.932"/>
		</g>
		<g>
			<g>
				<g>
					
						<rect x="248.896" y="51.792" fill="none" stroke="#231F20" stroke-width="3.2" stroke-linejoin="round" stroke-miterlimit="10" width="29.098" height="26.943"/>
					
						<line fill="none" stroke="#231F20" stroke-width="3.2" stroke-linejoin="round" stroke-miterlimit="10" x1="290.927" y1="57.181" x2="335.113" y2="57.181"/>
					
						<line fill="none" stroke="#231F20" stroke-width="3.2" stroke-linejoin="round" stroke-miterlimit="10" x1="290.927" y1="73.346" x2="352.357" y2="73.346"/>
				</g>
				
					<line fill="none" stroke="#231F20" stroke-width="3.2" stroke-linejoin="round" stroke-miterlimit="10" x1="249.049" y1="51.243" x2="278.195" y2="78.932"/>
			</g>
			
				<line fill="none" stroke="#231F20" stroke-width="3.2" stroke-linejoin="round" stroke-miterlimit="10" x1="340.502" y1="57.181" x2="352.357" y2="57.181"/>
		</g>
		<g>
			<g>
				<rect x="21.497" y="267.337" fill="#FFFFFF" width="23.708" height="21.555"/>
				
					<line fill="none" stroke="#231F20" stroke-width="3.2" stroke-linejoin="round" stroke-miterlimit="10" x1="54.906" y1="271.647" x2="98.015" y2="271.647"/>
				
					<line fill="none" stroke="#231F20" stroke-width="3.2" stroke-linejoin="round" stroke-miterlimit="10" x1="54.906" y1="284.579" x2="115.258" y2="284.579"/>
			</g>
			
				<line fill="none" stroke="#231F20" stroke-width="3.2" stroke-linejoin="round" stroke-miterlimit="10" x1="21.904" y1="267.865" x2="45.171" y2="289.969"/>
		</g>
		<g>
			
				<line fill="none" stroke="#231F20" stroke-width="3.2" stroke-linejoin="round" stroke-miterlimit="10" x1="379.068" y1="68.938" x2="390.457" y2="80.327"/>
			
				<line fill="none" stroke="#231F20" stroke-width="3.2" stroke-linejoin="round" stroke-miterlimit="10" x1="379.068" y1="80.327" x2="390.457" y2="68.938"/>
		</g>
		<g>
			<path fill="none" stroke="#231F20" stroke-width="3.2" stroke-linejoin="round" stroke-miterlimit="10" d="M27.265,190.255"/>
			<path fill="none" stroke="#231F20" stroke-width="3.2" stroke-linejoin="round" stroke-miterlimit="10" d="M27.265,178.866"/>
		</g>
		<g>
			<path fill="none" stroke="#231F20" stroke-width="3.2" stroke-linejoin="round" stroke-miterlimit="10" d="M153.359,52.306"/>
			<path fill="none" stroke="#231F20" stroke-width="3.2" stroke-linejoin="round" stroke-miterlimit="10" d="M141.97,52.306"/>
		</g>
		<g>
			<path fill="none" stroke="#231F20" stroke-width="3.2" stroke-linejoin="round" stroke-miterlimit="10" d="M673.898,66.316"/>
			<path fill="none" stroke="#231F20" stroke-width="3.2" stroke-linejoin="round" stroke-miterlimit="10" d="M662.511,66.316"/>
		</g>
	</g>
</g>
<g id="Layer_2">
</g>
</svg>
