<?xml version="1.0" encoding="utf-8"?>
<!-- Generator: Adobe Illustrator 16.0.0, SVG Export Plug-In . SVG Version: 6.00 Build 0)  -->
<!DOCTYPE svg PUBLIC "-//W3C//DTD SVG 1.1//EN" "http://www.w3.org/Graphics/SVG/1.1/DTD/svg11.dtd">
<svg version="1.1" id="Layer_1" xmlns="http://www.w3.org/2000/svg" xmlns:xlink="http://www.w3.org/1999/xlink" x="0px" y="0px"
	 width="2500px" height="2000px" viewBox="0 0 2500 2000" enable-background="new 0 0 2500 2000" xml:space="preserve">
<g opacity="0.1">
	<image display="none" overflow="visible" width="2503" height="2000" xlink:href="3F10D109.png" >
	</image>
	<g>
		<defs>
			<rect id="SVGID_1_" x="1110.473" width="1391.667" height="2000"/>
		</defs>
		<clipPath id="SVGID_2_">
			<use xlink:href="#SVGID_1_"  overflow="visible"/>
		</clipPath>
		<g clip-path="url(#SVGID_2_)">
			<path fill="#FFFFFF" d="M2054.639,1683.9c-7.309,0-14.688-0.125-21.938-0.371l0.898-26.496
				c14.139,0.471,28.666,0.466,42.799-0.025l0.932,26.495C2069.834,1683.767,2062.2,1683.9,2054.639,1683.9z M1988.193,1680.491
				c-14.754-1.523-29.627-3.586-44.206-6.132l4.557-26.116c13.976,2.438,28.231,4.414,42.372,5.873L1988.193,1680.491z
				 M2121.83,1680.409l-2.745-26.366c14.124-1.472,28.373-3.466,42.359-5.926l4.591,26.117
				C2151.441,1676.797,2136.57,1678.877,2121.83,1680.409z M1900.314,1665.154c-14.396-3.568-28.837-7.689-42.922-12.251
				l8.168-25.228c13.499,4.372,27.338,8.324,41.132,11.742L1900.314,1665.154z M2209.698,1664.978l-6.413-25.728
				c13.792-3.436,27.627-7.405,41.121-11.79l8.199,25.21C2238.524,1657.253,2224.085,1661.392,2209.698,1664.978z
				 M1815.376,1637.645c-13.737-5.545-27.474-11.66-40.823-18.172l11.626-23.829c12.792,6.24,25.956,12.101,39.122,17.412
				L1815.376,1637.645z M2294.541,1637.386l-9.951-24.571c13.148-5.325,26.276-11.186,39.02-17.421l11.65,23.82
				C2321.961,1625.717,2308.264,1631.832,2294.541,1637.386z M1735.113,1598.487c-12.81-7.4-25.549-15.366-37.867-23.674
				l14.828-21.981c11.811,7.97,24.023,15.604,36.3,22.698L1735.113,1598.487z M2374.611,1598.229l-13.282-22.949
				c12.255-7.09,24.446-14.724,36.24-22.693l14.845,21.965C2400.115,1582.866,2387.393,1590.832,2374.611,1598.229z
				 M1661.13,1548.56c-11.688-9.131-23.194-18.789-34.203-28.697l17.74-19.703c10.551,9.498,21.583,18.754,32.788,27.506
				L1661.13,1548.56z M2448.485,1548.292l-16.338-20.878c11.173-8.742,22.193-17.999,32.757-27.519l17.745,19.695
				C2471.633,1529.521,2460.137,1539.178,2448.485,1548.292z M1594.809,1488.879c-10.306-10.659-20.362-21.806-29.893-33.133
				l20.29-17.072c9.138,10.866,18.78,21.556,28.662,31.77L1594.809,1488.879z M2514.751,1488.581l-19.073-18.418
				c9.881-10.231,19.522-20.929,28.648-31.795l20.3,17.054C2535.106,1466.754,2525.056,1477.909,2514.751,1488.581z
				 M1537.401,1420.61c-8.722-11.971-17.134-24.398-25.003-36.938l22.457-14.094c7.545,12.022,15.61,23.941,23.976,35.42
				L1537.401,1420.61z M2572.141,1420.248l-21.438-15.596c8.38-11.521,16.44-23.453,23.962-35.467l22.475,14.067
				C2589.293,1395.789,2580.883,1408.234,2572.141,1420.248z M1490.034,1345.08c-6.978-13.071-13.576-26.548-19.611-40.055
				l24.205-10.814c5.784,12.941,12.108,25.857,18.795,38.381L1490.034,1345.08z M2619.509,1344.584l-23.405-12.463
				c6.688-12.563,13.015-25.504,18.793-38.471l24.218,10.797C2633.081,1317.976,2626.483,1331.479,2619.509,1344.584z
				 M1453.671,1263.719c-5.092-13.942-9.743-28.222-13.828-42.445l25.482-7.318c3.914,13.628,8.371,27.312,13.25,40.667
				L1453.671,1263.719z M2655.866,1263.012l-24.917-9.063c4.863-13.369,9.308-27.062,13.201-40.685l25.494,7.284
				C2665.575,1234.772,2660.94,1249.06,2655.866,1263.012z M1429.029,1177.97c-3.079-14.486-5.686-29.275-7.746-43.951l26.254-3.686
				c1.977,14.067,4.473,28.239,7.427,42.122L1429.029,1177.97z M2680.395,1177.236l-25.936-5.498
				c2.93-13.826,5.411-28.002,7.375-42.121l26.263,3.65C2686.043,1148.008,2683.453,1162.797,2680.395,1177.236z M1416.618,1089.64
				c-1.033-14.75-1.566-29.754-1.581-44.597l26.513-0.025c0.016,14.233,0.524,28.625,1.517,42.767L1416.618,1089.64z
				 M2692.71,1088.885l-26.453-1.821c0.976-14.142,1.468-28.528,1.468-42.763v-1.449h26.513v1.449
				C2694.237,1059.139,2693.724,1074.139,2692.71,1088.885z M1442.972,1002.246l-26.452-1.791
				c1.003-14.814,2.537-29.75,4.559-44.392l26.263,3.629C1445.403,973.726,1443.932,988.042,1442.972,1002.246z M2666.162,1000.114
				c-1.014-14.184-2.533-28.498-4.522-42.54l26.255-3.715c2.07,14.646,3.654,29.574,4.712,44.37L2666.162,1000.114z
				 M1454.67,917.547l-25.947-5.455c3.051-14.508,6.654-29.087,10.713-43.332l25.499,7.263
				C1461.046,889.675,1457.592,903.646,1454.67,917.547z M2654.17,915.461c-2.974-13.899-6.478-27.857-10.413-41.487l25.478-7.354
				c4.104,14.226,7.76,28.79,10.862,43.291L2654.17,915.461z M1478.085,835.321l-24.925-9.036
				c5.055-13.947,10.674-27.896,16.698-41.455l24.23,10.767C1488.314,808.59,1482.932,821.955,1478.085,835.321z M2630.461,833.319
				c-4.889-13.334-10.309-26.647-16.104-39.571l24.192-10.849c6.05,13.485,11.703,27.379,16.804,41.293L2630.461,833.319z
				 M1512.841,757.104l-23.415-12.441c6.954-13.086,14.465-26.103,22.323-38.687l22.487,14.042
				C1526.703,732.082,1519.506,744.558,1512.841,757.104z M2595.517,755.385c-6.676-12.48-13.9-24.917-21.478-36.965l22.448-14.111
				c7.901,12.568,15.44,25.545,22.409,38.566L2595.517,755.385z M1558.162,684.521l-21.455-15.578
				c8.701-11.984,17.942-23.825,27.467-35.194l20.324,17.024C1575.365,661.676,1566.504,673.031,1558.162,684.521z
				 M2550.024,683.032c-8.372-11.463-17.257-22.783-26.414-33.644l20.273-17.089c9.55,11.332,18.819,23.139,27.553,35.094
				L2550.024,683.032z M1613.104,618.948l-19.091-18.396c10.279-10.668,21.065-21.113,32.063-31.044l17.771,19.673
				C1633.305,598.705,1622.961,608.72,1613.104,618.948z M2494.918,617.648c-9.882-10.197-20.252-20.18-30.829-29.676l17.71-19.729
				c11.035,9.905,21.854,20.32,32.158,30.958L2494.918,617.648z M1676.572,561.627l-16.364-20.86
				c11.658-9.144,23.784-17.993,36.042-26.299l14.875,21.947C1699.372,544.379,1687.748,552.861,1676.572,561.627z
				 M2431.264,560.499c-11.212-8.741-22.867-17.194-34.652-25.126l14.81-21.995c12.29,8.277,24.45,17.095,36.146,26.213
				L2431.264,560.499z M1747.334,513.674l-13.308-22.932c12.812-7.435,26.045-14.51,39.332-21.026l11.672,23.803
				C1772.299,499.765,1759.616,506.545,1747.334,513.674z M2360.28,512.713c-12.315-7.101-25.042-13.85-37.819-20.066l11.6-23.842
				c13.334,6.486,26.607,13.531,39.459,20.938L2360.28,512.713z M1824.028,476.059l-9.978-24.563
				c13.742-5.582,27.848-10.743,41.922-15.336l8.225,25.206C1850.712,465.767,1837.196,470.71,1824.028,476.059z M2283.325,475.28
				c-13.209-5.31-26.759-10.214-40.278-14.577l8.139-25.231c14.111,4.551,28.252,9.668,42.031,15.211L2283.325,475.28z
				 M1905.301,449.527l-6.435-25.72c14.364-3.594,29.049-6.725,43.649-9.31l4.621,26.107
				C1933.143,443.082,1919.066,446.083,1905.301,449.527z M2201.896,449.011c-13.792-3.398-27.876-6.35-41.862-8.773l4.521-26.125
				c14.6,2.529,29.297,5.61,43.685,9.157L2201.896,449.011z M1989.492,434.635l-2.783-26.367c14.695-1.551,29.67-2.609,44.506-3.144
				l0.953,26.496C2017.94,432.134,2003.584,433.148,1989.492,434.635z M2117.661,434.41c-14.106-1.439-28.468-2.403-42.687-2.865
				l0.862-26.5c14.827,0.483,29.806,1.489,44.517,2.991L2117.661,434.41z"/>
			<path fill="#FFFFFF" d="M2055.242,1955.808h-0.604c-383.623,0-728.461-242.455-858.082-603.318l35.558-12.773
				c124.25,345.901,454.796,578.308,822.523,578.308h0.604V1955.808z M2362.252,1902.592l-12.747-35.567
				c346.229-124.108,578.854-454.733,578.854-822.724l-0.004-2.397h37.785l0.004,2.296
				C2966.145,1428.197,2723.461,1773.119,2362.252,1902.592z M1180.923,1045.507h-37.785l-0.002-1.003
				c-0.002-191.563,58.641-374.713,169.585-529.851c108.558-151.802,258.343-265.301,433.152-328.227l12.8,35.549
				c-345.573,124.395-577.755,454.861-577.755,822.325L1180.923,1045.507z M2876.767,747.781
				c-124.544-345.242-454.933-577.2-822.128-577.2l-1.731,0.002l-0.136-37.785l1.867-0.002
				c191.252,0,374.315,58.583,529.403,169.412c151.743,108.444,265.257,258.085,328.265,432.752L2876.767,747.781z"/>
			<path fill="#FFFFFF" d="M2054.639,1423.32c-208.993,0-379.022-170.027-379.022-379.02c0-208.993,170.029-379.021,379.022-379.021
				c208.992,0,379.02,170.029,379.02,379.021C2433.658,1253.293,2263.631,1423.32,2054.639,1423.32z M2054.639,680.991
				c-200.33,0-363.311,162.98-363.311,363.31c0,200.332,162.98,363.313,363.311,363.313c200.331,0,363.312-162.98,363.312-363.313
				C2417.95,843.971,2254.97,680.991,2054.639,680.991z"/>
			<path fill="#FFFFFF" d="M2055.048,1936.881l-0.409-0.005c-190.04,0-371.483-58.942-524.718-170.454l130.003-178.645
				c115.212,83.842,251.701,128.155,394.715,128.155l3.449,0.057l-3.047,97.513L2055.048,1936.881z M2776.483,1569.398
				L2597.906,1439.3c83.977-115.271,128.363-251.858,128.363-394.999v-1.636h220.944v1.636
				C2947.214,1234.509,2888.176,1416.084,2776.483,1569.398z M1383.008,1045.119h-220.943v-0.818
				c0-189.874,58.848-371.189,170.179-524.342l178.714,129.912c-83.704,115.149-127.949,251.541-127.949,394.43V1045.119z
				 M2448.783,500.417c-115.09-83.572-251.384-127.746-394.145-127.746l-1.229,0.002V151.729l1.229-0.002
				c189.702,0,370.89,58.753,523.966,169.906L2448.783,500.417z"/>
			<path fill="#FFFFFF" d="M2054.639,1828.614c-432.472,0-784.312-351.84-784.312-784.313c0-432.471,351.84-784.311,784.312-784.311
				c432.473,0,784.313,351.84,784.313,784.311C2838.951,1476.774,2487.111,1828.614,2054.639,1828.614z M2054.639,264.409
				c-430.033,0-779.893,349.859-779.893,779.892c0,430.035,349.859,779.895,779.893,779.895
				c430.034,0,779.894-349.859,779.894-779.895C2834.532,614.268,2484.673,264.409,2054.639,264.409z"/>
			<path fill="#FFFFFF" d="M2149.331,1336.531l-13.61-42.04c108.763-35.222,181.843-135.764,181.843-250.19v-0.928h44.188v0.928
				C2361.752,1177.948,2276.387,1295.389,2149.331,1336.531z M1791.72,1044.768l-44.189-0.089
				c-0.004-133.796,85.17-251.173,211.938-292.453l13.684,42.018c-108.523,35.338-181.438,135.829-181.438,250.057h-0.002
				L1791.72,1044.768z"/>
			<path fill="#FFFFFF" d="M2054.639,1209.265c-90.961,0-164.964-74.004-164.964-164.964s74.003-164.963,164.964-164.963
				c90.96,0,164.963,74.003,164.963,164.963S2145.599,1209.265,2054.639,1209.265z M2054.639,886.177
				c-87.191,0-158.124,70.933-158.124,158.124c0,87.193,70.933,158.128,158.124,158.128c87.192,0,158.127-70.935,158.127-158.128
				C2212.766,957.11,2141.831,886.177,2054.639,886.177z"/>
		</g>
	</g>
	<g opacity="0.6">
		<path fill="#FFFFFF" d="M2501.14,1v1998H1V1H2501.14 M2502.14,0H0v2000h2502.14V0L2502.14,0z"/>
		<rect y="1749.5" fill="#FFFFFF" width="2502.14" height="1"/>
		<rect y="1499.5" fill="#FFFFFF" width="2502.14" height="1"/>
		<rect y="1249.5" fill="#FFFFFF" width="2502.14" height="1"/>
		<rect y="999.5" fill="#FFFFFF" width="2502.14" height="1"/>
		<rect y="749.5" fill="#FFFFFF" width="2502.14" height="1"/>
		<rect y="499.5" fill="#FFFFFF" width="2502.14" height="1"/>
		<rect y="249.5" fill="#FFFFFF" width="2502.14" height="1"/>
		<rect x="2188.872" fill="#FFFFFF" width="1" height="2000"/>
		<rect x="1876.104" fill="#FFFFFF" width="1" height="2000"/>
		<rect x="1563.337" fill="#FFFFFF" width="1" height="2000"/>
		<rect x="1250.57" fill="#FFFFFF" width="1" height="2000"/>
		<rect x="937.802" fill="#FFFFFF" width="1" height="2000"/>
		<rect x="625.035" fill="#FFFFFF" width="1" height="2000"/>
		<rect x="312.268" fill="#FFFFFF" width="1" height="2000"/>
	</g>
	<g>
		<polygon opacity="0.7" fill="#FFFFFF" points="2502.14,1087.299 1500.932,1087.299 1103.421,689.787 448.014,689.787 
			224.845,912.954 0,912.954 0,909.621 223.465,909.621 446.633,686.453 1104.801,686.453 1502.313,1083.965 2502.14,1083.965 		"/>
		<polygon opacity="0.7" fill="#FFFFFF" points="90.802,1407.891 0,1407.891 0,1404.558 89.422,1404.558 403.456,1090.524 
			778.256,1090.524 889.813,1202.08 1345.909,1202.08 1608.396,939.591 2499.041,939.591 2499.041,942.925 1609.776,942.925 
			1347.289,1205.413 888.432,1205.413 776.876,1093.857 404.837,1093.857 		"/>
		<polygon opacity="0.7" fill="#FFFFFF" points="776.07,1226.657 0,1226.657 0,1223.324 774.69,1223.324 978.427,1019.588 
			2502.14,1019.588 2502.14,1022.922 979.807,1022.922 		"/>
	</g>
	<g>
		<defs>
			<filter id="Adobe_OpacityMaskFilter" filterUnits="userSpaceOnUse" x="947.753" y="605.094" width="162.72" height="162.72">
				<feColorMatrix  type="matrix" values="1 0 0 0 0  0 1 0 0 0  0 0 1 0 0  0 0 0 1 0"/>
			</filter>
		</defs>
		<mask maskUnits="userSpaceOnUse" x="947.753" y="605.094" width="162.72" height="162.72" id="SVGID_3_">
			<g filter="url(#Adobe_OpacityMaskFilter)">
				<defs>
					
						<filter id="Adobe_OpacityMaskFilter_1_" filterUnits="userSpaceOnUse" x="947.753" y="605.094" width="162.72" height="162.72">
						<feFlood  style="flood-color:white;flood-opacity:1" result="back"/>
						<feBlend  in="SourceGraphic" in2="back" mode="normal"/>
					</filter>
				</defs>
				<mask maskUnits="userSpaceOnUse" x="947.753" y="605.094" width="162.72" height="162.72" id="SVGID_3_">
					<g filter="url(#Adobe_OpacityMaskFilter_1_)">
					</g>
				</mask>
				<radialGradient id="SVGID_4_" cx="1029.1133" cy="686.4536" r="81.3599" gradientUnits="userSpaceOnUse">
					<stop  offset="0" style="stop-color:#FFFFFF"/>
					<stop  offset="0.0362" style="stop-color:#E0E0E0"/>
					<stop  offset="0.0987" style="stop-color:#B2B2B2"/>
					<stop  offset="0.1669" style="stop-color:#878787"/>
					<stop  offset="0.2393" style="stop-color:#636363"/>
					<stop  offset="0.3169" style="stop-color:#444444"/>
					<stop  offset="0.4013" style="stop-color:#2B2B2B"/>
					<stop  offset="0.4954" style="stop-color:#181818"/>
					<stop  offset="0.6044" style="stop-color:#0A0A0A"/>
					<stop  offset="0.7417" style="stop-color:#020202"/>
					<stop  offset="1" style="stop-color:#000000"/>
				</radialGradient>
				<circle mask="url(#SVGID_3_)" fill="url(#SVGID_4_)" cx="1029.113" cy="686.453" r="81.36"/>
			</g>
		</mask>
		<g>
			<defs>
				<filter id="Adobe_OpacityMaskFilter_2_" filterUnits="userSpaceOnUse" x="947.753" y="605.094" width="162.72" height="162.72">
					<feFlood  style="flood-color:white;flood-opacity:1" result="back"/>
					<feBlend  in="SourceGraphic" in2="back" mode="normal"/>
				</filter>
			</defs>
			<mask maskUnits="userSpaceOnUse" x="947.753" y="605.094" width="162.72" height="162.72" id="SVGID_5_">
				<g filter="url(#Adobe_OpacityMaskFilter_2_)">
					<defs>
						
							<filter id="Adobe_OpacityMaskFilter_3_" filterUnits="userSpaceOnUse" x="947.753" y="605.094" width="162.72" height="162.72">
							<feFlood  style="flood-color:white;flood-opacity:1" result="back"/>
							<feBlend  in="SourceGraphic" in2="back" mode="normal"/>
						</filter>
					</defs>
					<mask maskUnits="userSpaceOnUse" x="947.753" y="605.094" width="162.72" height="162.72" id="SVGID_5_">
						<g filter="url(#Adobe_OpacityMaskFilter_3_)">
						</g>
					</mask>
					<radialGradient id="SVGID_6_" cx="1029.1133" cy="686.4536" r="81.3599" gradientUnits="userSpaceOnUse">
						<stop  offset="0" style="stop-color:#FFFFFF"/>
						<stop  offset="0.0362" style="stop-color:#E0E0E0"/>
						<stop  offset="0.0987" style="stop-color:#B2B2B2"/>
						<stop  offset="0.1669" style="stop-color:#878787"/>
						<stop  offset="0.2393" style="stop-color:#636363"/>
						<stop  offset="0.3169" style="stop-color:#444444"/>
						<stop  offset="0.4013" style="stop-color:#2B2B2B"/>
						<stop  offset="0.4954" style="stop-color:#181818"/>
						<stop  offset="0.6044" style="stop-color:#0A0A0A"/>
						<stop  offset="0.7417" style="stop-color:#020202"/>
						<stop  offset="1" style="stop-color:#000000"/>
					</radialGradient>
					<circle mask="url(#SVGID_5_)" fill="url(#SVGID_6_)" cx="1029.113" cy="686.453" r="81.36"/>
				</g>
			</mask>
			<radialGradient id="SVGID_7_" cx="1029.1133" cy="686.4536" r="81.3599" gradientUnits="userSpaceOnUse">
				<stop  offset="0" style="stop-color:#FFFFFF"/>
				<stop  offset="0.0362" style="stop-color:#E0EEF7"/>
				<stop  offset="0.0987" style="stop-color:#B2D4EB"/>
				<stop  offset="0.1669" style="stop-color:#87BCE0"/>
				<stop  offset="0.2393" style="stop-color:#63A8D6"/>
				<stop  offset="0.3169" style="stop-color:#4497CE"/>
				<stop  offset="0.4013" style="stop-color:#2B89C7"/>
				<stop  offset="0.4954" style="stop-color:#187EC2"/>
				<stop  offset="0.6044" style="stop-color:#0A77BF"/>
				<stop  offset="0.7417" style="stop-color:#0272BD"/>
				<stop  offset="1" style="stop-color:#0071BC"/>
			</radialGradient>
			<circle fill="url(#SVGID_7_)" cx="1029.113" cy="686.453" r="81.36"/>
		</g>
		<defs>
			<filter id="Adobe_OpacityMaskFilter_4_" filterUnits="userSpaceOnUse" x="419.113" y="416.973" width="162.72" height="162.72">
				<feColorMatrix  type="matrix" values="1 0 0 0 0  0 1 0 0 0  0 0 1 0 0  0 0 0 1 0"/>
			</filter>
		</defs>
		<mask maskUnits="userSpaceOnUse" x="419.113" y="416.973" width="162.72" height="162.72" id="SVGID_8_">
			<g filter="url(#Adobe_OpacityMaskFilter_4_)">
				<defs>
					
						<filter id="Adobe_OpacityMaskFilter_5_" filterUnits="userSpaceOnUse" x="419.113" y="416.973" width="162.72" height="162.72">
						<feFlood  style="flood-color:white;flood-opacity:1" result="back"/>
						<feBlend  in="SourceGraphic" in2="back" mode="normal"/>
					</filter>
				</defs>
				<mask maskUnits="userSpaceOnUse" x="419.113" y="416.973" width="162.72" height="162.72" id="SVGID_8_">
					<g filter="url(#Adobe_OpacityMaskFilter_5_)">
					</g>
				</mask>
				<radialGradient id="SVGID_9_" cx="500.4727" cy="498.333" r="81.3604" gradientUnits="userSpaceOnUse">
					<stop  offset="0" style="stop-color:#FFFFFF"/>
					<stop  offset="0.0362" style="stop-color:#E0E0E0"/>
					<stop  offset="0.0987" style="stop-color:#B2B2B2"/>
					<stop  offset="0.1669" style="stop-color:#878787"/>
					<stop  offset="0.2393" style="stop-color:#636363"/>
					<stop  offset="0.3169" style="stop-color:#444444"/>
					<stop  offset="0.4013" style="stop-color:#2B2B2B"/>
					<stop  offset="0.4954" style="stop-color:#181818"/>
					<stop  offset="0.6044" style="stop-color:#0A0A0A"/>
					<stop  offset="0.7417" style="stop-color:#020202"/>
					<stop  offset="1" style="stop-color:#000000"/>
				</radialGradient>
				<circle mask="url(#SVGID_8_)" fill="url(#SVGID_9_)" cx="500.473" cy="498.333" r="81.36"/>
			</g>
		</mask>
		<g>
			<defs>
				<filter id="Adobe_OpacityMaskFilter_6_" filterUnits="userSpaceOnUse" x="419.113" y="416.973" width="162.72" height="162.72">
					<feFlood  style="flood-color:white;flood-opacity:1" result="back"/>
					<feBlend  in="SourceGraphic" in2="back" mode="normal"/>
				</filter>
			</defs>
			<mask maskUnits="userSpaceOnUse" x="419.113" y="416.973" width="162.72" height="162.72" id="SVGID_10_">
				<g filter="url(#Adobe_OpacityMaskFilter_6_)">
					<defs>
						
							<filter id="Adobe_OpacityMaskFilter_7_" filterUnits="userSpaceOnUse" x="419.113" y="416.973" width="162.72" height="162.72">
							<feFlood  style="flood-color:white;flood-opacity:1" result="back"/>
							<feBlend  in="SourceGraphic" in2="back" mode="normal"/>
						</filter>
					</defs>
					<mask maskUnits="userSpaceOnUse" x="419.113" y="416.973" width="162.72" height="162.72" id="SVGID_10_">
						<g filter="url(#Adobe_OpacityMaskFilter_7_)">
						</g>
					</mask>
					<radialGradient id="SVGID_11_" cx="500.4727" cy="498.333" r="81.3604" gradientUnits="userSpaceOnUse">
						<stop  offset="0" style="stop-color:#FFFFFF"/>
						<stop  offset="0.0362" style="stop-color:#E0E0E0"/>
						<stop  offset="0.0987" style="stop-color:#B2B2B2"/>
						<stop  offset="0.1669" style="stop-color:#878787"/>
						<stop  offset="0.2393" style="stop-color:#636363"/>
						<stop  offset="0.3169" style="stop-color:#444444"/>
						<stop  offset="0.4013" style="stop-color:#2B2B2B"/>
						<stop  offset="0.4954" style="stop-color:#181818"/>
						<stop  offset="0.6044" style="stop-color:#0A0A0A"/>
						<stop  offset="0.7417" style="stop-color:#020202"/>
						<stop  offset="1" style="stop-color:#000000"/>
					</radialGradient>
					<circle mask="url(#SVGID_10_)" fill="url(#SVGID_11_)" cx="500.473" cy="498.333" r="81.36"/>
				</g>
			</mask>
			<radialGradient id="SVGID_12_" cx="500.4727" cy="498.333" r="81.3604" gradientUnits="userSpaceOnUse">
				<stop  offset="0" style="stop-color:#FFFFFF"/>
				<stop  offset="0.0362" style="stop-color:#E0EEF7"/>
				<stop  offset="0.0987" style="stop-color:#B2D4EB"/>
				<stop  offset="0.1669" style="stop-color:#87BCE0"/>
				<stop  offset="0.2393" style="stop-color:#63A8D6"/>
				<stop  offset="0.3169" style="stop-color:#4497CE"/>
				<stop  offset="0.4013" style="stop-color:#2B89C7"/>
				<stop  offset="0.4954" style="stop-color:#187EC2"/>
				<stop  offset="0.6044" style="stop-color:#0A77BF"/>
				<stop  offset="0.7417" style="stop-color:#0272BD"/>
				<stop  offset="1" style="stop-color:#0071BC"/>
			</radialGradient>
			<circle fill="url(#SVGID_12_)" cx="500.473" cy="498.333" r="81.36"/>
		</g>
		<defs>
			
				<filter id="Adobe_OpacityMaskFilter_8_" filterUnits="userSpaceOnUse" x="1103.685" y="913.709" width="357.343" height="357.343">
				<feColorMatrix  type="matrix" values="1 0 0 0 0  0 1 0 0 0  0 0 1 0 0  0 0 0 1 0"/>
			</filter>
		</defs>
		<mask maskUnits="userSpaceOnUse" x="1103.685" y="913.709" width="357.343" height="357.343" id="SVGID_13_">
			<g filter="url(#Adobe_OpacityMaskFilter_8_)">
				<defs>
					
						<filter id="Adobe_OpacityMaskFilter_9_" filterUnits="userSpaceOnUse" x="1103.685" y="913.709" width="357.343" height="357.343">
						<feFlood  style="flood-color:white;flood-opacity:1" result="back"/>
						<feBlend  in="SourceGraphic" in2="back" mode="normal"/>
					</filter>
				</defs>
				<mask maskUnits="userSpaceOnUse" x="1103.685" y="913.709" width="357.343" height="357.343" id="SVGID_13_">
					<g filter="url(#Adobe_OpacityMaskFilter_9_)">
					</g>
				</mask>
				<radialGradient id="SVGID_14_" cx="1282.3564" cy="1092.3809" r="178.6719" gradientUnits="userSpaceOnUse">
					<stop  offset="0" style="stop-color:#FFFFFF"/>
					<stop  offset="0.0362" style="stop-color:#E0E0E0"/>
					<stop  offset="0.0987" style="stop-color:#B2B2B2"/>
					<stop  offset="0.1669" style="stop-color:#878787"/>
					<stop  offset="0.2393" style="stop-color:#636363"/>
					<stop  offset="0.3169" style="stop-color:#444444"/>
					<stop  offset="0.4013" style="stop-color:#2B2B2B"/>
					<stop  offset="0.4954" style="stop-color:#181818"/>
					<stop  offset="0.6044" style="stop-color:#0A0A0A"/>
					<stop  offset="0.7417" style="stop-color:#020202"/>
					<stop  offset="1" style="stop-color:#000000"/>
				</radialGradient>
				<circle mask="url(#SVGID_13_)" fill="url(#SVGID_14_)" cx="1282.357" cy="1092.381" r="178.672"/>
			</g>
		</mask>
		<g>
			<defs>
				
					<filter id="Adobe_OpacityMaskFilter_10_" filterUnits="userSpaceOnUse" x="1103.685" y="913.709" width="357.343" height="357.343">
					<feFlood  style="flood-color:white;flood-opacity:1" result="back"/>
					<feBlend  in="SourceGraphic" in2="back" mode="normal"/>
				</filter>
			</defs>
			<mask maskUnits="userSpaceOnUse" x="1103.685" y="913.709" width="357.343" height="357.343" id="SVGID_15_">
				<g filter="url(#Adobe_OpacityMaskFilter_10_)">
					<defs>
						
							<filter id="Adobe_OpacityMaskFilter_11_" filterUnits="userSpaceOnUse" x="1103.685" y="913.709" width="357.343" height="357.343">
							<feFlood  style="flood-color:white;flood-opacity:1" result="back"/>
							<feBlend  in="SourceGraphic" in2="back" mode="normal"/>
						</filter>
					</defs>
					<mask maskUnits="userSpaceOnUse" x="1103.685" y="913.709" width="357.343" height="357.343" id="SVGID_15_">
						<g filter="url(#Adobe_OpacityMaskFilter_11_)">
						</g>
					</mask>
					<radialGradient id="SVGID_16_" cx="1282.3564" cy="1092.3809" r="178.6719" gradientUnits="userSpaceOnUse">
						<stop  offset="0" style="stop-color:#FFFFFF"/>
						<stop  offset="0.0362" style="stop-color:#E0E0E0"/>
						<stop  offset="0.0987" style="stop-color:#B2B2B2"/>
						<stop  offset="0.1669" style="stop-color:#878787"/>
						<stop  offset="0.2393" style="stop-color:#636363"/>
						<stop  offset="0.3169" style="stop-color:#444444"/>
						<stop  offset="0.4013" style="stop-color:#2B2B2B"/>
						<stop  offset="0.4954" style="stop-color:#181818"/>
						<stop  offset="0.6044" style="stop-color:#0A0A0A"/>
						<stop  offset="0.7417" style="stop-color:#020202"/>
						<stop  offset="1" style="stop-color:#000000"/>
					</radialGradient>
					<circle mask="url(#SVGID_15_)" fill="url(#SVGID_16_)" cx="1282.357" cy="1092.381" r="178.672"/>
				</g>
			</mask>
			<radialGradient id="SVGID_17_" cx="1282.3564" cy="1092.3809" r="178.6719" gradientUnits="userSpaceOnUse">
				<stop  offset="0" style="stop-color:#FFFFFF"/>
				<stop  offset="0.0362" style="stop-color:#E0EEF7"/>
				<stop  offset="0.0987" style="stop-color:#B2D4EB"/>
				<stop  offset="0.1669" style="stop-color:#87BCE0"/>
				<stop  offset="0.2393" style="stop-color:#63A8D6"/>
				<stop  offset="0.3169" style="stop-color:#4497CE"/>
				<stop  offset="0.4013" style="stop-color:#2B89C7"/>
				<stop  offset="0.4954" style="stop-color:#187EC2"/>
				<stop  offset="0.6044" style="stop-color:#0A77BF"/>
				<stop  offset="0.7417" style="stop-color:#0272BD"/>
				<stop  offset="1" style="stop-color:#0071BC"/>
			</radialGradient>
			<circle fill="url(#SVGID_17_)" cx="1282.357" cy="1092.381" r="178.672"/>
		</g>
		<defs>
			
				<filter id="Adobe_OpacityMaskFilter_12_" filterUnits="userSpaceOnUse" x="512.666" y="1379.32" width="238.026" height="238.025">
				<feColorMatrix  type="matrix" values="1 0 0 0 0  0 1 0 0 0  0 0 1 0 0  0 0 0 1 0"/>
			</filter>
		</defs>
		<mask maskUnits="userSpaceOnUse" x="512.666" y="1379.32" width="238.026" height="238.025" id="SVGID_18_">
			<g filter="url(#Adobe_OpacityMaskFilter_12_)">
				<defs>
					
						<filter id="Adobe_OpacityMaskFilter_13_" filterUnits="userSpaceOnUse" x="512.666" y="1379.32" width="238.026" height="238.025">
						<feFlood  style="flood-color:white;flood-opacity:1" result="back"/>
						<feBlend  in="SourceGraphic" in2="back" mode="normal"/>
					</filter>
				</defs>
				<mask maskUnits="userSpaceOnUse" x="512.666" y="1379.32" width="238.026" height="238.025" id="SVGID_18_">
					<g filter="url(#Adobe_OpacityMaskFilter_13_)">
					</g>
				</mask>
				<radialGradient id="SVGID_19_" cx="631.6787" cy="1498.333" r="119.0129" gradientUnits="userSpaceOnUse">
					<stop  offset="0" style="stop-color:#FFFFFF"/>
					<stop  offset="0.0362" style="stop-color:#E0E0E0"/>
					<stop  offset="0.0987" style="stop-color:#B2B2B2"/>
					<stop  offset="0.1669" style="stop-color:#878787"/>
					<stop  offset="0.2393" style="stop-color:#636363"/>
					<stop  offset="0.3169" style="stop-color:#444444"/>
					<stop  offset="0.4013" style="stop-color:#2B2B2B"/>
					<stop  offset="0.4954" style="stop-color:#181818"/>
					<stop  offset="0.6044" style="stop-color:#0A0A0A"/>
					<stop  offset="0.7417" style="stop-color:#020202"/>
					<stop  offset="1" style="stop-color:#000000"/>
				</radialGradient>
				<circle mask="url(#SVGID_18_)" fill="url(#SVGID_19_)" cx="631.679" cy="1498.333" r="119.013"/>
			</g>
		</mask>
		<g>
			<defs>
				
					<filter id="Adobe_OpacityMaskFilter_14_" filterUnits="userSpaceOnUse" x="512.666" y="1379.32" width="238.026" height="238.025">
					<feFlood  style="flood-color:white;flood-opacity:1" result="back"/>
					<feBlend  in="SourceGraphic" in2="back" mode="normal"/>
				</filter>
			</defs>
			<mask maskUnits="userSpaceOnUse" x="512.666" y="1379.32" width="238.026" height="238.025" id="SVGID_20_">
				<g filter="url(#Adobe_OpacityMaskFilter_14_)">
					<defs>
						
							<filter id="Adobe_OpacityMaskFilter_15_" filterUnits="userSpaceOnUse" x="512.666" y="1379.32" width="238.026" height="238.025">
							<feFlood  style="flood-color:white;flood-opacity:1" result="back"/>
							<feBlend  in="SourceGraphic" in2="back" mode="normal"/>
						</filter>
					</defs>
					<mask maskUnits="userSpaceOnUse" x="512.666" y="1379.32" width="238.026" height="238.025" id="SVGID_20_">
						<g filter="url(#Adobe_OpacityMaskFilter_15_)">
						</g>
					</mask>
					<radialGradient id="SVGID_21_" cx="631.6787" cy="1498.333" r="119.0129" gradientUnits="userSpaceOnUse">
						<stop  offset="0" style="stop-color:#FFFFFF"/>
						<stop  offset="0.0362" style="stop-color:#E0E0E0"/>
						<stop  offset="0.0987" style="stop-color:#B2B2B2"/>
						<stop  offset="0.1669" style="stop-color:#878787"/>
						<stop  offset="0.2393" style="stop-color:#636363"/>
						<stop  offset="0.3169" style="stop-color:#444444"/>
						<stop  offset="0.4013" style="stop-color:#2B2B2B"/>
						<stop  offset="0.4954" style="stop-color:#181818"/>
						<stop  offset="0.6044" style="stop-color:#0A0A0A"/>
						<stop  offset="0.7417" style="stop-color:#020202"/>
						<stop  offset="1" style="stop-color:#000000"/>
					</radialGradient>
					<circle mask="url(#SVGID_20_)" fill="url(#SVGID_21_)" cx="631.679" cy="1498.333" r="119.013"/>
				</g>
			</mask>
			<radialGradient id="SVGID_22_" cx="631.6787" cy="1498.333" r="119.0129" gradientUnits="userSpaceOnUse">
				<stop  offset="0" style="stop-color:#FFFFFF"/>
				<stop  offset="0.0362" style="stop-color:#E0EEF7"/>
				<stop  offset="0.0987" style="stop-color:#B2D4EB"/>
				<stop  offset="0.1669" style="stop-color:#87BCE0"/>
				<stop  offset="0.2393" style="stop-color:#63A8D6"/>
				<stop  offset="0.3169" style="stop-color:#4497CE"/>
				<stop  offset="0.4013" style="stop-color:#2B89C7"/>
				<stop  offset="0.4954" style="stop-color:#187EC2"/>
				<stop  offset="0.6044" style="stop-color:#0A77BF"/>
				<stop  offset="0.7417" style="stop-color:#0272BD"/>
				<stop  offset="1" style="stop-color:#0071BC"/>
			</radialGradient>
			<circle fill="url(#SVGID_22_)" cx="631.679" cy="1498.333" r="119.013"/>
		</g>
	</g>
	<g>
		<circle fill="#FFFFFF" cx="1170.473" cy="500" r="38.302"/>
		<circle fill="#FFFFFF" cx="835.473" cy="686.453" r="27.083"/>
		<circle fill="#FFFFFF" cx="1167.14" cy="1204.574" r="27.083"/>
	</g>
	<g>
		<polygon fill="#FFFFFF" points="491.317,712.703 460.101,712.703 485.411,689.685 460.101,666.667 491.317,666.667 
			516.627,689.685 		"/>
		<polygon fill="#FFFFFF" points="534.344,712.703 503.128,712.703 528.438,689.685 503.128,666.667 534.344,666.667 
			559.654,689.685 		"/>
		<polygon fill="#FFFFFF" points="577.371,712.703 546.155,712.703 571.466,689.685 546.155,666.667 577.371,666.667 
			602.682,689.685 		"/>
		<polygon fill="#FFFFFF" points="620.398,712.703 589.183,712.703 614.493,689.685 589.183,666.667 620.398,666.667 
			645.709,689.685 		"/>
		<polygon fill="#FFFFFF" points="663.426,712.703 632.21,712.703 657.52,689.685 632.21,666.667 663.426,666.667 688.736,689.685 
					"/>
		<polygon fill="#FFFFFF" points="706.453,712.703 675.237,712.703 700.547,689.685 675.237,666.667 706.453,666.667 
			731.763,689.685 		"/>
		<polygon fill="#FFFFFF" points="749.48,712.703 718.265,712.703 743.575,689.685 718.265,666.667 749.48,666.667 774.791,689.685 
					"/>
	</g>
	<g>
		<polygon fill="#FFFFFF" points="433.525,1115.399 402.309,1115.399 427.62,1092.381 402.309,1069.363 433.525,1069.363 
			458.835,1092.381 		"/>
		<polygon fill="#FFFFFF" points="476.553,1115.399 445.336,1115.399 470.646,1092.381 445.336,1069.363 476.553,1069.363 
			501.863,1092.381 		"/>
		<polygon fill="#FFFFFF" points="519.58,1115.399 488.364,1115.399 513.674,1092.381 488.364,1069.363 519.58,1069.363 
			544.89,1092.381 		"/>
		<polygon fill="#FFFFFF" points="562.607,1115.399 531.391,1115.399 556.701,1092.381 531.391,1069.363 562.607,1069.363 
			587.917,1092.381 		"/>
	</g>
	<g>
		<polygon fill="#FFFFFF" points="978.969,1227.593 947.753,1227.593 973.063,1204.574 947.753,1181.556 978.969,1181.556 
			1004.279,1204.574 		"/>
		<polygon fill="#FFFFFF" points="1021.997,1227.593 990.781,1227.593 1016.091,1204.574 990.781,1181.556 1021.997,1181.556 
			1047.307,1204.574 		"/>
		<polygon fill="#FFFFFF" points="1065.024,1227.593 1033.808,1227.593 1059.118,1204.574 1033.808,1181.556 1065.024,1181.556 
			1090.334,1204.574 		"/>
		<polygon fill="#FFFFFF" points="1108.051,1227.593 1076.835,1227.593 1102.146,1204.574 1076.835,1181.556 1108.051,1181.556 
			1133.361,1204.574 		"/>
	</g>
</g>
<g opacity="0.1">
	<rect fill="none" width="2502.14" height="2000"/>
	<line fill="none" x1="0" y1="1750" x2="2502.14" y2="1750"/>
	<line fill="none" x1="0" y1="1500" x2="2502.14" y2="1500"/>
	<line fill="none" x1="0" y1="1250" x2="2502.14" y2="1250"/>
	<line fill="none" x1="0" y1="1000" x2="2502.14" y2="1000"/>
	<line fill="none" x1="0" y1="750" x2="2502.14" y2="750"/>
	<line fill="none" x1="0" y1="500" x2="2502.14" y2="500"/>
	<line fill="none" x1="0" y1="250" x2="2502.14" y2="250"/>
	<line fill="none" x1="2189.372" y1="0" x2="2189.372" y2="2000"/>
	<line fill="none" x1="1876.604" y1="0" x2="1876.604" y2="2000"/>
	<line fill="none" x1="1563.837" y1="0" x2="1563.837" y2="2000"/>
	<line fill="none" x1="1251.07" y1="0" x2="1251.07" y2="2000"/>
	<line fill="none" x1="938.302" y1="0" x2="938.302" y2="2000"/>
	<line fill="none" x1="625.535" y1="0" x2="625.535" y2="2000"/>
	<line fill="none" x1="312.768" y1="0" x2="312.768" y2="2000"/>
</g>
</svg>
