<?xml version="1.0" encoding="utf-8"?>
<!-- Generator: Adobe Illustrator 16.0.0, SVG Export Plug-In . SVG Version: 6.00 Build 0)  -->
<!DOCTYPE svg PUBLIC "-//W3C//DTD SVG 1.1//EN" "http://www.w3.org/Graphics/SVG/1.1/DTD/svg11.dtd">
<svg version="1.1" xmlns="http://www.w3.org/2000/svg" xmlns:xlink="http://www.w3.org/1999/xlink" x="0px" y="0px" width="750px"
	 height="500px" viewBox="0 0 750 500" enable-background="new 0 0 750 500" xml:space="preserve">
<g id="BACKGROUND_2">
	<g opacity="0.2">
		<g>
			<defs>
				<rect id="SVGID_1_" width="750" height="500"/>
			</defs>
			<clipPath id="SVGID_2_">
				<use xlink:href="#SVGID_1_"  overflow="visible"/>
			</clipPath>
			<g clip-path="url(#SVGID_2_)">
				<g>
					<g>
						<path fill="#666666" d="M92.155,149.67c1.867,0,1.87-2.902,0-2.902C90.288,146.768,90.284,149.67,92.155,149.67L92.155,149.67
							z"/>
					</g>
				</g>
				<g>
					<g>
						<g>
							<g>
								<radialGradient id="SVGID_3_" cx="324.3408" cy="156.6035" r="269.0368" gradientUnits="userSpaceOnUse">
									<stop  offset="0" style="stop-color:#B3B3B3"/>
									<stop  offset="0.5054" style="stop-color:#E6E6E6"/>
									<stop  offset="1" style="stop-color:#808080"/>
								</radialGradient>
								<path fill="url(#SVGID_3_)" d="M205.419,268.747c-0.153,0-0.299-0.072-0.391-0.199c-0.107-0.146-0.122-0.34-0.042-0.502
									l37.529-74.835c0.093-0.187,0.293-0.29,0.504-0.262c0.207,0.031,0.371,0.191,0.405,0.398l11.413,67.427
									c0.021,0.128-0.01,0.26-0.085,0.364c-0.077,0.105-0.191,0.175-0.319,0.194l-48.941,7.409
									C205.467,268.745,205.442,268.747,205.419,268.747z M242.718,194.965l-36.447,72.68l47.531-7.195L242.718,194.965z"/>
							</g>
							<g>
								<radialGradient id="SVGID_4_" cx="324.3398" cy="156.603" r="269.0367" gradientUnits="userSpaceOnUse">
									<stop  offset="0" style="stop-color:#B3B3B3"/>
									<stop  offset="0.5054" style="stop-color:#E6E6E6"/>
									<stop  offset="1" style="stop-color:#808080"/>
								</radialGradient>
								<path fill="url(#SVGID_4_)" d="M242.948,193.917c-0.153-0.014-0.273-0.061-0.366-0.167l-37.628-43.466
									c-0.114-0.132-0.148-0.315-0.09-0.479c0.059-0.164,0.202-0.284,0.374-0.313l89.038-15.213
									c0.203-0.039,0.403,0.063,0.503,0.241c0.101,0.178,0.077,0.401-0.059,0.555l-51.409,58.679
									C243.22,193.858,243.087,193.917,242.948,193.917z M206.248,150.3l36.702,42.397l50.145-57.236L206.248,150.3z"/>
							</g>
						</g>
						<g>
							<g>
								<radialGradient id="SVGID_5_" cx="324.3398" cy="156.6025" r="269.04" gradientUnits="userSpaceOnUse">
									<stop  offset="0" style="stop-color:#B3B3B3"/>
									<stop  offset="0.5054" style="stop-color:#E6E6E6"/>
									<stop  offset="1" style="stop-color:#808080"/>
								</radialGradient>
								<path fill="url(#SVGID_5_)" d="M254.357,261.34c-0.027,0-0.057-0.003-0.086-0.008c-0.2-0.037-0.356-0.194-0.391-0.396
									l-11.413-67.427c-0.025-0.15,0.022-0.304,0.127-0.414c0.104-0.11,0.263-0.167,0.406-0.147l47.208,5.514
									c0.162,0.019,0.304,0.118,0.377,0.264c0.072,0.146,0.068,0.318-0.015,0.459l-35.795,61.913
									C254.689,261.249,254.529,261.34,254.357,261.34z M243.53,193.984l11.081,65.468l34.755-60.114L243.53,193.984z"/>
							</g>
							<g>
								<radialGradient id="SVGID_6_" cx="324.3408" cy="156.6025" r="269.0398" gradientUnits="userSpaceOnUse">
									<stop  offset="0" style="stop-color:#B3B3B3"/>
									<stop  offset="0.5054" style="stop-color:#E6E6E6"/>
									<stop  offset="1" style="stop-color:#808080"/>
								</radialGradient>
								<path fill="url(#SVGID_6_)" d="M177.044,199.43c-0.164,0-0.319-0.084-0.408-0.225c-0.096-0.152-0.101-0.345-0.01-0.501
									l28.278-48.98c0.077-0.136,0.217-0.225,0.372-0.24c0.165-0.011,0.31,0.047,0.412,0.165l37.627,43.467
									c0.119,0.137,0.151,0.33,0.082,0.499c-0.068,0.169-0.226,0.285-0.407,0.3l-65.905,5.513
									C177.07,199.429,177.058,199.43,177.044,199.43z M205.402,150.796l-27.477,47.59l64.036-5.356L205.402,150.796z"/>
							</g>
						</g>
						<g>
							<g>
								<radialGradient id="SVGID_7_" cx="324.3398" cy="156.603" r="269.0388" gradientUnits="userSpaceOnUse">
									<stop  offset="0" style="stop-color:#B3B3B3"/>
									<stop  offset="0.5054" style="stop-color:#E6E6E6"/>
									<stop  offset="1" style="stop-color:#808080"/>
								</radialGradient>
								<path fill="url(#SVGID_7_)" d="M290.153,199.43c-0.019,0-0.038-0.001-0.056-0.003l-47.208-5.513
									c-0.179-0.021-0.331-0.139-0.396-0.307c-0.063-0.168-0.03-0.357,0.088-0.493l51.41-58.679
									c0.136-0.157,0.355-0.209,0.549-0.128c0.191,0.079,0.311,0.271,0.297,0.478l-4.201,64.193
									c-0.009,0.132-0.07,0.255-0.173,0.34C290.375,199.39,290.266,199.43,290.153,199.43z M243.915,193.059l45.788,5.347
									l4.076-62.262L243.915,193.059z"/>
							</g>
							<g>
								<radialGradient id="SVGID_8_" cx="324.3389" cy="156.603" r="269.0356" gradientUnits="userSpaceOnUse">
									<stop  offset="0" style="stop-color:#B3B3B3"/>
									<stop  offset="0.5054" style="stop-color:#E6E6E6"/>
									<stop  offset="1" style="stop-color:#808080"/>
								</radialGradient>
								<path fill="url(#SVGID_8_)" d="M205.422,268.749c-0.006,0-0.012,0-0.019,0c-0.189-0.008-0.357-0.125-0.429-0.301
									l-28.378-69.322c-0.059-0.143-0.046-0.305,0.034-0.436c0.081-0.131,0.22-0.217,0.373-0.229l65.905-5.514
									c0.186-0.019,0.343,0.066,0.441,0.211c0.098,0.145,0.11,0.332,0.032,0.488l-37.528,74.836
									C205.772,268.646,205.604,268.749,205.422,268.749z M177.741,199.37l27.726,67.728l36.664-73.114L177.741,199.37z"/>
							</g>
						</g>
					</g>
					<g>
						<g>
							<g>
								<radialGradient id="SVGID_9_" cx="324.3408" cy="156.603" r="269.0372" gradientUnits="userSpaceOnUse">
									<stop  offset="0" style="stop-color:#B3B3B3"/>
									<stop  offset="0.5054" style="stop-color:#E6E6E6"/>
									<stop  offset="1" style="stop-color:#808080"/>
								</radialGradient>
								<path fill="url(#SVGID_9_)" d="M346.909,297.381h-56.558c-0.178,0-0.341-0.097-0.425-0.253
									c-0.085-0.156-0.077-0.346,0.02-0.495l45.504-69.757c0.109-0.168,0.307-0.254,0.506-0.209
									c0.195,0.042,0.346,0.199,0.377,0.397l11.054,69.758c0.021,0.14-0.018,0.282-0.11,0.389
									C347.185,297.318,347.051,297.381,346.909,297.381z M291.244,296.414h55.098l-10.769-67.958L291.244,296.414z"/>
							</g>
							<g>
								<radialGradient id="SVGID_10_" cx="324.3408" cy="156.6025" r="269.0396" gradientUnits="userSpaceOnUse">
									<stop  offset="0" style="stop-color:#B3B3B3"/>
									<stop  offset="0.5054" style="stop-color:#E6E6E6"/>
									<stop  offset="1" style="stop-color:#808080"/>
								</radialGradient>
								<path fill="url(#SVGID_10_)" d="M335.855,227.629c-0.089,0-0.178-0.025-0.256-0.073l-45.503-28.201
									c-0.184-0.114-0.27-0.335-0.21-0.543c0.059-0.208,0.248-0.352,0.465-0.352h56.558c0.159,0,0.31,0.079,0.399,0.211
									s0.108,0.3,0.051,0.449l-11.054,28.201c-0.053,0.134-0.161,0.237-0.298,0.282
									C335.958,227.621,335.906,227.629,335.855,227.629z M292.05,199.428l43.567,27l10.582-27H292.05z"/>
							</g>
						</g>
						<g>
							<g>
								<radialGradient id="SVGID_11_" cx="324.3398" cy="156.6035" r="269.0369" gradientUnits="userSpaceOnUse">
									<stop  offset="0" style="stop-color:#B3B3B3"/>
									<stop  offset="0.5054" style="stop-color:#E6E6E6"/>
									<stop  offset="1" style="stop-color:#808080"/>
								</radialGradient>
								<path fill="url(#SVGID_11_)" d="M346.906,297.383c-0.029,0-0.059-0.003-0.088-0.008c-0.202-0.037-0.358-0.198-0.391-0.4
									l-11.054-69.758c-0.028-0.181,0.048-0.362,0.196-0.469c0.15-0.106,0.347-0.12,0.508-0.034l39.332,20.779
									c0.116,0.061,0.202,0.167,0.239,0.293c0.037,0.127,0.02,0.262-0.046,0.376l-28.279,48.98
									C347.237,297.292,347.077,297.383,346.906,297.383z M336.481,228.021l10.688,67.454l27.345-47.362L336.481,228.021z"/>
							</g>
							<g>
								<radialGradient id="SVGID_12_" cx="324.3408" cy="156.603" r="269.0393" gradientUnits="userSpaceOnUse">
									<stop  offset="0" style="stop-color:#B3B3B3"/>
									<stop  offset="0.5054" style="stop-color:#E6E6E6"/>
									<stop  offset="1" style="stop-color:#808080"/>
								</radialGradient>
								<path fill="url(#SVGID_12_)" d="M254.56,261.34c-0.137,0-0.271-0.059-0.364-0.165c-0.137-0.156-0.158-0.382-0.055-0.562
									l35.795-61.913c0.065-0.113,0.174-0.195,0.301-0.227c0.125-0.032,0.262-0.012,0.373,0.058l45.504,28.201
									c0.154,0.096,0.241,0.27,0.227,0.45c-0.014,0.181-0.129,0.338-0.297,0.408l-81.299,33.712
									C254.685,261.327,254.621,261.34,254.56,261.34z M290.523,199.617l-34.832,60.245l79.11-32.804L290.523,199.617z"/>
							</g>
						</g>
						<g>
							<g>
								<radialGradient id="SVGID_13_" cx="324.3398" cy="156.604" r="269.0358" gradientUnits="userSpaceOnUse">
									<stop  offset="0" style="stop-color:#B3B3B3"/>
									<stop  offset="0.5054" style="stop-color:#E6E6E6"/>
									<stop  offset="1" style="stop-color:#808080"/>
								</radialGradient>
								<path fill="url(#SVGID_13_)" d="M375.185,248.406c-0.077,0-0.155-0.018-0.226-0.056l-39.332-20.778
									c-0.219-0.115-0.315-0.375-0.226-0.604l11.054-28.201c0.068-0.173,0.229-0.292,0.415-0.306
									c0.172-0.018,0.362,0.08,0.454,0.241l28.279,48.979c0.107,0.187,0.079,0.422-0.07,0.578
									C375.439,248.355,375.313,248.406,375.185,248.406z M336.461,226.918l37.465,19.792l-26.937-46.656L336.461,226.918z"/>
							</g>
							<g>
								<radialGradient id="SVGID_14_" cx="324.3408" cy="156.603" r="269.0376" gradientUnits="userSpaceOnUse">
									<stop  offset="0" style="stop-color:#B3B3B3"/>
									<stop  offset="0.5054" style="stop-color:#E6E6E6"/>
									<stop  offset="1" style="stop-color:#808080"/>
								</radialGradient>
								<path fill="url(#SVGID_14_)" d="M290.354,297.383c-0.129,0-0.252-0.051-0.343-0.143l-35.796-36.047
									c-0.114-0.115-0.163-0.278-0.131-0.436c0.032-0.159,0.14-0.29,0.289-0.353l81.299-33.711
									c0.194-0.081,0.421-0.026,0.558,0.138c0.135,0.163,0.148,0.395,0.033,0.573l-45.504,69.759
									c-0.08,0.122-0.211,0.202-0.356,0.216C290.388,297.382,290.37,297.383,290.354,297.383z M255.41,261.022l34.866,35.111
									l44.321-67.947L255.41,261.022z"/>
							</g>
						</g>
					</g>
					<g>
						<g>
							<g>
								<radialGradient id="SVGID_15_" cx="324.3408" cy="156.6021" r="269.0391" gradientUnits="userSpaceOnUse">
									<stop  offset="0" style="stop-color:#B3B3B3"/>
									<stop  offset="0.5054" style="stop-color:#E6E6E6"/>
									<stop  offset="1" style="stop-color:#808080"/>
								</radialGradient>
								<path fill="url(#SVGID_15_)" d="M165.457,278.916c-0.034,0-0.07-0.004-0.105-0.012l-39.911-8.934
									c-0.169-0.038-0.305-0.162-0.355-0.328c-0.052-0.164-0.013-0.344,0.104-0.471l32.896-35.898
									c0.124-0.137,0.316-0.192,0.495-0.136c0.178,0.053,0.31,0.205,0.339,0.388l7.016,44.832c0.024,0.158-0.03,0.318-0.147,0.428
									C165.697,278.869,165.579,278.916,165.457,278.916z M126.467,269.209l38.403,8.596l-6.751-43.136L126.467,269.209z"/>
							</g>
							<g>
								<radialGradient id="SVGID_16_" cx="324.3379" cy="156.6035" r="269.0345" gradientUnits="userSpaceOnUse">
									<stop  offset="0" style="stop-color:#B3B3B3"/>
									<stop  offset="0.5054" style="stop-color:#E6E6E6"/>
									<stop  offset="1" style="stop-color:#808080"/>
								</radialGradient>
								<path fill="url(#SVGID_16_)" d="M158.441,234.091c-0.091,0-0.181-0.025-0.26-0.075l-37.889-24.086
									c-0.167-0.106-0.253-0.305-0.215-0.5c0.037-0.195,0.19-0.347,0.386-0.384l56.494-10.577c0.182-0.033,0.369,0.04,0.479,0.19
									s0.123,0.35,0.035,0.514l-18.604,34.663c-0.063,0.119-0.174,0.206-0.304,0.239
									C158.523,234.086,158.482,234.091,158.441,234.091z M121.848,209.771l36.414,23.148l17.881-33.314L121.848,209.771z"/>
							</g>
						</g>
						<g>
							<g>
								<radialGradient id="SVGID_17_" cx="324.3398" cy="156.603" r="269.0376" gradientUnits="userSpaceOnUse">
									<stop  offset="0" style="stop-color:#B3B3B3"/>
									<stop  offset="0.5054" style="stop-color:#E6E6E6"/>
									<stop  offset="1" style="stop-color:#808080"/>
								</radialGradient>
								<path fill="url(#SVGID_17_)" d="M165.455,278.918c-0.094,0-0.187-0.027-0.267-0.081c-0.113-0.074-0.191-0.193-0.212-0.328
									l-7.016-44.832c-0.03-0.194,0.06-0.387,0.227-0.489c0.167-0.101,0.38-0.092,0.539,0.025l46.982,34.66
									c0.15,0.111,0.224,0.299,0.188,0.482c-0.036,0.183-0.174,0.329-0.355,0.376l-39.968,10.171
									C165.535,278.913,165.494,278.918,165.455,278.918z M159.099,234.69l6.752,43.144l38.462-9.789L159.099,234.69z"/>
							</g>
							<g>
								<radialGradient id="SVGID_18_" cx="324.3408" cy="156.604" r="269.0367" gradientUnits="userSpaceOnUse">
									<stop  offset="0" style="stop-color:#B3B3B3"/>
									<stop  offset="0.5054" style="stop-color:#E6E6E6"/>
									<stop  offset="1" style="stop-color:#808080"/>
								</radialGradient>
								<path fill="url(#SVGID_18_)" d="M55.52,277.864c-0.155,0-0.306-0.074-0.398-0.209c-0.13-0.188-0.11-0.444,0.049-0.609
									l65.036-67.861c0.161-0.165,0.415-0.196,0.609-0.073l37.889,24.086c0.151,0.096,0.237,0.269,0.223,0.448
									s-0.128,0.335-0.293,0.405L55.708,277.825C55.646,277.852,55.582,277.864,55.52,277.864z M120.631,210.141L57.5,276.013
									l99.909-42.492L120.631,210.141z"/>
							</g>
						</g>
						<g>
							<g>
								<radialGradient id="SVGID_19_" cx="324.3408" cy="156.603" r="269.0377" gradientUnits="userSpaceOnUse">
									<stop  offset="0" style="stop-color:#B3B3B3"/>
									<stop  offset="0.5054" style="stop-color:#E6E6E6"/>
									<stop  offset="1" style="stop-color:#808080"/>
								</radialGradient>
								<path fill="url(#SVGID_19_)" d="M205.422,268.749c-0.101,0-0.201-0.031-0.287-0.095l-46.983-34.659
									c-0.193-0.143-0.253-0.406-0.139-0.618l18.605-34.663c0.089-0.166,0.266-0.267,0.451-0.255
									c0.188,0.01,0.352,0.127,0.423,0.3l28.378,69.322c0.082,0.2,0.021,0.432-0.15,0.565
									C205.632,268.715,205.527,268.749,205.422,268.749z M159.063,233.465l45.257,33.387l-27.335-66.777L159.063,233.465z"/>
							</g>
							<g>
								<radialGradient id="SVGID_20_" cx="324.3438" cy="156.6035" r="269.04" gradientUnits="userSpaceOnUse">
									<stop  offset="0" style="stop-color:#B3B3B3"/>
									<stop  offset="0.5054" style="stop-color:#E6E6E6"/>
									<stop  offset="1" style="stop-color:#808080"/>
								</radialGradient>
								<path fill="url(#SVGID_20_)" d="M55.52,277.86c-0.218,0-0.411-0.146-0.468-0.36c-0.062-0.232,0.058-0.475,0.278-0.568
									l102.926-43.774c0.209-0.091,0.452-0.021,0.584,0.166c0.131,0.186,0.115,0.438-0.039,0.606l-32.896,35.898
									c-0.079,0.086-0.187,0.141-0.303,0.154l-70.029,7.876C55.555,277.859,55.537,277.86,55.52,277.86z M156.58,234.921
									l-97.824,41.604l66.559-7.485L156.58,234.921z M125.549,269.5h0.01H125.549z"/>
							</g>
						</g>
					</g>
					<g>
						<g>
							<g>
								<radialGradient id="SVGID_21_" cx="324.3408" cy="156.6045" r="269.0362" gradientUnits="userSpaceOnUse">
									<stop  offset="0" style="stop-color:#B3B3B3"/>
									<stop  offset="0.5054" style="stop-color:#E6E6E6"/>
									<stop  offset="1" style="stop-color:#808080"/>
								</radialGradient>
								<path fill="url(#SVGID_21_)" d="M223.798,362.851c-0.097,0-0.193-0.028-0.275-0.086c-0.151-0.105-0.231-0.288-0.203-0.471
									l10.003-65.472c0.024-0.161,0.127-0.298,0.273-0.366s0.317-0.06,0.456,0.025l50.903,31.093
									c0.146,0.09,0.234,0.249,0.231,0.421c-0.003,0.171-0.097,0.329-0.246,0.413l-60.904,34.38
									C223.961,362.83,223.88,362.851,223.798,362.851z M234.168,297.687l-9.742,63.771l59.322-33.486L234.168,297.687z"/>
							</g>
							<g>
								<radialGradient id="SVGID_22_" cx="324.3398" cy="156.603" r="269.0367" gradientUnits="userSpaceOnUse">
									<stop  offset="0" style="stop-color:#B3B3B3"/>
									<stop  offset="0.5054" style="stop-color:#E6E6E6"/>
									<stop  offset="1" style="stop-color:#808080"/>
								</radialGradient>
								<path fill="url(#SVGID_22_)" d="M233.8,297.385c-0.128,0-0.253-0.051-0.345-0.145l-28.18-28.638
									c-0.127-0.129-0.172-0.319-0.114-0.492c0.058-0.172,0.207-0.298,0.387-0.325l48.941-7.409
									c0.189-0.025,0.368,0.053,0.473,0.205c0.104,0.153,0.112,0.354,0.02,0.515l-20.762,36.048
									c-0.076,0.13-0.208,0.219-0.358,0.237C233.841,297.384,233.82,297.385,233.8,297.385z M206.63,268.6l27.069,27.509
									l19.942-34.625L206.63,268.6z"/>
							</g>
						</g>
						<g>
							<g>
								<radialGradient id="SVGID_23_" cx="324.3398" cy="156.604" r="269.0364" gradientUnits="userSpaceOnUse">
									<stop  offset="0" style="stop-color:#B3B3B3"/>
									<stop  offset="0.5054" style="stop-color:#E6E6E6"/>
									<stop  offset="1" style="stop-color:#808080"/>
								</radialGradient>
								<path fill="url(#SVGID_23_)" d="M284.7,328.472c-0.088,0-0.175-0.023-0.253-0.071l-50.902-31.091
									c-0.186-0.113-0.272-0.336-0.214-0.544s0.25-0.353,0.466-0.353h56.558c0.144,0,0.279,0.063,0.371,0.174
									s0.131,0.255,0.104,0.396l-5.654,31.091c-0.028,0.157-0.133,0.29-0.278,0.354
									C284.835,328.457,284.767,328.472,284.7,328.472z M235.518,297.38l48.833,29.827l5.424-29.827H235.518z"/>
							</g>
							<g>
								<radialGradient id="SVGID_24_" cx="324.3418" cy="156.6025" r="269.0383" gradientUnits="userSpaceOnUse">
									<stop  offset="0" style="stop-color:#B3B3B3"/>
									<stop  offset="0.5054" style="stop-color:#E6E6E6"/>
									<stop  offset="1" style="stop-color:#808080"/>
								</radialGradient>
								<path fill="url(#SVGID_24_)" d="M233.803,297.383c-0.042,0-0.084-0.006-0.127-0.017L165.529,278.9
									c-0.212-0.058-0.359-0.25-0.357-0.471c0.002-0.22,0.151-0.41,0.365-0.465l39.967-10.171c0.166-0.044,0.343,0.007,0.464,0.13
									l28.18,28.637c0.153,0.155,0.184,0.395,0.073,0.583C234.133,297.294,233.972,297.383,233.803,297.383z M167.56,278.449
									l64.646,17.516L205.473,268.8L167.56,278.449z"/>
							</g>
						</g>
						<g>
							<g>
								<radialGradient id="SVGID_25_" cx="324.3408" cy="156.6045" r="269.035" gradientUnits="userSpaceOnUse">
									<stop  offset="0" style="stop-color:#B3B3B3"/>
									<stop  offset="0.5054" style="stop-color:#E6E6E6"/>
									<stop  offset="1" style="stop-color:#808080"/>
								</radialGradient>
								<path fill="url(#SVGID_25_)" d="M290.354,297.383h-56.558c-0.173,0-0.332-0.092-0.418-0.241
									c-0.087-0.149-0.087-0.334-0.001-0.484l20.762-36.046c0.075-0.131,0.208-0.219,0.357-0.238s0.3,0.032,0.405,0.139
									l35.795,36.047c0.138,0.139,0.179,0.347,0.104,0.527C290.726,297.266,290.55,297.383,290.354,297.383z M234.634,296.416
									h54.559l-34.53-34.773L234.634,296.416z"/>
							</g>
							<g>
								<radialGradient id="SVGID_26_" cx="324.3398" cy="156.605" r="269.0353" gradientUnits="userSpaceOnUse">
									<stop  offset="0" style="stop-color:#B3B3B3"/>
									<stop  offset="0.5054" style="stop-color:#E6E6E6"/>
									<stop  offset="1" style="stop-color:#808080"/>
								</radialGradient>
								<path fill="url(#SVGID_26_)" d="M223.801,362.852c-0.157,0-0.307-0.076-0.398-0.208l-58.145-83.937
									c-0.115-0.167-0.114-0.39,0.003-0.555c0.117-0.166,0.329-0.241,0.521-0.188l68.147,18.465
									c0.236,0.064,0.388,0.297,0.351,0.54l-10.002,65.471c-0.03,0.196-0.176,0.354-0.369,0.398
									C223.873,362.848,223.836,362.852,223.801,362.852z M166.808,279.244l56.698,81.849l9.754-63.842L166.808,279.244z"/>
							</g>
						</g>
					</g>
					<g>
						<g>
							<g>
								<radialGradient id="SVGID_27_" cx="324.3398" cy="156.6025" r="269.0386" gradientUnits="userSpaceOnUse">
									<stop  offset="0" style="stop-color:#B3B3B3"/>
									<stop  offset="0.5054" style="stop-color:#E6E6E6"/>
									<stop  offset="1" style="stop-color:#808080"/>
								</radialGradient>
								<path fill="url(#SVGID_27_)" d="M431.463,346.359h-56.558c-0.145,0-0.281-0.064-0.373-0.176s-0.13-0.258-0.103-0.399
									l15.694-81.63c0.04-0.203,0.204-0.359,0.409-0.388c0.21-0.032,0.406,0.078,0.499,0.263l40.863,81.63
									c0.074,0.15,0.066,0.328-0.021,0.471C431.785,346.272,431.63,346.359,431.463,346.359z M375.491,345.393h55.188
									l-39.874-79.655L375.491,345.393z"/>
							</g>
							<g>
								<radialGradient id="SVGID_28_" cx="324.3418" cy="156.6025" r="269.0363" gradientUnits="userSpaceOnUse">
									<stop  offset="0" style="stop-color:#B3B3B3"/>
									<stop  offset="0.5054" style="stop-color:#E6E6E6"/>
									<stop  offset="1" style="stop-color:#808080"/>
								</radialGradient>
								<path fill="url(#SVGID_28_)" d="M390.6,264.736c-0.129,0-0.255-0.051-0.349-0.148l-15.694-16.33
									c-0.123-0.128-0.166-0.313-0.112-0.481c0.053-0.168,0.194-0.295,0.368-0.329l64.559-12.585
									c0.235-0.047,0.461,0.083,0.545,0.303c0.083,0.22-0.004,0.468-0.206,0.588l-48.864,28.915
									C390.77,264.714,390.685,264.736,390.6,264.736z M375.869,248.228l14.813,15.414l46.122-27.293L375.869,248.228z"/>
							</g>
						</g>
						<g>
							<g>
								<radialGradient id="SVGID_29_" cx="324.3398" cy="156.603" r="269.0375" gradientUnits="userSpaceOnUse">
									<stop  offset="0" style="stop-color:#B3B3B3"/>
									<stop  offset="0.5054" style="stop-color:#E6E6E6"/>
									<stop  offset="1" style="stop-color:#808080"/>
								</radialGradient>
								<path fill="url(#SVGID_29_)" d="M431.46,346.361c-0.005,0-0.01,0-0.015,0c-0.179-0.006-0.339-0.107-0.418-0.268
									l-40.863-81.63c-0.093-0.184-0.058-0.406,0.087-0.555c0.144-0.146,0.365-0.188,0.553-0.099l69.142,32.649
									c0.122,0.058,0.214,0.164,0.255,0.293c0.04,0.129,0.024,0.27-0.043,0.387l-28.279,48.98
									C431.792,346.27,431.633,346.361,431.46,346.361z M391.656,265.283l39.834,79.574l27.566-47.746L391.656,265.283z"/>
							</g>
							<g>
								<radialGradient id="SVGID_30_" cx="324.3398" cy="156.603" r="269.0378" gradientUnits="userSpaceOnUse">
									<stop  offset="0" style="stop-color:#B3B3B3"/>
									<stop  offset="0.5054" style="stop-color:#E6E6E6"/>
									<stop  offset="1" style="stop-color:#808080"/>
								</radialGradient>
								<path fill="url(#SVGID_30_)" d="M346.629,297.385c-0.115,0-0.23-0.041-0.322-0.123c-0.171-0.151-0.211-0.404-0.096-0.603
									l28.278-48.98c0.076-0.132,0.209-0.22,0.36-0.239c0.153-0.02,0.302,0.036,0.407,0.145l15.694,16.331
									c0.096,0.101,0.145,0.237,0.133,0.375c-0.012,0.139-0.082,0.266-0.193,0.349l-43.974,32.649
									C346.831,297.354,346.73,297.385,346.629,297.385z M375.005,248.72l-26.789,46.4l41.657-30.93L375.005,248.72z"/>
							</g>
						</g>
						<g>
							<g>
								<radialGradient id="SVGID_31_" cx="324.3408" cy="156.604" r="269.0361" gradientUnits="userSpaceOnUse">
									<stop  offset="0" style="stop-color:#B3B3B3"/>
									<stop  offset="0.5054" style="stop-color:#E6E6E6"/>
									<stop  offset="1" style="stop-color:#808080"/>
								</radialGradient>
								<path fill="url(#SVGID_31_)" d="M459.738,297.385c-0.07,0-0.141-0.015-0.207-0.046l-69.142-32.65
									c-0.161-0.076-0.269-0.236-0.275-0.415c-0.009-0.179,0.082-0.348,0.235-0.438l48.864-28.916
									c0.127-0.075,0.282-0.087,0.417-0.037c0.137,0.051,0.244,0.163,0.289,0.302l20.277,61.565
									c0.061,0.184,0.006,0.386-0.139,0.514C459.969,297.344,459.854,297.385,459.738,297.385z M391.627,264.203l67.3,31.779
									l-19.737-59.924L391.627,264.203z"/>
							</g>
							<g>
								<radialGradient id="SVGID_32_" cx="324.3398" cy="156.6025" r="269.038" gradientUnits="userSpaceOnUse">
									<stop  offset="0" style="stop-color:#B3B3B3"/>
									<stop  offset="0.5054" style="stop-color:#E6E6E6"/>
									<stop  offset="1" style="stop-color:#808080"/>
								</radialGradient>
								<path fill="url(#SVGID_32_)" d="M374.908,346.361c-0.171,0-0.332-0.091-0.419-0.241l-28.278-48.98
									c-0.123-0.213-0.067-0.484,0.13-0.631l43.974-32.649c0.158-0.118,0.377-0.128,0.545-0.021
									c0.169,0.106,0.256,0.306,0.218,0.501l-15.694,81.631c-0.038,0.198-0.195,0.352-0.395,0.385
									C374.962,346.359,374.935,346.361,374.908,346.361z M347.264,297.028l27.415,47.483l15.214-79.135L347.264,297.028z"/>
							</g>
						</g>
					</g>
					<g>
						<g>
							<g>
								<radialGradient id="SVGID_33_" cx="324.3428" cy="156.604" r="269.0364" gradientUnits="userSpaceOnUse">
									<stop  offset="0" style="stop-color:#B3B3B3"/>
									<stop  offset="0.5054" style="stop-color:#E6E6E6"/>
									<stop  offset="1" style="stop-color:#808080"/>
								</radialGradient>
								<path fill="url(#SVGID_33_)" d="M459.937,395.337c-0.086,0-0.173-0.022-0.25-0.069c-0.197-0.119-0.282-0.361-0.205-0.577
									l31.225-86.732c0.071-0.198,0.243-0.318,0.472-0.32c0.211,0.008,0.393,0.15,0.449,0.354l11.323,40.391
									c0.045,0.16,0.004,0.334-0.11,0.457l-42.547,46.342C460.198,395.283,460.068,395.337,459.937,395.337z M491.104,309.709
									l-29.897,83.047l40.739-44.373L491.104,309.709z"/>
							</g>
							<g>
								<radialGradient id="SVGID_34_" cx="324.3389" cy="156.6113" r="269.033" gradientUnits="userSpaceOnUse">
									<stop  offset="0" style="stop-color:#B3B3B3"/>
									<stop  offset="0.5054" style="stop-color:#E6E6E6"/>
									<stop  offset="1" style="stop-color:#808080"/>
								</radialGradient>
								<path fill="url(#SVGID_34_)" d="M491.161,308.611c-0.056,0-0.11-0.009-0.163-0.028l-31.225-11.229
									c-0.221-0.079-0.354-0.307-0.313-0.538c0.039-0.231,0.24-0.4,0.476-0.4h56.558c0.229,0,0.426,0.159,0.474,0.383
									c0.047,0.225-0.068,0.45-0.278,0.543l-25.333,11.229C491.295,308.598,491.229,308.611,491.161,308.611z M462.712,297.383
									l28.431,10.225l23.066-10.225H462.712z"/>
							</g>
						</g>
						<g>
							<g>
								<radialGradient id="SVGID_35_" cx="324.3408" cy="156.6011" r="269.0381" gradientUnits="userSpaceOnUse">
									<stop  offset="0" style="stop-color:#B3B3B3"/>
									<stop  offset="0.5054" style="stop-color:#E6E6E6"/>
									<stop  offset="1" style="stop-color:#808080"/>
								</radialGradient>
								<path fill="url(#SVGID_35_)" d="M566.866,359.116c-0.024,0-0.05-0.002-0.075-0.006l-64.385-10.118
									c-0.187-0.029-0.34-0.166-0.391-0.348l-11.323-40.391c-0.055-0.195,0.019-0.404,0.182-0.521
									c0.164-0.119,0.385-0.123,0.553-0.012l75.708,50.509c0.188,0.127,0.264,0.366,0.182,0.578
									C567.243,358.996,567.063,359.116,566.866,359.116z M502.863,348.084l61.902,9.729l-72.789-48.563L502.863,348.084z"/>
							</g>
							<g>
								<radialGradient id="SVGID_36_" cx="324.3398" cy="156.6045" r="269.0373" gradientUnits="userSpaceOnUse">
									<stop  offset="0" style="stop-color:#B3B3B3"/>
									<stop  offset="0.5054" style="stop-color:#E6E6E6"/>
									<stop  offset="1" style="stop-color:#808080"/>
								</radialGradient>
								<path fill="url(#SVGID_36_)" d="M431.661,346.361c-0.122,0-0.242-0.045-0.335-0.134c-0.161-0.155-0.195-0.398-0.084-0.592
									l28.279-48.98c0.116-0.203,0.361-0.292,0.581-0.213l31.225,11.229c0.174,0.063,0.297,0.218,0.317,0.402
									c0.021,0.183-0.065,0.362-0.222,0.461l-59.503,37.751C431.84,346.337,431.751,346.361,431.661,346.361z M460.156,297.49
									l-27.093,46.924l57.008-36.166L460.156,297.49z"/>
							</g>
						</g>
						<g>
							<g>
								<radialGradient id="SVGID_37_" cx="324.3408" cy="156.6006" r="269.0399" gradientUnits="userSpaceOnUse">
									<stop  offset="0" style="stop-color:#B3B3B3"/>
									<stop  offset="0.5054" style="stop-color:#E6E6E6"/>
									<stop  offset="1" style="stop-color:#808080"/>
								</radialGradient>
								<path fill="url(#SVGID_37_)" d="M566.866,359.119c-0.093,0-0.187-0.027-0.269-0.082l-75.708-50.508
									c-0.146-0.099-0.229-0.269-0.213-0.444c0.015-0.176,0.124-0.328,0.286-0.4l25.333-11.229
									c0.195-0.089,0.432-0.033,0.57,0.136l50.375,61.738c0.151,0.186,0.144,0.454-0.017,0.631
									C567.13,359.064,566.998,359.119,566.866,359.119z M492.159,308.213l72.296,48.232l-48.105-58.956L492.159,308.213z"/>
							</g>
							<g>
								<radialGradient id="SVGID_38_" cx="324.3428" cy="156.6045" r="269.0349" gradientUnits="userSpaceOnUse">
									<stop  offset="0" style="stop-color:#B3B3B3"/>
									<stop  offset="0.5054" style="stop-color:#E6E6E6"/>
									<stop  offset="1" style="stop-color:#808080"/>
								</radialGradient>
								<path fill="url(#SVGID_38_)" d="M459.939,395.338c-0.172,0-0.332-0.092-0.418-0.242l-28.279-48.979
									c-0.13-0.226-0.06-0.512,0.16-0.65l59.503-37.752c0.175-0.112,0.399-0.098,0.561,0.03c0.162,0.13,0.224,0.348,0.153,0.541
									l-31.225,86.731c-0.063,0.178-0.225,0.302-0.411,0.318C459.968,395.337,459.954,395.338,459.939,395.338z M432.312,346.034
									l27.526,47.676l30.393-84.422L432.312,346.034z"/>
							</g>
						</g>
					</g>
					<g>
						<g>
							<g>
								<radialGradient id="SVGID_39_" cx="324.3398" cy="156.6021" r="269.0394" gradientUnits="userSpaceOnUse">
									<stop  offset="0" style="stop-color:#B3B3B3"/>
									<stop  offset="0.5054" style="stop-color:#E6E6E6"/>
									<stop  offset="1" style="stop-color:#808080"/>
								</radialGradient>
								<path fill="url(#SVGID_39_)" d="M281.492,406.326c-0.185,0-0.356-0.107-0.438-0.278c-0.092-0.196-0.042-0.431,0.122-0.572
									l63.248-54.493c0.14-0.121,0.339-0.151,0.508-0.077c0.17,0.073,0.283,0.237,0.292,0.423l1.892,43.505
									c0.01,0.243-0.163,0.457-0.403,0.497l-65.141,10.989C281.546,406.324,281.519,406.326,281.492,406.326z M344.301,352.366
									l-61.179,52.711l63.009-10.63L344.301,352.366z"/>
							</g>
							<g>
								<radialGradient id="SVGID_40_" cx="324.3398" cy="156.6055" r="269.0345" gradientUnits="userSpaceOnUse">
									<stop  offset="0" style="stop-color:#B3B3B3"/>
									<stop  offset="0.5054" style="stop-color:#E6E6E6"/>
									<stop  offset="1" style="stop-color:#808080"/>
								</radialGradient>
								<path fill="url(#SVGID_40_)" d="M344.74,351.839c-0.125,0-0.249-0.049-0.341-0.141l-54.666-54.456
									c-0.139-0.139-0.181-0.347-0.105-0.527c0.074-0.182,0.251-0.299,0.446-0.299h56.558c0.132,0,0.257,0.053,0.348,0.147
									c0.092,0.094,0.141,0.222,0.137,0.353l-1.892,54.456c-0.007,0.192-0.127,0.362-0.307,0.434
									C344.86,351.828,344.8,351.839,344.74,351.839z M291.245,297.383l53.051,52.847l1.836-52.847H291.245z"/>
							</g>
						</g>
						<g>
							<g>
								<radialGradient id="SVGID_41_" cx="324.3398" cy="156.6011" r="269.0406" gradientUnits="userSpaceOnUse">
									<stop  offset="0" style="stop-color:#B3B3B3"/>
									<stop  offset="0.5054" style="stop-color:#E6E6E6"/>
									<stop  offset="1" style="stop-color:#808080"/>
								</radialGradient>
								<path fill="url(#SVGID_41_)" d="M346.629,395.338c-0.037,0-0.076-0.005-0.115-0.014c-0.208-0.052-0.358-0.233-0.368-0.449
									l-1.892-43.504c-0.01-0.24,0.16-0.453,0.398-0.496l30.17-5.477c0.182-0.033,0.373,0.045,0.481,0.198
									c0.107,0.153,0.117,0.356,0.022,0.521l-28.278,48.979C346.96,395.248,346.799,395.338,346.629,395.338z M345.239,351.751
									l1.801,41.424l26.927-46.638L345.239,351.751z"/>
							</g>
							<g>
								<radialGradient id="SVGID_42_" cx="324.3398" cy="156.6045" r="269.0345" gradientUnits="userSpaceOnUse">
									<stop  offset="0" style="stop-color:#B3B3B3"/>
									<stop  offset="0.5054" style="stop-color:#E6E6E6"/>
									<stop  offset="1" style="stop-color:#808080"/>
								</radialGradient>
								<path fill="url(#SVGID_42_)" d="M344.743,351.838c-0.059,0-0.118-0.01-0.175-0.032l-60.32-23.365
									c-0.216-0.083-0.343-0.31-0.301-0.538l5.654-31.092c0.032-0.177,0.159-0.321,0.331-0.375
									c0.173-0.05,0.359-0.008,0.486,0.119l54.666,54.457c0.162,0.161,0.188,0.415,0.063,0.606
									C345.059,351.759,344.903,351.838,344.743,351.838z M284.971,327.683l57.799,22.389l-52.381-52.181L284.971,327.683z"/>
							</g>
						</g>
						<g>
							<g>
								<radialGradient id="SVGID_43_" cx="324.3398" cy="156.6045" r="269.0358" gradientUnits="userSpaceOnUse">
									<stop  offset="0" style="stop-color:#B3B3B3"/>
									<stop  offset="0.5054" style="stop-color:#E6E6E6"/>
									<stop  offset="1" style="stop-color:#808080"/>
								</radialGradient>
								<path fill="url(#SVGID_43_)" d="M344.738,351.838c-0.115,0-0.229-0.041-0.317-0.118c-0.11-0.095-0.172-0.235-0.167-0.382
									l1.892-54.457c0.008-0.216,0.157-0.4,0.366-0.453c0.209-0.051,0.429,0.041,0.536,0.228l28.278,48.98
									c0.08,0.137,0.087,0.303,0.021,0.445c-0.066,0.143-0.199,0.244-0.354,0.272l-30.17,5.478
									C344.796,351.836,344.767,351.838,344.738,351.838z M347.055,298.601l-1.813,52.171l28.903-5.247L347.055,298.601z"/>
							</g>
							<g>
								<radialGradient id="SVGID_44_" cx="324.3398" cy="156.603" r="269.0365" gradientUnits="userSpaceOnUse">
									<stop  offset="0" style="stop-color:#B3B3B3"/>
									<stop  offset="0.5054" style="stop-color:#E6E6E6"/>
									<stop  offset="1" style="stop-color:#808080"/>
								</radialGradient>
								<path fill="url(#SVGID_44_)" d="M281.495,406.327c-0.071,0-0.143-0.016-0.21-0.048c-0.174-0.083-0.28-0.262-0.273-0.453
									l2.928-77.857c0.007-0.156,0.087-0.301,0.218-0.387c0.129-0.085,0.292-0.105,0.44-0.046l60.32,23.364
									c0.159,0.062,0.273,0.201,0.303,0.368c0.028,0.167-0.033,0.337-0.162,0.449l-63.248,54.492
									C281.721,406.288,281.608,406.327,281.495,406.327z M284.882,328.684l-2.861,76.069l61.796-53.242L284.882,328.684z"/>
							</g>
						</g>
					</g>
					<g>
						<g>
							<g>
								<radialGradient id="SVGID_45_" cx="324.3389" cy="156.604" r="269.0385" gradientUnits="userSpaceOnUse">
									<stop  offset="0" style="stop-color:#B3B3B3"/>
									<stop  offset="0.5054" style="stop-color:#E6E6E6"/>
									<stop  offset="1" style="stop-color:#808080"/>
								</radialGradient>
								<path fill="url(#SVGID_45_)" d="M566.86,359.116c-0.051,0-0.103-0.008-0.152-0.025c-0.223-0.073-0.359-0.296-0.327-0.528
									l13.143-90.37c0.029-0.201,0.182-0.362,0.381-0.403c0.198-0.047,0.404,0.047,0.51,0.221l18.976,30.892
									c0.091,0.147,0.095,0.331,0.014,0.482l-32.117,59.478C567.199,359.022,567.034,359.116,566.86,359.116z M580.288,269.653
									L567.732,356l30.687-56.83L580.288,269.653z"/>
							</g>
							<g>
								<radialGradient id="SVGID_46_" cx="324.3369" cy="156.6021" r="269.0417" gradientUnits="userSpaceOnUse">
									<stop  offset="0" style="stop-color:#B3B3B3"/>
									<stop  offset="0.5054" style="stop-color:#E6E6E6"/>
									<stop  offset="1" style="stop-color:#808080"/>
								</radialGradient>
								<path fill="url(#SVGID_46_)" d="M580.002,268.752c-0.014,0-0.026-0.001-0.039-0.002l-47.597-3.869
									c-0.237-0.02-0.425-0.208-0.443-0.445s0.138-0.452,0.369-0.508l68.917-16.478c0.215-0.05,0.433,0.048,0.538,0.24
									c0.104,0.192,0.066,0.43-0.092,0.581l-21.319,20.347C580.246,268.705,580.126,268.752,580.002,268.752z M535.472,264.162
									l44.354,3.606l19.866-18.96L535.472,264.162z"/>
							</g>
						</g>
						<g>
							<g>
								<radialGradient id="SVGID_47_" cx="324.3408" cy="156.6021" r="269.0384" gradientUnits="userSpaceOnUse">
									<stop  offset="0" style="stop-color:#B3B3B3"/>
									<stop  offset="0.5054" style="stop-color:#E6E6E6"/>
									<stop  offset="1" style="stop-color:#808080"/>
								</radialGradient>
								<path fill="url(#SVGID_47_)" d="M598.975,299.64c-0.167,0-0.324-0.088-0.412-0.231l-18.976-30.892
									c-0.116-0.188-0.089-0.432,0.065-0.59c0.154-0.16,0.396-0.194,0.589-0.082l49.598,28.634
									c0.185,0.105,0.277,0.318,0.229,0.525c-0.047,0.207-0.224,0.359-0.436,0.375l-30.622,2.26
									C598.998,299.64,598.986,299.64,598.975,299.64z M581.41,269.637l17.822,29.014l28.762-2.12L581.41,269.637z"/>
							</g>
							<g>
								<radialGradient id="SVGID_48_" cx="324.3408" cy="156.6025" r="269.0382" gradientUnits="userSpaceOnUse">
									<stop  offset="0" style="stop-color:#B3B3B3"/>
									<stop  offset="0.5054" style="stop-color:#E6E6E6"/>
									<stop  offset="1" style="stop-color:#808080"/>
								</radialGradient>
								<path fill="url(#SVGID_48_)" d="M516.488,297.383c-0.129,0-0.254-0.051-0.348-0.147c-0.142-0.146-0.177-0.365-0.087-0.549
									l15.919-32.503c0.088-0.178,0.283-0.28,0.475-0.27l47.598,3.871c0.219,0.019,0.399,0.183,0.438,0.4
									c0.036,0.217-0.078,0.433-0.279,0.523l-63.517,28.632C516.623,297.369,516.556,297.383,516.488,297.383z M532.696,264.905
									l-15.183,31.001l60.582-27.31L532.696,264.905z"/>
							</g>
						</g>
						<g>
							<g>
								<radialGradient id="SVGID_49_" cx="324.3447" cy="156.6035" r="269.0339" gradientUnits="userSpaceOnUse">
									<stop  offset="0" style="stop-color:#B3B3B3"/>
									<stop  offset="0.5054" style="stop-color:#E6E6E6"/>
									<stop  offset="1" style="stop-color:#808080"/>
								</radialGradient>
								<path fill="url(#SVGID_49_)" d="M629.598,297.383c-0.083,0-0.167-0.021-0.242-0.064l-49.598-28.633
									c-0.133-0.075-0.221-0.209-0.238-0.36c-0.02-0.151,0.035-0.303,0.146-0.407l21.319-20.349
									c0.106-0.102,0.25-0.149,0.402-0.129c0.146,0.021,0.276,0.109,0.35,0.237l28.278,48.979c0.109,0.19,0.078,0.429-0.076,0.584
									C629.846,297.335,629.722,297.383,629.598,297.383z M580.801,268.171l47.475,27.406l-27.068-46.883L580.801,268.171z"/>
							</g>
							<g>
								<radialGradient id="SVGID_50_" cx="324.3428" cy="156.6025" r="269.0359" gradientUnits="userSpaceOnUse">
									<stop  offset="0" style="stop-color:#B3B3B3"/>
									<stop  offset="0.5054" style="stop-color:#E6E6E6"/>
									<stop  offset="1" style="stop-color:#808080"/>
								</radialGradient>
								<path fill="url(#SVGID_50_)" d="M566.863,359.117c-0.143,0-0.281-0.063-0.375-0.178l-50.375-61.737
									c-0.095-0.116-0.131-0.271-0.096-0.416c0.034-0.146,0.136-0.269,0.272-0.331l63.517-28.633
									c0.16-0.07,0.35-0.051,0.489,0.055c0.141,0.107,0.214,0.281,0.188,0.457l-13.142,90.369
									c-0.028,0.189-0.165,0.345-0.35,0.396C566.949,359.111,566.905,359.117,566.863,359.117z M517.262,297.079l49.281,60.396
									l12.856-88.407L517.262,297.079z"/>
							</g>
						</g>
					</g>
					<g>
						<g>
							<g>
								<radialGradient id="SVGID_51_" cx="324.3447" cy="156.605" r="269.032" gradientUnits="userSpaceOnUse">
									<stop  offset="0" style="stop-color:#B3B3B3"/>
									<stop  offset="0.5054" style="stop-color:#E6E6E6"/>
									<stop  offset="1" style="stop-color:#808080"/>
								</radialGradient>
								<path fill="url(#SVGID_51_)" d="M516.491,297.092h-56.558c-0.173,0-0.332-0.093-0.418-0.241
									c-0.087-0.149-0.087-0.335,0-0.484l28.278-48.98c0.172-0.299,0.665-0.299,0.837,0l28.279,48.98
									c0.087,0.149,0.087,0.335,0,0.484C516.824,296.999,516.664,297.092,516.491,297.092z M460.771,296.125h54.882l-27.44-47.53
									L460.771,296.125z"/>
							</g>
							<g>
								<radialGradient id="SVGID_52_" cx="324.3418" cy="156.603" r="269.0359" gradientUnits="userSpaceOnUse">
									<stop  offset="0" style="stop-color:#B3B3B3"/>
									<stop  offset="0.5054" style="stop-color:#E6E6E6"/>
									<stop  offset="1" style="stop-color:#808080"/>
								</radialGradient>
								<path fill="url(#SVGID_52_)" d="M488.213,248.118c-0.059,0-0.117-0.01-0.174-0.032c-0.167-0.064-0.285-0.215-0.307-0.393
									l-5.987-48.687c-0.019-0.145,0.03-0.289,0.131-0.394s0.245-0.155,0.389-0.147l56.474,4.629
									c0.194,0.016,0.359,0.146,0.42,0.331c0.062,0.185,0.006,0.388-0.141,0.516L488.531,248
									C488.441,248.077,488.328,248.118,488.213,248.118z M482.777,199.478l5.804,47.193l48.937-42.706L482.777,199.478z"/>
							</g>
						</g>
						<g>
							<g>
								<radialGradient id="SVGID_53_" cx="324.3438" cy="156.603" r="269.0331" gradientUnits="userSpaceOnUse">
									<stop  offset="0" style="stop-color:#B3B3B3"/>
									<stop  offset="0.5054" style="stop-color:#E6E6E6"/>
									<stop  offset="1" style="stop-color:#808080"/>
								</radialGradient>
								<path fill="url(#SVGID_53_)" d="M516.488,297.093c-0.172,0-0.332-0.092-0.418-0.241l-28.279-48.98
									c-0.102-0.176-0.082-0.398,0.049-0.554c0.133-0.156,0.347-0.211,0.539-0.142l44.198,16.478
									c0.127,0.048,0.229,0.146,0.28,0.273c0.05,0.127,0.044,0.27-0.016,0.392l-15.919,32.503
									c-0.078,0.16-0.239,0.264-0.419,0.271C516.5,297.093,516.494,297.093,516.488,297.093z M489.301,248.553l27.152,47.028
									l15.285-31.207L489.301,248.553z"/>
							</g>
							<g>
								<radialGradient id="SVGID_54_" cx="324.3408" cy="156.6021" r="269.0382" gradientUnits="userSpaceOnUse">
									<stop  offset="0" style="stop-color:#B3B3B3"/>
									<stop  offset="0.5054" style="stop-color:#E6E6E6"/>
									<stop  offset="1" style="stop-color:#808080"/>
								</radialGradient>
								<path fill="url(#SVGID_54_)" d="M488.216,248.117c-0.041,0-0.082-0.005-0.121-0.016l-48.556-12.585
									c-0.176-0.045-0.31-0.184-0.351-0.36c-0.04-0.176,0.021-0.36,0.159-0.477l42.567-36.102
									c0.135-0.116,0.324-0.146,0.488-0.082c0.166,0.064,0.282,0.215,0.304,0.392l5.988,48.687c0.02,0.159-0.041,0.317-0.16,0.423
									C488.445,248.075,488.332,248.117,488.216,248.117z M440.685,234.813l46.964,12.173l-5.791-47.091L440.685,234.813z"/>
							</g>
						</g>
						<g>
							<g>
								<radialGradient id="SVGID_55_" cx="324.3389" cy="156.6035" r="269.0391" gradientUnits="userSpaceOnUse">
									<stop  offset="0" style="stop-color:#B3B3B3"/>
									<stop  offset="0.5054" style="stop-color:#E6E6E6"/>
									<stop  offset="1" style="stop-color:#808080"/>
								</radialGradient>
								<path fill="url(#SVGID_55_)" d="M532.407,264.594c-0.057,0-0.114-0.01-0.169-0.03l-44.197-16.478
									c-0.16-0.06-0.276-0.199-0.308-0.366c-0.03-0.167,0.029-0.339,0.158-0.452l50.486-44.058
									c0.149-0.13,0.362-0.156,0.541-0.065c0.176,0.092,0.278,0.282,0.258,0.479l-6.288,60.535
									c-0.016,0.149-0.099,0.282-0.226,0.361C532.585,264.569,532.496,264.594,532.407,264.594z M489.14,247.463l42.852,15.976
									l6.097-58.69L489.14,247.463z"/>
							</g>
							<g>
								<radialGradient id="SVGID_56_" cx="324.3428" cy="156.603" r="269.0341" gradientUnits="userSpaceOnUse">
									<stop  offset="0" style="stop-color:#B3B3B3"/>
									<stop  offset="0.5054" style="stop-color:#E6E6E6"/>
									<stop  offset="1" style="stop-color:#808080"/>
								</radialGradient>
								<path fill="url(#SVGID_56_)" d="M459.937,297.093c-0.016,0-0.033-0.001-0.049-0.003c-0.19-0.019-0.351-0.148-0.41-0.329
									l-20.276-61.565c-0.056-0.168-0.016-0.353,0.105-0.482c0.123-0.13,0.305-0.182,0.475-0.137l48.555,12.585
									c0.146,0.038,0.267,0.142,0.325,0.281s0.048,0.298-0.027,0.429l-28.278,48.98
									C460.269,297.001,460.108,297.093,459.937,297.093z M440.397,235.735l19.66,59.697l27.421-47.493L440.397,235.735z"/>
							</g>
						</g>
					</g>
					<g>
						<g>
							<g>
								<radialGradient id="SVGID_57_" cx="324.3379" cy="156.603" r="269.0403" gradientUnits="userSpaceOnUse">
									<stop  offset="0" style="stop-color:#B3B3B3"/>
									<stop  offset="0.5054" style="stop-color:#E6E6E6"/>
									<stop  offset="1" style="stop-color:#808080"/>
								</radialGradient>
								<path fill="url(#SVGID_57_)" d="M538.701,204.059c-0.013,0-0.025,0-0.039-0.001l-56.475-4.629
									c-0.207-0.017-0.38-0.164-0.43-0.365l-15.963-63.936c-0.052-0.208,0.04-0.427,0.227-0.535
									c0.184-0.108,0.419-0.082,0.576,0.066l72.437,68.565c0.149,0.141,0.192,0.361,0.109,0.548
									C539.065,203.948,538.892,204.059,538.701,204.059z M482.613,198.492l54.756,4.489l-70.233-66.48L482.613,198.492z"/>
							</g>
							<g>
								<radialGradient id="SVGID_58_" cx="324.3379" cy="156.603" r="269.0411" gradientUnits="userSpaceOnUse">
									<stop  offset="0" style="stop-color:#B3B3B3"/>
									<stop  offset="0.5054" style="stop-color:#E6E6E6"/>
									<stop  offset="1" style="stop-color:#808080"/>
								</radialGradient>
								<path fill="url(#SVGID_58_)" d="M466.265,135.5c-0.063,0-0.126-0.012-0.187-0.037c-0.15-0.063-0.26-0.198-0.289-0.359
									l-6.328-34.317c-0.026-0.141,0.012-0.287,0.104-0.397c0.092-0.11,0.228-0.174,0.371-0.174h56.558
									c0.213,0,0.399,0.139,0.462,0.341s-0.015,0.422-0.188,0.542l-50.229,34.317C466.455,135.472,466.361,135.5,466.265,135.5z
									 M460.518,101.183l6.088,33.015l48.323-33.015H460.518z"/>
							</g>
						</g>
						<g>
							<g>
								<radialGradient id="SVGID_59_" cx="324.3418" cy="156.6025" r="269.036" gradientUnits="userSpaceOnUse">
									<stop  offset="0" style="stop-color:#B3B3B3"/>
									<stop  offset="0.5054" style="stop-color:#E6E6E6"/>
									<stop  offset="1" style="stop-color:#808080"/>
								</radialGradient>
								<path fill="url(#SVGID_59_)" d="M538.699,204.06c-0.122,0-0.242-0.046-0.333-0.132l-72.437-68.564
									c-0.162-0.153-0.198-0.396-0.089-0.59s0.339-0.287,0.551-0.228l83.563,23.235c0.252,0.07,0.402,0.328,0.34,0.582
									l-11.126,45.329c-0.04,0.167-0.168,0.3-0.333,0.349C538.791,204.054,538.744,204.06,538.699,204.06z M468.01,136
									l70.418,66.653l10.814-44.065L468.01,136z"/>
							</g>
							<g>
								<radialGradient id="SVGID_60_" cx="324.3408" cy="156.603" r="269.0377" gradientUnits="userSpaceOnUse">
									<stop  offset="0" style="stop-color:#B3B3B3"/>
									<stop  offset="0.5054" style="stop-color:#E6E6E6"/>
									<stop  offset="1" style="stop-color:#808080"/>
								</radialGradient>
								<path fill="url(#SVGID_60_)" d="M431.661,150.162c-0.137,0-0.269-0.057-0.363-0.164c-0.137-0.156-0.159-0.382-0.056-0.562
									l28.279-48.98c0.101-0.175,0.303-0.27,0.5-0.235c0.199,0.035,0.357,0.189,0.395,0.389l6.328,34.318
									c0.04,0.223-0.079,0.445-0.288,0.533l-34.606,14.662C431.788,150.149,431.724,150.162,431.661,150.162z M459.702,102.077
									l-26.9,46.592l32.92-13.947L459.702,102.077z"/>
							</g>
						</g>
						<g>
							<g>
								<radialGradient id="SVGID_61_" cx="324.3389" cy="156.6035" r="269.0399" gradientUnits="userSpaceOnUse">
									<stop  offset="0" style="stop-color:#B3B3B3"/>
									<stop  offset="0.5054" style="stop-color:#E6E6E6"/>
									<stop  offset="1" style="stop-color:#808080"/>
								</radialGradient>
								<path fill="url(#SVGID_61_)" d="M549.824,158.735c-0.043,0-0.087-0.006-0.129-0.018l-83.563-23.236
									c-0.182-0.05-0.317-0.202-0.348-0.387c-0.031-0.186,0.049-0.372,0.203-0.479l50.23-34.317
									c0.111-0.076,0.251-0.103,0.379-0.072c0.132,0.03,0.245,0.113,0.313,0.229l33.333,57.553
									c0.099,0.17,0.084,0.382-0.036,0.539C550.113,158.667,549.972,158.735,549.824,158.735z M467.394,134.828l81.418,22.639
									l-32.479-56.076L467.394,134.828z"/>
							</g>
							<g>
								<radialGradient id="SVGID_62_" cx="324.3369" cy="156.603" r="269.0446" gradientUnits="userSpaceOnUse">
									<stop  offset="0" style="stop-color:#B3B3B3"/>
									<stop  offset="0.5054" style="stop-color:#E6E6E6"/>
									<stop  offset="1" style="stop-color:#808080"/>
								</radialGradient>
								<path fill="url(#SVGID_62_)" d="M482.23,199.431c-0.123,0-0.245-0.046-0.338-0.137l-50.569-49.273
									c-0.116-0.113-0.168-0.276-0.138-0.436c0.029-0.159,0.137-0.293,0.286-0.356l34.606-14.662
									c0.131-0.055,0.279-0.05,0.406,0.013c0.125,0.063,0.218,0.178,0.253,0.315l15.963,63.936
									c0.052,0.209-0.041,0.429-0.229,0.537C482.396,199.41,482.313,199.431,482.23,199.431z M432.52,149.836l48.829,47.577
									l-15.414-61.735L432.52,149.836z"/>
							</g>
						</g>
					</g>
					<g>
						<g>
							<g>
								<radialGradient id="SVGID_63_" cx="324.3418" cy="156.6025" r="269.0361" gradientUnits="userSpaceOnUse">
									<stop  offset="0" style="stop-color:#B3B3B3"/>
									<stop  offset="0.5054" style="stop-color:#E6E6E6"/>
									<stop  offset="1" style="stop-color:#808080"/>
								</radialGradient>
								<path fill="url(#SVGID_63_)" d="M532.534,264.88c-0.166,0-0.324-0.086-0.413-0.232c-0.109-0.179-0.091-0.407,0.047-0.566
									l35.693-41.373c0.165-0.194,0.451-0.225,0.656-0.071l33.224,24.895c0.15,0.112,0.222,0.301,0.183,0.485
									c-0.037,0.184-0.178,0.329-0.36,0.373l-68.917,16.477C532.609,264.876,532.571,264.88,532.534,264.88z M568.298,223.683
									l-34.418,39.895l66.456-15.889L568.298,223.683z"/>
							</g>
							<g>
								<radialGradient id="SVGID_64_" cx="324.3408" cy="156.603" r="269.0372" gradientUnits="userSpaceOnUse">
									<stop  offset="0" style="stop-color:#B3B3B3"/>
									<stop  offset="0.5054" style="stop-color:#E6E6E6"/>
									<stop  offset="1" style="stop-color:#808080"/>
								</radialGradient>
								<path fill="url(#SVGID_64_)" d="M568.228,223.515c-0.013,0-0.024,0-0.037-0.001c-0.202-0.015-0.373-0.155-0.429-0.35
									l-18.279-64.492c-0.037-0.132-0.016-0.274,0.058-0.391c0.072-0.116,0.192-0.196,0.329-0.218l51.502-8.573
									c0.175-0.03,0.354,0.041,0.464,0.183c0.108,0.142,0.13,0.332,0.057,0.495l-33.224,73.065
									C568.589,223.405,568.416,223.515,568.228,223.515z M550.562,158.927l17.771,62.703l32.302-71.038L550.562,158.927z"/>
							</g>
						</g>
						<g>
							<g>
								<radialGradient id="SVGID_65_" cx="324.3428" cy="156.6025" r="269.035" gradientUnits="userSpaceOnUse">
									<stop  offset="0" style="stop-color:#B3B3B3"/>
									<stop  offset="0.5054" style="stop-color:#E6E6E6"/>
									<stop  offset="1" style="stop-color:#808080"/>
								</radialGradient>
								<path fill="url(#SVGID_65_)" d="M601.448,248.405c-0.104,0-0.206-0.034-0.29-0.097l-33.224-24.895
									c-0.141-0.104-0.213-0.278-0.188-0.452c0.023-0.174,0.139-0.322,0.302-0.385l61.503-24.085
									c0.19-0.075,0.408-0.021,0.543,0.135c0.134,0.156,0.154,0.379,0.052,0.558l-28.278,48.979
									c-0.069,0.12-0.187,0.204-0.321,0.232C601.514,248.401,601.48,248.405,601.448,248.405z M569.21,223.16l32.092,24.046
									l27.315-47.312L569.21,223.16z"/>
							</g>
							<g>
								<radialGradient id="SVGID_66_" cx="324.3418" cy="156.603" r="269.035" gradientUnits="userSpaceOnUse">
									<stop  offset="0" style="stop-color:#B3B3B3"/>
									<stop  offset="0.5054" style="stop-color:#E6E6E6"/>
									<stop  offset="1" style="stop-color:#808080"/>
								</radialGradient>
								<path fill="url(#SVGID_66_)" d="M568.23,223.513c-0.092,0-0.184-0.026-0.265-0.078l-29.405-19.163
									c-0.172-0.113-0.254-0.321-0.205-0.521l11.126-45.329c0.052-0.213,0.242-0.365,0.461-0.368
									c0.255,0.008,0.414,0.141,0.475,0.352l18.279,64.492c0.055,0.194-0.018,0.401-0.179,0.521
									C568.433,223.481,568.331,223.513,568.23,223.513z M539.377,203.649l28.036,18.27l-17.428-61.489L539.377,203.649z"/>
							</g>
						</g>
						<g>
							<g>
								<radialGradient id="SVGID_67_" cx="324.3408" cy="156.6035" r="269.0374" gradientUnits="userSpaceOnUse">
									<stop  offset="0" style="stop-color:#B3B3B3"/>
									<stop  offset="0.5054" style="stop-color:#E6E6E6"/>
									<stop  offset="1" style="stop-color:#808080"/>
								</radialGradient>
								<path fill="url(#SVGID_67_)" d="M568.225,223.513c-0.131,0-0.258-0.053-0.352-0.151c-0.135-0.143-0.17-0.354-0.089-0.533
									l33.224-73.065c0.074-0.165,0.236-0.274,0.417-0.283c0.2-0.016,0.353,0.084,0.442,0.241l28.278,48.98
									c0.071,0.122,0.085,0.269,0.038,0.402c-0.047,0.133-0.148,0.239-0.28,0.291l-61.502,24.084
									C568.344,223.502,568.284,223.513,568.225,223.513z M601.499,151.021l-32.34,71.124l59.867-23.445L601.499,151.021z"/>
							</g>
							<g>
								<radialGradient id="SVGID_68_" cx="324.3428" cy="156.603" r="269.0349" gradientUnits="userSpaceOnUse">
									<stop  offset="0" style="stop-color:#B3B3B3"/>
									<stop  offset="0.5054" style="stop-color:#E6E6E6"/>
									<stop  offset="1" style="stop-color:#808080"/>
								</radialGradient>
								<path fill="url(#SVGID_68_)" d="M532.537,264.882c-0.064,0-0.13-0.013-0.191-0.039c-0.194-0.084-0.312-0.284-0.289-0.494
									l6.288-60.536c0.017-0.167,0.121-0.314,0.272-0.386c0.152-0.074,0.331-0.061,0.473,0.031l29.405,19.163
									c0.116,0.076,0.194,0.199,0.214,0.337c0.021,0.138-0.021,0.278-0.112,0.384l-35.693,41.373
									C532.81,264.823,532.675,264.882,532.537,264.882z M539.225,204.701l-6.047,58.215l34.325-39.787L539.225,204.701z"/>
							</g>
						</g>
					</g>
					<g>
						<g>
							<g>
								<radialGradient id="SVGID_69_" cx="324.3447" cy="156.6025" r="269.0352" gradientUnits="userSpaceOnUse">
									<stop  offset="0" style="stop-color:#B3B3B3"/>
									<stop  offset="0.5054" style="stop-color:#E6E6E6"/>
									<stop  offset="1" style="stop-color:#808080"/>
								</radialGradient>
								<path fill="url(#SVGID_69_)" d="M708.347,359.115c-0.106,0-0.212-0.035-0.3-0.104l-78.673-62.024
									c-0.112-0.089-0.18-0.223-0.184-0.366c-0.004-0.146,0.057-0.282,0.164-0.377l35.071-30.783
									c0.114-0.1,0.27-0.142,0.418-0.109c0.148,0.03,0.273,0.13,0.338,0.268l43.602,92.807c0.096,0.203,0.039,0.445-0.137,0.585
									C708.559,359.08,708.453,359.115,708.347,359.115z M630.43,296.587l76.608,60.396l-42.458-90.372L630.43,296.587z"/>
							</g>
							<g>
								<radialGradient id="SVGID_70_" cx="324.3418" cy="156.6025" r="269.0367" gradientUnits="userSpaceOnUse">
									<stop  offset="0" style="stop-color:#B3B3B3"/>
									<stop  offset="0.5054" style="stop-color:#E6E6E6"/>
									<stop  offset="1" style="stop-color:#808080"/>
								</radialGradient>
								<path fill="url(#SVGID_70_)" d="M664.744,266.314c-0.011,0-0.022-0.001-0.033-0.001c-0.168-0.012-0.318-0.11-0.396-0.259
									l-35.07-67.178c-0.075-0.145-0.073-0.317,0.007-0.459c0.078-0.142,0.224-0.235,0.386-0.247l87.757-6.517
									c0.193-0.019,0.365,0.082,0.457,0.245c0.093,0.164,0.081,0.365-0.027,0.519l-52.686,73.694
									C665.047,266.239,664.9,266.314,664.744,266.314z M630.443,199.081l34.365,65.828l51.628-72.214L630.443,199.081z"/>
							</g>
						</g>
						<g>
							<g>
								<radialGradient id="SVGID_71_" cx="324.3379" cy="156.603" r="269.0392" gradientUnits="userSpaceOnUse">
									<stop  offset="0" style="stop-color:#B3B3B3"/>
									<stop  offset="0.5054" style="stop-color:#E6E6E6"/>
									<stop  offset="1" style="stop-color:#808080"/>
								</radialGradient>
								<path fill="url(#SVGID_71_)" d="M708.344,359.116c-0.188,0-0.358-0.108-0.438-0.278l-43.602-92.807
									c-0.106-0.225-0.025-0.493,0.188-0.621l100.751-60.235c0.178-0.104,0.398-0.088,0.558,0.043
									c0.158,0.132,0.216,0.349,0.144,0.541l-57.148,153.042c-0.068,0.183-0.239,0.307-0.434,0.315
									C708.356,359.116,708.35,359.116,708.344,359.116z M665.365,266.016l42.928,91.37l56.264-150.673L665.365,266.016z"/>
							</g>
							<g>
								<radialGradient id="SVGID_72_" cx="324.3477" cy="156.6035" r="269.0323" gradientUnits="userSpaceOnUse">
									<stop  offset="0" style="stop-color:#B3B3B3"/>
									<stop  offset="0.5054" style="stop-color:#E6E6E6"/>
									<stop  offset="1" style="stop-color:#808080"/>
								</radialGradient>
								<path fill="url(#SVGID_72_)" d="M664.747,266.313c-0.044,0-0.09-0.006-0.133-0.019l-63.35-18.198
									c-0.144-0.041-0.26-0.146-0.315-0.284c-0.056-0.138-0.044-0.293,0.03-0.422l28.278-48.98
									c0.088-0.153,0.265-0.232,0.43-0.242c0.176,0.004,0.336,0.104,0.418,0.26l35.07,67.178c0.09,0.171,0.068,0.379-0.054,0.529
									C665.029,266.249,664.89,266.313,664.747,266.313z M602.127,247.337l61.669,17.716l-34.141-65.397L602.127,247.337z"/>
							</g>
						</g>
						<g>
							<g>
								<radialGradient id="SVGID_73_" cx="324.3379" cy="156.603" r="269.0394" gradientUnits="userSpaceOnUse">
									<stop  offset="0" style="stop-color:#B3B3B3"/>
									<stop  offset="0.5054" style="stop-color:#E6E6E6"/>
									<stop  offset="1" style="stop-color:#808080"/>
								</radialGradient>
								<path fill="url(#SVGID_73_)" d="M664.742,266.313c-0.132,0-0.262-0.054-0.356-0.156c-0.155-0.168-0.171-0.422-0.038-0.609
									l52.686-73.694c0.119-0.166,0.329-0.239,0.524-0.185l48.065,13.46c0.186,0.052,0.322,0.21,0.349,0.401
									c0.026,0.192-0.065,0.38-0.231,0.479l-100.75,60.235C664.913,266.29,664.826,266.313,664.742,266.313z M717.624,192.691
									l-51.141,71.532l97.795-58.468L717.624,192.691z"/>
							</g>
							<g>
								<radialGradient id="SVGID_74_" cx="324.3379" cy="156.6035" r="269.0403" gradientUnits="userSpaceOnUse">
									<stop  offset="0" style="stop-color:#B3B3B3"/>
									<stop  offset="0.5054" style="stop-color:#E6E6E6"/>
									<stop  offset="1" style="stop-color:#808080"/>
								</radialGradient>
								<path fill="url(#SVGID_74_)" d="M629.677,297.092c-0.026,0-0.053-0.002-0.078-0.006c-0.144-0.024-0.269-0.11-0.341-0.235
									l-28.278-48.98c-0.099-0.171-0.084-0.385,0.038-0.54c0.121-0.155,0.326-0.222,0.514-0.167l63.35,18.197
									c0.17,0.049,0.3,0.187,0.339,0.359s-0.021,0.353-0.153,0.47l-35.07,30.782C629.907,297.05,629.793,297.092,629.677,297.092z
									 M602.416,248.423l27.385,47.432l33.962-29.81L602.416,248.423z"/>
							</g>
						</g>
					</g>
					<g>
						<g>
							<g>
								<radialGradient id="SVGID_75_" cx="324.3398" cy="156.603" r="269.0367" gradientUnits="userSpaceOnUse">
									<stop  offset="0" style="stop-color:#B3B3B3"/>
									<stop  offset="0.5054" style="stop-color:#E6E6E6"/>
									<stop  offset="1" style="stop-color:#808080"/>
								</radialGradient>
								<path fill="url(#SVGID_75_)" d="M120.492,395.338c-0.119,0-0.237-0.043-0.329-0.129c-0.172-0.161-0.204-0.423-0.075-0.62
									l50.701-77.398c0.1-0.153,0.28-0.244,0.462-0.215c0.183,0.021,0.337,0.146,0.398,0.318l10.738,30.376
									c0.07,0.198,0.004,0.419-0.162,0.546l-61.439,47.023C120.699,395.305,120.596,395.338,120.492,395.338z M171.063,318.537
									l-48.61,74.208l58.905-45.084L171.063,318.537z"/>
							</g>
							<g>
								<radialGradient id="SVGID_76_" cx="324.3408" cy="156.6021" r="269.039" gradientUnits="userSpaceOnUse">
									<stop  offset="0" style="stop-color:#B3B3B3"/>
									<stop  offset="0.5054" style="stop-color:#E6E6E6"/>
									<stop  offset="1" style="stop-color:#808080"/>
								</radialGradient>
								<path fill="url(#SVGID_76_)" d="M171.193,317.945c-0.13,0-0.257-0.052-0.351-0.149l-45.645-47.961
									c-0.146-0.154-0.176-0.387-0.071-0.572c0.107-0.185,0.323-0.277,0.527-0.234l39.912,8.935
									c0.195,0.045,0.344,0.205,0.373,0.403l5.732,39.026c0.03,0.207-0.077,0.412-0.268,0.504
									C171.338,317.93,171.265,317.945,171.193,317.945z M126.997,270.321l43.496,45.704l-5.463-37.189L126.997,270.321z"/>
							</g>
						</g>
						<g>
							<g>
								<radialGradient id="SVGID_77_" cx="324.3408" cy="156.6055" r="269.0351" gradientUnits="userSpaceOnUse">
									<stop  offset="0" style="stop-color:#B3B3B3"/>
									<stop  offset="0.5054" style="stop-color:#E6E6E6"/>
									<stop  offset="1" style="stop-color:#808080"/>
								</radialGradient>
								<path fill="url(#SVGID_77_)" d="M223.602,362.852c-0.054,0-0.107-0.009-0.16-0.027l-41.673-14.534
									c-0.138-0.049-0.247-0.157-0.296-0.295l-10.738-30.377c-0.073-0.207,0.002-0.437,0.182-0.561
									c0.181-0.124,0.423-0.112,0.589,0.031L223.916,362c0.177,0.151,0.221,0.407,0.104,0.608
									C223.932,362.763,223.771,362.852,223.602,362.852z M182.308,347.454l39.032,13.612l-49.091-42.065L182.308,347.454z"/>
							</g>
							<g>
								<radialGradient id="SVGID_78_" cx="324.3408" cy="156.6055" r="269.0355" gradientUnits="userSpaceOnUse">
									<stop  offset="0" style="stop-color:#B3B3B3"/>
									<stop  offset="0.5054" style="stop-color:#E6E6E6"/>
									<stop  offset="1" style="stop-color:#808080"/>
								</radialGradient>
								<path fill="url(#SVGID_78_)" d="M102.035,330.115c-0.144,0-0.281-0.064-0.374-0.178c-0.11-0.135-0.14-0.319-0.076-0.481
									l23.516-60.132c0.061-0.154,0.196-0.268,0.357-0.298c0.164-0.034,0.33,0.021,0.444,0.141l45.645,47.96
									c0.122,0.129,0.164,0.315,0.108,0.484s-0.199,0.295-0.375,0.325l-69.161,12.171
									C102.092,330.112,102.063,330.115,102.035,330.115z M125.726,270.385L102.8,329.006l67.424-11.866L125.726,270.385z"/>
							</g>
						</g>
						<g>
							<g>
								<radialGradient id="SVGID_79_" cx="324.3408" cy="156.6035" r="269.038" gradientUnits="userSpaceOnUse">
									<stop  offset="0" style="stop-color:#B3B3B3"/>
									<stop  offset="0.5054" style="stop-color:#E6E6E6"/>
									<stop  offset="1" style="stop-color:#808080"/>
								</radialGradient>
								<path fill="url(#SVGID_79_)" d="M223.602,362.855c-0.113,0-0.225-0.039-0.315-0.116l-52.41-44.911
									c-0.089-0.077-0.147-0.182-0.165-0.298l-5.732-39.026c-0.032-0.222,0.093-0.438,0.302-0.52
									c0.208-0.081,0.447-0.011,0.575,0.174l58.144,83.938c0.138,0.2,0.106,0.473-0.074,0.635
									C223.834,362.813,223.717,362.855,223.602,362.855z M171.643,317.211l49.425,42.353l-54.831-79.156L171.643,317.211z"/>
							</g>
							<g>
								<radialGradient id="SVGID_80_" cx="324.3389" cy="156.603" r="269.0372" gradientUnits="userSpaceOnUse">
									<stop  offset="0" style="stop-color:#B3B3B3"/>
									<stop  offset="0.5054" style="stop-color:#E6E6E6"/>
									<stop  offset="1" style="stop-color:#808080"/>
								</radialGradient>
								<path fill="url(#SVGID_80_)" d="M120.495,395.34c-0.024,0-0.049-0.002-0.073-0.006c-0.188-0.028-0.341-0.164-0.393-0.347
									l-18.46-65.228c-0.036-0.131-0.017-0.271,0.056-0.388c0.073-0.116,0.192-0.195,0.326-0.22l69.161-12.172
									c0.195-0.034,0.382,0.049,0.488,0.21c0.105,0.161,0.105,0.37,0,0.531l-50.701,77.4
									C120.81,395.259,120.657,395.34,120.495,395.34z M102.646,330.013l18.025,63.69l49.507-75.577L102.646,330.013z"/>
							</g>
						</g>
					</g>
					<g>
						<g>
							<g>
								<radialGradient id="SVGID_81_" cx="324.3428" cy="156.6035" r="269.0399" gradientUnits="userSpaceOnUse">
									<stop  offset="0" style="stop-color:#B3B3B3"/>
									<stop  offset="0.5054" style="stop-color:#E6E6E6"/>
									<stop  offset="1" style="stop-color:#808080"/>
								</radialGradient>
								<path fill="url(#SVGID_81_)" d="M55.396,277.852c-0.039,0-0.079-0.004-0.119-0.015l-60.632-15.349
									c-0.178-0.045-0.314-0.187-0.354-0.365c-0.04-0.179,0.025-0.365,0.168-0.479l88.883-71.861
									c0.167-0.135,0.4-0.143,0.578-0.022c0.177,0.122,0.252,0.344,0.186,0.548l-28.25,87.209
									C55.789,277.721,55.601,277.852,55.396,277.852z M-4.181,261.788l59.256,15l27.608-85.229L-4.181,261.788z"/>
							</g>
							<g>
								<radialGradient id="SVGID_82_" cx="324.3418" cy="156.6035" r="269.0393" gradientUnits="userSpaceOnUse">
									<stop  offset="0" style="stop-color:#B3B3B3"/>
									<stop  offset="0.5054" style="stop-color:#E6E6E6"/>
									<stop  offset="1" style="stop-color:#808080"/>
								</radialGradient>
								<path fill="url(#SVGID_82_)" d="M83.646,190.649c-0.111,0-0.222-0.039-0.31-0.112l-48.113-40.209
									c-0.156-0.131-0.215-0.345-0.145-0.536c0.069-0.191,0.251-0.319,0.454-0.319H92.09c0.146,0,0.283,0.065,0.376,0.179
									c0.092,0.113,0.128,0.262,0.098,0.404l-8.444,40.208c-0.035,0.167-0.154,0.302-0.314,0.358
									C83.752,190.64,83.698,190.649,83.646,190.649z M36.865,150.44l46.473,38.837l8.156-38.837H36.865z"/>
							</g>
						</g>
						<g>
							<g>
								<radialGradient id="SVGID_83_" cx="324.3398" cy="156.6035" r="269.0375" gradientUnits="userSpaceOnUse">
									<stop  offset="0" style="stop-color:#B3B3B3"/>
									<stop  offset="0.5054" style="stop-color:#E6E6E6"/>
									<stop  offset="1" style="stop-color:#808080"/>
								</radialGradient>
								<path fill="url(#SVGID_83_)" d="M55.393,277.853c-0.085,0-0.171-0.022-0.249-0.068c-0.193-0.115-0.281-0.35-0.211-0.564
									l28.25-87.208c0.044-0.136,0.146-0.245,0.278-0.299c0.133-0.055,0.281-0.047,0.406,0.02l36.787,19.348
									c0.135,0.07,0.229,0.2,0.252,0.351c0.024,0.15-0.022,0.302-0.128,0.413l-65.036,67.859
									C55.647,277.802,55.521,277.853,55.393,277.853z M83.926,190.856l-27.423,84.655l63.133-65.874L83.926,190.856z"/>
							</g>
							<g>
								<radialGradient id="SVGID_84_" cx="324.3428" cy="156.6035" r="269.0409" gradientUnits="userSpaceOnUse">
									<stop  offset="0" style="stop-color:#B3B3B3"/>
									<stop  offset="0.5054" style="stop-color:#E6E6E6"/>
									<stop  offset="1" style="stop-color:#808080"/>
								</radialGradient>
								<path fill="url(#SVGID_84_)" d="M7.257,199.419c-0.161,0-0.314-0.081-0.404-0.218c-0.101-0.153-0.106-0.349-0.015-0.507
									l28.279-48.98c0.07-0.124,0.193-0.209,0.334-0.234c0.137-0.025,0.285,0.013,0.395,0.104l48.112,40.209
									c0.148,0.124,0.209,0.324,0.153,0.51c-0.055,0.185-0.215,0.32-0.408,0.341l-76.392,8.771
									C7.294,199.418,7.274,199.419,7.257,199.419z M35.667,150.695l-27.511,47.65l74.317-8.533L35.667,150.695z"/>
							</g>
						</g>
						<g>
							<g>
								<radialGradient id="SVGID_85_" cx="324.3418" cy="156.603" r="269.0397" gradientUnits="userSpaceOnUse">
									<stop  offset="0" style="stop-color:#B3B3B3"/>
									<stop  offset="0.5054" style="stop-color:#E6E6E6"/>
									<stop  offset="1" style="stop-color:#808080"/>
								</radialGradient>
								<path fill="url(#SVGID_85_)" d="M120.429,209.996c-0.076,0-0.153-0.019-0.225-0.056l-36.786-19.348
									c-0.191-0.101-0.293-0.316-0.248-0.527l8.443-40.209c0.043-0.203,0.21-0.357,0.416-0.381
									c0.214-0.022,0.405,0.085,0.494,0.272l28.342,59.558c0.09,0.188,0.05,0.412-0.101,0.557
									C120.672,209.95,120.551,209.996,120.429,209.996z M84.191,189.906l35.176,18.501l-27.102-56.951L84.191,189.906z"/>
							</g>
							<g>
								<radialGradient id="SVGID_86_" cx="324.3438" cy="156.6025" r="269.0402" gradientUnits="userSpaceOnUse">
									<stop  offset="0" style="stop-color:#B3B3B3"/>
									<stop  offset="0.5054" style="stop-color:#E6E6E6"/>
									<stop  offset="1" style="stop-color:#808080"/>
								</radialGradient>
								<path fill="url(#SVGID_86_)" d="M-5.234,262.505c-0.086,0-0.173-0.023-0.25-0.069c-0.174-0.105-0.264-0.309-0.224-0.509
									l12.49-63.089c0.041-0.206,0.21-0.363,0.42-0.386l76.392-8.771c0.21-0.029,0.418,0.096,0.501,0.293
									c0.083,0.199,0.025,0.428-0.142,0.563l-88.883,71.86C-5.018,262.469-5.125,262.505-5.234,262.505z M7.663,199.372
									L-4.5,260.806l86.55-69.975L7.663,199.372z"/>
							</g>
						</g>
					</g>
					<g>
						<g>
							<g>
								<radialGradient id="SVGID_87_" cx="324.3418" cy="156.603" r="269.0365" gradientUnits="userSpaceOnUse">
									<stop  offset="0" style="stop-color:#B3B3B3"/>
									<stop  offset="0.5054" style="stop-color:#E6E6E6"/>
									<stop  offset="1" style="stop-color:#808080"/>
								</radialGradient>
								<path fill="url(#SVGID_87_)" d="M629.671,199.358c-0.183,0-0.353-0.104-0.434-0.27c-0.088-0.177-0.059-0.389,0.073-0.536
									l53.238-59.562c0.101-0.113,0.249-0.173,0.397-0.16c0.15,0.011,0.286,0.092,0.368,0.218l34.519,53.044
									c0.093,0.144,0.104,0.326,0.028,0.479c-0.077,0.153-0.229,0.255-0.398,0.268l-87.756,6.518
									C629.694,199.358,629.683,199.358,629.671,199.358z M682.849,140.107l-52.019,58.197l85.746-6.368L682.849,140.107z"/>
							</g>
							<g>
								<radialGradient id="SVGID_88_" cx="324.3418" cy="156.6035" r="269.0365" gradientUnits="userSpaceOnUse">
									<stop  offset="0" style="stop-color:#B3B3B3"/>
									<stop  offset="0.5054" style="stop-color:#E6E6E6"/>
									<stop  offset="1" style="stop-color:#808080"/>
								</radialGradient>
								<path fill="url(#SVGID_88_)" d="M682.909,139.804c-0.135,0-0.265-0.057-0.356-0.157l-35.447-38.621
									c-0.114-0.125-0.154-0.299-0.108-0.461c0.046-0.162,0.175-0.288,0.337-0.333l90.429-24.726
									c0.208-0.054,0.423,0.029,0.536,0.209c0.113,0.181,0.096,0.414-0.043,0.575l-54.98,63.347
									c-0.091,0.104-0.222,0.165-0.359,0.167C682.914,139.804,682.911,139.804,682.909,139.804z M648.354,100.956l34.545,37.637
									l53.58-61.733L648.354,100.956z"/>
							</g>
						</g>
						<g>
							<g>
								<radialGradient id="SVGID_89_" cx="324.3428" cy="156.6035" r="269.0358" gradientUnits="userSpaceOnUse">
									<stop  offset="0" style="stop-color:#B3B3B3"/>
									<stop  offset="0.5054" style="stop-color:#E6E6E6"/>
									<stop  offset="1" style="stop-color:#808080"/>
								</radialGradient>
								<path fill="url(#SVGID_89_)" d="M717.425,192.843c-0.028,0-0.058-0.002-0.086-0.008c-0.132-0.023-0.247-0.101-0.319-0.212
									l-34.519-53.044c-0.115-0.177-0.102-0.408,0.031-0.571c0.134-0.164,0.358-0.22,0.554-0.143l69.042,27.533
									c0.162,0.065,0.277,0.213,0.3,0.388c0.023,0.174-0.051,0.347-0.192,0.451l-34.523,25.511
									C717.629,192.81,717.527,192.843,717.425,192.843z M684.144,140.329l33.407,51.336l33.411-24.689L684.144,140.329z"/>
							</g>
							<g>
								<radialGradient id="SVGID_90_" cx="324.3408" cy="156.603" r="269.0375" gradientUnits="userSpaceOnUse">
									<stop  offset="0" style="stop-color:#B3B3B3"/>
									<stop  offset="0.5054" style="stop-color:#E6E6E6"/>
									<stop  offset="1" style="stop-color:#808080"/>
								</radialGradient>
								<path fill="url(#SVGID_90_)" d="M601.396,150.383c-0.18,0-0.347-0.1-0.431-0.263c-0.093-0.181-0.062-0.402,0.077-0.551
									l46.069-49.203c0.092-0.098,0.197-0.167,0.356-0.153c0.134,0,0.263,0.058,0.354,0.157l35.447,38.621
									c0.122,0.133,0.16,0.323,0.099,0.493c-0.062,0.169-0.214,0.291-0.393,0.313l-81.518,10.582
									C601.437,150.382,601.416,150.383,601.396,150.383z M647.461,101.408l-44.791,47.838l79.256-10.288L647.461,101.408z"/>
							</g>
						</g>
						<g>
							<g>
								<radialGradient id="SVGID_91_" cx="324.3428" cy="156.6035" r="269.0359" gradientUnits="userSpaceOnUse">
									<stop  offset="0" style="stop-color:#B3B3B3"/>
									<stop  offset="0.5054" style="stop-color:#E6E6E6"/>
									<stop  offset="1" style="stop-color:#808080"/>
								</radialGradient>
								<path fill="url(#SVGID_91_)" d="M751.948,167.335c-0.061,0-0.121-0.011-0.18-0.035l-69.041-27.533
									c-0.146-0.058-0.254-0.183-0.291-0.335s0.003-0.313,0.104-0.431l54.98-63.347c0.124-0.143,0.317-0.201,0.5-0.147
									c0.181,0.052,0.314,0.205,0.344,0.391l14.061,90.88c0.026,0.172-0.04,0.345-0.176,0.453
									C752.162,167.299,752.056,167.335,751.948,167.335z M683.719,139.121l67.622,26.967l-13.772-89.013L683.719,139.121z"/>
							</g>
							<g>
								<radialGradient id="SVGID_92_" cx="324.3408" cy="156.603" r="269.0356" gradientUnits="userSpaceOnUse">
									<stop  offset="0" style="stop-color:#B3B3B3"/>
									<stop  offset="0.5054" style="stop-color:#E6E6E6"/>
									<stop  offset="1" style="stop-color:#808080"/>
								</radialGradient>
								<path fill="url(#SVGID_92_)" d="M629.674,199.36c-0.016,0-0.033-0.001-0.05-0.002c-0.154-0.016-0.291-0.105-0.368-0.24
									l-28.279-48.98c-0.081-0.14-0.087-0.311-0.015-0.456c0.071-0.145,0.21-0.245,0.371-0.265l81.517-10.582
									c0.201-0.025,0.397,0.075,0.49,0.254c0.095,0.179,0.067,0.397-0.066,0.548l-53.238,59.562
									C629.942,199.302,629.811,199.36,629.674,199.36z M602.177,150.283l27.582,47.773l51.927-58.094L602.177,150.283z"/>
							</g>
						</g>
					</g>
					<g>
						<g>
							<g>
								<radialGradient id="SVGID_93_" cx="324.3408" cy="156.6025" r="269.0371" gradientUnits="userSpaceOnUse">
									<stop  offset="0" style="stop-color:#B3B3B3"/>
									<stop  offset="0.5054" style="stop-color:#E6E6E6"/>
									<stop  offset="1" style="stop-color:#808080"/>
								</radialGradient>
								<path fill="url(#SVGID_93_)" d="M375.107,248.114c-0.198,0-0.382-0.123-0.453-0.314c-0.083-0.221,0.006-0.47,0.211-0.588
									l49.484-28.573c0.193-0.111,0.439-0.076,0.594,0.087l15.075,15.988c0.121,0.128,0.162,0.312,0.107,0.479
									c-0.054,0.168-0.194,0.293-0.367,0.327L375.2,248.104C375.169,248.111,375.138,248.114,375.107,248.114z M424.501,219.667
									l-46.645,26.934l60.855-11.864L424.501,219.667z"/>
							</g>
							<g>
								<radialGradient id="SVGID_94_" cx="324.3398" cy="156.6025" r="269.0395" gradientUnits="userSpaceOnUse">
									<stop  offset="0" style="stop-color:#B3B3B3"/>
									<stop  offset="0.5054" style="stop-color:#E6E6E6"/>
									<stop  offset="1" style="stop-color:#808080"/>
								</radialGradient>
								<path fill="url(#SVGID_94_)" d="M424.591,219.547c-0.109,0-0.218-0.038-0.307-0.11l-74.012-60.668
									c-0.15-0.124-0.213-0.325-0.157-0.512c0.056-0.187,0.219-0.322,0.412-0.343l81.084-8.719
									c0.154-0.018,0.29,0.035,0.394,0.138s0.155,0.247,0.14,0.392l-7.072,69.387c-0.019,0.177-0.132,0.33-0.297,0.398
									C424.716,219.535,424.653,219.547,424.591,219.547z M351.778,158.752l72.423,59.365l6.921-67.896L351.778,158.752z"/>
							</g>
						</g>
						<g>
							<g>
								<radialGradient id="SVGID_95_" cx="324.3398" cy="156.603" r="269.038" gradientUnits="userSpaceOnUse">
									<stop  offset="0" style="stop-color:#B3B3B3"/>
									<stop  offset="0.5054" style="stop-color:#E6E6E6"/>
									<stop  offset="1" style="stop-color:#808080"/>
								</radialGradient>
								<path fill="url(#SVGID_95_)" d="M439.663,235.53c-0.129,0-0.257-0.051-0.353-0.152l-15.074-15.988
									c-0.113-0.119-0.157-0.288-0.117-0.447c0.038-0.159,0.155-0.288,0.31-0.342l57.642-20.114
									c0.223-0.077,0.464,0.014,0.579,0.217c0.116,0.202,0.071,0.458-0.106,0.609l-42.567,36.102
									C439.885,235.492,439.773,235.53,439.663,235.53z M425.452,219.27L439.7,234.38l40.233-34.123L425.452,219.27z"/>
							</g>
							<g>
								<radialGradient id="SVGID_96_" cx="324.3408" cy="156.603" r="269.0381" gradientUnits="userSpaceOnUse">
									<stop  offset="0" style="stop-color:#B3B3B3"/>
									<stop  offset="0.5054" style="stop-color:#E6E6E6"/>
									<stop  offset="1" style="stop-color:#808080"/>
								</radialGradient>
								<path fill="url(#SVGID_96_)" d="M424.594,219.545c-0.04,0-0.082-0.005-0.122-0.016l-77.763-20.407
									c-0.229-0.06-0.381-0.277-0.359-0.513l3.751-40.261c0.017-0.178,0.13-0.333,0.296-0.401
									c0.163-0.068,0.353-0.042,0.493,0.072l74.012,60.668c0.176,0.144,0.227,0.391,0.123,0.594
									C424.94,219.446,424.772,219.545,424.594,219.545z M347.351,198.291l75.224,19.74l-71.596-58.687L347.351,198.291z"/>
							</g>
						</g>
						<g>
							<g>
								<radialGradient id="SVGID_97_" cx="324.3398" cy="156.603" r="269.0388" gradientUnits="userSpaceOnUse">
									<stop  offset="0" style="stop-color:#B3B3B3"/>
									<stop  offset="0.5054" style="stop-color:#E6E6E6"/>
									<stop  offset="1" style="stop-color:#808080"/>
								</radialGradient>
								<path fill="url(#SVGID_97_)" d="M424.588,219.545c-0.107,0-0.213-0.036-0.299-0.104c-0.131-0.103-0.198-0.265-0.182-0.429
									l7.072-69.387c0.02-0.185,0.142-0.342,0.315-0.405c0.173-0.065,0.37-0.022,0.503,0.108l50.569,49.273
									c0.12,0.116,0.171,0.288,0.136,0.451c-0.037,0.163-0.155,0.296-0.313,0.352l-57.642,20.114
									C424.696,219.537,424.643,219.545,424.588,219.545z M432.041,150.72l-6.895,67.635l56.187-19.606L432.041,150.72z"/>
							</g>
							<g>
								<radialGradient id="SVGID_98_" cx="324.3398" cy="156.603" r="269.0399" gradientUnits="userSpaceOnUse">
									<stop  offset="0" style="stop-color:#B3B3B3"/>
									<stop  offset="0.5054" style="stop-color:#E6E6E6"/>
									<stop  offset="1" style="stop-color:#808080"/>
								</radialGradient>
								<path fill="url(#SVGID_98_)" d="M375.11,248.115c-0.042,0-0.084-0.006-0.125-0.017c-0.125-0.033-0.23-0.114-0.294-0.226
									l-28.278-48.98c-0.099-0.169-0.084-0.38,0.034-0.535c0.117-0.156,0.317-0.226,0.507-0.174l77.763,20.407
									c0.189,0.049,0.331,0.208,0.356,0.403c0.026,0.194-0.067,0.385-0.237,0.483l-49.484,28.573
									C375.278,248.093,375.194,248.115,375.11,248.115z M347.83,199.414l27.457,47.557l48.047-27.743L347.83,199.414z"/>
							</g>
						</g>
					</g>
				</g>
				<circle fill="#DEE2E2" cx="439.666" cy="236.679" r="17.28"/>
				<g>
					<g>
						<g>
							<g>
								<path fill="#FFFFFF" d="M442.956,236.679c0,2.453,1.988,4.441,4.441,4.441c1.935,0,3.575-1.238,4.185-2.964h-4.185v-2.956
									h4.185c-0.609-1.726-2.25-2.964-4.185-2.964C444.944,232.237,442.956,234.226,442.956,236.679z"/>
								<path fill="#FFFFFF" d="M435.973,236.679c0-2.453-1.989-4.442-4.442-4.442c-1.934,0-3.575,1.238-4.185,2.964h4.185v2.956
									h-4.185c0.609,1.726,2.251,2.964,4.185,2.964C433.983,241.12,435.973,239.132,435.973,236.679z"/>
							</g>
							<rect x="434.431" y="235.201" fill="#FFFFFF" width="10.394" height="2.956"/>
						</g>
					</g>
					<path opacity="0.25" fill="#FFFFFF" d="M431.53,236.679h15.867v-1.478h4.185c-0.609-1.726-2.25-2.964-4.185-2.964
						c-1.934,0-3.574,1.238-4.185,2.964h-7.498c-0.609-1.726-2.25-2.964-4.185-2.964c-1.934,0-3.575,1.238-4.185,2.964h4.185
						V236.679z"/>
				</g>
				<circle fill="#D3D3D3" cx="346.73" cy="295.862" r="18.603"/>
				<g>
					<g>
						<rect x="343.389" y="284.813" fill="#FFFFFF" width="6.684" height="9.051"/>
						<rect x="343.389" y="293.073" opacity="0.56" fill="#FFFFFF" width="6.684" height="0.791"/>
						<rect x="346.73" y="284.813" opacity="0.25" fill="#FFFFFF" width="3.342" height="9.051"/>
						<g>
							<polygon fill="#FFFFFF" points="346.73,300.806 339.76,293.827 353.7,293.827 							"/>
							<polygon opacity="0.25" fill="#FFFFFF" points="346.73,300.806 353.7,293.827 346.73,293.827 							"/>
						</g>
					</g>
					<g>
						<g>
							<polygon fill="#FFFFFF" points="356.894,306.911 336.567,306.911 336.567,299.597 339.197,299.597 339.197,304.282 
								354.264,304.282 354.264,299.597 356.894,299.597 							"/>
						</g>
						<polygon opacity="0.25" fill="#FFFFFF" points="337.842,299.597 337.842,305.556 355.538,305.556 355.538,299.597 
							354.264,299.597 354.264,304.282 339.197,304.282 339.197,299.597 						"/>
					</g>
				</g>
				<circle fill="#CCCECE" cx="242.945" cy="191.279" r="22.441"/>
				<g>
					<circle fill="#CCCCCC" cx="516.791" cy="292.041" r="15.635"/>
					<g>
						<g>
							<g>
								<path fill="#FFFFFF" d="M519.564,286.891c0.429,0.289,0.678,0.74,0.737,1.217l1.086-0.136
									c-0.097-0.777-0.513-1.512-1.212-1.984s-1.535-0.586-2.293-0.387l0.278,1.058
									C518.626,286.536,519.137,286.601,519.564,286.891z"/>
								<path fill="#FFFFFF" d="M520.747,285.143c0.952,0.645,1.519,1.645,1.651,2.704l1.08-0.135
									c-0.17-1.36-0.898-2.646-2.12-3.473c-1.223-0.827-2.686-1.024-4.012-0.677l0.276,1.053
									C518.656,284.345,519.795,284.499,520.747,285.143z"/>
								<path fill="#FFFFFF" d="M521.971,283.334c1.494,1.011,2.384,2.58,2.592,4.243l1.08-0.134
									c-0.245-1.965-1.296-3.818-3.061-5.013c-1.765-1.193-3.876-1.479-5.791-0.977l0.277,1.053
									C518.689,282.081,520.477,282.323,521.971,283.334z"/>
							</g>
							<g opacity="0.25">
								<path fill="#FFFFFF" d="M520.176,285.987L520.176,285.987l-0.611,0.903l0,0c0.429,0.289,0.678,0.74,0.737,1.217l1.086-0.136
									C521.291,287.194,520.875,286.46,520.176,285.987z"/>
								<path fill="#FFFFFF" d="M521.358,284.239L521.358,284.239l-0.611,0.903l0,0c0.952,0.645,1.519,1.645,1.651,2.704l1.08-0.135
									C523.309,286.352,522.58,285.066,521.358,284.239z"/>
								<path fill="#FFFFFF" d="M522.582,282.431L522.582,282.431l-0.611,0.903l0,0c1.494,1.011,2.384,2.58,2.592,4.243l1.08-0.134
									C525.397,285.479,524.347,283.625,522.582,282.431z"/>
							</g>
						</g>
						<path fill="#FFFFFF" d="M527.904,297.762c0.008-0.055,0.016-0.108,0.02-0.163c0.098-1.232-0.686-2.323-1.751-2.437
							c-0.208-0.022-0.41-0.005-0.604,0.046c-0.552-1.881-2.087-3.236-3.898-3.236c-0.474,0-0.927,0.098-1.351,0.268
							c-0.978-2.18-2.942-3.672-5.211-3.672c-2.739,0-5.033,2.175-5.682,5.111c-1.989,0.043-3.608,1.821-3.778,4.083H527.904z"/>
					</g>
				</g>
				<circle fill="#666666" cx="390.597" cy="263.285" r="3.408"/>
				<circle fill="#666666" cx="283.939" cy="327.716" r="3.408"/>
				<circle fill="#666666" cx="374.905" cy="246.955" r="1.905"/>
				<circle fill="#666666" cx="424.588" cy="218.096" r="1.906"/>
				<circle fill="#666666" cx="482.224" cy="197.98" r="2.775"/>
				<circle fill="#666666" cx="538.825" cy="202.607" r="2.374"/>
				<circle fill="#666666" cx="568.225" cy="222.057" r="2.374"/>
				<circle fill="#666666" cx="717.483" cy="192.56" r="3.63"/>
				<circle fill="#666666" cx="629.834" cy="199.193" r="2.728"/>
				<circle fill="#666666" cx="664.271" cy="265.601" r="2.286"/>
				<circle fill="#666666" cx="708.451" cy="358.797" r="2.286"/>
				<circle fill="#666666" cx="681.983" cy="138.914" r="2.286"/>
				<circle fill="#666666" cx="647.469" cy="100.736" r="2.286"/>
				<circle fill="#666666" cx="459.937" cy="295.639" r="2.601"/>
				<circle fill="#666666" cx="293.939" cy="134.05" r="4.149"/>
				<circle fill="#666666" cx="290.075" cy="197.72" r="2.579"/>
				<circle fill="#666666" cx="176.56" cy="198.446" r="3.228"/>
				<circle fill="#666666" cx="92.068" cy="149.607" r="3.227"/>
				<circle fill="#666666" cx="120.009" cy="208.069" r="2.28"/>
				<circle fill="#666666" cx="125.549" cy="268.613" r="2.28"/>
				<circle fill="#666666" cx="165.941" cy="278.062" r="3.816"/>
				<circle fill="#666666" cx="254.25" cy="259.838" r="2.388"/>
				<g>
					<circle fill="#D1D2D3" cx="549.948" cy="159.307" r="20.408"/>
					<g>
						<g>
							<polygon fill="#FFFFFF" points="538.27,151.912 538.27,166.551 546.683,158.462 							"/>
							<polygon fill="#FFFFFF" points="561.626,166.551 561.626,151.911 553.213,158.462 							"/>
							<polygon fill="#FFFFFF" points="549.947,161.004 547.472,159.076 539.003,167.217 560.893,167.217 552.424,159.076 							
								"/>
							<polygon fill="#FFFFFF" points="560.679,151.396 552.49,157.769 552.098,158.076 551.706,158.383 549.947,159.75 
								548.194,158.383 547.797,158.076 547.405,157.769 539.217,151.396 							"/>
						</g>
					</g>
				</g>
				<g>
					<g>
						<g>
							<path fill="#FFFFFF" d="M250.874,184.326c0.234,0.703,0.124,1.432-0.224,2.026l1.352,0.794
								c0.568-0.968,0.736-2.166,0.354-3.313c-0.381-1.147-1.232-2.005-2.268-2.441l-0.607,1.446
								C250.116,183.104,250.641,183.623,250.874,184.326z"/>
							<path fill="#FFFFFF" d="M253.742,183.372c0.521,1.562,0.291,3.193-0.482,4.513l1.345,0.79c0.994-1.695,1.288-3.79,0.62-5.796
								c-0.667-2.006-2.156-3.508-3.968-4.27l-0.604,1.438C252.063,180.64,253.223,181.81,253.742,183.372z"/>
							<path fill="#FFFFFF" d="M256.711,182.385c0.815,2.452,0.457,5.012-0.758,7.083l1.345,0.79
								c1.436-2.446,1.859-5.47,0.896-8.366c-0.964-2.896-3.113-5.064-5.728-6.163l-0.604,1.438
								C254.076,178.098,255.896,179.933,256.711,182.385z"/>
						</g>
						<g opacity="0.25">
							<path fill="#FFFFFF" d="M252.356,183.833L252.356,183.833l-1.482,0.493l0,0c0.234,0.703,0.124,1.432-0.224,2.026l1.352,0.794
								C252.57,186.177,252.738,184.979,252.356,183.833z"/>
							<path fill="#FFFFFF" d="M255.225,182.879L255.225,182.879l-1.482,0.493l0,0c0.521,1.562,0.291,3.193-0.482,4.513l1.345,0.79
								C255.599,186.98,255.893,184.885,255.225,182.879z"/>
							<path fill="#FFFFFF" d="M258.194,181.892L258.194,181.892l-1.483,0.493l0,0c0.815,2.452,0.457,5.012-0.758,7.083l1.345,0.79
								C258.733,187.812,259.157,184.788,258.194,181.892z"/>
						</g>
					</g>
					<path fill="#FFFFFF" d="M246.203,190.552c1.735-0.853,2.492-2.933,1.688-4.707c-0.804-1.773-2.868-2.573-4.652-1.829
						L246.203,190.552z"/>
					<polygon fill="#FFFFFF" points="240.544,204.625 230.21,204.625 232.175,195.58 238.58,195.58 					"/>
					<polygon opacity="0.25" fill="#FFFFFF" points="238.58,195.58 230.21,204.625 240.544,204.625 					"/>
					<polygon opacity="0.35" fill="#FFFFFF" points="240.544,204.625 230.21,204.625 230.371,203.883 240.383,203.883 					"/>
					<path fill="#FFFFFF" d="M239.156,177.81c-5.042,2.478-7.243,8.522-4.905,13.675c2.337,5.152,8.335,7.477,13.521,5.315
						L239.156,177.81z"/>
					<circle fill="#FFFFFF" cx="234.454" cy="193.321" r="4.284"/>
					<circle opacity="0.35" fill="#FFFFFF" cx="234.454" cy="193.321" r="3.029"/>
				</g>
				
					<polygon fill="none" stroke="#808080" stroke-width="0.9674" stroke-linecap="round" stroke-linejoin="round" stroke-miterlimit="10" points="
					102.036,328.661 -0.235,314.465 -9.909,357.664 5.408,404.109 				"/>
				<g>
					<circle fill="#9E9E9E" cx="155.656" cy="237.085" r="11.475"/>
					<g>
						<g>
							<path fill="#FFFFFF" d="M155.656,230.109c-2.938,0-5.318,2.381-5.318,5.319c0,2.938,5.318,8.633,5.318,8.633
								s5.319-5.696,5.319-8.633C160.976,232.49,158.595,230.109,155.656,230.109z M155.656,238.467
								c-1.678,0-3.038-1.36-3.038-3.039s1.36-3.039,3.038-3.039c1.679,0,3.039,1.361,3.039,3.039S157.335,238.467,155.656,238.467z
								"/>
						</g>
						<path opacity="0.25" fill="#FFFFFF" d="M155.656,230.109v2.28c1.679,0,3.039,1.361,3.039,3.039s-1.36,3.039-3.039,3.039v5.595
							c0,0,5.319-5.696,5.319-8.633C160.976,232.49,158.595,230.109,155.656,230.109z"/>
					</g>
				</g>
				<g>
					<circle fill="#B9B9BA" cx="231.695" cy="299.597" r="16.865"/>
					<g>
						<path fill="#FFFFFF" d="M239.957,305.041h-16.523c-1.184,0-2.143-0.959-2.143-2.143v-9.405c0-1.185,0.959-2.144,2.143-2.144
							h16.523c1.184,0,2.143,0.959,2.143,2.144v9.405C242.1,304.082,241.141,305.041,239.957,305.041z"/>
						<polygon fill="#FFFFFF" points="225.863,309.619 223.769,304.81 229.814,304.81 						"/>
						<g>
							<path fill="#DDDDDD" d="M239.11,295.354c0.246,0,0.446,0.2,0.446,0.447l0,0c0,0.246-0.2,0.446-0.446,0.446h-14.83
								c-0.246,0-0.446-0.2-0.446-0.446l0,0c0-0.247,0.2-0.447,0.446-0.447"/>
							<path fill="#DDDDDD" d="M239.11,298.559h-14.83c-0.246,0-0.446-0.2-0.446-0.447l0,0c0-0.246,0.2-0.446,0.446-0.446h14.83
								c0.246,0,0.446,0.2,0.446,0.446l0,0C239.557,298.358,239.356,298.559,239.11,298.559z"/>
							<path fill="#DDDDDD" d="M239.11,300.869h-14.83c-0.246,0-0.446-0.2-0.446-0.447l0,0c0-0.246,0.2-0.446,0.446-0.446h14.83
								c0.246,0,0.446,0.2,0.446,0.446l0,0C239.557,300.669,239.356,300.869,239.11,300.869z"/>
						</g>
					</g>
				</g>
				<g>
					<circle fill="#D3D3D3" cx="602.975" cy="246.955" r="14.351"/>
					<g>
						<g>
							<path fill="#FFFFFF" d="M596.352,249.508l-1.224-0.013c-0.264-0.801-0.41-1.654-0.414-2.542l1.009-0.453
								c0.118-0.819,0.154-1.068,0.271-1.886l-0.735-0.631c0.322-0.847,0.771-1.631,1.339-2.318l0.85,0.241
								c0.616-0.551,0.804-0.719,1.421-1.27l-0.133-0.799c0.774-0.464,1.626-0.812,2.538-1.002l0.448,0.66
								c0.827-0.026,1.078-0.034,1.905-0.06l0.414-0.7c0.922,0.119,1.794,0.39,2.594,0.788l-0.088,0.873
								c0.649,0.512,0.847,0.667,1.497,1.178l0.926-0.326c0.603,0.637,1.104,1.37,1.48,2.174l-0.786,0.765
								c0.169,0.81,0.221,1.056,0.389,1.865l1.16,0.436c0.008,0.144,0.022,0.286,0.022,0.432c0,0.718-0.102,1.411-0.273,2.075
								l-1.347,0.099c-0.392,0.729-0.51,0.95-0.901,1.679l0.724,1.283c-0.507,0.637-1.104,1.197-1.773,1.661l-1.241-0.896
								c-0.769,0.308-1.001,0.4-1.77,0.708l-0.285,1.524c-0.454,0.077-0.918,0.127-1.395,0.127c-0.345,0-0.683-0.028-1.017-0.069
								l-0.376-1.486c-0.786-0.258-1.024-0.337-1.811-0.595l-1.119,0.92c-0.708-0.437-1.344-0.974-1.889-1.596l0.593-1.226
								C596.92,250.424,596.787,250.211,596.352,249.508z"/>
						</g>
						<circle fill="none" stroke="#C4C5C6" stroke-width="1.9349" stroke-miterlimit="10" cx="602.974" cy="246.955" r="4.529"/>
					</g>
				</g>
				<g opacity="0.25">
					<path fill="#FFFFFF" d="M602.974,255.179c0.295,0,0.584-0.023,0.87-0.057h-1.76
						C602.377,255.155,602.672,255.179,602.974,255.179z"/>
				</g>
				<g>
					<circle fill="#A8A8A8" cx="83.643" cy="189.816" r="14.809"/>
					<g>
						<polyline fill="none" stroke="#FFFFFF" stroke-width="1.2552" stroke-miterlimit="10" points="74.669,189.381 84.424,196.141 
							90.404,182.242 						"/>
						<g>
							<circle fill="#FFFFFF" cx="75.453" cy="189.989" r="2.223"/>
						</g>
						<g>
							<circle fill="#FFFFFF" cx="84.424" cy="196.141" r="2.223"/>
						</g>
						<g>
							<circle fill="#FFFFFF" cx="90.405" cy="182.242" r="2.223"/>
						</g>
					</g>
				</g>
				<g>
					<circle fill="#C8CECE" cx="171.193" cy="319.563" r="13.154"/>
					<g>
						<g>
							<path fill="#FFFFFF" d="M171.135,323.939c0.947,0.01,1.784,0.446,2.357,1.115l1.523-1.305
								c-0.935-1.091-2.313-1.793-3.859-1.81c-1.546-0.017-2.939,0.655-3.897,1.727l1.495,1.337
								C169.342,324.348,170.188,323.929,171.135,323.939z"/>
							<path fill="#FFFFFF" d="M171.177,320.072c2.106,0.022,3.983,0.979,5.257,2.465l1.517-1.298
								c-1.635-1.909-4.047-3.137-6.752-3.166s-5.143,1.146-6.819,3.02l1.488,1.33C167.172,320.965,169.07,320.049,171.177,320.072z
								"/>
							<path fill="#FFFFFF" d="M171.22,316.069c3.306,0.035,6.253,1.536,8.252,3.869l1.517-1.298
								c-2.361-2.756-5.842-4.528-9.747-4.57c-3.904-0.042-7.423,1.655-9.843,4.359l1.488,1.33
								C164.936,317.471,167.914,316.033,171.22,316.069z"/>
						</g>
					</g>
				</g>
				<g>
					<circle fill="#B2B2B2" cx="428.191" cy="149.824" r="18.303"/>
					<g>
						<g>
							<g>
								<g>
									<path fill="#FFFFFF" d="M440.783,158.699H417.19c-0.257-0.257-0.401-0.401-0.658-0.658v-4.252
										c0.257-0.257,0.401-0.401,0.658-0.658h23.593c0.257,0.257,0.401,0.401,0.658,0.658v4.252
										C441.185,158.298,441.04,158.442,440.783,158.699z"/>
									<g>
										<circle fill="#395D7F" cx="420.14" cy="155.915" r="0.664"/>
										<circle fill="#395D7F" cx="423.678" cy="155.915" r="0.665"/>
										<circle fill="#395D7F" cx="427.217" cy="155.915" r="0.665"/>
										<circle fill="#395D7F" cx="430.756" cy="155.915" r="0.665"/>
										<circle fill="#395D7F" cx="434.295" cy="155.915" r="0.665"/>
										<circle fill="#395D7F" cx="437.834" cy="155.915" r="0.665"/>
									</g>
								</g>
							</g>
						</g>
						<rect x="419.371" y="148.378" fill="#FFFFFF" width="2.654" height="4.752"/>
						<polygon fill="#FFFFFF" points="421.297,148.378 420.1,148.378 420.57,143.626 420.825,143.626 						"/>
						<g>
							<g>
								<path fill="none" d="M424.579,138.632c-1.274-1.021-2.87-1.371-4.364-1.105l0.173,0.974
									c1.224-0.217,2.529,0.068,3.572,0.904c1.043,0.836,1.606,2.049,1.66,3.29l0.988-0.042
									C426.542,141.135,425.854,139.653,424.579,138.632z"/>
								<path fill="none" d="M423.343,140.175c-0.813-0.651-1.829-0.874-2.781-0.704l0.161,0.908
									c0.699-0.125,1.446,0.039,2.042,0.517c0.597,0.478,0.918,1.171,0.949,1.88l0.921-0.04
									C424.593,141.77,424.154,140.826,423.343,140.175z"/>
								<path fill="none" d="M422.147,141.666c-0.365-0.293-0.822-0.388-1.25-0.312l0.272,1.531l1.554-0.066
									C422.705,142.384,422.513,141.959,422.147,141.666z"/>
								<path fill="#FFFFFF" d="M422.147,141.666c0.365,0.293,0.558,0.718,0.576,1.152l0.99-0.042
									c-0.031-0.709-0.353-1.403-0.949-1.88c-0.596-0.478-1.343-0.642-2.042-0.517l0.175,0.976
									C421.325,141.278,421.782,141.373,422.147,141.666z"/>
								<path fill="#FFFFFF" d="M423.343,140.175c0.812,0.651,1.25,1.595,1.292,2.562l0.985-0.042
									c-0.054-1.241-0.617-2.453-1.66-3.29c-1.043-0.836-2.349-1.122-3.572-0.904l0.174,0.971
									C421.514,139.301,422.53,139.524,423.343,140.175z"/>
								<path fill="#FFFFFF" d="M424.579,138.632c1.274,1.021,1.963,2.503,2.029,4.02l0.985-0.042
									c-0.078-1.791-0.892-3.542-2.396-4.748c-1.506-1.207-3.391-1.62-5.156-1.306l0.174,0.971
									C421.709,137.261,423.305,137.61,424.579,138.632z"/>
							</g>
						</g>
						<circle fill="#FFFFFF" cx="420.698" cy="143.494" r="0.405"/>
					</g>
				</g>
				<circle fill="#666666" cx="346.69" cy="197.975" r="1.711"/>
				<circle fill="#666666" cx="335.858" cy="226.515" r="1.711"/>
				<g>
					<g>
						<path fill="#666666" d="M290.157,297.285c1.868,0,1.871-2.902,0-2.902C288.29,294.383,288.287,297.285,290.157,297.285
							L290.157,297.285z"/>
					</g>
				</g>
				<g>
					<g>
						<path fill="#666666" d="M223.484,363.62c1.868,0,1.871-2.902,0-2.902C221.617,360.718,221.614,363.62,223.484,363.62
							L223.484,363.62z"/>
					</g>
				</g>
				<g>
					<g>
						<path fill="#666666" d="M374.889,346.382c1.868,0,1.871-2.901,0-2.901C373.021,343.48,373.019,346.382,374.889,346.382
							L374.889,346.382z"/>
					</g>
				</g>
				<g>
					<g>
						<path fill="#666666" d="M344.656,353.638c3.735,0,3.741-5.804,0-5.804C340.922,347.834,340.915,353.638,344.656,353.638
							L344.656,353.638z"/>
					</g>
				</g>
				<g>
					<g>
						<path fill="#666666" d="M181.401,350.01c3.735,0,3.741-5.804,0-5.804C177.666,344.206,177.66,350.01,181.401,350.01
							L181.401,350.01z"/>
					</g>
				</g>
				<g>
					<g>
						<path fill="#666666" d="M101.83,332.112c3.734,0,3.74-5.805,0-5.805C98.095,326.308,98.088,332.112,101.83,332.112
							L101.83,332.112z"/>
					</g>
				</g>
				<g>
					<g>
						<path fill="#666666" d="M205.668,150.315c1.867,0,1.87-2.902,0-2.902C203.801,147.413,203.797,150.315,205.668,150.315
							L205.668,150.315z"/>
					</g>
				</g>
				<g>
					<g>
						<path fill="#666666" d="M56.037,280.939c4.902,0,4.911-7.619,0-7.619C51.136,273.32,51.127,280.939,56.037,280.939
							L56.037,280.939z"/>
					</g>
				</g>
				<g>
					<g>
						<path fill="#666666" d="M350.381,158.86c1.867,0,1.87-2.902,0-2.902C348.513,155.958,348.51,158.86,350.381,158.86
							L350.381,158.86z"/>
					</g>
				</g>
				<g>
					<g>
						<path fill="#666666" d="M205.545,269.679c1.867,0,1.87-2.902,0-2.902C203.678,266.776,203.674,269.679,205.545,269.679
							L205.545,269.679z"/>
					</g>
				</g>
				<g>
					<g>
						<path fill="#666666" d="M431.166,348.584c3.735,0,3.741-5.806,0-5.806C427.432,342.778,427.425,348.584,431.166,348.584
							L431.166,348.584z"/>
					</g>
				</g>
				<g>
					<g>
						<path fill="#666666" d="M502.026,350.735c3.735,0,3.741-5.805,0-5.805C498.291,344.931,498.285,350.735,502.026,350.735
							L502.026,350.735z"/>
					</g>
				</g>
				<g>
					<g>
						<path fill="#666666" d="M566.918,359.917c1.867,0,1.871-2.902,0-2.902C565.051,357.015,565.048,359.917,566.918,359.917
							L566.918,359.917z"/>
					</g>
				</g>
				<g>
					<g>
						<path fill="#666666" d="M598.972,301.477c3.735,0,3.741-5.804,0-5.804C595.236,295.673,595.23,301.477,598.972,301.477
							L598.972,301.477z"/>
					</g>
				</g>
				<g>
					<g>
						<path fill="#666666" d="M580.066,270.761c3.735,0,3.741-5.805,0-5.805C576.332,264.956,576.325,270.761,580.066,270.761
							L580.066,270.761z"/>
					</g>
				</g>
				<g>
					<g>
						<path fill="#666666" d="M532.018,265.602c3.734,0,3.74-5.805,0-5.805C528.282,259.797,528.276,265.602,532.018,265.602
							L532.018,265.602z"/>
					</g>
				</g>
				<g>
					<g>
						<path fill="#666666" d="M488.482,250.122c3.735,0,3.741-5.805,0-5.805C484.747,244.317,484.741,250.122,488.482,250.122
							L488.482,250.122z"/>
					</g>
				</g>
				<g>
					<g>
						<path fill="#666666" d="M466.07,137.899c3.734,0,3.741-5.805,0-5.805C462.335,132.095,462.329,137.899,466.07,137.899
							L466.07,137.899z"/>
					</g>
				</g>
				<g>
					<g>
						<path fill="#666666" d="M515.409,103.072c3.735,0,3.741-5.805,0-5.805C511.674,97.267,511.668,103.072,515.409,103.072
							L515.409,103.072z"/>
					</g>
				</g>
				<g>
					<g>
						<path fill="#666666" d="M459.781,102.588c3.735,0,3.741-5.805,0-5.805C456.047,96.783,456.041,102.588,459.781,102.588
							L459.781,102.588z"/>
					</g>
				</g>
				<g>
					<g>
						<path fill="#666666" d="M601.531,151.635c1.868,0,1.871-2.902,0-2.902C599.664,148.732,599.661,151.635,601.531,151.635
							L601.531,151.635z"/>
					</g>
				</g>
			</g>
			<circle clip-path="url(#SVGID_2_)" fill="#666666" cx="460.027" cy="394.772" r="2.689"/>
			<g clip-path="url(#SVGID_2_)">
				<g>
					<path fill="#666666" d="M281.7,408.75c3.86,0,3.867-6,0-6C277.839,402.75,277.833,408.75,281.7,408.75L281.7,408.75z"/>
				</g>
			</g>
			<circle clip-path="url(#SVGID_2_)" fill="#666666" cx="346.838" cy="394.769" r="4.289"/>
			<g clip-path="url(#SVGID_2_)">
				<g>
					<path fill="#666666" d="M120.783,397.625c3.86,0,3.867-6,0-6C116.923,391.625,116.916,397.625,120.783,397.625L120.783,397.625
						z"/>
				</g>
			</g>
		</g>
	</g>
</g>
<g id="BACKGROUND_1">
</g>
<g id="DESIGNED_BY_FREEPIK">
</g>
</svg>
