<?xml version="1.0" encoding="utf-8"?>
<!-- Generator: Adobe Illustrator 16.0.0, SVG Export Plug-In . SVG Version: 6.00 Build 0)  -->
<!DOCTYPE svg PUBLIC "-//W3C//DTD SVG 1.1//EN" "http://www.w3.org/Graphics/SVG/1.1/DTD/svg11.dtd">
<svg version="1.1" id="Layer_1" xmlns="http://www.w3.org/2000/svg" xmlns:xlink="http://www.w3.org/1999/xlink" x="0px" y="0px"
	 width="1383.486px" height="214.693px" viewBox="0 0 1383.486 214.693" enable-background="new 0 0 1383.486 214.693"
	 xml:space="preserve">
<g id="Layer_2">
	<rect x="0" y="0" display="none" fill="#D8D8D8" width="1383.486" height="214.693"/>
</g>
<g id="Layer_1_1_">
	<g>
		
			<image display="none" overflow="visible" opacity="0.3" enable-background="new    " width="307" height="194" xlink:href="9A59FAB6.png"  transform="matrix(1 0 0 1 -243.5544 37.8474)">
		</image>
		<path fill="#FFFFFF" d="M-243.429,49.56v173.142H63.379L98.06,91.078c-14.935,21.255-84.709,51.574-154.634,22.666
			C-137.74,80.302-192.3,30.585-243.429,49.56z"/>
		<path fill="#FFFFFF" d="M181.688,49.56v173.142h306.808l38.27-131.624c-14.933,21.255-88.296,51.574-158.222,22.666
			C287.376,80.302,232.818,30.585,181.688,49.56z"/>
		<path fill="#FFFFFF" d="M607.431,49.56v173.142h306.808l37.073-131.624c-14.933,21.255-87.101,51.574-157.027,22.666
			C713.12,80.302,658.56,30.585,607.431,49.56z"/>
		<path fill="#FFFFFF" d="M1031.978,49.56v173.142h306.808l39.468-131.624c-14.936,21.255-89.495,51.574-159.419,22.666
			C1137.668,80.302,1083.109,30.585,1031.978,49.56z"/>
		<path fill="#FFFFFF" d="M229.069,49.56v173.142H-77.738l-35.877-131.624c14.933,21.255,85.905,51.574,155.83,22.666
			C123.381,80.302,177.939,30.585,229.069,49.56z"/>
		<path fill="#FFFFFF" d="M654.193,49.56v173.142H347.385L311.508,91.078c14.934,21.255,85.905,51.574,155.83,22.666
			C548.506,80.302,603.063,30.585,654.193,49.56z"/>
		<path fill="#FFFFFF" d="M1081.134,49.56v173.142H774.323L742.035,91.078c14.935,21.255,82.317,51.574,152.241,22.666
			C975.444,80.302,1030.002,30.585,1081.134,49.56z"/>
		<path fill="#FFFFFF" d="M1504.484,49.56v173.142h-306.808l-37.074-131.624c14.934,21.255,87.102,51.574,157.027,22.666
			C1398.796,80.302,1453.355,30.585,1504.484,49.56z"/>
		<path display="none" fill="#FFFFFF" d="M52.64,97.146c0,0-36.51,50.312-151.236-6.588C-98.595,90.558,12.079,164.525,52.64,97.146
			z"/>
	</g>
	<circle fill="#FFFFFF" cx="179.779" cy="48.846" r="2.313"/>
</g>
</svg>
