<?xml version="1.0" encoding="utf-8"?>
<!-- Generator: Adobe Illustrator 16.0.0, SVG Export Plug-In . SVG Version: 6.00 Build 0)  -->
<!DOCTYPE svg PUBLIC "-//W3C//DTD SVG 1.1//EN" "http://www.w3.org/Graphics/SVG/1.1/DTD/svg11.dtd">
<svg version="1.1" id="Layer_1" xmlns="http://www.w3.org/2000/svg" xmlns:xlink="http://www.w3.org/1999/xlink" x="0px" y="0px"
	 width="1000px" height="227.5px" viewBox="0 -87.5 1000 227.5" enable-background="new 0 -87.5 1000 227.5" xml:space="preserve">
<image display="none" overflow="visible" enable-background="new    " width="1920" height="500" xlink:href="sass-back.png"  transform="matrix(0.5208 0 0 0.5208 4.882813e-004 -120.416)">
</image>
<path d="M0.333,66.633c0,0,128-109.055,500-1.059c0,0,233,58.232,423,3.176c0,0,67-25.939,77-33.352c10-7.411,61,169.935,61,169.935
	l-1181-12.176L0.333,66.633z"/>
<path opacity="0.1" d="M-97.912,37.24c0,0,131.065-133.298,544.013-24.587c0,0,367.713,87.128,530.687-80.596
	s200.255,322.82,200.255,322.82L-159.81,435.119l-54.945-355.896L-97.912,37.24z"/>
<path fill="#FFFFFF" d="M0,58c0,0,127-118,505,0c0,0,337,96.111,495-52.444S1172,313,1172,313L-74,424l-36-332L0,58z"/>
</svg>
