<?xml version="1.0" encoding="utf-8"?>
<!-- Generator: Adobe Illustrator 16.0.0, SVG Export Plug-In . SVG Version: 6.00 Build 0)  -->
<!DOCTYPE svg PUBLIC "-//W3C//DTD SVG 1.1//EN" "http://www.w3.org/Graphics/SVG/1.1/DTD/svg11.dtd">
<svg version="1.1" id="Layer_1" xmlns="http://www.w3.org/2000/svg" xmlns:xlink="http://www.w3.org/1999/xlink" x="0px" y="0px"
	 width="472px" height="218px" viewBox="0 0 472 218" enable-background="new 0 0 472 218" xml:space="preserve">
<g id="BACKGROUND_1">
	<path fill="#EA4F1F" d="M455.944,162.741v-19.097l-11.586-1.965c-0.602-1.846-1.341-3.629-2.21-5.335l6.803-9.581l-13.502-13.504
		l-9.583,6.805c-1.706-0.871-3.488-1.609-5.335-2.211l-1.965-11.586h-9.548v21.403c14.096,0,25.521,11.428,25.521,25.521
		c0,14.096-11.427,25.521-25.521,25.522v21.402h9.548l1.965-11.586c1.847-0.601,3.629-1.341,5.335-2.21l9.583,6.804l13.502-13.503
		l-6.803-9.582c0.869-1.706,1.608-3.489,2.21-5.335L455.944,162.741z"/>
	<rect x="331.188" y="102.457" fill="#FFFFFF" width="68.631" height="92.279"/>
	<rect x="337.628" y="108.896" fill="#62C4F3" width="62.19" height="85.84"/>
	<path fill="#62C4F3" d="M220.794,191.77v1.114c0,3.343-2.708,6.052-6.05,6.052H195.45c-3.342,0-6.051-2.709-6.051-6.052v-1.114
		H90.433V194c0,6.684,5.417,12.1,12.101,12.1h205.129c6.684,0,12.101-5.416,12.101-12.1v-2.23H220.794z"/>
	<path fill="#62C4F3" d="M233.737,133.762c0,13.78-8.688,25.52-20.884,30.051c-3.931,1.468-8.229,2.178-12.714,1.965
		c-16.435-0.771-29.702-14.031-30.473-30.473c-0.792-16.912,11.541-31.114,27.682-33.299c1.419-0.19,2.866-0.293,4.334-0.293v32.049
		H233.737z"/>
	<path fill="#FFFFFF" d="M151.622,112.67c2.408,1.195,5.022,2.048,7.76,2.498c-0.737,0.514-1.501,0.982-2.3,1.393
		c-3.085,1.646-6.601,2.573-10.34,2.573c-3.229,0-6.3-0.688-9.07-1.938h-0.007c-0.498-0.226-0.982-0.463-1.46-0.729
		c-2.178-1.174-4.137-2.702-5.794-4.518c-3.904,0.846-8.013,1.311-12.25,1.311c-10.006,0-19.273-2.519-26.855-6.798
		c-11.821-6.682-19.533-17.656-19.533-30.057v-0.041C71.8,56.032,92.562,39.55,118.161,39.55c13.056,0,24.85,4.286,33.271,11.187
		c7.563,6.183,12.415,14.469,13.036,23.647c0.055,0.669,0.075,1.345,0.075,2.021c0,12.783-8.19,24.037-20.625,30.65
		C146.135,109.34,148.735,111.251,151.622,112.67z"/>
	<path fill="#62C4F3" d="M151.622,112.67c2.408,1.195,5.022,2.048,7.76,2.498c-0.737,0.514-1.501,0.982-2.3,1.393
		c-3.085,1.646-6.601,2.573-10.34,2.573c-3.229,0-6.3-0.688-9.07-1.938h-0.007c-0.498-0.226-0.982-0.463-1.46-0.729
		c-2.178-1.174-4.137-2.702-5.794-4.518c-3.904,0.846-8.013,1.311-12.25,1.311c-10.006,0-19.273-2.519-26.855-6.798
		c-11.821-6.682-19.533-17.656-19.533-30.057v-0.041c6.437-19.369,24.911-33.353,46.702-33.353c21.034,0,38.99,13.042,45.993,31.373
		c0.055,0.669,0.075,1.345,0.075,2.021c0,12.783-8.19,24.037-20.625,30.65C146.135,109.34,148.735,111.251,151.622,112.67z"/>
	<path fill="none" stroke="#132345" stroke-width="3" stroke-linecap="round" stroke-linejoin="round" stroke-miterlimit="10" d="
		M171.37,81.833h107.567c3.689,0,6.681,2.99,6.681,6.68v83.67c0,3.688-2.99,6.681-6.681,6.681h-147.68
		c-3.689,0-6.68-2.991-6.68-6.681V119.46"/>
	<path fill="none" stroke="#132345" stroke-width="3" stroke-linecap="round" stroke-linejoin="round" stroke-miterlimit="10" d="
		M306.602,206.1H103.593c-7.268,0-13.161-5.893-13.161-13.16v-1.17h229.329v1.17C319.762,200.207,313.869,206.1,306.602,206.1z"/>
	<path fill="none" stroke="#132345" stroke-width="3" stroke-linecap="round" stroke-linejoin="round" stroke-miterlimit="10" d="
		M214.214,198.936H195.98c-3.634,0-6.58-2.946-6.58-6.582v-0.584h31.395v0.584C220.794,195.988,217.848,198.936,214.214,198.936z"/>
	<g>
		
			<line fill="none" stroke="#132345" stroke-width="3" stroke-linecap="round" stroke-linejoin="round" stroke-miterlimit="10" x1="110.919" y1="138.452" x2="110.919" y2="119.639"/>
		<path fill="none" stroke="#132345" stroke-width="3" stroke-linecap="round" stroke-linejoin="round" stroke-miterlimit="10" d="
			M170.414,68.928h122.181c3.689,0,6.681,2.99,6.681,6.68V191.77H110.919v-34.918"/>
	</g>
	<g>
		
			<text transform="matrix(1 0 0 1 98.7083 93.4795)" fill="#FFFFFF" font-family="'ArialMT'" font-size="55.5419" letter-spacing="10">@</text>
	</g>
	<path fill="#EA4F1F" d="M208.513,94.882v32.054h32.053C240.565,109.232,226.215,94.882,208.513,94.882z"/>
	<path fill="none" stroke="#132345" stroke-width="3" stroke-linecap="round" stroke-linejoin="round" stroke-miterlimit="10" d="
		M143.916,107.052c12.435-6.61,20.625-17.868,20.625-30.648c0-20.354-20.768-36.854-46.384-36.854
		c-25.617,0-46.385,16.5-46.385,36.854s20.768,36.854,46.385,36.854c4.242,0,8.348-0.462,12.253-1.31
		c4.052,4.415,9.868,7.185,16.334,7.185c4.699,0,9.054-1.467,12.641-3.961C153.355,114.182,147.982,111.253,143.916,107.052z"/>
	<g>
		<g>
			<g>
				<g>
					<g>
						<path fill="none" stroke="#132345" stroke-width="3" stroke-linecap="round" stroke-linejoin="round" d="M101.331,119.345
							c-1.957-0.524-3.865-1.137-5.719-1.831"/>
						
							<path fill="none" stroke="#132345" stroke-width="3" stroke-linecap="round" stroke-linejoin="round" stroke-dasharray="11.528,11.528" d="
							M85.279,112.434c-13.221-8.245-21.78-21.328-21.78-36.03c0-24.885,24.52-45.129,54.659-45.129
							c11.796,0,22.73,3.102,31.673,8.368"/>
						<path fill="none" stroke="#132345" stroke-width="3" stroke-linecap="round" stroke-linejoin="round" d="M154.632,42.82
							c1.625,1.204,3.162,2.487,4.603,3.842"/>
					</g>
					
						<path fill="none" stroke="#132345" stroke-width="3" stroke-linecap="round" stroke-linejoin="round" stroke-dasharray="2.4827" d="
						M166.764,55.775c0.44,0.703,0.858,1.418,1.254,2.143"/>
				</g>
			</g>
		</g>
	</g>
	<g>
		<g>
			<path fill="none" stroke="#132345" stroke-width="3" stroke-linecap="round" stroke-linejoin="round" stroke-miterlimit="10" d="
				M414.281,37.868c0.017,13.77-11.114,24.942-24.884,24.958c-13.771,0.015-24.925-11.134-24.939-24.903
				c-0.008-7.027,2.899-13.393,7.579-17.911c4.49-4.348,10.563-7.021,17.306-7.028c6.742-0.007,12.82,2.652,17.319,6.99
				C411.353,24.482,414.273,30.84,414.281,37.868z"/>
			<path fill="none" stroke="#132345" stroke-width="3" stroke-linecap="round" stroke-linejoin="round" stroke-miterlimit="10" d="
				M406.661,19.973c-4.489,4.329-10.563,7.001-17.305,7.009c-6.742,0.008-12.82-2.652-17.32-6.97
				c4.49-4.348,10.563-7.021,17.306-7.028C396.084,12.976,402.162,15.636,406.661,19.973z"/>
			<path fill="none" stroke="#132345" stroke-width="3" stroke-linecap="round" stroke-linejoin="round" stroke-miterlimit="10" d="
				M372.076,55.836c4.49-4.328,10.563-7.001,17.306-7.009c6.741-0.007,12.819,2.652,17.319,6.971
				c-4.489,4.348-10.563,7.021-17.305,7.028C382.655,62.833,376.575,60.174,372.076,55.836z"/>
			
				<ellipse transform="matrix(-0.0011 -1 1 -0.0011 351.9046 427.3067)" fill="none" stroke="#132345" stroke-width="3" stroke-linecap="round" stroke-linejoin="round" stroke-miterlimit="10" cx="389.371" cy="37.894" rx="24.918" ry="9.902"/>
			
				<line fill="none" stroke="#132345" stroke-width="3" stroke-linecap="round" stroke-linejoin="round" stroke-miterlimit="10" x1="364.452" y1="37.928" x2="414.288" y2="37.873"/>
		</g>
	</g>
	<path fill="none" stroke="#132345" stroke-width="3" stroke-linecap="round" stroke-linejoin="round" stroke-miterlimit="10" d="
		M313.044,54.328h-30.228c-3.243,0-5.875-2.631-5.875-5.875V27.356c0-3.245,2.632-5.875,5.875-5.875h30.228
		c3.243,0,5.875,2.63,5.875,5.875v21.097C318.919,51.697,316.287,54.328,313.044,54.328z"/>
	<path fill="#EA4F1F" d="M290.736,37.904v-6.177c0-1.42,1.538-2.308,2.769-1.598l5.35,3.088l5.35,3.089
		c1.229,0.71,1.229,2.485,0,3.195l-5.35,3.089l-5.35,3.088c-1.229,0.71-2.769-0.178-2.769-1.598V37.904z"/>
	<circle fill="#62C4F3" cx="64.88" cy="193.748" r="16.557"/>
	
		<circle fill="none" stroke="#132345" stroke-width="3" stroke-linecap="round" stroke-linejoin="round" stroke-miterlimit="10" cx="64.88" cy="193.748" r="8.947"/>
	<circle fill="#81C0ED" cx="64.88" cy="193.748" r="2.982"/>
	
		<line fill="none" stroke="#132345" stroke-width="3" stroke-linecap="round" stroke-linejoin="round" stroke-miterlimit="10" x1="64.88" y1="193.748" x2="85.168" y2="173.46"/>
	<path fill="#132345" d="M81.68,171.43l-3.651,3.651c-0.145,0.146-0.2,0.356-0.146,0.555l1.128,4.138l4.581-4.582l-0.957-3.508
		C82.52,171.261,81.99,171.12,81.68,171.43z"/>
	<path fill="#132345" d="M87.353,177.102l-3.651,3.652c-0.146,0.145-0.356,0.2-0.555,0.146l-4.137-1.129l4.581-4.58l3.508,0.955
		C87.522,176.264,87.662,176.792,87.353,177.102z"/>
	
		<line fill="none" stroke="#62C4F3" stroke-width="4" stroke-linecap="round" stroke-linejoin="round" stroke-miterlimit="10" x1="243.979" y1="145.047" x2="274.183" y2="145.047"/>
	
		<line fill="none" stroke="#62C4F3" stroke-width="4" stroke-linecap="round" stroke-linejoin="round" stroke-miterlimit="10" x1="243.979" y1="154.241" x2="263.457" y2="154.241"/>
	
		<line fill="none" stroke="#62C4F3" stroke-width="4" stroke-linecap="round" stroke-linejoin="round" stroke-miterlimit="10" x1="269.433" y1="154.241" x2="274.183" y2="154.241"/>
	
		<line fill="none" stroke="#FFFFFF" stroke-width="4" stroke-linecap="round" stroke-linejoin="round" stroke-miterlimit="10" x1="344.947" y1="143.999" x2="365.411" y2="143.999"/>
	
		<line fill="none" stroke="#FFFFFF" stroke-width="4" stroke-linecap="round" stroke-linejoin="round" stroke-miterlimit="10" x1="372.776" y1="114.913" x2="389.496" y2="114.913"/>
	
		<line fill="none" stroke="#FFFFFF" stroke-width="4" stroke-linecap="round" stroke-linejoin="round" stroke-miterlimit="10" x1="372.776" y1="123.52" x2="389.496" y2="123.52"/>
	
		<line fill="none" stroke="#FFFFFF" stroke-width="4" stroke-linecap="round" stroke-linejoin="round" stroke-miterlimit="10" x1="372.776" y1="132.125" x2="389.496" y2="132.125"/>
	
		<line fill="none" stroke="#FFFFFF" stroke-width="4" stroke-linecap="round" stroke-linejoin="round" stroke-miterlimit="10" x1="344.947" y1="153.193" x2="354.687" y2="153.193"/>
	
		<line fill="none" stroke="#FFFFFF" stroke-width="4" stroke-linecap="round" stroke-linejoin="round" stroke-miterlimit="10" x1="360.662" y1="153.193" x2="365.411" y2="153.193"/>
	<g>
		<g>
			
				<line fill="none" stroke="#132345" stroke-width="3" stroke-linecap="round" stroke-linejoin="round" x1="224.076" y1="101.974" x2="224.076" y2="95.974"/>
			
				<line fill="none" stroke="#132345" stroke-width="3" stroke-linecap="round" stroke-linejoin="round" stroke-dasharray="10.4138,10.4138" x1="224.076" y1="85.56" x2="224.076" y2="49.111"/>
			<polyline fill="none" stroke="#132345" stroke-width="3" stroke-linecap="round" stroke-linejoin="round" points="
				224.076,43.904 224.076,37.904 230.076,37.904 			"/>
			
				<line fill="none" stroke="#132345" stroke-width="3" stroke-linecap="round" stroke-linejoin="round" stroke-dasharray="7.6682,7.6682" x1="237.745" y1="37.904" x2="249.247" y2="37.904"/>
			
				<line fill="none" stroke="#132345" stroke-width="3" stroke-linecap="round" stroke-linejoin="round" x1="253.081" y1="37.904" x2="259.081" y2="37.904"/>
		</g>
	</g>
	<circle fill="#132345" cx="263.457" cy="37.904" r="4.57"/>
	<circle fill="#132345" cx="360.049" cy="127.413" r="4.57"/>
	<circle fill="#132345" cx="380.596" cy="147.651" r="4.57"/>
	<circle fill="#132345" cx="425.658" cy="62.607" r="4.569"/>
	<circle fill="#132345" cx="312.728" cy="67.177" r="4.57"/>
	<circle fill="#132345" cx="224.076" cy="105.425" r="4.57"/>
	<circle fill="#132345" cx="189.4" cy="147.651" r="4.57"/>
	<circle fill="#132345" cx="84.657" cy="147.651" r="4.57"/>
	<circle fill="#132345" cx="31.91" cy="145.047" r="3.498"/>
	<circle fill="#132345" cx="45.408" cy="145.047" r="3.499"/>
	<circle fill="#132345" cx="58.906" cy="145.047" r="3.499"/>
	
		<line fill="none" stroke="#132345" stroke-width="3" stroke-linecap="round" stroke-linejoin="round" stroke-miterlimit="10" stroke-dasharray="12" x1="186.688" y1="147.65" x2="86.451" y2="147.65"/>
	<path fill="none" stroke="#132345" stroke-width="3" stroke-linecap="round" stroke-linejoin="round" stroke-miterlimit="10" d="
		M44.831,118.932c-14.051,0-25.439,11.391-25.439,25.439c0,10.753,6.676,19.941,16.106,23.664c-1.725,3.068-4.196,5.91-7.271,8.337
		c0.815-0.084,1.637-0.201,2.464-0.361c5.077-0.981,9.459-3.263,12.625-6.25c0.501,0.029,1.006,0.05,1.516,0.05
		c14.049,0,25.438-11.391,25.438-25.438C70.269,130.32,58.88,118.932,44.831,118.932z"/>
	<path fill="none" stroke="#132345" stroke-width="3" stroke-linecap="round" stroke-linejoin="round" stroke-miterlimit="10" d="
		M73.686,128.456c-0.439-0.797-0.913-1.573-1.416-2.328"/>
	<path fill="none" stroke="#132345" stroke-width="3" stroke-linecap="round" stroke-linejoin="round" stroke-miterlimit="10" d="
		M67.921,120.869c-5.945-5.842-14.097-9.445-23.091-9.445"/>
	<path fill="none" stroke="#132345" stroke-width="3" stroke-linecap="round" stroke-linejoin="round" stroke-miterlimit="10" d="
		M331.188,196.048c0,5.552,4.501,10.052,10.053,10.052h48.525c5.552,0,10.053-4.5,10.053-10.052v-1.312h-68.631V196.048z"/>
	<path fill="none" stroke="#132345" stroke-width="3" stroke-linecap="round" stroke-linejoin="round" stroke-miterlimit="10" d="
		M399.819,102.457v-1.312c0-5.552-4.501-10.053-10.053-10.053H341.24c-5.552,0-10.053,4.501-10.053,10.053v1.312H399.819"/>
	
		<polyline fill="none" stroke="#132345" stroke-width="3" stroke-linecap="round" stroke-linejoin="round" stroke-miterlimit="10" points="
		399.819,156.852 399.819,194.736 331.188,194.736 331.188,136.611 	"/>
	
		<polyline fill="none" stroke="#132345" stroke-width="3" stroke-linecap="round" stroke-linejoin="round" stroke-miterlimit="10" points="
		331.188,118.214 331.188,102.457 399.819,102.457 399.819,138.452 	"/>
	<circle fill="#132345" cx="365.504" cy="200.461" r="3.071"/>
	<g>
		<g>
			
				<line fill="none" stroke="#132345" stroke-width="3" stroke-linecap="round" stroke-linejoin="round" x1="312.729" y1="71.247" x2="312.729" y2="77.247"/>
			
				<line fill="none" stroke="#132345" stroke-width="3" stroke-linecap="round" stroke-linejoin="round" stroke-dasharray="14.7218,14.7218" x1="312.729" y1="91.97" x2="312.729" y2="114.052"/>
			<polyline fill="none" stroke="#132345" stroke-width="3" stroke-linecap="round" stroke-linejoin="round" points="
				312.729,121.413 312.729,127.413 318.729,127.413 			"/>
			
				<line fill="none" stroke="#132345" stroke-width="3" stroke-linecap="round" stroke-linejoin="round" stroke-dasharray="10.2505,10.2505" x1="328.979" y1="127.413" x2="344.354" y2="127.413"/>
			
				<line fill="none" stroke="#132345" stroke-width="3" stroke-linecap="round" stroke-linejoin="round" x1="349.479" y1="127.413" x2="355.479" y2="127.413"/>
		</g>
	</g>
	<g>
		<g>
			
				<line fill="none" stroke="#132345" stroke-width="3" stroke-linecap="round" stroke-linejoin="round" x1="382.977" y1="147.65" x2="388.977" y2="147.65"/>
			
				<line fill="none" stroke="#132345" stroke-width="3" stroke-linecap="round" stroke-linejoin="round" stroke-dasharray="10.2276,10.2276" x1="399.203" y1="147.65" x2="414.545" y2="147.65"/>
			<polyline fill="none" stroke="#132345" stroke-width="3" stroke-linecap="round" stroke-linejoin="round" points="
				419.658,147.65 425.658,147.65 425.658,141.652 			"/>
			
				<line fill="none" stroke="#132345" stroke-width="3" stroke-linecap="round" stroke-linejoin="round" stroke-dasharray="14.1384,14.1384" x1="425.658" y1="127.514" x2="425.658" y2="78.029"/>
			
				<line fill="none" stroke="#132345" stroke-width="3" stroke-linecap="round" stroke-linejoin="round" x1="425.658" y1="70.96" x2="425.658" y2="64.96"/>
		</g>
	</g>
	
		<line fill="none" stroke="#132345" stroke-width="3" stroke-linecap="round" stroke-linejoin="round" stroke-miterlimit="10" x1="117.084" y1="216.415" x2="274.309" y2="216.415"/>
	
		<line fill="none" stroke="#132345" stroke-width="3" stroke-linecap="round" stroke-linejoin="round" stroke-miterlimit="10" x1="282.532" y1="216.415" x2="284.775" y2="216.415"/>
	<g>
		<g>
			<g>
				
					<path fill="none" stroke="#132345" stroke-width="3" stroke-linecap="round" stroke-linejoin="round" stroke-miterlimit="10" d="
					M404.529,93.312c0.929,1.681,1.592,3.528,1.929,5.485 M364.457,84.197h24.653c4.17,0,8.006,1.458,11.025,3.89"/>
			</g>
		</g>
	</g>
	
		<polygon fill="none" stroke="#132345" stroke-width="3" stroke-linecap="round" stroke-linejoin="round" stroke-miterlimit="10" points="
		339.31,216.415 343.493,216.415 343.493,216.415 	"/>
	
		<line fill="none" stroke="#132345" stroke-width="3" stroke-linecap="round" stroke-linejoin="round" stroke-miterlimit="10" x1="351.497" y1="216.415" x2="393.951" y2="216.415"/>
</g>
</svg>
