<?xml version="1.0" encoding="utf-8"?>
<!-- Generator: Adobe Illustrator 16.0.0, SVG Export Plug-In . SVG Version: 6.00 Build 0)  -->
<!DOCTYPE svg PUBLIC "-//W3C//DTD SVG 1.1//EN" "http://www.w3.org/Graphics/SVG/1.1/DTD/svg11.dtd">
<svg version="1.1" id="Layer_1" xmlns="http://www.w3.org/2000/svg" xmlns:xlink="http://www.w3.org/1999/xlink" x="0px" y="0px"
	 width="436.241px" height="232.215px" viewBox="0 0 436.241 232.215" enable-background="new 0 0 436.241 232.215"
	 xml:space="preserve">
<g>
	<g>
		<g>
			<g>
				
					<rect x="298.132" y="101.432" fill="#909395" stroke="#424143" stroke-width="3.125" stroke-linecap="round" stroke-linejoin="round" stroke-miterlimit="10" width="134.903" height="12.03"/>
				
					<rect x="298.132" y="113.461" fill="#FFFFFF" stroke="#424143" stroke-width="3.125" stroke-linecap="round" stroke-linejoin="round" stroke-miterlimit="10" width="134.903" height="91.886"/>
			</g>
			
				<line fill="none" stroke="#424143" stroke-width="3.125" stroke-linecap="round" stroke-linejoin="round" stroke-miterlimit="10" x1="304.129" y1="107.45" x2="308.68" y2="107.45"/>
			
				<line fill="none" stroke="#424143" stroke-width="3.125" stroke-linecap="round" stroke-linejoin="round" stroke-miterlimit="10" x1="313.52" y1="107.45" x2="318.07" y2="107.45"/>
			
				<line fill="none" stroke="#424143" stroke-width="3.125" stroke-linecap="round" stroke-linejoin="round" stroke-miterlimit="10" x1="322.906" y1="107.45" x2="327.46" y2="107.45"/>
		</g>
		<g>
			
				<rect x="308.091" y="122.951" fill="#D3D4DB" stroke="#424143" stroke-width="3.125" stroke-linecap="round" stroke-linejoin="round" stroke-miterlimit="10" width="71.8" height="31.39"/>
			
				<line fill="none" stroke="#424143" stroke-width="3.125" stroke-linecap="round" stroke-linejoin="round" stroke-miterlimit="10" x1="311.601" y1="162.804" x2="327.758" y2="162.804"/>
			
				<line fill="none" stroke="#424143" stroke-width="3.125" stroke-linecap="round" stroke-linejoin="round" stroke-miterlimit="10" x1="336.313" y1="162.804" x2="375.635" y2="162.804"/>
			
				<line fill="none" stroke="#424143" stroke-width="3.125" stroke-linecap="round" stroke-linejoin="round" stroke-miterlimit="10" x1="311.601" y1="171.271" x2="375.635" y2="171.271"/>
			
				<rect x="392.302" y="122.951" fill="#D3D4DB" stroke="#424143" stroke-width="3.125" stroke-linecap="round" stroke-linejoin="round" stroke-miterlimit="10" width="30.578" height="12.17"/>
			
				<rect x="392.302" y="143.229" fill="none" stroke="#424143" stroke-width="3.125" stroke-linecap="round" stroke-linejoin="round" stroke-miterlimit="10" width="30.578" height="12.17"/>
			
				<rect x="392.302" y="163.509" fill="#D3D4DB" stroke="#424143" stroke-width="3.125" stroke-linecap="round" stroke-linejoin="round" stroke-miterlimit="10" width="30.578" height="12.166"/>
			
				<rect x="392.302" y="183.79" fill="none" stroke="#424143" stroke-width="3.125" stroke-linecap="round" stroke-linejoin="round" stroke-miterlimit="10" width="30.578" height="12.166"/>
			
				<rect x="308.091" y="179.203" fill="#BDBEC0" stroke="#424143" stroke-width="3.125" stroke-linecap="round" stroke-linejoin="round" stroke-miterlimit="10" width="71.8" height="16.753"/>
		</g>
	</g>
	<g>
		
			<rect x="3.202" y="133.806" fill="#909395" stroke="#424143" stroke-width="3.125" stroke-linecap="round" stroke-linejoin="round" stroke-miterlimit="10" width="121.552" height="71.867"/>
		<g>
			
				<polygon fill="#D3D4DB" stroke="#424143" stroke-width="3.125" stroke-linecap="round" stroke-linejoin="round" stroke-miterlimit="10" points="
				18.729,118.722 33.813,133.806 60.43,133.806 45.346,118.722 			"/>
			
				<polygon fill="#FFFFFF" stroke="#424143" stroke-width="3.125" stroke-linecap="round" stroke-linejoin="round" stroke-miterlimit="10" points="
				3.202,118.722 3.202,133.806 33.813,133.806 18.729,118.722 			"/>
			
				<polygon fill="#FFFFFF" stroke="#424143" stroke-width="3.125" stroke-linecap="round" stroke-linejoin="round" stroke-miterlimit="10" points="
				45.346,118.722 60.43,133.806 87.048,133.806 71.965,118.722 			"/>
			
				<polygon fill="#F2F2F2" stroke="#424143" stroke-width="3.125" stroke-linecap="round" stroke-linejoin="round" stroke-miterlimit="10" points="
				124.754,118.722 98.581,118.722 113.663,133.806 124.754,133.806 			"/>
			
				<polygon fill="#D3D4DB" stroke="#424143" stroke-width="3.125" stroke-linecap="round" stroke-linejoin="round" stroke-miterlimit="10" points="
				71.965,118.722 87.048,133.806 113.663,133.806 98.581,118.722 			"/>
		</g>
		<g>
			
				<polygon fill="#FFFFFF" stroke="#424143" stroke-width="3.125" stroke-linecap="round" stroke-linejoin="round" stroke-miterlimit="10" points="
				109.227,103.639 94.146,118.722 67.528,118.722 82.611,103.639 			"/>
			
				<polygon fill="#D3D4DB" stroke="#424143" stroke-width="3.125" stroke-linecap="round" stroke-linejoin="round" stroke-miterlimit="10" points="
				124.754,103.639 124.754,118.722 94.146,118.722 109.227,103.639 			"/>
			
				<polygon fill="#D3D4DB" stroke="#424143" stroke-width="3.125" stroke-linecap="round" stroke-linejoin="round" stroke-miterlimit="10" points="
				82.611,103.639 67.528,118.722 40.911,118.722 55.994,103.639 			"/>
			
				<polygon fill="#D3D4DB" stroke="#424143" stroke-width="3.125" stroke-linecap="round" stroke-linejoin="round" stroke-miterlimit="10" points="
				3.202,103.639 29.376,103.639 14.293,118.722 3.202,118.722 			"/>
			
				<polygon fill="#FFFFFF" stroke="#424143" stroke-width="3.125" stroke-linecap="round" stroke-linejoin="round" stroke-miterlimit="10" points="
				55.994,103.639 40.911,118.722 14.293,118.722 29.376,103.639 			"/>
		</g>
		
			<line fill="none" stroke="#424143" stroke-width="3.125" stroke-linecap="round" stroke-linejoin="round" stroke-miterlimit="10" x1="15.292" y1="155.691" x2="112.665" y2="155.691"/>
		
			<line fill="none" stroke="#424143" stroke-width="3.125" stroke-linecap="round" stroke-linejoin="round" stroke-miterlimit="10" x1="38.396" y1="146.226" x2="38.396" y2="195.322"/>
		
			<line fill="none" stroke="#424143" stroke-width="3.125" stroke-linecap="round" stroke-linejoin="round" stroke-miterlimit="10" x1="29.376" y1="180.828" x2="113.663" y2="180.828"/>
	</g>
	<g>
		<g>
			
				<path fill="#EC6351" stroke="#424143" stroke-width="3.125" stroke-linecap="round" stroke-linejoin="round" stroke-miterlimit="10" d="
				M335.674,53.803c0-2.891-2.339-5.23-5.229-5.23H100.412c-2.888,0-5.228,2.339-5.228,5.23v141.853h240.489V53.803z"/>
			
				<path fill="#AFB1B6" stroke="#424143" stroke-width="3.125" stroke-linecap="round" stroke-linejoin="round" stroke-miterlimit="10" d="
				M95.185,195.656v26.14c0,2.885,2.34,5.228,5.228,5.228h230.033c2.89,0,5.229-2.343,5.229-5.228v-26.14H95.185z"/>
		</g>
		
			<line fill="none" stroke="#424143" stroke-width="3.125" stroke-linecap="round" stroke-linejoin="round" stroke-miterlimit="10" x1="110.519" y1="210.992" x2="320.339" y2="210.992"/>
		
			<rect x="141.323" y="201.58" fill="#FFFFFF" stroke="#424143" stroke-width="3.125" stroke-linecap="round" stroke-linejoin="round" stroke-miterlimit="10" width="7.319" height="18.821"/>
	</g>
	<g>
		
			<path fill="#8ED3F5" stroke="#424143" stroke-width="3.125" stroke-linecap="round" stroke-linejoin="round" stroke-miterlimit="10" d="
			M253.332,122.117c0,20.929-16.968,37.899-37.903,37.899c-20.933,0-37.901-16.971-37.901-37.899
			c0-20.934,16.968-37.904,37.901-37.904C236.364,84.212,253.332,101.183,253.332,122.117z"/>
		<g>
			
				<line fill="none" stroke="#424143" stroke-width="3.125" stroke-linecap="round" stroke-linejoin="round" stroke-miterlimit="10" x1="225.441" y1="118.085" x2="213.998" y2="110.399"/>
			
				<line fill="none" stroke="#424143" stroke-width="3.125" stroke-linecap="round" stroke-linejoin="round" stroke-miterlimit="10" x1="213.998" y1="132.747" x2="225.441" y2="125.062"/>
			
				<path fill="#FFFFFF" stroke="#424143" stroke-width="3.125" stroke-linecap="round" stroke-linejoin="round" stroke-miterlimit="10" d="
				M230.755,127.931c-3.511,0-6.357-2.846-6.357-6.36c0-3.509,2.847-6.358,6.357-6.358s6.359,2.849,6.359,6.358
				C237.114,125.085,234.266,127.931,230.755,127.931z"/>
			
				<circle fill="#FFFFFF" stroke="#424143" stroke-width="3.125" stroke-linecap="round" stroke-linejoin="round" stroke-miterlimit="10" cx="208.203" cy="135.354" r="6.359"/>
			
				<circle fill="#FFFFFF" stroke="#424143" stroke-width="3.125" stroke-linecap="round" stroke-linejoin="round" stroke-miterlimit="10" cx="208.203" cy="107.792" r="6.36"/>
		</g>
	</g>
	<g>
		
			<path fill="#FFFFFF" stroke="#424143" stroke-width="3.125" stroke-linecap="round" stroke-linejoin="round" stroke-miterlimit="10" d="
			M279.85,6.282h76.438c4.688,0,8.486,3.8,8.486,8.486V48.08c0,4.686-3.798,8.485-8.486,8.485H315.36l-15.93,14.455V56.565H279.85
			c-4.687,0-8.484-3.799-8.484-8.485V14.769C271.365,10.083,275.163,6.282,279.85,6.282z"/>
		
			<line fill="none" stroke="#424143" stroke-width="3.125" stroke-linecap="round" stroke-linejoin="round" stroke-miterlimit="10" x1="349.931" y1="19.798" x2="311.061" y2="19.798"/>
		
			<line fill="none" stroke="#424143" stroke-width="3.125" stroke-linecap="round" stroke-linejoin="round" stroke-miterlimit="10" x1="349.931" y1="30.798" x2="286.488" y2="30.798"/>
		
			<line fill="none" stroke="#424143" stroke-width="3.125" stroke-linecap="round" stroke-linejoin="round" stroke-miterlimit="10" x1="349.931" y1="41.8" x2="340.765" y2="41.8"/>
		
			<line fill="none" stroke="#424143" stroke-width="3.125" stroke-linecap="round" stroke-linejoin="round" stroke-miterlimit="10" x1="298.958" y1="19.798" x2="286.488" y2="19.798"/>
		
			<line fill="none" stroke="#424143" stroke-width="3.125" stroke-linecap="round" stroke-linejoin="round" stroke-miterlimit="10" x1="332.328" y1="41.8" x2="294.191" y2="41.8"/>
	</g>
	<g>
		
			<path fill="#FFFFFF" stroke="#424143" stroke-width="3.125" stroke-linecap="round" stroke-linejoin="round" stroke-miterlimit="10" d="
			M152.781,30.018H72.199c-4.942,0-8.945,4.005-8.945,8.944v35.117c0,4.939,4.003,8.946,8.945,8.946h43.146l16.792,15.237V83.024
			h20.643c4.939,0,8.943-4.006,8.943-8.946V38.962C161.725,34.022,157.721,30.018,152.781,30.018z"/>
		
			<line fill="none" stroke="#424143" stroke-width="3.125" stroke-linecap="round" stroke-linejoin="round" stroke-miterlimit="10" x1="78.901" y1="44.263" x2="119.879" y2="44.263"/>
		
			<line fill="none" stroke="#424143" stroke-width="3.125" stroke-linecap="round" stroke-linejoin="round" stroke-miterlimit="10" x1="78.901" y1="55.859" x2="145.781" y2="55.859"/>
		
			<line fill="none" stroke="#424143" stroke-width="3.125" stroke-linecap="round" stroke-linejoin="round" stroke-miterlimit="10" x1="78.901" y1="67.457" x2="88.565" y2="67.457"/>
		
			<line fill="none" stroke="#424143" stroke-width="3.125" stroke-linecap="round" stroke-linejoin="round" stroke-miterlimit="10" x1="132.637" y1="44.263" x2="145.781" y2="44.263"/>
		
			<line fill="none" stroke="#424143" stroke-width="3.125" stroke-linecap="round" stroke-linejoin="round" stroke-miterlimit="10" x1="97.458" y1="67.457" x2="137.663" y2="67.457"/>
	</g>
</g>
</svg>
