<?xml version="1.0" encoding="utf-8"?>
<!-- Generator: Adobe Illustrator 16.0.0, SVG Export Plug-In . SVG Version: 6.00 Build 0)  -->
<!DOCTYPE svg PUBLIC "-//W3C//DTD SVG 1.1//EN" "http://www.w3.org/Graphics/SVG/1.1/DTD/svg11.dtd">
<svg version="1.1" id="Layer_1" xmlns="http://www.w3.org/2000/svg" xmlns:xlink="http://www.w3.org/1999/xlink" x="0px" y="0px"
	 width="841.89px" height="595.28px" viewBox="0 0 841.89 595.28" enable-background="new 0 0 841.89 595.28" xml:space="preserve">
<g>
	<g>
		
			<line fill="none" stroke="#424143" stroke-width="4.75" stroke-linecap="round" stroke-linejoin="round" stroke-miterlimit="10" x1="80.904" y1="224.811" x2="135.71" y2="224.811"/>
		
			<line fill="none" stroke="#424143" stroke-width="4.75" stroke-linecap="round" stroke-linejoin="round" stroke-miterlimit="10" x1="97.624" y1="246.34" x2="118.719" y2="246.34"/>
		
			<line fill="none" stroke="#424143" stroke-width="4.75" stroke-linecap="round" stroke-linejoin="round" stroke-miterlimit="10" x1="146.234" y1="267.847" x2="97.624" y2="267.847"/>
		
			<line fill="none" stroke="#424143" stroke-width="4.75" stroke-linecap="round" stroke-linejoin="round" stroke-miterlimit="10" x1="155.755" y1="246.34" x2="134.055" y2="246.34"/>
	</g>
	<g>
		
			<line fill="none" stroke="#424143" stroke-width="4.75" stroke-linecap="round" stroke-linejoin="round" stroke-miterlimit="10" x1="568.473" y1="146.613" x2="646.549" y2="146.613"/>
		
			<line fill="none" stroke="#424143" stroke-width="4.75" stroke-linecap="round" stroke-linejoin="round" stroke-miterlimit="10" x1="635.719" y1="167.835" x2="622.341" y2="167.835"/>
		
			<line fill="none" stroke="#424143" stroke-width="4.75" stroke-linecap="round" stroke-linejoin="round" stroke-miterlimit="10" x1="661.539" y1="185.347" x2="592.29" y2="185.347"/>
		
			<line fill="none" stroke="#424143" stroke-width="4.75" stroke-linecap="round" stroke-linejoin="round" stroke-miterlimit="10" x1="675.104" y1="167.835" x2="653.251" y2="167.835"/>
	</g>
	<g>
		<g>
			<g>
				
					<rect x="517.367" y="362.556" fill="#FFCD42" stroke="#424143" stroke-width="4.75" stroke-linecap="round" stroke-linejoin="round" stroke-miterlimit="10" width="217.99" height="19.439"/>
				
					<rect x="517.367" y="381.995" fill="#F2F2F2" stroke="#424143" stroke-width="4.75" stroke-linecap="round" stroke-linejoin="round" stroke-miterlimit="10" width="217.99" height="148.476"/>
			</g>
			
				<line fill="none" stroke="#424143" stroke-width="4.75" stroke-linecap="round" stroke-linejoin="round" stroke-miterlimit="10" x1="725.665" y1="372.277" x2="718.312" y2="372.277"/>
			
				<line fill="none" stroke="#424143" stroke-width="4.75" stroke-linecap="round" stroke-linejoin="round" stroke-miterlimit="10" x1="710.492" y1="372.277" x2="703.139" y2="372.277"/>
			
				<line fill="none" stroke="#424143" stroke-width="4.75" stroke-linecap="round" stroke-linejoin="round" stroke-miterlimit="10" x1="695.323" y1="372.277" x2="687.964" y2="372.277"/>
		</g>
		
			<rect x="583.293" y="394.348" fill="#BABBC1" stroke="#424143" stroke-width="4.75" stroke-linecap="round" stroke-linejoin="round" stroke-miterlimit="10" width="131.694" height="29.676"/>
		
			<rect x="583.293" y="434.763" fill="#0E82C6" stroke="#424143" stroke-width="4.75" stroke-linecap="round" stroke-linejoin="round" stroke-miterlimit="10" width="131.693" height="23.364"/>
		
			<rect x="537.734" y="394.348" fill="none" stroke="#424143" stroke-width="4.75" stroke-linecap="round" stroke-linejoin="round" stroke-miterlimit="10" width="33.146" height="63.834"/>
		
			<rect x="537.734" y="468.23" fill="#D3D4DB" stroke="#424143" stroke-width="4.75" stroke-linecap="round" stroke-linejoin="round" stroke-miterlimit="10" width="177.252" height="18.312"/>
		
			<line fill="none" stroke="#424143" stroke-width="4.75" stroke-linecap="round" stroke-linejoin="round" stroke-miterlimit="10" x1="712.212" y1="500.358" x2="653.325" y2="500.358"/>
		
			<line fill="none" stroke="#424143" stroke-width="4.75" stroke-linecap="round" stroke-linejoin="round" stroke-miterlimit="10" x1="712.212" y1="509.412" x2="608.419" y2="509.412"/>
		
			<line fill="none" stroke="#424143" stroke-width="4.75" stroke-linecap="round" stroke-linejoin="round" stroke-miterlimit="10" x1="712.212" y1="518.461" x2="608.419" y2="518.461"/>
		
			<line fill="none" stroke="#424143" stroke-width="4.75" stroke-linecap="round" stroke-linejoin="round" stroke-miterlimit="10" x1="552.906" y1="500.358" x2="545.742" y2="500.358"/>
		
			<line fill="none" stroke="#424143" stroke-width="4.75" stroke-linecap="round" stroke-linejoin="round" stroke-miterlimit="10" x1="552.906" y1="509.412" x2="541.885" y2="509.412"/>
		
			<line fill="none" stroke="#424143" stroke-width="4.75" stroke-linecap="round" stroke-linejoin="round" stroke-miterlimit="10" x1="589.457" y1="518.461" x2="541.885" y2="518.461"/>
	</g>
	<g>
		
			<line fill="none" stroke="#424143" stroke-width="5" stroke-linecap="round" stroke-linejoin="round" stroke-miterlimit="10" x1="714.5" y1="235" x2="714.5" y2="241"/>
		
			<line fill="none" stroke="#424143" stroke-width="5" stroke-linecap="round" stroke-linejoin="round" stroke-miterlimit="10" x1="714.5" y1="251" x2="714.5" y2="257"/>
		
			<line fill="none" stroke="#424143" stroke-width="5" stroke-linecap="round" stroke-linejoin="round" stroke-miterlimit="10" x1="702" y1="245.5" x2="709" y2="245.5"/>
		
			<line fill="none" stroke="#424143" stroke-width="5" stroke-linecap="round" stroke-linejoin="round" stroke-miterlimit="10" x1="722" y1="245.5" x2="727" y2="245.5"/>
	</g>
	<g>
		
			<line fill="none" stroke="#424143" stroke-width="5" stroke-linecap="round" stroke-linejoin="round" stroke-miterlimit="10" x1="774.5" y1="410" x2="774.5" y2="415"/>
		
			<line fill="none" stroke="#424143" stroke-width="5" stroke-linecap="round" stroke-linejoin="round" stroke-miterlimit="10" x1="774.5" y1="426" x2="774.5" y2="431"/>
		
			<line fill="none" stroke="#424143" stroke-width="5" stroke-linecap="round" stroke-linejoin="round" stroke-miterlimit="10" x1="764" y1="420.5" x2="770" y2="420.5"/>
		
			<line fill="none" stroke="#424143" stroke-width="5" stroke-linecap="round" stroke-linejoin="round" stroke-miterlimit="10" x1="782" y1="420.5" x2="787" y2="420.5"/>
	</g>
	<g>
		
			<line fill="none" stroke="#424143" stroke-width="5" stroke-linecap="round" stroke-linejoin="round" stroke-miterlimit="10" x1="498.5" y1="141" x2="498.5" y2="147"/>
		
			<line fill="none" stroke="#424143" stroke-width="5" stroke-linecap="round" stroke-linejoin="round" stroke-miterlimit="10" x1="498.5" y1="157" x2="498.5" y2="162"/>
		
			<line fill="none" stroke="#424143" stroke-width="5" stroke-linecap="round" stroke-linejoin="round" stroke-miterlimit="10" x1="485" y1="152.5" x2="492" y2="152.5"/>
		
			<line fill="none" stroke="#424143" stroke-width="5" stroke-linecap="round" stroke-linejoin="round" stroke-miterlimit="10" x1="505" y1="152.5" x2="510" y2="152.5"/>
	</g>
	<g>
		
			<line fill="none" stroke="#424143" stroke-width="5" stroke-linecap="round" stroke-linejoin="round" stroke-miterlimit="10" x1="577.5" y1="82" x2="577.5" y2="88"/>
		
			<line fill="none" stroke="#424143" stroke-width="5" stroke-linecap="round" stroke-linejoin="round" stroke-miterlimit="10" x1="577.5" y1="98" x2="577.5" y2="103"/>
		
			<line fill="none" stroke="#424143" stroke-width="5" stroke-linecap="round" stroke-linejoin="round" stroke-miterlimit="10" x1="565" y1="93.5" x2="571" y2="93.5"/>
		
			<line fill="none" stroke="#424143" stroke-width="5" stroke-linecap="round" stroke-linejoin="round" stroke-miterlimit="10" x1="584" y1="93.5" x2="589" y2="93.5"/>
	</g>
	<g>
		
			<line fill="none" stroke="#424143" stroke-width="5" stroke-linecap="round" stroke-linejoin="round" stroke-miterlimit="10" x1="326.5" y1="63" x2="326.5" y2="70"/>
		
			<line fill="none" stroke="#424143" stroke-width="5" stroke-linecap="round" stroke-linejoin="round" stroke-miterlimit="10" x1="326.5" y1="81" x2="326.5" y2="86"/>
		
			<line fill="none" stroke="#424143" stroke-width="5" stroke-linecap="round" stroke-linejoin="round" stroke-miterlimit="10" x1="312" y1="75.5" x2="320" y2="75.5"/>
		
			<line fill="none" stroke="#424143" stroke-width="5" stroke-linecap="round" stroke-linejoin="round" stroke-miterlimit="10" x1="334" y1="75.5" x2="340" y2="75.5"/>
	</g>
	<g>
		
			<line fill="none" stroke="#424143" stroke-width="5" stroke-linecap="round" stroke-linejoin="round" stroke-miterlimit="10" x1="474.5" y1="52" x2="474.5" y2="58"/>
		
			<line fill="none" stroke="#424143" stroke-width="5" stroke-linecap="round" stroke-linejoin="round" stroke-miterlimit="10" x1="474.5" y1="70" x2="474.5" y2="75"/>
		
			<line fill="none" stroke="#424143" stroke-width="5" stroke-linecap="round" stroke-linejoin="round" stroke-miterlimit="10" x1="465" y1="64.5" x2="472" y2="64.5"/>
		
			<line fill="none" stroke="#424143" stroke-width="5" stroke-linecap="round" stroke-linejoin="round" stroke-miterlimit="10" x1="482" y1="64.5" x2="489" y2="64.5"/>
	</g>
	<g>
		
			<line fill="none" stroke="#424143" stroke-width="5" stroke-linecap="round" stroke-linejoin="round" stroke-miterlimit="10" x1="154.5" y1="127" x2="154.5" y2="133"/>
		
			<line fill="none" stroke="#424143" stroke-width="5" stroke-linecap="round" stroke-linejoin="round" stroke-miterlimit="10" x1="154.5" y1="145" x2="154.5" y2="151"/>
		
			<line fill="none" stroke="#424143" stroke-width="5" stroke-linecap="round" stroke-linejoin="round" stroke-miterlimit="10" x1="142" y1="139.5" x2="150" y2="139.5"/>
		
			<line fill="none" stroke="#424143" stroke-width="5" stroke-linecap="round" stroke-linejoin="round" stroke-miterlimit="10" x1="162" y1="139.5" x2="169" y2="139.5"/>
	</g>
	<g>
		
			<line fill="none" stroke="#424143" stroke-width="5" stroke-linecap="round" stroke-linejoin="round" stroke-miterlimit="10" x1="231.5" y1="167" x2="231.5" y2="172"/>
		
			<line fill="none" stroke="#424143" stroke-width="5" stroke-linecap="round" stroke-linejoin="round" stroke-miterlimit="10" x1="231.5" y1="183" x2="231.5" y2="190"/>
		
			<line fill="none" stroke="#424143" stroke-width="5" stroke-linecap="round" stroke-linejoin="round" stroke-miterlimit="10" x1="217" y1="178.5" x2="225" y2="178.5"/>
		
			<line fill="none" stroke="#424143" stroke-width="5" stroke-linecap="round" stroke-linejoin="round" stroke-miterlimit="10" x1="237" y1="178.5" x2="242" y2="178.5"/>
	</g>
	<g>
		
			<line fill="none" stroke="#424143" stroke-width="5" stroke-linecap="round" stroke-linejoin="round" stroke-miterlimit="10" x1="29.5" y1="302" x2="29.5" y2="307"/>
		
			<line fill="none" stroke="#424143" stroke-width="5" stroke-linecap="round" stroke-linejoin="round" stroke-miterlimit="10" x1="29.5" y1="318" x2="29.5" y2="325"/>
		
			<line fill="none" stroke="#424143" stroke-width="5" stroke-linecap="round" stroke-linejoin="round" stroke-miterlimit="10" x1="17" y1="313.5" x2="25" y2="313.5"/>
		
			<line fill="none" stroke="#424143" stroke-width="5" stroke-linecap="round" stroke-linejoin="round" stroke-miterlimit="10" x1="37" y1="313.5" x2="42" y2="313.5"/>
	</g>
	<g>
		
			<line fill="none" stroke="#424143" stroke-width="5" stroke-linecap="round" stroke-linejoin="round" stroke-miterlimit="10" x1="71.5" y1="432" x2="71.5" y2="437"/>
		
			<line fill="none" stroke="#424143" stroke-width="5" stroke-linecap="round" stroke-linejoin="round" stroke-miterlimit="10" x1="71.5" y1="448" x2="71.5" y2="455"/>
		
			<line fill="none" stroke="#424143" stroke-width="5" stroke-linecap="round" stroke-linejoin="round" stroke-miterlimit="10" x1="59" y1="443.5" x2="65" y2="443.5"/>
		
			<line fill="none" stroke="#424143" stroke-width="5" stroke-linecap="round" stroke-linejoin="round" stroke-miterlimit="10" x1="77" y1="443.5" x2="84" y2="443.5"/>
	</g>
	<g>
		
			<line fill="none" stroke="#424143" stroke-width="5" stroke-linecap="round" stroke-linejoin="round" stroke-miterlimit="10" x1="758.5" y1="167" x2="758.5" y2="172"/>
		
			<line fill="none" stroke="#424143" stroke-width="5" stroke-linecap="round" stroke-linejoin="round" stroke-miterlimit="10" x1="758.5" y1="182" x2="758.5" y2="188"/>
		
			<line fill="none" stroke="#424143" stroke-width="5" stroke-linecap="round" stroke-linejoin="round" stroke-miterlimit="10" x1="746" y1="178.5" x2="754" y2="178.5"/>
		
			<line fill="none" stroke="#424143" stroke-width="5" stroke-linecap="round" stroke-linejoin="round" stroke-miterlimit="10" x1="766" y1="178.5" x2="772" y2="178.5"/>
	</g>
	<g>
		
			<line fill="none" stroke="#424143" stroke-width="5" stroke-linecap="round" stroke-linejoin="round" stroke-miterlimit="10" x1="809.5" y1="321" x2="809.5" y2="327"/>
		
			<line fill="none" stroke="#424143" stroke-width="5" stroke-linecap="round" stroke-linejoin="round" stroke-miterlimit="10" x1="809.5" y1="337" x2="809.5" y2="343"/>
		
			<line fill="none" stroke="#424143" stroke-width="5" stroke-linecap="round" stroke-linejoin="round" stroke-miterlimit="10" x1="797" y1="333.5" x2="804" y2="333.5"/>
		
			<line fill="none" stroke="#424143" stroke-width="5" stroke-linecap="round" stroke-linejoin="round" stroke-miterlimit="10" x1="817" y1="333.5" x2="824" y2="333.5"/>
	</g>
	<g>
		
			<rect x="118.33" y="422.29" fill="#8E9092" stroke="#424143" stroke-width="4.75" stroke-linecap="round" stroke-linejoin="round" stroke-miterlimit="10" width="181.255" height="107.165"/>
		<g>
			
				<polygon fill="#A0A2A8" stroke="#424143" stroke-width="4.75" stroke-linecap="round" stroke-linejoin="round" stroke-miterlimit="10" points="
				141.484,399.798 163.975,422.29 203.666,422.29 181.174,399.798 			"/>
			
				<polygon fill="#F2F2F2" stroke="#424143" stroke-width="4.75" stroke-linecap="round" stroke-linejoin="round" stroke-miterlimit="10" points="
				118.33,399.798 118.33,422.29 163.975,422.29 141.484,399.798 			"/>
			
				<polygon fill="#F2F2F2" stroke="#424143" stroke-width="4.75" stroke-linecap="round" stroke-linejoin="round" stroke-miterlimit="10" points="
				181.174,399.798 203.666,422.29 243.357,422.29 220.866,399.798 			"/>
			
				<polygon fill="#F2F2F2" stroke="#424143" stroke-width="4.75" stroke-linecap="round" stroke-linejoin="round" stroke-miterlimit="10" points="
				299.584,399.798 260.556,399.798 283.045,422.29 299.584,422.29 			"/>
			
				<polygon fill="#A0A2A8" stroke="#424143" stroke-width="4.75" stroke-linecap="round" stroke-linejoin="round" stroke-miterlimit="10" points="
				220.866,399.798 243.357,422.29 283.045,422.29 260.556,399.798 			"/>
		</g>
		<g>
			
				<polygon fill="#F2F2F2" stroke="#424143" stroke-width="4.75" stroke-linecap="round" stroke-linejoin="round" stroke-miterlimit="10" points="
				276.431,377.307 253.941,399.798 214.25,399.798 236.742,377.307 			"/>
			
				<polygon fill="#A0A2A8" stroke="#424143" stroke-width="4.75" stroke-linecap="round" stroke-linejoin="round" stroke-miterlimit="10" points="
				299.584,377.307 299.584,399.798 253.941,399.798 276.431,377.307 			"/>
			
				<polygon fill="#A0A2A8" stroke="#424143" stroke-width="4.75" stroke-linecap="round" stroke-linejoin="round" stroke-miterlimit="10" points="
				236.742,377.307 214.25,399.798 174.559,399.798 197.05,377.307 			"/>
			
				<polygon fill="#A0A2A8" stroke="#424143" stroke-width="4.75" stroke-linecap="round" stroke-linejoin="round" stroke-miterlimit="10" points="
				118.33,377.307 157.359,377.307 134.868,399.798 118.33,399.798 			"/>
			
				<polygon fill="#F2F2F2" stroke="#424143" stroke-width="4.75" stroke-linecap="round" stroke-linejoin="round" stroke-miterlimit="10" points="
				197.05,377.307 174.559,399.798 134.868,399.798 157.359,377.307 			"/>
		</g>
		
			<line fill="none" stroke="#424143" stroke-width="4.75" stroke-linecap="round" stroke-linejoin="round" stroke-miterlimit="10" x1="136.355" y1="454.924" x2="281.557" y2="454.924"/>
		
			<line fill="none" stroke="#424143" stroke-width="4.75" stroke-linecap="round" stroke-linejoin="round" stroke-miterlimit="10" x1="170.81" y1="440.811" x2="170.81" y2="514.02"/>
		
			<line fill="none" stroke="#424143" stroke-width="4.75" stroke-linecap="round" stroke-linejoin="round" stroke-miterlimit="10" x1="157.359" y1="492.409" x2="283.045" y2="492.409"/>
	</g>
	<g>
		
			<path fill="#FFCD42" stroke="#424143" stroke-width="4.75" stroke-linecap="round" stroke-linejoin="round" stroke-miterlimit="10" d="
			M476.729,231.779c-1.527-4.199,0.641-8.844,4.837-10.37c4.201-1.528,8.844,0.639,10.37,4.84c1.526,4.198-0.641,8.84-4.837,10.368
			C482.896,238.143,478.254,235.979,476.729,231.779z"/>
		
			<path fill="#6BACDE" stroke="#424143" stroke-width="4.75" stroke-linecap="round" stroke-linejoin="round" stroke-miterlimit="10" d="
			M371.08,290.782c-1.528-4.198,0.641-8.842,4.843-10.37c4.197-1.525,8.839,0.641,10.366,4.84c1.529,4.199-0.642,8.84-4.839,10.369
			C377.249,297.148,372.605,294.981,371.08,290.782z"/>
		
			<path fill="#0E82C6" stroke="#424143" stroke-width="4.75" stroke-linecap="round" stroke-linejoin="round" stroke-miterlimit="10" d="
			M430.799,228.333c-1.526-4.201,0.64-8.842,4.838-10.369c4.203-1.525,8.841,0.64,10.368,4.837c1.526,4.199-0.637,8.841-4.837,10.37
			C436.97,234.698,432.326,232.531,430.799,228.333z"/>
		
			<path fill="#FFCD42" stroke="#424143" stroke-width="4.75" stroke-linecap="round" stroke-linejoin="round" stroke-miterlimit="10" d="
			M414.503,266.382c-1.526-4.201,0.642-8.842,4.841-10.367c4.199-1.528,8.84,0.637,10.368,4.836c1.53,4.201-0.64,8.844-4.839,10.37
			C420.674,272.748,416.032,270.582,414.503,266.382z"/>
		
			<line fill="none" stroke="#424143" stroke-width="4.75" stroke-linecap="round" stroke-linejoin="round" stroke-miterlimit="10" x1="476.281" y1="228.284" x2="446.487" y2="225.582"/>
		
			<line fill="none" stroke="#424143" stroke-width="4.75" stroke-linecap="round" stroke-linejoin="round" stroke-miterlimit="10" x1="435.22" y1="232.999" x2="425.29" y2="256.188"/>
		
			<line fill="none" stroke="#424143" stroke-width="4.75" stroke-linecap="round" stroke-linejoin="round" stroke-miterlimit="10" x1="414.962" y1="267.637" x2="385.838" y2="284.014"/>
	</g>
	<g>
		
			<path fill="#6BACDE" stroke="#424143" stroke-width="4.75" stroke-linecap="round" stroke-linejoin="round" stroke-miterlimit="10" d="
			M195.122,312.106c-0.752-4.403,2.209-8.588,6.61-9.339c4.407-0.753,8.586,2.207,9.341,6.614c0.751,4.403-2.21,8.583-6.613,9.339
			C200.055,319.471,195.873,316.512,195.122,312.106z"/>
		
			<path fill="#0E82C6" stroke="#424143" stroke-width="4.75" stroke-linecap="round" stroke-linejoin="round" stroke-miterlimit="10" d="
			M80.636,351.297c-0.754-4.403,2.208-8.584,6.615-9.337c4.402-0.751,8.583,2.206,9.336,6.61c0.754,4.406-2.21,8.586-6.613,9.339
			C85.569,358.662,81.387,355.702,80.636,351.297z"/>
		
			<path fill="#0E82C6" stroke="#424143" stroke-width="4.75" stroke-linecap="round" stroke-linejoin="round" stroke-miterlimit="10" d="
			M150.543,300.516c-0.75-4.407,2.211-8.584,6.615-9.338c4.407-0.75,8.584,2.207,9.338,6.611c0.751,4.405-2.206,8.584-6.611,9.338
			C155.481,307.88,151.3,304.919,150.543,300.516z"/>
		
			<path fill="#FFCD42" stroke="#424143" stroke-width="4.75" stroke-linecap="round" stroke-linejoin="round" stroke-miterlimit="10" d="
			M127.718,335.042c-0.751-4.405,2.211-8.584,6.614-9.336c4.404-0.751,8.583,2.207,9.337,6.608c0.756,4.408-2.208,8.588-6.612,9.342
			C132.652,342.408,128.472,339.449,127.718,335.042z"/>
		
			<line fill="none" stroke="#424143" stroke-width="4.75" stroke-linecap="round" stroke-linejoin="round" stroke-miterlimit="10" x1="195.305" y1="308.588" x2="166.472" y2="300.608"/>
		
			<line fill="none" stroke="#424143" stroke-width="4.75" stroke-linecap="round" stroke-linejoin="round" stroke-miterlimit="10" x1="154.063" y1="305.896" x2="140.151" y2="326.939"/>
		
			<line fill="none" stroke="#424143" stroke-width="4.75" stroke-linecap="round" stroke-linejoin="round" stroke-miterlimit="10" x1="127.945" y1="336.359" x2="96.365" y2="347.273"/>
	</g>
	<g>
		
			<path fill="none" stroke="#424143" stroke-width="4.75" stroke-linecap="round" stroke-linejoin="round" stroke-miterlimit="10" d="
			M661.226,314.111c0.752,4.404-2.21,8.588-6.611,9.34c-4.404,0.751-8.586-2.208-9.341-6.615c-0.751-4.402,2.211-8.584,6.613-9.338
			C656.291,306.748,660.475,309.707,661.226,314.111z"/>
		
			<path fill="#0E82C6" stroke="#424143" stroke-width="4.75" stroke-linecap="round" stroke-linejoin="round" stroke-miterlimit="10" d="
			M775.711,274.92c0.754,4.404-2.21,8.586-6.615,9.339c-4.403,0.75-8.583-2.209-9.336-6.612c-0.753-4.406,2.21-8.585,6.612-9.338
			C770.777,267.555,774.959,270.516,775.711,274.92z"/>
		
			<path fill="#0E82C6" stroke="#424143" stroke-width="4.75" stroke-linecap="round" stroke-linejoin="round" stroke-miterlimit="10" d="
			M705.803,325.703c0.75,4.406-2.209,8.584-6.614,9.336c-4.407,0.752-8.584-2.207-9.336-6.611c-0.752-4.402,2.203-8.582,6.608-9.336
			C700.863,318.338,705.047,321.298,705.803,325.703z"/>
		
			<path fill="#FFCD42" stroke="#424143" stroke-width="4.75" stroke-linecap="round" stroke-linejoin="round" stroke-miterlimit="10" d="
			M728.629,291.175c0.751,4.406-2.212,8.584-6.613,9.336c-4.406,0.755-8.583-2.205-9.338-6.609c-0.755-4.407,2.209-8.586,6.613-9.34
			C723.695,283.809,727.873,286.77,728.629,291.175z"/>
		
			<line fill="none" stroke="#424143" stroke-width="4.75" stroke-linecap="round" stroke-linejoin="round" stroke-miterlimit="10" x1="661.041" y1="317.63" x2="689.874" y2="325.607"/>
		
			<line fill="none" stroke="#424143" stroke-width="4.75" stroke-linecap="round" stroke-linejoin="round" stroke-miterlimit="10" x1="702.282" y1="320.321" x2="716.194" y2="299.277"/>
		
			<line fill="none" stroke="#424143" stroke-width="4.75" stroke-linecap="round" stroke-linejoin="round" stroke-miterlimit="10" x1="728.4" y1="289.859" x2="759.982" y2="278.943"/>
	</g>
	<g>
		
			<path fill="#7A7D7F" stroke="#424143" stroke-width="4.75" stroke-linecap="round" stroke-linejoin="round" stroke-miterlimit="10" d="
			M571.65,316.754c0-7.674-6.216-13.895-13.888-13.895h-270.5c-7.672,0-13.89,6.221-13.89,13.895v198.023H571.65V316.754z"/>
		
			<path fill="#F2F2F2" stroke="#424143" stroke-width="4.75" stroke-linecap="round" stroke-linejoin="round" stroke-miterlimit="10" d="
			M250.812,514.777v13.888c0,7.663,7.159,13.887,15.984,13.887h311.429c8.827,0,15.984-6.224,15.984-13.887v-13.888H250.812z"/>
		
			<rect x="293.772" y="320.838" fill="#0E82C6" stroke="#424143" stroke-width="4.75" stroke-linecap="round" stroke-linejoin="round" stroke-miterlimit="10" width="257.478" height="171.606"/>
		
			<line fill="none" stroke="#424143" stroke-width="4.75" stroke-linecap="round" stroke-linejoin="round" stroke-miterlimit="10" x1="405.539" y1="528.665" x2="439.483" y2="528.665"/>
		
			<line opacity="0.2" fill="none" stroke="#424143" stroke-width="4.75" stroke-linecap="round" stroke-linejoin="round" stroke-miterlimit="10" x1="352.395" y1="466.029" x2="467.866" y2="350.557"/>
		
			<line opacity="0.2" fill="none" stroke="#424143" stroke-width="4.75" stroke-linecap="round" stroke-linejoin="round" stroke-miterlimit="10" x1="396.829" y1="453.883" x2="443.166" y2="407.547"/>
		
			<line opacity="0.2" fill="none" stroke="#424143" stroke-width="4.75" stroke-linecap="round" stroke-linejoin="round" stroke-miterlimit="10" x1="460.078" y1="390.462" x2="472.881" y2="377.66"/>
	</g>
	<g>
		<g>
			
				<path fill="#FFCD42" stroke="#424143" stroke-width="4.75" stroke-linecap="round" stroke-linejoin="round" stroke-miterlimit="10" d="
				M395.638,245.779c0-2.621-2.123-4.745-4.744-4.745H182.151c-2.62,0-4.744,2.124-4.744,4.745v128.725h218.231V245.779z"/>
			
				<path fill="#D3D4DB" stroke="#424143" stroke-width="4.75" stroke-linecap="round" stroke-linejoin="round" stroke-miterlimit="10" d="
				M177.407,374.504v23.721c0,2.618,2.124,4.743,4.744,4.743h208.743c2.622,0,4.744-2.125,4.744-4.743v-23.721H177.407z"/>
		</g>
		
			<line fill="none" stroke="#424143" stroke-width="4.75" stroke-linecap="round" stroke-linejoin="round" stroke-miterlimit="10" x1="191.323" y1="388.42" x2="381.723" y2="388.42"/>
		
			<rect x="219.275" y="382.313" fill="#FFFFFF" stroke="#424143" stroke-width="4.75" stroke-linecap="round" stroke-linejoin="round" stroke-miterlimit="10" width="6.642" height="13.396"/>
		
			<polygon fill="#E7E7E7" stroke="#424143" stroke-width="4.75" stroke-linecap="round" stroke-linejoin="round" stroke-miterlimit="10" points="
			272.766,330.541 272.766,295.908 307.397,313.223 		"/>
	</g>
	<g>
		
			<path fill="#BDBEC0" stroke="#424143" stroke-width="4.75" stroke-linecap="round" stroke-linejoin="round" stroke-miterlimit="10" d="
			M656.814,372.518c-4.809,0-8.707-3.897-8.707-8.705V228.147c0-4.808,3.898-8.708,8.707-8.708h5.08
			c4.807,0,8.703,3.899,8.703,8.708v135.666c0,4.808-3.896,8.705-8.703,8.705H656.814z"/>
		<g>
			
				<path fill="#D3D4DB" stroke="#424143" stroke-width="4.75" stroke-linecap="round" stroke-linejoin="round" stroke-miterlimit="10" d="
				M494.848,246.329h57.858c5.609,0,10.156,4.546,10.156,10.156v2.721v73.546v2.721c0,5.611-4.547,10.156-10.156,10.156h-57.858
				c-5.609,0-10.157-4.545-10.157-10.156v-78.988C484.69,250.875,489.238,246.329,494.848,246.329z"/>
			
				<polygon fill="#F2F2F2" stroke="#424143" stroke-width="4.75" stroke-linecap="round" stroke-linejoin="round" stroke-miterlimit="10" points="
				648.107,240.66 648.107,295.977 648.107,351.295 562.862,332.752 562.862,259.206 			"/>
		</g>
		
			<path fill="#FFCD42" stroke="#424143" stroke-width="4.75" stroke-linecap="round" stroke-linejoin="round" stroke-miterlimit="10" d="
			M550.581,280.562c0,2.404-1.95,4.353-4.355,4.353h-44.9c-2.404,0-4.354-1.949-4.354-4.353v-16.324
			c0-2.404,1.949-4.353,4.354-4.353h44.9c2.405,0,4.355,1.949,4.355,4.353V280.562z"/>
		
			<path fill="#F2F2F2" stroke="#424143" stroke-width="4.75" stroke-linecap="round" stroke-linejoin="round" stroke-miterlimit="10" d="
			M484.69,267.412h-14.147c-4.804,0-8.703,3.899-8.703,8.707v39.72c0,4.809,3.899,8.705,8.703,8.705h14.147V267.412z"/>
		
			<path fill="#F2F2F2" stroke="#424143" stroke-width="4.75" stroke-linecap="round" stroke-linejoin="round" stroke-miterlimit="10" d="
			M532.209,345.629v41.218c0,4.009-3.245,7.253-7.256,7.253h-10.904c-4.009,0-7.256-3.244-7.256-7.253v-41.218H532.209z"/>
		
			<line fill="none" stroke="#424143" stroke-width="4.75" stroke-linecap="round" stroke-linejoin="round" stroke-miterlimit="10" x1="532.209" y1="358.234" x2="519.502" y2="358.234"/>
		
			<line fill="none" stroke="#424143" stroke-width="4.75" stroke-linecap="round" stroke-linejoin="round" stroke-miterlimit="10" x1="532.209" y1="372.74" x2="519.502" y2="372.74"/>
		
			<path fill="#BDBEC0" stroke="#424143" stroke-width="4.75" stroke-linecap="round" stroke-linejoin="round" stroke-miterlimit="10" d="
			M506.535,315.057c0,9.523,7.721,17.244,17.24,17.244c9.525,0,17.245-7.721,17.245-17.244s-7.72-17.241-17.245-17.241
			C514.256,297.815,506.535,305.533,506.535,315.057z"/>
		
			<line fill="none" stroke="#424143" stroke-width="4.75" stroke-linecap="round" stroke-linejoin="round" stroke-miterlimit="10" x1="519.498" y1="310.064" x2="528.393" y2="318.955"/>
		
			<rect x="453.208" y="285.882" fill="#BDBEC0" stroke="#424143" stroke-width="4.75" stroke-linecap="round" stroke-linejoin="round" stroke-miterlimit="10" width="8.346" height="18.139"/>
		<g opacity="0.3">
			
				<line fill="none" stroke="#424143" stroke-width="4.75" stroke-linecap="round" stroke-linejoin="round" stroke-miterlimit="10" x1="535.214" y1="276.222" x2="531.651" y2="272.66"/>
			
				<line fill="none" stroke="#424143" stroke-width="4.75" stroke-linecap="round" stroke-linejoin="round" stroke-miterlimit="10" x1="526.472" y1="277.71" x2="518.046" y2="269.285"/>
			
				<line fill="none" stroke="#424143" stroke-width="4.75" stroke-linecap="round" stroke-linejoin="round" stroke-miterlimit="10" x1="527.241" y1="267.986" x2="526.256" y2="267.002"/>
		</g>
	</g>
	<g>
		
			<path fill="#FFFFFF" stroke="#424143" stroke-width="4.75" stroke-linecap="round" stroke-linejoin="round" stroke-miterlimit="10" d="
			M543.217,159.207h70.72c4.336,0,7.851,3.516,7.851,7.851v30.819c0,4.336-3.515,7.852-7.851,7.852H576.07l-14.737,13.373v-13.373
			h-18.116c-4.336,0-7.85-3.516-7.85-7.852v-30.819C535.367,162.723,538.881,159.207,543.217,159.207z"/>
		
			<line fill="none" stroke="#424143" stroke-width="4.75" stroke-linecap="round" stroke-linejoin="round" stroke-miterlimit="10" x1="608.055" y1="171.71" x2="572.092" y2="171.71"/>
		
			<line fill="none" stroke="#424143" stroke-width="4.75" stroke-linecap="round" stroke-linejoin="round" stroke-miterlimit="10" x1="608.055" y1="181.888" x2="549.359" y2="181.888"/>
		
			<line fill="none" stroke="#424143" stroke-width="4.75" stroke-linecap="round" stroke-linejoin="round" stroke-miterlimit="10" x1="608.055" y1="192.067" x2="599.572" y2="192.067"/>
		
			<line fill="none" stroke="#424143" stroke-width="4.75" stroke-linecap="round" stroke-linejoin="round" stroke-miterlimit="10" x1="560.896" y1="171.71" x2="549.359" y2="171.71"/>
		
			<line fill="none" stroke="#424143" stroke-width="4.75" stroke-linecap="round" stroke-linejoin="round" stroke-miterlimit="10" x1="591.769" y1="192.067" x2="556.484" y2="192.067"/>
	</g>
	<g>
		
			<path fill="#FFFFFF" stroke="#424143" stroke-width="4.75" stroke-linecap="round" stroke-linejoin="round" stroke-miterlimit="10" d="
			M210.015,209.324h-74.881c-4.591,0-8.313,3.721-8.313,8.313v32.633c0,4.591,3.721,8.312,8.313,8.312h40.093l15.605,14.162v-14.162
			h19.183c4.591,0,8.313-3.721,8.313-8.312v-32.633C218.328,213.045,214.606,209.324,210.015,209.324z"/>
		
			<line fill="none" stroke="#424143" stroke-width="4.75" stroke-linecap="round" stroke-linejoin="round" stroke-miterlimit="10" x1="141.363" y1="222.562" x2="179.443" y2="222.562"/>
		
			<line fill="none" stroke="#424143" stroke-width="4.75" stroke-linecap="round" stroke-linejoin="round" stroke-miterlimit="10" x1="141.363" y1="233.339" x2="203.512" y2="233.339"/>
		
			<line fill="none" stroke="#424143" stroke-width="4.75" stroke-linecap="round" stroke-linejoin="round" stroke-miterlimit="10" x1="141.363" y1="244.117" x2="150.344" y2="244.117"/>
		
			<line fill="none" stroke="#424143" stroke-width="4.75" stroke-linecap="round" stroke-linejoin="round" stroke-miterlimit="10" x1="191.298" y1="222.562" x2="203.512" y2="222.562"/>
		
			<line fill="none" stroke="#424143" stroke-width="4.75" stroke-linecap="round" stroke-linejoin="round" stroke-miterlimit="10" x1="158.606" y1="244.117" x2="195.969" y2="244.117"/>
	</g>
	<g>
		
			<line fill="none" stroke="#424143" stroke-width="4.75" stroke-linecap="round" stroke-linejoin="round" stroke-miterlimit="10" x1="378.357" y1="150.664" x2="433.164" y2="150.664"/>
		
			<line fill="none" stroke="#424143" stroke-width="4.75" stroke-linecap="round" stroke-linejoin="round" stroke-miterlimit="10" x1="395.078" y1="172.192" x2="416.173" y2="172.192"/>
		
			<line fill="none" stroke="#424143" stroke-width="4.75" stroke-linecap="round" stroke-linejoin="round" stroke-miterlimit="10" x1="443.688" y1="193.701" x2="395.078" y2="193.701"/>
		
			<line fill="none" stroke="#424143" stroke-width="4.75" stroke-linecap="round" stroke-linejoin="round" stroke-miterlimit="10" x1="453.208" y1="172.192" x2="431.509" y2="172.192"/>
	</g>
	<g>
		
			<polygon fill="#FFCD42" stroke="#424143" stroke-width="4.75" stroke-linecap="round" stroke-linejoin="round" stroke-miterlimit="10" points="
			328.159,179.518 338.741,170.859 382.317,135.206 275.969,135.206 317.962,170.859 		"/>
		
			<polygon fill="#F2F2F2" stroke="#424143" stroke-width="4.75" stroke-linecap="round" stroke-linejoin="round" stroke-miterlimit="10" points="
			275.969,135.206 275.969,204.136 317.962,170.859 		"/>
		
			<polygon fill="#F2F2F2" stroke="#424143" stroke-width="4.75" stroke-linecap="round" stroke-linejoin="round" stroke-miterlimit="10" points="
			338.741,170.859 382.317,204.136 382.317,135.206 		"/>
		
			<polygon fill="#E4E6E6" stroke="#424143" stroke-width="4.75" stroke-linecap="round" stroke-linejoin="round" stroke-miterlimit="10" points="
			328.159,179.518 317.962,170.859 275.969,204.136 382.317,204.136 338.741,170.859 		"/>
	</g>
	<g>
		
			<circle fill="#0E82C6" stroke="#424143" stroke-width="4.75" stroke-linecap="round" stroke-linejoin="round" stroke-miterlimit="10" cx="382.287" cy="135.652" r="31.38"/>
		<g>
			
				<line fill="none" stroke="#424143" stroke-width="4.75" stroke-linecap="round" stroke-linejoin="round" stroke-miterlimit="10" x1="390.576" y1="132.316" x2="381.102" y2="125.954"/>
			
				<line fill="none" stroke="#424143" stroke-width="4.75" stroke-linecap="round" stroke-linejoin="round" stroke-miterlimit="10" x1="381.102" y1="144.454" x2="390.576" y2="138.092"/>
			
				<circle fill="#FFFFFF" stroke="#424143" stroke-width="4.75" stroke-linecap="round" stroke-linejoin="round" stroke-miterlimit="10" cx="394.976" cy="135.202" r="5.265"/>
			
				<circle fill="#FFFFFF" stroke="#424143" stroke-width="4.75" stroke-linecap="round" stroke-linejoin="round" stroke-miterlimit="10" cx="376.304" cy="146.613" r="5.265"/>
			
				<circle fill="#FFFFFF" stroke="#424143" stroke-width="4.75" stroke-linecap="round" stroke-linejoin="round" stroke-miterlimit="10" cx="376.304" cy="123.794" r="5.266"/>
		</g>
	</g>
</g>
</svg>
