<?xml version="1.0" encoding="utf-8"?>
<!-- Generator: Adobe Illustrator 16.0.0, SVG Export Plug-In . SVG Version: 6.00 Build 0)  -->
<!DOCTYPE svg PUBLIC "-//W3C//DTD SVG 1.1//EN" "http://www.w3.org/Graphics/SVG/1.1/DTD/svg11.dtd">
<svg version="1.1" id="Layer_1" xmlns="http://www.w3.org/2000/svg" xmlns:xlink="http://www.w3.org/1999/xlink" x="0px" y="0px"
	 width="500px" height="286.029px" viewBox="0 127.5 500 286.029" enable-background="new 0 127.5 500 286.029"
	 xml:space="preserve">
<rect x="-2" y="127.5" fill="#CC2032" width="504.491" height="286.029"/>
<g>
	<path fill="#F69280" d="M346.354,320.293l-17.073-11.838c1.964-5.823,3.273-11.771,3.894-17.766l20.417-3.701
		c4.468-0.809,7.436-5.092,6.631-9.563l-5.273-29c-0.795-4.469-5.071-7.432-9.554-6.624l-20.4,3.687
		c-2.684-5.394-5.997-10.505-9.873-15.278l11.837-17.075c2.591-3.739,1.642-8.873-2.085-11.455l-24.22-16.791
		c-3.73-2.587-8.856-1.664-11.447,2.075l-11.833,17.067c-5.835-1.951-11.787-3.271-17.787-3.884l-3.691-20.393
		c-0.822-4.488-5.09-7.447-9.563-6.629l-28.999,5.24c-4.47,0.817-7.437,5.098-6.622,9.568l3.692,20.411
		c-5.402,2.68-10.507,5.998-15.273,9.879l-17.073-11.836c-3.745-2.596-8.882-1.66-11.467,2.064l-16.79,24.222
		c-2.584,3.724-1.656,8.863,2.088,11.459l17.074,11.836c-1.956,5.817-3.271,11.774-3.892,17.768l-20.409,3.705
		c-4.477,0.812-7.438,5.078-6.619,9.549l5.239,29.02c0.813,4.455,5.08,7.416,9.562,6.628l20.413-3.711
		c2.679,5.402,5.993,10.517,9.876,15.279l-11.838,17.075c-2.595,3.744-1.658,8.859,2.077,11.449l24.22,16.793
		c3.724,2.582,8.858,1.674,11.456-2.07l11.837-17.075c5.823,1.952,11.772,3.265,17.767,3.883l3.693,20.425
		c0.827,4.467,5.101,7.43,9.555,6.621l29.027-5.262c4.465-0.811,7.422-5.077,6.618-9.549l-3.705-20.421
		c5.401-2.683,10.519-5.999,15.278-9.874l17.074,11.836c3.747,2.595,8.869,1.648,11.449-2.073l16.793-24.223
		C351.011,328.02,350.101,322.889,346.354,320.293z M222.858,322.967c-22.485-15.591-28.081-46.537-12.497-69.016
		c15.582-22.478,46.538-28.11,69.024-12.521c22.477,15.583,28.082,46.559,12.499,69.038
		C276.301,332.945,245.335,338.549,222.858,322.967z"/>
	<g>
		<path fill="#FFFFFF" d="M154.615,278.434c-1.475,0.012-3.022-0.045-4.525-0.147c-0.503-0.034-0.882-0.47-0.85-0.972
			c0.035-0.502,0.518-0.855,0.971-0.849c1.463,0.099,2.944,0.136,4.405,0.146c0.331,0,0.656-0.004,0.982-0.008
			c0.518,0.027,0.918,0.392,0.927,0.895c0.009,0.504-0.393,0.92-0.896,0.926C155.293,278.432,154.955,278.434,154.615,278.434z
			 M161.063,278.098c-0.462,0-0.854-0.349-0.903-0.817c-0.053-0.501,0.312-0.949,0.813-1.001c1.782-0.184,3.575-0.446,5.327-0.781
			c0.481-0.091,0.971,0.229,1.066,0.725c0.095,0.494-0.229,0.971-0.724,1.066c-1.803,0.345-3.647,0.615-5.484,0.805
			C161.128,278.096,161.096,278.098,161.063,278.098z M144.722,277.684c-0.047,0-0.095-0.004-0.144-0.011
			c-1.824-0.282-3.652-0.649-5.434-1.087c-0.491-0.119-0.791-0.611-0.668-1.102c0.118-0.487,0.61-0.795,1.103-0.668
			c1.731,0.425,3.508,0.781,5.281,1.056c0.496,0.077,0.836,0.542,0.76,1.04C145.551,277.361,145.163,277.684,144.722,277.684z
			 M171.789,276.047c-0.397,0-0.763-0.262-0.875-0.664c-0.139-0.484,0.143-0.988,0.625-1.124c1.72-0.487,3.441-1.056,5.116-1.692
			c0.471-0.181,0.998,0.06,1.176,0.531c0.178,0.469-0.059,0.996-0.528,1.174c-1.726,0.654-3.497,1.24-5.264,1.74
			C171.955,276.036,171.873,276.047,171.789,276.047z M134.113,275.08c-0.097,0-0.196-0.016-0.292-0.048
			c-1.743-0.593-3.483-1.271-5.171-2.013c-0.459-0.203-0.67-0.74-0.467-1.201s0.745-0.668,1.202-0.467
			c1.639,0.721,3.328,1.377,5.022,1.953c0.476,0.163,0.733,0.68,0.571,1.155C134.847,274.842,134.493,275.08,134.113,275.08z
			 M181.998,272.172c-0.337,0-0.664-0.189-0.821-0.515c-0.218-0.454-0.027-0.998,0.425-1.218c1.606-0.774,3.204-1.633,4.746-2.547
			c0.429-0.259,0.988-0.117,1.247,0.317c0.259,0.433,0.117,0.992-0.318,1.249c-1.586,0.943-3.228,1.824-4.882,2.623
			C182.268,272.145,182.132,272.172,181.998,272.172z M124.113,270.682c-0.15,0-0.298-0.037-0.439-0.113
			c-1.61-0.883-3.205-1.848-4.742-2.875c-0.418-0.277-0.531-0.844-0.254-1.262c0.282-0.42,0.849-0.531,1.264-0.254
			c1.495,0.995,3.043,1.936,4.608,2.791c0.441,0.242,0.603,0.795,0.362,1.238C124.747,270.511,124.435,270.682,124.113,270.682z
			 M191.382,266.596c-0.284,0-0.561-0.132-0.738-0.381c-0.294-0.408-0.202-0.977,0.208-1.271c1.453-1.043,2.879-2.161,4.238-3.325
			c0.381-0.326,0.959-0.283,1.285,0.1c0.328,0.382,0.284,0.958-0.099,1.285c-1.398,1.198-2.866,2.349-4.364,3.422
			C191.753,266.541,191.568,266.596,191.382,266.596z M115.021,264.626c-0.2,0-0.401-0.065-0.568-0.201
			c-1.447-1.153-2.854-2.378-4.181-3.641c-0.365-0.349-0.379-0.925-0.032-1.289c0.351-0.363,0.926-0.377,1.289-0.032
			c1.288,1.227,2.656,2.418,4.059,3.539c0.395,0.313,0.46,0.887,0.146,1.28C115.553,264.508,115.288,264.626,115.021,264.626z
			 M199.678,259.495c-0.232,0-0.46-0.088-0.638-0.263c-0.361-0.354-0.363-0.93-0.012-1.289c1.25-1.271,2.463-2.616,3.608-4.002
			c0.323-0.385,0.897-0.44,1.285-0.119c0.388,0.32,0.442,0.895,0.122,1.283c-1.178,1.422-2.429,2.81-3.716,4.117
			C200.149,259.402,199.913,259.495,199.678,259.495z M107.102,257.105c-0.252,0-0.501-0.104-0.682-0.307
			c-1.218-1.372-2.395-2.82-3.497-4.301c-0.303-0.404-0.217-0.977,0.185-1.275c0.402-0.3,0.974-0.218,1.278,0.187
			c1.07,1.44,2.216,2.847,3.398,4.182c0.334,0.376,0.298,0.952-0.077,1.287C107.531,257.031,107.316,257.105,107.102,257.105z
			 M206.638,251.075c-0.181,0-0.361-0.052-0.518-0.161c-0.416-0.286-0.52-0.854-0.233-1.269c1.017-1.472,1.982-3.006,2.871-4.56
			c0.251-0.439,0.809-0.588,1.243-0.339c0.437,0.25,0.59,0.806,0.34,1.243c-0.913,1.599-1.907,3.176-2.954,4.692
			C207.212,250.938,206.925,251.075,206.638,251.075z M100.584,248.345c-0.303,0-0.604-0.152-0.774-0.43
			c-0.971-1.573-1.883-3.201-2.709-4.838c-0.227-0.449-0.046-0.999,0.405-1.225c0.441-0.229,0.994-0.049,1.222,0.403
			c0.802,1.592,1.687,3.172,2.63,4.699c0.266,0.429,0.134,0.991-0.295,1.254C100.915,248.302,100.749,248.345,100.584,248.345z
			 M212.054,241.588c-0.129,0-0.259-0.026-0.382-0.083c-0.458-0.212-0.656-0.753-0.449-1.209c0.754-1.634,1.443-3.312,2.044-4.988
			c0.17-0.472,0.698-0.716,1.164-0.549c0.475,0.171,0.721,0.692,0.55,1.167c-0.62,1.725-1.327,3.451-2.101,5.132
			C212.729,241.391,212.396,241.588,212.054,241.588z M95.668,238.6c-0.36,0-0.702-0.217-0.846-0.574
			c-0.684-1.709-1.299-3.469-1.832-5.232c-0.146-0.482,0.125-0.99,0.607-1.136c0.479-0.146,0.989,0.127,1.136,0.608
			c0.519,1.712,1.117,3.423,1.781,5.083c0.187,0.467-0.042,0.998-0.51,1.184C95.897,238.579,95.779,238.6,95.668,238.6z
			 M215.75,231.31c-0.075,0-0.154-0.009-0.23-0.03c-0.487-0.128-0.779-0.626-0.649-1.113c0.458-1.735,0.842-3.506,1.149-5.264
			c0.085-0.495,0.562-0.828,1.051-0.741c0.497,0.086,0.83,0.558,0.743,1.054c-0.313,1.807-0.709,3.63-1.182,5.417
			C216.526,231.04,216.156,231.31,215.75,231.31z M92.509,228.146c-0.423,0-0.802-0.295-0.89-0.724
			c-0.379-1.807-0.679-3.648-0.899-5.47c-0.06-0.5,0.296-0.954,0.795-1.015c0.489-0.056,0.952,0.295,1.012,0.797
			c0.215,1.771,0.508,3.558,0.874,5.313c0.104,0.493-0.211,0.977-0.706,1.08C92.633,228.14,92.571,228.146,92.509,228.146z
			 M217.616,220.551c-0.027,0-0.055-0.001-0.079-0.003c-0.503-0.043-0.873-0.483-0.832-0.985c0.149-1.778,0.228-3.589,0.228-5.381
			c0-1.443-0.048-2.911-0.149-4.36c-0.036-0.503,0.344-0.938,0.845-0.974c0.495-0.024,0.938,0.343,0.973,0.846
			c0.104,1.493,0.155,3.003,0.153,4.488c0,1.842-0.078,3.705-0.233,5.535C218.482,220.192,218.083,220.551,217.616,220.551z
			 M91.201,217.306c-0.49,0-0.895-0.389-0.913-0.88c-0.023-0.745-0.038-1.493-0.038-2.244c0-1.107,0.028-2.207,0.083-3.298
			c0.025-0.5,0.402-0.896,0.957-0.864c0.504,0.026,0.89,0.455,0.864,0.957c-0.055,1.062-0.08,2.13-0.08,3.205
			c0,0.729,0.011,1.457,0.037,2.181c0.016,0.504-0.377,0.925-0.881,0.942C91.22,217.306,91.21,217.306,91.201,217.306z
			 M91.758,206.401c-0.043,0-0.083-0.001-0.127-0.006c-0.5-0.07-0.848-0.53-0.777-1.028c0.25-1.833,0.583-3.667,0.989-5.455
			c0.111-0.489,0.595-0.8,1.088-0.688c0.493,0.113,0.801,0.601,0.687,1.092c-0.394,1.735-0.716,3.518-0.959,5.298
			C92.597,206.07,92.206,206.401,91.758,206.401z M217.081,205.24c-0.442,0-0.828-0.321-0.899-0.771
			c-0.278-1.769-0.633-3.545-1.061-5.279c-0.121-0.489,0.18-0.984,0.668-1.104c0.499-0.123,0.982,0.179,1.103,0.667
			c0.439,1.785,0.806,3.614,1.09,5.434c0.079,0.498-0.263,0.964-0.76,1.042C217.175,205.235,217.129,205.24,217.081,205.24z
			 M94.168,195.752c-0.092,0-0.186-0.014-0.277-0.043c-0.481-0.152-0.745-0.667-0.59-1.146c0.566-1.762,1.21-3.514,1.92-5.206
			c0.195-0.464,0.728-0.684,1.193-0.486c0.465,0.194,0.684,0.728,0.487,1.192c-0.688,1.643-1.314,3.345-1.865,5.055
			C94.912,195.506,94.557,195.752,94.168,195.752z M214.469,194.638c-0.379,0-0.735-0.239-0.865-0.618
			c-0.57-1.68-1.229-3.366-1.955-5.014c-0.204-0.461,0.007-0.999,0.467-1.202c0.458-0.202,0.999,0.004,1.203,0.467
			c0.746,1.696,1.422,3.432,2.013,5.162c0.163,0.476-0.093,0.994-0.569,1.156C214.665,194.623,214.565,194.638,214.469,194.638z
			 M98.391,185.676c-0.143,0-0.287-0.033-0.423-0.104c-0.444-0.233-0.618-0.785-0.384-1.23c0.85-1.618,1.788-3.231,2.79-4.793
			c0.27-0.426,0.838-0.549,1.257-0.276c0.422,0.272,0.547,0.834,0.277,1.258c-0.973,1.519-1.883,3.086-2.711,4.658
			C99.036,185.5,98.719,185.676,98.391,185.676z M210.063,184.652c-0.318,0-0.632-0.172-0.799-0.473
			c-0.859-1.571-1.8-3.121-2.791-4.606c-0.28-0.418-0.167-0.984,0.251-1.264c0.417-0.28,0.984-0.167,1.265,0.253
			c1.021,1.528,1.987,3.124,2.874,4.739c0.244,0.441,0.082,0.995-0.361,1.239C210.364,184.615,210.213,184.652,210.063,184.652z
			 M104.289,176.48c-0.194,0-0.391-0.061-0.555-0.189c-0.399-0.306-0.474-0.879-0.168-1.278c1.13-1.464,2.332-2.893,3.571-4.244
			c0.344-0.37,0.919-0.395,1.287-0.054c0.373,0.34,0.396,0.917,0.056,1.287c-1.205,1.313-2.374,2.7-3.467,4.124
			C104.832,176.358,104.561,176.48,104.289,176.48z M204.006,175.569c-0.267,0-0.534-0.117-0.714-0.342
			c-1.114-1.395-2.306-2.761-3.54-4.059c-0.347-0.364-0.333-0.942,0.032-1.29c0.363-0.346,0.94-0.331,1.288,0.033
			c1.271,1.337,2.498,2.742,3.647,4.175c0.312,0.395,0.249,0.968-0.144,1.282C204.407,175.504,204.206,175.569,204.006,175.569z
			 M111.669,168.43c-0.246,0-0.49-0.1-0.671-0.297c-0.34-0.37-0.317-0.946,0.055-1.286c1.359-1.25,2.788-2.451,4.242-3.573
			c0.394-0.304,0.968-0.234,1.277,0.166c0.307,0.398,0.233,0.971-0.164,1.278c-1.415,1.09-2.802,2.258-4.124,3.472
			C112.109,168.352,111.89,168.43,111.669,168.43z M196.477,167.655c-0.214,0-0.429-0.075-0.605-0.229
			c-1.332-1.182-2.741-2.325-4.181-3.396c-0.404-0.301-0.49-0.87-0.188-1.274c0.299-0.404,0.87-0.485,1.274-0.188
			c1.483,1.102,2.933,2.277,4.305,3.495c0.377,0.334,0.412,0.91,0.077,1.286C196.979,167.553,196.729,167.655,196.477,167.655z
			 M120.316,161.761c-0.298,0-0.592-0.148-0.768-0.418c-0.272-0.424-0.15-0.989,0.276-1.26c1.545-0.994,3.156-1.933,4.788-2.792
			c0.449-0.232,0.996-0.063,1.232,0.382c0.233,0.445,0.063,0.997-0.382,1.231c-1.584,0.834-3.152,1.747-4.654,2.711
			C120.656,161.715,120.485,161.761,120.316,161.761z M187.709,161.143c-0.166,0-0.329-0.043-0.479-0.135
			c-1.527-0.942-3.111-1.827-4.703-2.628c-0.45-0.227-0.629-0.775-0.404-1.225c0.226-0.453,0.775-0.63,1.222-0.404
			c1.644,0.825,3.271,1.736,4.842,2.704c0.428,0.265,0.562,0.826,0.298,1.256C188.311,160.987,188.013,161.143,187.709,161.143z
			 M129.977,156.675c-0.356,0-0.693-0.209-0.841-0.558c-0.194-0.463,0.025-0.999,0.487-1.194c1.694-0.712,3.442-1.359,5.198-1.923
			c0.476-0.153,0.994,0.111,1.146,0.59c0.155,0.478-0.108,0.991-0.587,1.146c-1.706,0.547-3.407,1.177-5.05,1.868
			C130.214,156.652,130.095,156.675,129.977,156.675z M177.95,156.232c-0.113,0-0.226-0.02-0.337-0.065
			c-1.663-0.663-3.375-1.259-5.089-1.775c-0.48-0.146-0.753-0.654-0.607-1.136c0.143-0.482,0.646-0.75,1.135-0.611
			c1.764,0.531,3.524,1.147,5.236,1.83c0.468,0.186,0.697,0.716,0.511,1.184C178.656,156.014,178.311,156.232,177.95,156.232z
			 M140.37,153.334c-0.418,0-0.793-0.286-0.89-0.708c-0.111-0.491,0.194-0.98,0.687-1.09c1.789-0.409,3.624-0.744,5.453-0.998
			c0.487-0.074,0.956,0.278,1.025,0.777c0.069,0.5-0.28,0.959-0.776,1.027c-1.778,0.248-3.56,0.573-5.297,0.968
			C140.504,153.328,140.435,153.334,140.37,153.334z M167.493,153.084c-0.063,0-0.125-0.006-0.188-0.019
			c-1.756-0.365-3.542-0.658-5.318-0.869c-0.499-0.06-0.854-0.514-0.795-1.015c0.061-0.5,0.524-0.85,1.013-0.796
			c1.823,0.218,3.665,0.521,5.47,0.896c0.494,0.103,0.812,0.586,0.708,1.078C168.295,152.788,167.914,153.084,167.493,153.084z
			 M151.184,151.837c-0.48,0-0.885-0.376-0.908-0.865c-0.028-0.502,0.358-0.93,0.862-0.957c1.835-0.095,3.703-0.113,5.542-0.051
			c0.504,0.017,0.897,0.438,0.881,0.941c-0.02,0.503-0.432,0.938-0.941,0.879c-1.793-0.059-3.603-0.041-5.389,0.05
			C151.213,151.837,151.198,151.837,151.184,151.837z"/>
	</g>
	<g>
		<path fill="#FFFFFF" d="M150.402,420.152c-0.621,0-1.238-0.008-1.855-0.031c-0.504-0.02-0.897-0.438-0.881-0.941
			c0.019-0.506,0.458-0.902,0.946-0.88c1.789,0.065,3.605,0.026,5.369-0.095c0.447-0.044,0.936,0.341,0.973,0.843
			c0.035,0.505-0.345,0.938-0.846,0.976C152.889,420.109,151.643,420.152,150.402,420.152z M143.141,419.641
			c-0.043,0-0.087-0.006-0.131-0.01c-1.833-0.261-3.668-0.623-5.454-1.079c-0.488-0.122-0.784-0.62-0.659-1.106
			c0.123-0.486,0.61-0.79,1.107-0.658c1.724,0.438,3.497,0.787,5.262,1.041c0.5,0.07,0.846,0.531,0.774,1.029
			C143.977,419.313,143.584,419.641,143.141,419.641z M159.464,419.35c-0.434,0-0.818-0.31-0.897-0.748
			c-0.088-0.498,0.243-0.973,0.737-1.059c1.754-0.314,3.513-0.727,5.223-1.23c0.488-0.143,0.989,0.137,1.13,0.619
			c0.144,0.481-0.136,0.989-0.617,1.135c-1.775,0.516-3.596,0.945-5.415,1.271C159.572,419.348,159.518,419.35,159.464,419.35z
			 M132.561,416.948c-0.106,0-0.213-0.019-0.316-0.058c-1.729-0.646-3.449-1.396-5.104-2.225c-0.448-0.227-0.631-0.771-0.406-1.223
			c0.226-0.453,0.776-0.631,1.225-0.407c1.597,0.803,3.254,1.522,4.92,2.147c0.471,0.172,0.712,0.696,0.536,1.17
			C133.279,416.723,132.933,416.948,132.561,416.948z M169.938,416.282c-0.359,0-0.698-0.212-0.844-0.562
			c-0.192-0.469,0.029-1,0.492-1.191c1.65-0.686,3.277-1.465,4.84-2.316c0.444-0.246,0.996-0.084,1.236,0.359
			c0.243,0.441,0.082,0.992-0.361,1.238c-1.623,0.883-3.307,1.692-5.018,2.402C170.172,416.26,170.053,416.282,169.938,416.282z
			 M122.803,412.057c-0.168,0-0.342-0.048-0.492-0.146c-1.555-1.002-3.071-2.098-4.509-3.258c-0.393-0.315-0.456-0.891-0.139-1.281
			c0.319-0.393,0.892-0.453,1.28-0.137c1.392,1.119,2.855,2.178,4.352,3.143c0.426,0.271,0.548,0.837,0.273,1.262
			C123.395,411.907,123.101,412.057,122.803,412.057z M179.504,411.045c-0.286,0-0.57-0.137-0.749-0.391
			c-0.287-0.415-0.182-0.984,0.229-1.271c1.458-1.013,2.884-2.119,4.238-3.291c0.379-0.328,0.957-0.289,1.285,0.092
			c0.33,0.379,0.289,0.953-0.092,1.285c-1.401,1.215-2.879,2.362-4.391,3.411C179.867,410.993,179.684,411.045,179.504,411.045z
			 M114.31,405.199c-0.233,0-0.466-0.086-0.645-0.268c-1.308-1.306-2.559-2.697-3.719-4.135c-0.314-0.393-0.254-0.965,0.14-1.283
			c0.387-0.313,0.963-0.254,1.28,0.141c1.118,1.388,2.325,2.729,3.586,3.988c0.356,0.355,0.356,0.935,0,1.289
			C114.774,405.113,114.541,405.199,114.31,405.199z M187.752,403.898c-0.224,0-0.448-0.084-0.621-0.246
			c-0.368-0.342-0.389-0.92-0.044-1.287c1.216-1.305,2.375-2.688,3.443-4.116c0.305-0.407,0.876-0.483,1.276-0.183
			c0.402,0.303,0.486,0.871,0.185,1.275c-1.111,1.479-2.313,2.914-3.573,4.264C188.24,403.801,187.995,403.898,187.752,403.898z
			 M107.459,396.707c-0.301,0-0.594-0.148-0.765-0.418c-1.003-1.553-1.93-3.182-2.757-4.83c-0.224-0.447-0.044-0.999,0.407-1.223
			c0.437-0.229,0.994-0.047,1.222,0.402c0.797,1.596,1.695,3.164,2.658,4.664c0.275,0.422,0.15,0.985-0.273,1.258
			C107.802,396.659,107.628,396.707,107.459,396.707z M194.3,395.166c-0.16,0-0.319-0.041-0.465-0.13
			c-0.434-0.259-0.576-0.818-0.319-1.247c0.911-1.53,1.75-3.13,2.494-4.755c0.21-0.459,0.753-0.659,1.209-0.451
			c0.458,0.211,0.659,0.753,0.449,1.209c-0.771,1.685-1.641,3.344-2.584,4.929C194.913,395.006,194.609,395.166,194.3,395.166z
			 M102.569,386.952c-0.369,0-0.716-0.228-0.855-0.593c-0.643-1.729-1.201-3.512-1.657-5.311c-0.125-0.486,0.169-0.984,0.659-1.105
			c0.488-0.129,0.982,0.168,1.107,0.656c0.441,1.734,0.977,3.459,1.602,5.121c0.176,0.473-0.065,0.996-0.537,1.174
			C102.782,386.934,102.676,386.952,102.569,386.952z M198.841,385.238c-0.094,0-0.191-0.016-0.289-0.047
			c-0.476-0.158-0.735-0.678-0.575-1.151c0.561-1.688,1.04-3.429,1.418-5.177c0.104-0.493,0.603-0.809,1.082-0.699
			c0.493,0.107,0.804,0.594,0.698,1.083c-0.393,1.815-0.888,3.621-1.47,5.368C199.578,384.997,199.223,385.238,198.841,385.238z
			 M99.877,376.377c-0.446,0-0.835-0.329-0.901-0.781c-0.259-1.826-0.423-3.688-0.49-5.537c-0.016-0.504,0.376-0.928,0.88-0.943
			c0.497-0.057,0.922,0.374,0.943,0.879c0.063,1.783,0.219,3.581,0.472,5.344c0.071,0.498-0.275,0.961-0.774,1.03
			C99.962,376.375,99.918,376.377,99.877,376.377z M201.154,374.57c-0.032,0-0.066,0-0.1-0.008
			c-0.499-0.049-0.862-0.498-0.809-0.998c0.188-1.77,0.282-3.571,0.282-5.361c0.002-1.186-0.04-2.389-0.125-3.571
			c-0.034-0.502,0.344-0.938,0.847-0.974c0.456-0.029,0.938,0.341,0.975,0.844c0.085,1.227,0.13,2.475,0.127,3.701
			c0,1.854-0.097,3.723-0.294,5.553C202.007,374.223,201.612,374.57,201.154,374.57z M99.496,365.473c-0.023,0-0.044,0-0.067-0.002
			c-0.501-0.035-0.88-0.472-0.843-0.974c0.131-1.854,0.362-3.709,0.686-5.519c0.088-0.494,0.568-0.828,1.057-0.735
			c0.497,0.089,0.827,0.563,0.737,1.059c-0.313,1.742-0.537,3.537-0.661,5.325C100.368,365.107,99.969,365.473,99.496,365.473z
			 M200.639,360.059c-0.432,0-0.816-0.309-0.895-0.752c-0.319-1.766-0.732-3.522-1.232-5.225c-0.14-0.482,0.138-0.988,0.621-1.131
			c0.484-0.145,0.988,0.14,1.129,0.619c0.515,1.761,0.948,3.584,1.276,5.412c0.09,0.496-0.24,0.972-0.735,1.061
			C200.747,360.053,200.694,360.059,200.639,360.059z M101.42,354.73c-0.085,0-0.17-0.01-0.256-0.037
			c-0.483-0.142-0.76-0.646-0.619-1.127c0.518-1.77,1.14-3.533,1.851-5.248c0.189-0.465,0.723-0.688,1.19-0.494
			c0.465,0.191,0.684,0.727,0.492,1.189c-0.684,1.655-1.285,3.358-1.785,5.063C102.178,354.475,101.815,354.73,101.42,354.73z
			 M197.57,349.586c-0.358,0-0.695-0.213-0.841-0.563c-0.681-1.645-1.463-3.273-2.318-4.838c-0.242-0.441-0.081-0.998,0.361-1.237
			c0.443-0.245,0.996-0.079,1.238,0.362c0.886,1.619,1.696,3.308,2.404,5.017c0.191,0.464-0.031,0.995-0.495,1.19
			C197.806,349.563,197.687,349.586,197.57,349.586z M105.602,344.648c-0.15,0-0.3-0.037-0.439-0.112
			c-0.441-0.24-0.603-0.796-0.36-1.236c0.888-1.622,1.875-3.215,2.931-4.729c0.286-0.414,0.852-0.512,1.268-0.228
			c0.414,0.289,0.513,0.856,0.227,1.269c-1.019,1.461-1.969,2.998-2.827,4.564C106.234,344.479,105.923,344.648,105.602,344.648z
			 M192.334,340.014c-0.286,0-0.57-0.139-0.747-0.393c-1.022-1.469-2.132-2.895-3.297-4.232c-0.329-0.384-0.289-0.957,0.093-1.289
			c0.376-0.328,0.957-0.289,1.285,0.09c1.206,1.394,2.354,2.869,3.416,4.392c0.287,0.412,0.186,0.979-0.227,1.269
			C192.695,339.957,192.515,340.014,192.334,340.014z M111.834,335.689c-0.212,0-0.425-0.074-0.599-0.226
			c-0.378-0.328-0.421-0.905-0.09-1.284c1.211-1.396,2.51-2.74,3.862-4c0.37-0.346,0.943-0.32,1.29,0.043
			c0.342,0.369,0.321,0.947-0.046,1.289c-1.306,1.215-2.561,2.516-3.728,3.862C112.343,335.582,112.088,335.689,111.834,335.689z
			 M185.188,331.768c-0.222,0-0.447-0.08-0.623-0.244c-1.307-1.217-2.694-2.377-4.116-3.443c-0.401-0.303-0.484-0.873-0.185-1.275
			c0.306-0.406,0.876-0.482,1.276-0.184c1.477,1.107,2.912,2.309,4.269,3.568c0.368,0.345,0.388,0.92,0.047,1.287
			C185.675,331.67,185.429,331.768,185.188,331.768z M119.821,328.252c-0.275,0-0.549-0.126-0.73-0.365
			c-0.3-0.4-0.219-0.973,0.183-1.275c1.483-1.111,3.037-2.15,4.622-3.092c0.431-0.26,0.989-0.115,1.25,0.317
			c0.256,0.433,0.115,0.993-0.316,1.246c-1.532,0.911-3.031,1.914-4.463,2.987C120.205,328.191,120.011,328.252,119.821,328.252z
			 M176.458,325.218c-0.16,0-0.319-0.041-0.464-0.129c-1.54-0.911-3.139-1.753-4.757-2.493c-0.457-0.207-0.658-0.746-0.45-1.205
			c0.21-0.457,0.752-0.656,1.208-0.447c1.676,0.766,3.333,1.634,4.927,2.58c0.435,0.258,0.576,0.815,0.32,1.248
			C177.069,325.059,176.768,325.218,176.458,325.218z M129.2,322.68c-0.344,0-0.677-0.199-0.829-0.535
			c-0.208-0.457-0.008-0.998,0.45-1.207c1.687-0.771,3.43-1.455,5.179-2.039c0.477-0.156,0.992,0.103,1.151,0.578
			c0.159,0.479-0.1,0.994-0.578,1.154c-1.687,0.563-3.369,1.223-4.994,1.964C129.457,322.65,129.33,322.68,129.2,322.68z
			 M166.527,320.68c-0.092,0-0.192-0.015-0.288-0.048c-1.696-0.563-3.438-1.039-5.177-1.416c-0.492-0.108-0.804-0.592-0.698-1.084
			c0.106-0.489,0.584-0.808,1.082-0.698c1.805,0.392,3.61,0.887,5.369,1.471c0.478,0.156,0.735,0.674,0.578,1.15
			C167.267,320.438,166.911,320.68,166.527,320.68z M139.554,319.234c-0.418,0-0.797-0.295-0.89-0.719
			c-0.106-0.492,0.207-0.977,0.698-1.084c1.808-0.393,3.654-0.688,5.492-0.882c0.485-0.06,0.948,0.308,1.001,0.81
			c0.053,0.5-0.31,0.949-0.809,1.002c-1.773,0.188-3.555,0.476-5.297,0.852C139.683,319.229,139.616,319.234,139.554,319.234z
			 M155.863,318.367c-0.032,0-0.065-0.006-0.097-0.008c-1.772-0.187-3.575-0.28-5.359-0.28c-0.503,0-0.914-0.409-0.914-0.912
			s0.41-0.913,0.914-0.913c1.846,0,3.716,0.102,5.55,0.294c0.5,0.056,0.865,0.503,0.81,1.002
			C156.718,318.02,156.323,318.367,155.863,318.367z"/>
	</g>
	<g>
		<path fill="#F8BB4A" d="M326.913,383.115c-0.01,0-0.016,0-0.024,0c-1.849-0.055-3.713-0.196-5.541-0.43
			c-0.496-0.063-0.853-0.522-0.788-1.021c0.065-0.499,0.529-0.846,1.021-0.785c1.768,0.225,3.571,0.364,5.36,0.413
			c0.503,0.017,0.9,0.435,0.884,0.937C327.811,382.725,327.406,383.115,326.913,383.115z M332.375,382.999
			c-0.475,0-0.874-0.364-0.908-0.845c-0.035-0.504,0.344-0.938,0.846-0.977c1.785-0.123,3.579-0.342,5.335-0.643
			c0.503-0.088,0.968,0.248,1.054,0.744c0.085,0.494-0.247,0.967-0.744,1.052c-1.814,0.313-3.67,0.536-5.515,0.665
			C332.42,382.999,332.397,382.999,332.375,382.999z M316.088,381.729c-0.065,0-0.136-0.008-0.205-0.021
			c-1.805-0.421-3.601-0.934-5.341-1.525c-0.477-0.164-0.731-0.682-0.569-1.158c0.164-0.477,0.69-0.732,1.157-0.567
			c1.683,0.575,3.42,1.069,5.166,1.476c0.49,0.111,0.796,0.603,0.684,1.094C316.879,381.441,316.505,381.729,316.088,381.729z
			 M343.134,381.15c-0.401,0-0.766-0.264-0.879-0.668c-0.134-0.482,0.149-0.986,0.636-1.121c1.718-0.479,3.433-1.049,5.1-1.695
			c0.468-0.182,0.995,0.051,1.179,0.52c0.185,0.469-0.049,0.996-0.519,1.178c-1.723,0.671-3.496,1.262-5.271,1.756
			C343.293,381.143,343.214,381.15,343.134,381.15z M305.756,378.209c-0.131,0-0.258-0.023-0.382-0.082
			c-1.67-0.766-3.332-1.628-4.931-2.564c-0.435-0.25-0.584-0.809-0.327-1.242c0.255-0.437,0.813-0.584,1.245-0.328
			c1.551,0.902,3.154,1.736,4.772,2.479c0.457,0.207,0.658,0.75,0.45,1.206C306.427,378.014,306.101,378.209,305.756,378.209z
			 M353.303,377.188c-0.33,0-0.649-0.183-0.81-0.496c-0.229-0.448-0.051-1,0.396-1.226c1.591-0.813,3.156-1.715,4.655-2.682
			c0.427-0.271,0.989-0.147,1.263,0.272c0.272,0.426,0.148,0.988-0.272,1.262c-1.554,1-3.173,1.931-4.815,2.771
			C353.586,377.154,353.445,377.188,353.303,377.188z M296.333,372.697c-0.187,0-0.373-0.059-0.537-0.176
			c-1.489-1.082-2.944-2.256-4.323-3.487c-0.373-0.335-0.406-0.913-0.072-1.287c0.334-0.377,0.912-0.406,1.285-0.074
			c1.334,1.192,2.742,2.327,4.186,3.375c0.404,0.298,0.495,0.868,0.199,1.274C296.893,372.568,296.615,372.697,296.333,372.697z
			 M362.481,371.279c-0.271,0-0.533-0.117-0.716-0.344c-0.313-0.394-0.244-0.967,0.148-1.279c1.392-1.105,2.75-2.301,4.036-3.549
			c0.363-0.352,0.938-0.344,1.287,0.018c0.349,0.361,0.344,0.938-0.019,1.289c-1.331,1.29-2.731,2.525-4.173,3.67
			C362.879,371.216,362.68,371.279,362.481,371.279z M288.188,365.427c-0.246,0-0.49-0.097-0.67-0.295
			c-1.252-1.36-2.447-2.801-3.554-4.274c-0.301-0.401-0.217-0.974,0.187-1.273c0.397-0.301,0.97-0.223,1.273,0.182
			c1.069,1.426,2.225,2.817,3.436,4.135c0.34,0.373,0.315,0.947-0.057,1.287C288.628,365.348,288.407,365.427,288.188,365.427z
			 M370.313,363.671c-0.209,0-0.416-0.071-0.588-0.213c-0.387-0.327-0.435-0.901-0.107-1.285c1.149-1.368,2.247-2.808,3.252-4.274
			c0.288-0.416,0.854-0.524,1.267-0.238c0.415,0.283,0.522,0.854,0.236,1.267c-1.038,1.521-2.171,3.011-3.363,4.421
			C370.826,363.561,370.57,363.671,370.313,363.671z M281.639,356.695c-0.31,0-0.609-0.157-0.779-0.442
			c-0.961-1.588-1.846-3.231-2.633-4.892c-0.217-0.456-0.021-1,0.435-1.217c0.444-0.213,0.996-0.023,1.213,0.436
			c0.761,1.604,1.617,3.195,2.544,4.73c0.264,0.431,0.122,0.992-0.307,1.25C281.963,356.65,281.8,356.695,281.639,356.695z
			 M376.481,354.665c-0.147,0-0.298-0.035-0.438-0.11c-0.438-0.244-0.602-0.797-0.363-1.238c0.859-1.576,1.648-3.203,2.34-4.838
			c0.196-0.463,0.734-0.677,1.192-0.482c0.465,0.195,0.683,0.73,0.487,1.193c-0.717,1.691-1.529,3.375-2.42,5.002
			C377.115,354.494,376.806,354.665,376.481,354.665z M276.958,346.831c-0.374,0-0.726-0.231-0.856-0.604
			c-0.623-1.744-1.162-3.535-1.602-5.322c-0.12-0.488,0.18-0.981,0.668-1.103c0.497-0.122,0.984,0.179,1.102,0.669
			c0.426,1.725,0.945,3.456,1.549,5.145c0.168,0.474-0.08,0.994-0.555,1.164C277.161,346.816,277.061,346.831,276.958,346.831z
			 M380.732,344.611c-0.089,0-0.179-0.014-0.269-0.041c-0.48-0.147-0.752-0.658-0.602-1.139c0.523-1.703,0.969-3.455,1.323-5.207
			c0.101-0.496,0.593-0.814,1.072-0.715c0.494,0.1,0.813,0.579,0.713,1.074c-0.365,1.813-0.826,3.624-1.37,5.385
			C381.482,344.361,381.122,344.611,380.732,344.611z M274.343,336.236c-0.446,0-0.837-0.328-0.899-0.785
			c-0.26-1.813-0.432-3.672-0.51-5.528c-0.022-0.504,0.369-0.929,0.871-0.948c0.538-0.063,0.926,0.369,0.951,0.869
			c0.073,1.799,0.239,3.598,0.49,5.354c0.07,0.498-0.273,0.961-0.771,1.031C274.43,336.232,274.385,336.236,274.343,336.236z
			 M382.893,333.911c-0.028,0-0.061-0.002-0.092-0.003c-0.501-0.053-0.867-0.496-0.815-1c0.175-1.768,0.264-3.572,0.264-5.365
			c-0.002-1.544-0.066-3.091-0.192-4.6c-0.045-0.504,0.326-0.942,0.83-0.984c0.486-0.064,0.942,0.327,0.983,0.832
			c0.134,1.557,0.2,3.157,0.203,4.752c0,1.854-0.093,3.721-0.273,5.546C383.752,333.561,383.354,333.911,382.893,333.911z
			 M273.883,325.331c-0.016,0-0.035-0.003-0.051-0.003c-0.504-0.027-0.889-0.456-0.859-0.961c0.104-1.85,0.303-3.708,0.588-5.524
			c0.078-0.497,0.555-0.835,1.043-0.757c0.496,0.079,0.836,0.545,0.758,1.044c-0.276,1.752-0.469,3.552-0.566,5.341
			C274.766,324.957,274.361,325.331,273.883,325.331z M382.228,318.361c-0.43,0-0.813-0.305-0.894-0.743
			c-0.328-1.752-0.749-3.509-1.251-5.226c-0.141-0.482,0.137-0.988,0.619-1.129c0.484-0.148,0.99,0.133,1.13,0.616
			c0.52,1.771,0.952,3.588,1.292,5.403c0.094,0.496-0.233,0.972-0.729,1.064C382.339,318.357,382.283,318.361,382.228,318.361z
			 M275.58,314.549c-0.076,0-0.153-0.008-0.23-0.029c-0.485-0.127-0.781-0.627-0.649-1.11c0.463-1.785,1.028-3.569,1.674-5.3
			c0.176-0.473,0.704-0.711,1.176-0.534s0.712,0.7,0.536,1.173c-0.626,1.675-1.173,3.396-1.625,5.123
			C276.354,314.277,275.982,314.549,275.58,314.549z M379.158,307.889c-0.36,0-0.702-0.215-0.844-0.568
			c-0.674-1.651-1.432-3.291-2.271-4.87c-0.235-0.444-0.063-0.995,0.382-1.229c0.439-0.236,0.994-0.07,1.229,0.379
			c0.863,1.635,1.652,3.327,2.347,5.035c0.188,0.467-0.038,0.996-0.503,1.188C379.388,307.866,379.272,307.889,379.158,307.889z
			 M279.393,304.322c-0.133,0-0.272-0.029-0.401-0.094c-0.451-0.224-0.638-0.769-0.414-1.222c0.81-1.641,1.719-3.274,2.7-4.854
			c0.265-0.428,0.828-0.555,1.255-0.293c0.427,0.267,0.56,0.83,0.293,1.256c-0.952,1.529-1.829,3.109-2.613,4.697
			C280.055,304.136,279.729,304.322,279.393,304.322z M374.059,298.236c-0.295,0-0.586-0.144-0.762-0.405
			c-0.984-1.485-2.06-2.938-3.19-4.322c-0.318-0.391-0.263-0.964,0.129-1.282c0.389-0.318,0.962-0.261,1.28,0.129
			c1.174,1.427,2.284,2.933,3.303,4.469c0.276,0.418,0.166,0.984-0.258,1.261C374.407,298.189,374.233,298.236,374.059,298.236z
			 M285.172,295.057c-0.195,0-0.393-0.059-0.557-0.188c-0.399-0.304-0.475-0.877-0.164-1.275c1.128-1.462,2.341-2.884,3.609-4.225
			c0.346-0.365,0.922-0.384,1.289-0.036c0.362,0.346,0.381,0.924,0.035,1.289c-1.229,1.298-2.4,2.672-3.492,4.086
			C285.713,294.938,285.441,295.057,285.172,295.057z M367.146,289.79c-0.232,0-0.466-0.089-0.644-0.267
			c-1.263-1.262-2.603-2.478-3.985-3.608c-0.39-0.319-0.446-0.894-0.13-1.28c0.321-0.391,0.895-0.449,1.283-0.13
			c1.431,1.17,2.815,2.427,4.118,3.729c0.357,0.356,0.357,0.936,0,1.289C367.611,289.701,367.378,289.79,367.146,289.79z
			 M292.67,287.126c-0.254,0-0.511-0.106-0.689-0.313c-0.33-0.385-0.287-0.957,0.094-1.287c1.389-1.205,2.859-2.355,4.369-3.426
			c0.406-0.287,0.979-0.191,1.271,0.221c0.289,0.41,0.191,0.979-0.219,1.269c-1.465,1.032-2.887,2.147-4.229,3.313
			C293.092,287.052,292.88,287.126,292.67,287.126z M358.697,282.874c-0.172,0-0.35-0.046-0.503-0.151
			c-1.482-0.986-3.039-1.908-4.621-2.746c-0.442-0.235-0.613-0.787-0.381-1.23c0.238-0.445,0.793-0.614,1.231-0.379
			c1.636,0.861,3.242,1.816,4.777,2.838c0.422,0.279,0.533,0.846,0.254,1.263C359.283,282.732,358.991,282.874,358.697,282.874z
			 M301.588,280.83c-0.318,0-0.626-0.166-0.794-0.465c-0.248-0.438-0.093-0.992,0.345-1.24c1.605-0.91,3.275-1.748,4.965-2.491
			c0.462-0.198,1,0.007,1.203,0.47c0.203,0.459-0.008,0.998-0.468,1.201c-1.634,0.719-3.251,1.527-4.802,2.405
			C301.895,280.788,301.74,280.83,301.588,280.83z M349.048,277.773c-0.114,0-0.231-0.021-0.347-0.066
			c-1.65-0.672-3.358-1.27-5.072-1.771c-0.48-0.141-0.759-0.646-0.617-1.129c0.14-0.482,0.64-0.764,1.13-0.619
			c1.772,0.519,3.538,1.135,5.25,1.83c0.465,0.189,0.688,0.723,0.499,1.188C349.747,277.561,349.406,277.773,349.048,277.773z
			 M311.578,276.434c-0.386,0-0.743-0.244-0.868-0.631c-0.155-0.479,0.106-0.992,0.585-1.146c1.755-0.569,3.558-1.057,5.361-1.449
			c0.502-0.104,0.978,0.207,1.085,0.697c0.104,0.492-0.204,0.979-0.696,1.084c-1.747,0.381-3.492,0.852-5.186,1.402
			C311.764,276.418,311.668,276.434,311.578,276.434z M338.575,274.701c-0.058,0-0.113-0.004-0.169-0.016
			c-1.752-0.326-3.543-0.567-5.325-0.72c-0.5-0.042-0.872-0.483-0.832-0.985c0.045-0.502,0.528-0.871,0.985-0.83
			c1.842,0.158,3.694,0.406,5.505,0.744c0.495,0.092,0.82,0.568,0.729,1.064C339.386,274.395,339.002,274.701,338.575,274.701z
			 M322.242,274.125c-0.457,0-0.852-0.346-0.903-0.811c-0.058-0.5,0.303-0.951,0.801-1.006c1.831-0.209,3.694-0.326,5.546-0.353
			c0.575-0.015,0.914,0.396,0.923,0.899c0.007,0.502-0.396,0.916-0.897,0.922c-1.79,0.024-3.595,0.14-5.363,0.34
			C322.313,274.122,322.277,274.125,322.242,274.125z"/>
	</g>
	<g>
		<path fill="#FFFFFF" d="M335.409,270.229c-0.5,0-0.906-0.404-0.911-0.906c-0.004-0.504,0.402-0.914,0.906-0.916
			c1.801-0.012,3.613-0.088,5.395-0.231c0.497-0.034,0.941,0.333,0.979,0.836c0.041,0.501-0.333,0.942-0.833,0.981
			c-1.827,0.146-3.686,0.226-5.529,0.234C335.413,270.229,335.411,270.229,335.409,270.229z M329.949,270.063
			c-0.022,0-0.043,0-0.064,0c-1.831-0.125-3.685-0.317-5.502-0.576c-0.499-0.07-0.847-0.531-0.773-1.031
			c0.07-0.497,0.545-0.846,1.029-0.773c1.775,0.252,3.58,0.441,5.369,0.562c0.505,0.034,0.884,0.469,0.85,0.972
			C330.824,269.693,330.424,270.063,329.949,270.063z M346.297,269.359c-0.44,0-0.829-0.322-0.897-0.771
			c-0.078-0.498,0.263-0.963,0.763-1.041c1.77-0.275,3.551-0.619,5.296-1.025c0.497-0.117,0.981,0.191,1.093,0.682
			c0.117,0.488-0.188,0.98-0.681,1.093c-1.787,0.417-3.614,0.771-5.434,1.054C346.393,269.355,346.344,269.359,346.297,269.359z
			 M319.134,268.521c-0.063,0-0.129-0.008-0.192-0.021c-1.791-0.395-3.597-0.861-5.36-1.389c-0.482-0.145-0.756-0.652-0.608-1.135
			c0.144-0.48,0.645-0.754,1.135-0.613c1.72,0.517,3.478,0.973,5.226,1.355c0.491,0.108,0.802,0.596,0.692,1.086
			C319.93,268.23,319.556,268.521,319.134,268.521z M356.938,266.882c-0.388,0-0.745-0.249-0.868-0.637
			c-0.15-0.481,0.114-0.994,0.597-1.144c1.712-0.537,3.422-1.146,5.087-1.807c0.464-0.189,0.995,0.042,1.183,0.51
			c0.186,0.467-0.042,0.998-0.51,1.184c-1.702,0.678-3.46,1.302-5.215,1.854C357.119,266.869,357.027,266.882,356.938,266.882z
			 M308.668,265.379c-0.109,0-0.221-0.02-0.326-0.061c-1.713-0.656-3.428-1.391-5.095-2.178c-0.455-0.215-0.647-0.759-0.435-1.214
			c0.217-0.456,0.761-0.646,1.213-0.435c1.627,0.769,3.298,1.484,4.969,2.124c0.468,0.182,0.704,0.708,0.523,1.178
			C309.379,265.158,309.033,265.379,308.668,265.379z M367.081,262.843c-0.337,0-0.661-0.187-0.818-0.511
			c-0.224-0.452-0.034-0.998,0.418-1.218c1.604-0.782,3.204-1.638,4.757-2.544c0.434-0.256,0.991-0.107,1.244,0.328
			c0.255,0.436,0.107,0.994-0.326,1.246c-1.594,0.929-3.23,1.805-4.875,2.607C367.352,262.814,367.215,262.843,367.081,262.843z
			 M298.785,260.707c-0.152,0-0.307-0.038-0.451-0.118c-1.602-0.909-3.186-1.89-4.707-2.911c-0.418-0.281-0.529-0.847-0.25-1.266
			c0.284-0.418,0.855-0.525,1.264-0.248c1.484,0.996,3.03,1.953,4.596,2.841c0.438,0.248,0.593,0.804,0.343,1.242
			C299.411,260.542,299.102,260.707,298.785,260.707z M376.51,257.34c-0.289,0-0.572-0.137-0.75-0.395
			c-0.288-0.414-0.182-0.981,0.231-1.268c1.478-1.017,2.934-2.102,4.33-3.224c0.391-0.313,0.966-0.254,1.279,0.14
			c0.316,0.393,0.255,0.967-0.139,1.28c-1.432,1.151-2.923,2.263-4.438,3.306C376.868,257.287,376.689,257.34,376.51,257.34z
			 M289.709,254.619c-0.197,0-0.395-0.063-0.563-0.194c-1.442-1.134-2.866-2.336-4.224-3.573c-0.37-0.341-0.399-0.917-0.062-1.29
			c0.341-0.37,0.916-0.397,1.287-0.06c1.326,1.208,2.713,2.383,4.123,3.489c0.396,0.311,0.465,0.883,0.154,1.278
			C290.247,254.5,289.979,254.619,289.709,254.619z M385.021,250.497c-0.245,0-0.485-0.097-0.666-0.29
			c-0.344-0.367-0.321-0.944,0.045-1.288c1.306-1.219,2.584-2.508,3.806-3.828c0.343-0.369,0.92-0.392,1.288-0.051
			c0.369,0.341,0.394,0.917,0.051,1.288c-1.253,1.354-2.563,2.675-3.902,3.923C385.468,250.416,385.244,250.497,385.021,250.497z
			 M281.635,247.257c-0.244,0-0.48-0.095-0.662-0.285c-1.269-1.34-2.496-2.74-3.648-4.161c-0.318-0.39-0.26-0.964,0.134-1.281
			c0.388-0.317,0.96-0.259,1.278,0.132c1.128,1.385,2.326,2.75,3.562,4.056c0.345,0.367,0.328,0.945-0.036,1.29
			C282.085,247.174,281.859,247.257,281.635,247.257z M392.434,242.469c-0.198,0-0.399-0.065-0.567-0.198
			c-0.394-0.313-0.458-0.887-0.147-1.28c1.116-1.402,2.19-2.865,3.198-4.349c0.289-0.417,0.856-0.521,1.269-0.243
			c0.417,0.283,0.521,0.851,0.241,1.266c-1.034,1.521-2.136,3.022-3.277,4.458C392.968,242.35,392.702,242.469,392.434,242.469z
			 M274.74,238.787c-0.287,0-0.568-0.136-0.747-0.39c-1.05-1.502-2.056-3.067-2.994-4.651c-0.257-0.433-0.11-0.993,0.319-1.249
			c0.432-0.258,0.994-0.114,1.252,0.32c0.912,1.546,1.894,3.071,2.919,4.537c0.286,0.412,0.187,0.981-0.228,1.269
			C275.102,238.733,274.922,238.787,274.74,238.787z M398.577,233.433c-0.155,0-0.313-0.04-0.454-0.123
			c-0.438-0.25-0.589-0.808-0.337-1.245c0.895-1.552,1.741-3.159,2.521-4.778c0.218-0.454,0.762-0.643,1.215-0.426
			c0.453,0.219,0.646,0.763,0.428,1.217c-0.799,1.66-1.667,3.306-2.583,4.897C399.199,233.27,398.891,233.433,398.577,233.433z
			 M269.18,229.392c-0.335,0-0.656-0.186-0.816-0.506c-0.821-1.656-1.582-3.354-2.266-5.044c-0.188-0.467,0.037-0.999,0.504-1.186
			c0.465-0.191,0.996,0.036,1.188,0.503c0.666,1.648,1.408,3.302,2.209,4.917c0.223,0.451,0.041,0.997-0.413,1.22
			C269.455,229.362,269.316,229.392,269.18,229.392z M403.313,223.579c-0.109,0-0.224-0.02-0.33-0.062
			c-0.469-0.183-0.701-0.711-0.52-1.18c0.655-1.691,1.255-3.409,1.778-5.104c0.145-0.483,0.652-0.755,1.135-0.604
			c0.484,0.149,0.752,0.658,0.604,1.139c-0.531,1.739-1.146,3.5-1.819,5.231C404.021,223.357,403.677,223.579,403.313,223.579z
			 M265.075,219.274c-0.386,0-0.744-0.247-0.869-0.634c-0.56-1.747-1.062-3.539-1.49-5.329c-0.116-0.489,0.185-0.981,0.675-1.099
			c0.492-0.118,0.981,0.184,1.102,0.673c0.418,1.747,0.904,3.495,1.453,5.199c0.152,0.479-0.112,0.993-0.594,1.146
			C265.261,219.261,265.168,219.274,265.075,219.274z M406.513,213.127c-0.063,0-0.133-0.007-0.2-0.022
			c-0.489-0.112-0.799-0.599-0.688-1.091c0.393-1.741,0.73-3.525,0.996-5.304c0.074-0.5,0.535-0.838,1.035-0.767
			c0.497,0.073,0.839,0.538,0.766,1.035c-0.27,1.824-0.615,3.653-1.019,5.438C407.306,212.841,406.931,213.127,406.513,213.127z
			 M262.529,208.652c-0.436,0-0.824-0.319-0.896-0.767c-0.294-1.816-0.522-3.664-0.677-5.492c-0.044-0.5,0.328-0.941,0.83-0.985
			c0.486-0.056,0.941,0.328,0.982,0.83c0.153,1.783,0.377,3.585,0.662,5.356c0.08,0.498-0.257,0.965-0.754,1.045
			C262.63,208.648,262.578,208.652,262.529,208.652z M408.123,202.326c-0.022,0-0.047-0.001-0.068-0.002
			c-0.501-0.039-0.877-0.475-0.843-0.977c0.134-1.779,0.199-3.594,0.199-5.393c0-0.603-0.008-1.202-0.022-1.804
			c-0.012-0.502,0.387-0.919,0.891-0.933c0.495,0.045,0.923,0.387,0.934,0.892c0.014,0.611,0.021,1.226,0.022,1.843
			c0,1.847-0.066,3.706-0.203,5.53C408.998,201.96,408.597,202.326,408.123,202.326z M261.598,197.77c-0.498,0-0.906-0.4-0.91-0.9
			l-0.008-0.916c0-1.542,0.049-3.096,0.143-4.615c0.029-0.501,0.457-0.871,0.966-0.854c0.502,0.032,0.883,0.462,0.853,0.965
			c-0.091,1.483-0.138,2.998-0.138,4.503l0.006,0.894c0.007,0.502-0.396,0.916-0.899,0.922
			C261.604,197.77,261.602,197.77,261.598,197.77z M407.964,189.586c-0.462,0-0.858-0.352-0.906-0.824
			c-0.173-1.773-0.416-3.57-0.726-5.346c-0.087-0.496,0.243-0.967,0.739-1.055c0.487-0.086,0.966,0.242,1.055,0.742
			c0.318,1.819,0.57,3.665,0.748,5.483c0.047,0.5-0.318,0.946-0.819,0.994C408.024,189.584,407.995,189.586,407.964,189.586z
			 M262.27,186.869c-0.041,0-0.084-0.004-0.125-0.009c-0.498-0.069-0.846-0.528-0.778-1.025c0.25-1.833,0.569-3.668,0.95-5.453
			c0.105-0.493,0.597-0.805,1.08-0.7c0.496,0.106,0.808,0.589,0.703,1.082c-0.375,1.741-0.687,3.529-0.93,5.316
			C263.107,186.537,262.718,186.869,262.27,186.869z M406.091,178.829c-0.407,0-0.78-0.275-0.884-0.688
			c-0.443-1.748-0.955-3.491-1.521-5.18c-0.156-0.478,0.101-0.995,0.577-1.154c0.479-0.157,0.994,0.099,1.155,0.576
			c0.577,1.732,1.102,3.518,1.556,5.311c0.124,0.487-0.172,0.984-0.658,1.108C406.24,178.819,406.164,178.829,406.091,178.829z
			 M264.547,176.186c-0.084,0-0.172-0.012-0.258-0.037c-0.48-0.141-0.76-0.649-0.616-1.131c0.515-1.764,1.106-3.532,1.754-5.249
			c0.179-0.472,0.7-0.711,1.177-0.53c0.47,0.176,0.707,0.702,0.527,1.173c-0.63,1.675-1.206,3.398-1.712,5.119
			C265.303,175.927,264.941,176.186,264.547,176.186z M402.627,168.475c-0.355,0-0.693-0.21-0.841-0.559
			c-0.688-1.641-1.454-3.287-2.271-4.89c-0.229-0.449-0.051-0.998,0.397-1.227c0.449-0.225,0.996-0.051,1.225,0.398
			c0.843,1.643,1.624,3.33,2.33,5.014c0.195,0.464-0.021,0.998-0.483,1.193C402.863,168.451,402.746,168.475,402.627,168.475z
			 M268.4,165.959c-0.133,0-0.262-0.027-0.387-0.085c-0.453-0.212-0.65-0.754-0.44-1.21c0.774-1.664,1.622-3.323,2.521-4.93
			c0.244-0.442,0.803-0.598,1.241-0.352c0.438,0.247,0.597,0.8,0.353,1.241c-0.879,1.569-1.705,3.187-2.463,4.81
			C269.073,165.764,268.743,165.959,268.4,165.959z M397.659,158.754c-0.307,0-0.605-0.156-0.776-0.437
			c-0.932-1.528-1.936-3.043-2.977-4.501c-0.294-0.409-0.198-0.978,0.209-1.272c0.404-0.29,0.977-0.2,1.271,0.211
			c1.069,1.495,2.096,3.046,3.051,4.613c0.262,0.43,0.127,0.99-0.306,1.252C397.985,158.711,397.82,158.754,397.659,158.754z
			 M273.736,156.421c-0.176,0-0.35-0.05-0.504-0.151c-0.418-0.279-0.532-0.844-0.256-1.263c1.01-1.527,2.094-3.041,3.225-4.5
			c0.309-0.396,0.882-0.469,1.275-0.163c0.399,0.308,0.474,0.88,0.166,1.278c-1.104,1.423-2.162,2.9-3.146,4.39
			C274.32,156.278,274.033,156.421,273.736,156.421z M391.303,149.876c-0.262,0-0.52-0.111-0.699-0.328
			c-1.15-1.378-2.364-2.729-3.612-4.015c-0.35-0.36-0.34-0.938,0.022-1.287c0.36-0.351,0.938-0.339,1.288,0.02
			c1.277,1.317,2.521,2.7,3.702,4.113c0.321,0.387,0.271,0.96-0.116,1.284C391.717,149.807,391.509,149.876,391.303,149.876z
			 M280.428,147.782c-0.217,0-0.436-0.078-0.611-0.234c-0.373-0.336-0.401-0.913-0.064-1.286c1.23-1.366,2.525-2.703,3.852-3.973
			c0.365-0.349,0.942-0.333,1.291,0.029c0.347,0.364,0.332,0.941-0.03,1.288c-1.296,1.239-2.56,2.544-3.757,3.875
			C280.923,147.68,280.678,147.782,280.428,147.782z M383.701,142.031c-0.217,0-0.434-0.076-0.607-0.231
			c-1.333-1.19-2.731-2.345-4.161-3.437c-0.398-0.305-0.477-0.878-0.172-1.277c0.306-0.402,0.879-0.475,1.277-0.169
			c1.464,1.118,2.899,2.304,4.269,3.522c0.375,0.335,0.408,0.912,0.076,1.287C384.201,141.928,383.951,142.031,383.701,142.031z
			 M288.318,140.228c-0.262,0-0.523-0.113-0.705-0.333c-0.315-0.388-0.264-0.961,0.123-1.282c1.41-1.162,2.89-2.292,4.396-3.358
			c0.411-0.288,0.98-0.196,1.271,0.218c0.291,0.411,0.195,0.979-0.217,1.27c-1.471,1.041-2.914,2.143-4.289,3.276
			C288.73,140.159,288.523,140.228,288.318,140.228z M375.019,135.393c-0.17,0-0.344-0.048-0.497-0.149
			c-1.504-0.981-3.062-1.917-4.627-2.781c-0.441-0.243-0.604-0.797-0.358-1.238c0.244-0.444,0.802-0.601,1.235-0.359
			c1.609,0.887,3.205,1.846,4.748,2.853c0.421,0.275,0.537,0.839,0.263,1.26C375.606,135.248,375.317,135.393,375.019,135.393z
			 M297.239,133.926c-0.308,0-0.61-0.159-0.781-0.443c-0.263-0.432-0.12-0.991,0.313-1.25c1.57-0.945,3.199-1.843,4.84-2.668
			c0.449-0.23,0.996-0.047,1.224,0.402c0.228,0.449,0.047,0.999-0.401,1.224c-1.602,0.806-3.191,1.683-4.724,2.604
			C297.561,133.883,297.398,133.926,297.239,133.926z M365.446,130.116c-0.129,0-0.256-0.027-0.379-0.083
			c-1.634-0.747-3.313-1.441-4.994-2.063c-0.473-0.174-0.711-0.697-0.535-1.17c0.172-0.472,0.697-0.716,1.169-0.539
			c1.722,0.637,3.443,1.348,5.119,2.115c0.458,0.209,0.659,0.75,0.449,1.207C366.125,129.917,365.791,130.116,365.446,130.116z
			 M306.986,129.018c-0.355,0-0.697-0.211-0.84-0.563c-0.192-0.466,0.026-0.999,0.493-1.191c1.692-0.697,3.437-1.342,5.188-1.917
			c0.477-0.157,0.996,0.104,1.153,0.583c0.154,0.479-0.105,0.994-0.582,1.151c-1.71,0.56-3.416,1.189-5.066,1.87
			C307.22,128.996,307.104,129.018,306.986,129.018z M355.202,126.327c-0.083,0-0.169-0.011-0.254-0.036
			c-1.723-0.493-3.484-0.927-5.24-1.29c-0.495-0.103-0.812-0.584-0.707-1.077c0.102-0.495,0.592-0.801,1.077-0.708
			c1.801,0.372,3.606,0.818,5.374,1.323c0.483,0.138,0.762,0.643,0.623,1.126C355.962,126.066,355.597,126.327,355.202,126.327z
			 M317.369,125.621c-0.412,0-0.785-0.278-0.886-0.694c-0.12-0.488,0.179-0.982,0.667-1.101c1.779-0.439,3.604-0.816,5.421-1.122
			c0.486-0.073,0.965,0.251,1.049,0.748c0.083,0.496-0.249,0.966-0.747,1.05c-1.771,0.296-3.551,0.664-5.287,1.092
			C317.514,125.613,317.439,125.621,317.369,125.621z M344.501,124.114c-0.037,0-0.079-0.002-0.116-0.008
			c-1.777-0.231-3.586-0.397-5.374-0.496c-0.505-0.028-0.891-0.457-0.86-0.959c0.026-0.503,0.487-0.899,0.961-0.859
			c1.832,0.1,3.685,0.27,5.509,0.506c0.497,0.065,0.851,0.523,0.786,1.021C345.345,123.779,344.952,124.114,344.501,124.114z
			 M328.137,123.812c-0.465,0-0.862-0.355-0.906-0.828c-0.047-0.501,0.324-0.945,0.825-0.992c1.821-0.167,3.683-0.271,5.522-0.304
			c0.484,0.001,0.92,0.392,0.93,0.895c0.009,0.503-0.393,0.919-0.896,0.928c-1.799,0.034-3.608,0.133-5.391,0.297
			C328.193,123.81,328.165,123.812,328.137,123.812z"/>
	</g>
	<g>
		<g>
			<path fill="#FFFFFF" d="M194.544,276.846c0.557,0.657,0.474,1.641-0.183,2.195l-1.26,1.072c-0.656,0.555-1.637,0.477-2.195-0.18
				l-1.071-1.263c-0.556-0.657-0.478-1.641,0.178-2.198l1.264-1.07c0.657-0.557,1.639-0.478,2.197,0.181L194.544,276.846z"/>
		</g>
		<g>
			<path fill="#FFFFFF" d="M215.75,279.546c-0.441,0.737-1.397,0.978-2.137,0.536l-1.419-0.85c-0.739-0.44-0.98-1.396-0.541-2.135
				l0.85-1.421c0.441-0.739,1.396-0.981,2.138-0.538l1.418,0.848c0.74,0.443,0.983,1.398,0.542,2.137L215.75,279.546z"/>
		</g>
		<g>
			<path fill="#FFFFFF" d="M209.414,273.639c0,1.111-0.899,2.012-2.013,2.012h-8.276c-1.112,0-2.013-0.9-2.013-2.012v-1.654
				c0-1.109,0.901-2.012,2.013-2.012h8.276c1.114,0,2.013,0.902,2.013,2.012V273.639z"/>
		</g>
		<g>
			<path fill="#FFFFFF" d="M209.314,301.064c-0.325,0-0.647-0.133-0.878-0.396l-6.05-6.876c-0.187-0.213-0.291-0.487-0.291-0.772
				v-10.271c0-0.642,0.524-1.167,1.167-1.167c0.647,0,1.17,0.525,1.17,1.167v9.829l5.758,6.548c0.428,0.485,0.379,1.228-0.104,1.649
				C209.863,300.971,209.588,301.064,209.314,301.064z"/>
		</g>
		<g>
			<path fill="#FFFFFF" d="M205.998,293.02c0,1.513-1.222,2.736-2.736,2.736c-1.511,0-2.736-1.225-2.736-2.736
				c0-1.511,1.225-2.735,2.736-2.735C204.776,290.283,205.998,291.508,205.998,293.02z"/>
		</g>
		<g>
			<path fill="#FFFFFF" d="M203.262,308.443c-9.362,0-16.979-7.616-16.979-16.979c0-9.362,7.618-16.981,16.979-16.981
				c9.365,0,16.984,7.619,16.984,16.981C220.246,300.827,212.627,308.443,203.262,308.443z M203.262,276.818
				c-8.073,0-14.643,6.57-14.643,14.646c0,8.076,6.569,14.646,14.643,14.646c8.078,0,14.648-6.569,14.648-14.646
				C217.91,283.389,211.34,276.818,203.262,276.818z"/>
		</g>
	</g>
	<g>
		<g>
			<path fill="#005C84" d="M133.713,200.467v6.29c0,0.968,0.784,1.756,1.754,1.756h4.435c0.365,1.259,0.86,2.464,1.479,3.591
				l-3.131,3.132c-0.686,0.686-0.686,1.795,0,2.48l4.449,4.453c0.686,0.685,1.797,0.685,2.484,0l3.132-3.133
				c1.126,0.621,2.329,1.114,3.589,1.479v4.435c0,0.973,0.788,1.755,1.757,1.755h6.291c0.969,0,1.759-0.783,1.759-1.755v-4.435
				c1.26-0.364,2.464-0.859,3.589-1.479l3.131,3.133c0.688,0.685,1.798,0.685,2.482,0l4.449-4.453c0.686-0.686,0.686-1.795,0-2.48
				l-3.132-3.132c0.621-1.126,1.114-2.332,1.479-3.591h4.435c0.971,0,1.758-0.788,1.758-1.756v-6.29
				c0-0.969-0.788-1.757-1.758-1.757h-4.435c-0.366-1.259-0.858-2.463-1.479-3.589l3.132-3.131c0.686-0.686,0.686-1.799,0-2.484
				l-4.449-4.449c-0.685-0.685-1.794-0.685-2.482,0l-3.128,3.13c-1.128-0.622-2.333-1.116-3.592-1.481v-4.434
				c0-0.971-0.79-1.757-1.759-1.757h-6.291c-0.969,0-1.757,0.787-1.757,1.757v4.434c-1.26,0.365-2.466,0.86-3.591,1.481l-3.13-3.13
				c-0.687-0.685-1.798-0.685-2.484,0l-4.449,4.449c-0.686,0.686-0.686,1.798,0,2.484l3.131,3.129
				c-0.619,1.128-1.114,2.331-1.479,3.591h-4.435C134.498,198.709,133.713,199.498,133.713,200.467z M146.219,203.609
				c0-5.838,4.75-10.59,10.588-10.59c5.839,0,10.589,4.752,10.589,10.59c0,5.839-4.75,10.589-10.589,10.589
				C150.969,214.199,146.219,209.449,146.219,203.609z"/>
			<path fill="#005C84" d="M154.447,241.774l1.29,3.158c0.199,0.487,0.758,0.721,1.241,0.521l2.226-0.909
				c0.431,0.546,0.931,1.046,1.483,1.493l-0.929,2.217c-0.206,0.489,0.025,1.044,0.51,1.251l3.146,1.319
				c0.486,0.203,1.042-0.023,1.248-0.511l0.929-2.217c0.707,0.079,1.412,0.085,2.108,0.012l0.908,2.225
				c0.201,0.49,0.756,0.722,1.244,0.522l3.158-1.293c0.487-0.199,0.719-0.754,0.523-1.244l-0.911-2.223
				c0.549-0.434,1.047-0.931,1.495-1.484l2.22,0.929c0.488,0.205,1.042-0.026,1.245-0.509l1.319-3.147
				c0.204-0.484-0.023-1.043-0.508-1.246l-2.219-0.934c0.084-0.706,0.086-1.411,0.012-2.105l2.221-0.91
				c0.439-0.178,0.646-0.633,0.559-1.073c0.06,0.115,0.12,0.231,0.217,0.329l3.388,3.384c0.518,0.522,1.361,0.522,1.888,0
				l2.381-2.382c0.86,0.474,1.775,0.85,2.734,1.127v3.376c0,0.737,0.598,1.333,1.333,1.333h4.786c0.739,0,1.338-0.596,1.338-1.333
				v-3.376c0.958-0.277,1.875-0.653,2.731-1.127l2.383,2.382c0.522,0.522,1.368,0.522,1.891,0l3.386-3.384
				c0.52-0.522,0.52-1.369,0-1.89l-2.383-2.382c0.471-0.857,0.848-1.775,1.125-2.731h3.374c0.738,0,1.336-0.602,1.336-1.337v-4.791
				c0-0.732-0.598-1.332-1.336-1.332h-3.374c-0.28-0.958-0.657-1.875-1.128-2.731l2.386-2.384c0.52-0.523,0.52-1.369,0-1.888
				l-3.386-3.385c-0.522-0.527-1.368-0.527-1.891,0l-2.383,2.38c-0.856-0.474-1.772-0.847-2.731-1.127v-3.375
				c0-0.738-0.599-1.338-1.338-1.338h-4.786c-0.735,0-1.333,0.6-1.333,1.338v3.375c-0.959,0.28-1.875,0.653-2.734,1.127l-2.381-2.38
				c-0.526-0.527-1.37-0.527-1.888,0l-3.388,3.385c-0.522,0.519-0.522,1.365,0,1.888l2.385,2.384
				c-0.473,0.856-0.85,1.773-1.127,2.731h-3.374c-0.738,0-1.336,0.599-1.336,1.332v4.791c0,0.736,0.599,1.337,1.336,1.337h3.374
				c0.277,0.957,0.651,1.875,1.125,2.731l-2.383,2.382c-0.314,0.312-0.416,0.735-0.353,1.139l-1.191-2.907
				c-0.201-0.489-0.753-0.72-1.243-0.521l-2.221,0.908c-0.434-0.543-0.935-1.044-1.486-1.492l0.929-2.22
				c0.204-0.483-0.023-1.044-0.509-1.244l-3.147-1.321c-0.488-0.202-1.045,0.022-1.248,0.507l-0.93,2.22
				c-0.709-0.082-1.414-0.086-2.107-0.012l-0.909-2.224c-0.201-0.486-0.758-0.719-1.244-0.524l-3.161,1.295
				c-0.483,0.198-0.719,0.754-0.521,1.242l0.911,2.225c-0.545,0.432-1.047,0.93-1.493,1.484l-2.218-0.931
				c-0.49-0.204-1.047,0.027-1.246,0.512l-1.325,3.146c-0.203,0.487,0.028,1.043,0.511,1.248l2.218,0.932
				c-0.081,0.706-0.087,1.413-0.013,2.108l-2.222,0.909C154.479,240.73,154.244,241.284,154.447,241.774z M185.248,225.212
				c0-4.445,3.613-8.059,8.054-8.059c4.444,0,8.057,3.614,8.057,8.059c0,4.441-3.612,8.052-8.057,8.052
				C188.861,233.265,185.248,229.654,185.248,225.212z M164.466,243.908c-2.919-1.226-4.302-4.601-3.074-7.523
				c1.225-2.922,4.595-4.298,7.516-3.074c2.924,1.226,4.301,4.598,3.078,7.52C170.759,243.75,167.389,245.13,164.466,243.908z"/>
		</g>
		<g>
			<g>
				<path fill="#F2A71E" d="M110.67,250.746c-1.29,1.969-0.737,4.609,1.233,5.896l6.093,3.981c1.969,1.285,4.61,0.733,5.895-1.238
					l20.68-31.643c1.285-1.97,0.733-4.612-1.237-5.896l-6.091-3.983c-1.967-1.285-4.609-0.731-5.894,1.236L110.67,250.746z"/>
			</g>
			<g>
				<path fill="#FFFFFF" d="M137.377,224.31c-13.538-8.847-17.225-27.263-8.216-41.051c5.591-8.557,14.96-13.665,25.067-13.665
					c5.639,0,11.111,1.629,15.826,4.71c13.542,8.847,17.227,27.263,8.219,41.047c-5.59,8.557-14.962,13.667-25.066,13.667
					C147.564,229.02,142.094,227.39,137.377,224.31z M135.479,187.387c-6.731,10.306-4.031,24.034,6.027,30.605
					c3.484,2.277,7.53,3.479,11.699,3.479c7.546,0,14.556-3.83,18.75-10.245c6.733-10.303,4.027-24.032-6.029-30.605
					c-3.483-2.277-7.531-3.479-11.698-3.479C146.679,177.143,139.669,180.974,135.479,187.387z"/>
			</g>
		</g>
	</g>
	<g>
		<g>
			<path fill="#79421B" d="M256.547,209.362c-0.89,0.19-13.65,8.853-18.75,10.054l2.552-7.053L256.547,209.362z"/>
		</g>
		<g>
			<g>
				<path fill="#FFE9BA" d="M271.471,278.68l-7.414-1.371c-0.035,0-0.035,0-0.072,0c-3.996-0.037-7.272-3.238-7.379-7.232v-5.438
					c8.744-5.398,14.865-18.038,14.865-32.762c0-19.654-10.871-29.663-24.297-29.663l0,0l0,0c-13.425,0-24.298,10.008-24.298,29.663
					c0,14.724,6.12,27.362,14.866,32.762v5.438c-0.109,3.994-3.385,7.195-7.38,7.232c-0.036,0-0.036,0-0.07,0l-7.416,1.371
					c-16.418,5.072-19.442,17.241-19.442,31.245v5.187h43.74l0,0h43.739v-5.187C290.913,295.921,287.889,283.752,271.471,278.68z"/>
			</g>
			<g>
				<path fill="#FFE9BA" d="M256.643,268.924c0,0,0-0.037-0.037-0.072v0.072C256.643,268.924,256.643,268.924,256.643,268.924z"/>
			</g>
		</g>
		<g>
			<g>
				<path fill="#FFE9BA" d="M265.025,255.925c-2.301,3.746-5.184,6.733-8.42,8.714v5.147c-1.869,0.612-3.816,0.937-5.801,0.937
					c-4.821,0-9.319-1.91-13.063-5.222v-0.862c2.843,1.619,5.938,2.482,9.18,2.482C254.122,267.121,260.639,262.768,265.025,255.925
					z"/>
			</g>
			<g>
				<path fill="#FFE9BA" d="M256.643,268.924c0,0,0,0-0.037,0v-0.072C256.643,268.887,256.643,268.924,256.643,268.924z"/>
			</g>
		</g>
		<g>
			<g>
				<path fill="#103754" d="M290.913,309.925v5.187h-87.479v-5.187c0-14.004,3.024-26.173,19.442-31.245l7.416-1.371
					c0.034,0,0.034,0,0.07,0c1.439,0,2.808-0.432,3.964-1.221c2.875,3.994,7.556,6.589,12.848,6.589s9.973-2.595,12.854-6.589
					c1.152,0.79,2.518,1.221,3.957,1.221c0.037,0,0.037,0,0.072,0l7.416,1.371C287.889,283.752,290.913,295.921,290.913,309.925z"/>
			</g>
			<g>
				<path fill="#103754" d="M256.643,268.924c0,0,0,0-0.037,0v-0.072C256.643,268.887,256.643,268.924,256.643,268.924z"/>
			</g>
		</g>
		<g>
			<path fill="#FFE9BA" d="M237.595,264.564c-0.715-0.396-1.439-0.862-2.122-1.365c-0.033,0-0.033,0-0.07-0.037
				c-0.034-0.038-0.034-0.038-0.034-0.074c-0.146-0.145-0.291-0.32-0.437-0.5C235.799,263.309,236.66,263.988,237.595,264.564z"/>
		</g>
		<g>
			<path fill="#F2BE4B" d="M256.605,264.639v4.211c0.037,0.037,0.037,0.073,0.037,0.073s0,0-0.037,0v0.862
				c-1.869,0.613-3.816,0.936-5.801,0.936c-4.821,0-9.319-1.91-13.063-5.221c-0.791-0.723-1.549-1.477-2.269-2.302
				c-0.033,0-0.033,0-0.07-0.037c-0.034-0.038-0.034-0.038-0.034-0.074c-0.146-0.144-0.291-0.321-0.437-0.5
				c0.868,0.72,1.729,1.399,2.664,1.976c0.038,0.039,0.075,0.076,0.147,0.076c2.843,1.618,5.938,2.481,9.18,2.481
				C254.122,267.121,256.605,264.639,256.605,264.639z"/>
		</g>
		<g>
			<path fill="#79421B" d="M259.609,209.362c0,0-18.168,3.581-27.451,13.047c-9.282,9.469-3.411,16.954-6.058,28.07
				c0,0-8.119-10.292-6.317-26.717c1.799-16.423,10.23-28.125,27.39-26.552c0,0,5.683-3.823,14.683-1.123
				c9.002,2.699,24.103,37.402,5.336,55.935C267.191,252.021,277.381,223.086,259.609,209.362z"/>
		</g>
		<g>
			<path fill="#FFE9BA" d="M228.602,242.346c0,3.481-1.574,6.308-3.506,6.308c-1.94,0-3.511-2.827-3.511-6.308
				c0-3.488,1.571-6.312,3.511-6.312C227.028,236.034,228.602,238.857,228.602,242.346z"/>
		</g>
		<g>
			<path fill="#FFE9BA" d="M272.764,242.346c0,3.481-1.57,6.308-3.51,6.308c-1.938,0-3.509-2.827-3.509-6.308
				c0-3.488,1.571-6.312,3.509-6.312S272.764,238.857,272.764,242.346z"/>
		</g>
		<g>
			<path fill="#79421B" d="M229.135,224.903c0.201-0.792-0.915,1.035-6.092,10.841c0,0,0.168,0.633,0.778,0.732
				c1.016,0.16,1.274,1.088,4.285,5.869C228.106,242.346,226.703,234.552,229.135,224.903z"/>
		</g>
		<g>
			<path fill="#79421B" d="M232.158,222.409c0,0-1.311,3.342-2.102,9.305c0,0-2.958-3.412-2.664-6.034
				C227.688,223.058,232.158,222.409,232.158,222.409z"/>
		</g>
		<g>
			<path fill="#FFFFFF" d="M234.326,276.088l6.528,39.023h16.012l3.159-39.023C260.025,276.088,248.659,289.908,234.326,276.088z"/>
		</g>
		<g>
			<g>
				<path fill="#103754" d="M254.152,289.908c0,0.992-0.801,1.804-1.801,1.804h-7.227c-0.997,0-1.8-0.812-1.8-1.804v-4.21
					c0-0.994,0.804-1.8,1.8-1.8h7.227c1,0,1.801,0.806,1.801,1.8V289.908z"/>
			</g>
			<g>
				<polygon fill="#FFFFFF" points="236.704,273.632 248.442,282.677 242.986,293.514 234.326,276.088 				"/>
			</g>
			<g>
				<polygon fill="#FFFFFF" points="257.637,273.632 248.438,282.677 253.893,293.514 260.025,276.088 				"/>
			</g>
			<g>
				<polygon fill="#103754" points="247.056,291.712 242.125,315.111 254.152,315.111 249.854,291.712 				"/>
			</g>
		</g>
	</g>
	<g>
		<g>
			<g>
				<path fill="#5DC0C6" d="M136.346,355.814h-2.32v-14.787c-0.555,0.529-1.294,1.065-2.204,1.603
					c-0.901,0.522-1.719,0.929-2.44,1.192v-2.247c1.301-0.604,2.434-1.343,3.409-2.218c0.968-0.865,1.654-1.699,2.063-2.524h1.491
					L136.346,355.814L136.346,355.814z"/>
			</g>
			<g>
				<path fill="#5DC0C6" d="M142.291,346.493c0-2.237,0.229-4.03,0.691-5.392c0.457-1.371,1.144-2.414,2.048-3.154
					c0.908-0.744,2.052-1.114,3.421-1.114c1.016,0,1.906,0.204,2.67,0.612c0.766,0.414,1.396,1,1.896,1.768
					c0.497,0.771,0.892,1.707,1.174,2.814c0.284,1.104,0.421,2.595,0.421,4.466c0,2.215-0.225,4.004-0.685,5.36
					c-0.45,1.364-1.132,2.422-2.04,3.168c-0.904,0.742-2.055,1.119-3.437,1.119c-1.817,0-3.246-0.662-4.288-1.966
					C142.912,352.598,142.291,350.039,142.291,346.493z M144.68,346.493c0,3.097,0.355,5.159,1.083,6.192
					c0.726,1.022,1.62,1.541,2.687,1.541c1.072,0,1.966-0.519,2.684-1.547c0.731-1.033,1.091-3.095,1.091-6.188
					c0-3.109-0.359-5.182-1.091-6.202c-0.718-1.026-1.624-1.534-2.708-1.534c-1.065,0-1.918,0.448-2.551,1.354
					C145.078,341.266,144.68,343.389,144.68,346.493z"/>
			</g>
			<g>
				<path fill="#5DC0C6" d="M165.711,355.814h-2.318v-14.787c-0.552,0.529-1.296,1.065-2.2,1.603
					c-0.903,0.522-1.722,0.929-2.443,1.192v-2.247c1.299-0.604,2.436-1.343,3.404-2.218c0.968-0.865,1.665-1.699,2.063-2.524h1.493
					L165.711,355.814L165.711,355.814z"/>
			</g>
			<g>
				<path fill="#5DC0C6" d="M171.658,346.493c0-2.237,0.226-4.03,0.689-5.392c0.464-1.371,1.139-2.414,2.046-3.154
					c0.907-0.744,2.048-1.114,3.421-1.114c1.015,0,1.911,0.204,2.676,0.612c0.761,0.414,1.391,1,1.885,1.768
					c0.504,0.771,0.897,1.707,1.182,2.814c0.28,1.104,0.423,2.595,0.423,4.466c0,2.215-0.231,4.004-0.685,5.36
					c-0.453,1.364-1.137,2.422-2.045,3.168c-0.907,0.742-2.051,1.119-3.437,1.119c-1.812,0-3.245-0.662-4.282-1.966
					C172.277,352.598,171.658,350.039,171.658,346.493z M174.04,346.493c0,3.097,0.366,5.159,1.094,6.192
					c0.725,1.022,1.618,1.541,2.681,1.541c1.072,0,1.97-0.519,2.688-1.547c0.73-1.033,1.088-3.095,1.088-6.188
					c0-3.109-0.358-5.182-1.088-6.202c-0.718-1.026-1.623-1.534-2.711-1.534c-1.061,0-1.92,0.448-2.554,1.354
					C174.44,341.266,174.04,343.389,174.04,346.493z"/>
			</g>
			<g>
				<path fill="#5DC0C6" d="M195.079,355.814h-2.321v-14.787c-0.557,0.529-1.293,1.065-2.198,1.603
					c-0.903,0.522-1.722,0.929-2.44,1.192v-2.247c1.297-0.604,2.429-1.343,3.404-2.218c0.968-0.865,1.656-1.699,2.062-2.524h1.493
					V355.814z"/>
			</g>
			<g>
				<path fill="#5DC0C6" d="M207.806,355.814h-2.326v-14.787c-0.552,0.529-1.289,1.065-2.195,1.603
					c-0.906,0.522-1.724,0.929-2.44,1.192v-2.247c1.293-0.604,2.429-1.343,3.401-2.218c0.973-0.865,1.658-1.699,2.062-2.524h1.498
					V355.814L207.806,355.814z"/>
			</g>
			<g>
				<path fill="#5DC0C6" d="M127.606,369.12c0-2.235,0.231-4.031,0.693-5.394c0.456-1.36,1.142-2.414,2.045-3.154
					c0.907-0.739,2.048-1.106,3.426-1.106c1.014,0,1.904,0.204,2.667,0.614c0.765,0.404,1.401,0.996,1.9,1.77
					c0.495,0.768,0.888,1.7,1.169,2.805c0.282,1.104,0.428,2.594,0.428,4.467c0,2.225-0.232,4.011-0.682,5.371
					c-0.46,1.363-1.138,2.412-2.043,3.156c-0.911,0.744-2.053,1.113-3.439,1.113c-1.828,0-3.256-0.646-4.299-1.949
					C128.229,375.229,127.606,372.67,127.606,369.12z M129.988,369.12c0,3.106,0.366,5.169,1.088,6.188
					c0.733,1.034,1.629,1.549,2.693,1.549c1.063,0,1.962-0.515,2.69-1.549c0.721-1.026,1.086-3.092,1.086-6.188
					c0-3.111-0.365-5.173-1.086-6.199c-0.729-1.026-1.632-1.528-2.716-1.528c-1.071,0-1.921,0.444-2.554,1.354
					C130.39,363.891,129.988,366.02,129.988,369.12z"/>
			</g>
			<g>
				<path fill="#5DC0C6" d="M151.029,378.443h-2.318v-14.787c-0.564,0.531-1.292,1.063-2.193,1.595
					c-0.918,0.537-1.722,0.935-2.452,1.196v-2.236c1.303-0.613,2.436-1.352,3.404-2.217c0.97-0.872,1.662-1.711,2.063-2.528h1.496
					V378.443L151.029,378.443z"/>
			</g>
			<g>
				<path fill="#5DC0C6" d="M163.749,378.443h-2.315v-14.787c-0.562,0.531-1.29,1.063-2.194,1.595
					c-0.91,0.537-1.722,0.935-2.45,1.196v-2.236c1.299-0.613,2.434-1.352,3.405-2.217c0.968-0.872,1.661-1.711,2.063-2.528h1.491
					V378.443z"/>
			</g>
			<g>
				<path fill="#5DC0C6" d="M169.698,369.12c0-2.235,0.233-4.031,0.688-5.394c0.456-1.36,1.145-2.414,2.052-3.154
					c0.903-0.739,2.044-1.106,3.42-1.106c1.018,0,1.9,0.204,2.67,0.614c0.762,0.404,1.393,0.996,1.898,1.77
					c0.494,0.768,0.882,1.7,1.164,2.805c0.286,1.104,0.431,2.594,0.431,4.467c0,2.225-0.231,4.011-0.682,5.371
					c-0.456,1.363-1.139,2.412-2.045,3.156c-0.907,0.744-2.051,1.113-3.436,1.113c-1.825,0-3.253-0.646-4.296-1.949
					C170.317,375.229,169.698,372.67,169.698,369.12z M172.081,369.12c0,3.106,0.363,5.169,1.093,6.188
					c0.721,1.034,1.618,1.549,2.685,1.549c1.063,0,1.956-0.515,2.685-1.549c0.729-1.026,1.091-3.092,1.091-6.188
					c0-3.111-0.362-5.173-1.091-6.199s-1.634-1.528-2.712-1.528c-1.067,0-1.913,0.444-2.549,1.354
					C172.48,363.891,172.081,366.02,172.081,369.12z"/>
			</g>
			<g>
				<path fill="#5DC0C6" d="M193.119,378.443h-2.32v-14.787c-0.56,0.531-1.287,1.063-2.194,1.595
					c-0.908,0.537-1.727,0.935-2.447,1.196v-2.236c1.3-0.613,2.432-1.352,3.405-2.217c0.967-0.872,1.658-1.711,2.063-2.528h1.493
					V378.443L193.119,378.443z"/>
			</g>
			<g>
				<path fill="#5DC0C6" d="M205.841,378.443h-2.316v-14.787c-0.562,0.531-1.294,1.063-2.2,1.595
					c-0.905,0.537-1.719,0.935-2.442,1.196v-2.236c1.296-0.613,2.436-1.352,3.401-2.217c0.971-0.872,1.66-1.711,2.063-2.528h1.493
					L205.841,378.443L205.841,378.443z"/>
			</g>
			<g>
				<path fill="#5DC0C6" d="M136.346,401.068h-2.32v-14.787c-0.555,0.531-1.294,1.072-2.204,1.604
					c-0.901,0.528-1.719,0.936-2.44,1.199v-2.247c1.301-0.61,2.434-1.346,3.409-2.22c0.968-0.863,1.654-1.705,2.063-2.521h1.491
					L136.346,401.068L136.346,401.068z"/>
			</g>
			<g>
				<path fill="#5DC0C6" d="M142.291,391.75c0-2.232,0.229-4.025,0.691-5.395c0.457-1.364,1.144-2.41,2.048-3.149
					c0.908-0.747,2.052-1.11,3.421-1.11c1.016,0,1.906,0.197,2.67,0.607c0.766,0.41,1.396,1,1.896,1.77
					c0.497,0.771,0.892,1.709,1.174,2.81c0.284,1.108,0.421,2.595,0.421,4.469c0,2.219-0.225,4.008-0.685,5.371
					c-0.45,1.36-1.132,2.412-2.04,3.16c-0.904,0.735-2.055,1.11-3.437,1.11c-1.817,0-3.246-0.654-4.288-1.959
					C142.912,397.859,142.291,395.297,142.291,391.75z M144.68,391.75c0,3.104,0.355,5.168,1.083,6.197
					c0.726,1.023,1.62,1.539,2.687,1.539c1.072,0,1.966-0.516,2.684-1.543c0.731-1.034,1.091-3.102,1.091-6.193
					c0-3.115-0.359-5.177-1.091-6.195c-0.718-1.033-1.624-1.537-2.708-1.537c-1.065,0-1.918,0.442-2.551,1.351
					C145.078,386.523,144.68,388.645,144.68,391.75z"/>
			</g>
			<g>
				<path fill="#5DC0C6" d="M165.711,401.068h-2.318v-14.787c-0.552,0.531-1.296,1.072-2.2,1.604
					c-0.903,0.528-1.722,0.936-2.443,1.199v-2.247c1.299-0.61,2.436-1.346,3.404-2.22c0.968-0.863,1.665-1.705,2.063-2.521h1.493
					L165.711,401.068L165.711,401.068z"/>
			</g>
			<g>
				<path fill="#5DC0C6" d="M178.442,401.068h-2.325v-14.787c-0.557,0.531-1.291,1.072-2.199,1.604
					c-0.907,0.528-1.722,0.936-2.443,1.199v-2.247c1.296-0.61,2.433-1.346,3.404-2.22c0.976-0.863,1.662-1.705,2.062-2.521h1.501
					V401.068L178.442,401.068z"/>
			</g>
			<g>
				<path fill="#5DC0C6" d="M184.382,391.75c0-2.232,0.224-4.025,0.687-5.395c0.462-1.364,1.142-2.41,2.046-3.149
					c0.911-0.747,2.054-1.11,3.425-1.11c1.019,0,1.909,0.197,2.668,0.607c0.763,0.41,1.396,1,1.891,1.77
					c0.504,0.771,0.897,1.709,1.184,2.81c0.274,1.108,0.42,2.595,0.42,4.469c0,2.219-0.233,4.008-0.686,5.371
					c-0.456,1.36-1.135,2.412-2.046,3.16c-0.903,0.735-2.048,1.11-3.432,1.11c-1.819,0-3.25-0.654-4.29-1.959
					C184.999,397.859,184.382,395.297,184.382,391.75z M186.763,391.75c0,3.104,0.363,5.168,1.093,6.197
					c0.721,1.023,1.618,1.539,2.684,1.539c1.072,0,1.967-0.516,2.683-1.543c0.73-1.034,1.098-3.102,1.098-6.193
					c0-3.115-0.368-5.177-1.098-6.195c-0.716-1.033-1.622-1.537-2.704-1.537c-1.067,0-1.928,0.442-2.557,1.351
					C187.165,386.523,186.763,388.645,186.763,391.75z"/>
			</g>
			<g>
				<path fill="#5DC0C6" d="M207.806,401.068h-2.326v-14.787c-0.552,0.531-1.289,1.072-2.195,1.604
					c-0.906,0.528-1.724,0.936-2.44,1.199v-2.247c1.293-0.61,2.429-1.346,3.401-2.22c0.973-0.863,1.658-1.705,2.062-2.521h1.498
					V401.068L207.806,401.068z"/>
			</g>
		</g>
		<g>
			<g>
				<path fill="#FFFFFF" d="M220.785,394.921c0,16.919-13.723,30.642-30.643,30.642c-16.922,0-30.641-13.723-30.641-30.642
					c0-16.922,13.719-30.642,30.641-30.642C207.062,364.279,220.785,377.999,220.785,394.921z"/>
			</g>
			<g>
				<path fill="#103754" d="M173.249,366.596c1.079,1.271,0.921,3.176-0.352,4.254l-2.443,2.076
					c-1.274,1.08-3.178,0.924-4.257-0.349l-2.073-2.445c-1.08-1.271-0.922-3.177,0.349-4.258l2.445-2.075
					c1.273-1.076,3.175-0.919,4.257,0.354L173.249,366.596z"/>
			</g>
			<g>
				<path fill="#103754" d="M214.34,371.824c-0.854,1.434-2.709,1.898-4.139,1.045l-2.755-1.646
					c-1.431-0.854-1.897-2.709-1.044-4.139l1.646-2.754c0.854-1.434,2.708-1.898,4.141-1.045l2.755,1.645
					c1.431,0.858,1.9,2.711,1.042,4.139L214.34,371.824z"/>
			</g>
			<g>
				<path fill="#103754" d="M202.06,360.379c0,2.154-1.744,3.9-3.9,3.9h-16.032c-2.157,0-3.902-1.746-3.902-3.9v-3.202
					c0-2.155,1.745-3.899,3.902-3.899h16.032c2.156,0,3.9,1.744,3.9,3.899V360.379z"/>
			</g>
			<g>
				<path fill="#5DC0C6" d="M190.139,397.934l-29.081-8.738c0,0,0-25.527,33.946-25.162c1.022,0.013,1.993,1.02,1.993,1.02
					L190.139,397.934L190.139,397.934z"/>
			</g>
			<g>
				<path fill="#F1AC1E" d="M190.142,364.279l-0.003,35.379l18.993,19.33c0,0,21.273-13.674,6.97-40.338l0,0
					C216.103,378.65,202.208,361.813,190.142,364.279L190.142,364.279z"/>
			</g>
			<g>
				<path fill="#005C84" d="M201.869,413.529c-0.631,0-1.258-0.262-1.704-0.771l-11.722-13.329
					c-0.365-0.412-0.566-0.945-0.566-1.494v-19.897c0-1.251,1.015-2.265,2.265-2.265s2.265,1.014,2.265,2.265v19.043l11.159,12.688
					c0.827,0.938,0.734,2.371-0.204,3.195C202.932,413.344,202.397,413.529,201.869,413.529z"/>
			</g>
			<g>
				<path fill="#005C84" d="M195.443,397.936c0,2.929-2.371,5.301-5.301,5.301c-2.931,0-5.305-2.372-5.305-5.301
					c0-2.931,2.374-5.307,5.305-5.307C193.072,392.629,195.443,395.005,195.443,397.936z"/>
			</g>
			<g>
				<path fill="#005C84" d="M190.142,427.827c-18.144,0-32.903-14.765-32.903-32.906c0-18.144,14.759-32.905,32.903-32.905
					c18.142,0,32.905,14.762,32.905,32.905C223.047,413.063,208.284,427.827,190.142,427.827z M190.142,366.545
					c-15.646,0-28.376,12.73-28.376,28.376s12.729,28.375,28.376,28.375c15.648,0,28.378-12.729,28.378-28.375
					S205.79,366.545,190.142,366.545z"/>
			</g>
		</g>
	</g>
	<g>
		<g>
			<g>
				<path fill="#005C84" d="M389.195,207c0,1.448-1.174,2.621-2.623,2.621h-89.76c-1.445,0-2.623-1.173-2.623-2.621v-53.848
					c0-1.445,1.178-2.618,2.623-2.618h89.76c1.449,0,2.623,1.173,2.623,2.618V207z"/>
			</g>
			<g>
				<rect x="299.98" y="157.419" fill="#FFFFFF" width="82.771" height="47.612"/>
			</g>
			<g>
				<path fill="#005C84" d="M399.023,220.936c0,1.45-1.177,2.623-2.62,2.623H286.984c-1.448,0-2.619-1.173-2.619-2.623v-5.238
					c0-1.446,1.171-2.623,2.619-2.623h109.419c1.443,0,2.62,1.177,2.62,2.623V220.936z"/>
			</g>
		</g>
		<g>
			<path fill="#B8E3E8" d="M376.141,198.409c0,1.685-1.365,3.052-3.054,3.052h-60.949c-1.687,0-3.051-1.367-3.051-3.052v-33.302
				c0-1.687,1.364-3.051,3.051-3.051h60.949c1.688,0,3.054,1.364,3.054,3.051V198.409z"/>
		</g>
		<g>
			<path fill="#39C2D5" d="M376.141,164.721c0,1.475-1.197,2.67-2.671,2.67h-61.72c-1.47,0-2.663-1.195-2.663-2.67l0,0
				c0-1.47,1.193-2.664,2.663-2.664h61.72C374.942,162.057,376.141,163.25,376.141,164.721L376.141,164.721z"/>
		</g>
		<g>
			<g>
				<path fill="#005C84" d="M322.284,178.469h-0.938v-5.981c-0.224,0.215-0.523,0.432-0.889,0.647
					c-0.365,0.213-0.696,0.378-0.99,0.484v-0.908c0.528-0.247,0.984-0.545,1.378-0.897c0.393-0.35,0.673-0.69,0.836-1.023h0.604
					L322.284,178.469L322.284,178.469z"/>
			</g>
			<g>
				<path fill="#005C84" d="M324.688,174.7c0-0.905,0.094-1.631,0.279-2.182c0.188-0.553,0.463-0.976,0.828-1.278
					c0.369-0.298,0.833-0.448,1.387-0.448c0.411,0,0.771,0.083,1.079,0.248c0.311,0.166,0.564,0.404,0.766,0.716
					c0.204,0.309,0.362,0.689,0.478,1.136c0.114,0.448,0.173,1.05,0.173,1.808c0,0.896-0.094,1.619-0.279,2.169
					c-0.183,0.552-0.458,0.978-0.825,1.28c-0.367,0.3-0.829,0.451-1.39,0.451c-0.732,0-1.313-0.266-1.734-0.794
					C324.939,177.169,324.688,176.134,324.688,174.7z M325.656,174.7c0,1.254,0.143,2.087,0.438,2.504
					c0.294,0.416,0.652,0.624,1.086,0.624c0.433,0,0.796-0.208,1.085-0.626c0.295-0.417,0.439-1.251,0.439-2.501
					c0-1.26-0.146-2.097-0.439-2.509c-0.289-0.415-0.656-0.622-1.094-0.622c-0.433,0-0.775,0.182-1.033,0.546
					C325.815,172.585,325.656,173.442,325.656,174.7z"/>
			</g>
			<g>
				<path fill="#005C84" d="M334.163,178.469h-0.94v-5.981c-0.224,0.215-0.521,0.432-0.888,0.647
					c-0.365,0.213-0.695,0.378-0.987,0.484v-0.908c0.525-0.247,0.983-0.545,1.379-0.897c0.392-0.35,0.667-0.69,0.831-1.023h0.605
					V178.469z"/>
			</g>
			<g>
				<path fill="#005C84" d="M336.567,174.7c0-0.905,0.093-1.631,0.28-2.182c0.187-0.553,0.461-0.976,0.828-1.278
					c0.367-0.298,0.827-0.448,1.384-0.448c0.407,0,0.772,0.083,1.082,0.248c0.31,0.166,0.563,0.404,0.767,0.716
					c0.199,0.309,0.359,0.689,0.474,1.136c0.113,0.448,0.173,1.05,0.173,1.808c0,0.896-0.094,1.619-0.276,2.169
					c-0.184,0.552-0.46,0.978-0.826,1.28c-0.366,0.3-0.834,0.451-1.392,0.451c-0.733,0-1.314-0.266-1.735-0.794
					C336.819,177.169,336.567,176.134,336.567,174.7z M337.532,174.7c0,1.254,0.146,2.087,0.438,2.504
					c0.297,0.416,0.659,0.624,1.089,0.624c0.434,0,0.797-0.208,1.088-0.626c0.295-0.417,0.438-1.251,0.438-2.501
					c0-1.26-0.144-2.097-0.438-2.509c-0.291-0.415-0.658-0.622-1.098-0.622c-0.429,0-0.777,0.182-1.033,0.546
					C337.695,172.585,337.532,173.442,337.532,174.7z"/>
			</g>
			<g>
				<path fill="#005C84" d="M346.044,178.469h-0.938v-5.981c-0.226,0.215-0.525,0.432-0.892,0.647
					c-0.36,0.213-0.695,0.378-0.985,0.484v-0.908c0.523-0.247,0.981-0.545,1.378-0.897c0.391-0.35,0.67-0.69,0.835-1.023h0.604
					L346.044,178.469L346.044,178.469z"/>
			</g>
			<g>
				<path fill="#005C84" d="M351.191,178.469h-0.939v-5.981c-0.225,0.215-0.521,0.432-0.891,0.647
					c-0.365,0.213-0.695,0.378-0.987,0.484v-0.908c0.525-0.247,0.985-0.545,1.379-0.897c0.394-0.35,0.669-0.69,0.834-1.023h0.604
					V178.469L351.191,178.469z"/>
			</g>
			<g>
				<path fill="#005C84" d="M353.596,174.7c0-0.905,0.093-1.631,0.276-2.182c0.19-0.553,0.462-0.976,0.832-1.278
					c0.363-0.298,0.827-0.448,1.382-0.448c0.412,0,0.772,0.083,1.081,0.248c0.308,0.166,0.565,0.404,0.767,0.716
					c0.199,0.309,0.36,0.689,0.476,1.136c0.114,0.448,0.169,1.05,0.169,1.808c0,0.896-0.089,1.619-0.273,2.169
					c-0.184,0.552-0.461,0.978-0.829,1.28c-0.364,0.3-0.829,0.451-1.389,0.451c-0.736,0-1.313-0.266-1.735-0.794
					C353.844,177.169,353.596,176.134,353.596,174.7z M354.56,174.7c0,1.254,0.146,2.087,0.44,2.504
					c0.295,0.416,0.656,0.624,1.086,0.624c0.436,0,0.796-0.208,1.087-0.626c0.296-0.417,0.444-1.251,0.444-2.501
					c0-1.26-0.148-2.097-0.444-2.509c-0.291-0.415-0.656-0.622-1.098-0.622c-0.432,0-0.774,0.182-1.031,0.546
					C354.721,172.585,354.56,173.442,354.56,174.7z"/>
			</g>
			<g>
				<path fill="#005C84" d="M363.071,178.469h-0.939v-5.981c-0.223,0.215-0.523,0.432-0.89,0.647
					c-0.366,0.213-0.697,0.378-0.986,0.484v-0.908c0.522-0.247,0.982-0.545,1.376-0.897c0.393-0.35,0.672-0.69,0.835-1.023h0.604
					V178.469z"/>
			</g>
			<g>
				<path fill="#005C84" d="M318.748,183.854c0-0.905,0.093-1.632,0.277-2.184c0.185-0.55,0.464-0.976,0.828-1.274
					c0.368-0.299,0.831-0.449,1.386-0.449c0.413,0,0.771,0.082,1.085,0.249c0.307,0.164,0.561,0.402,0.765,0.716
					c0.201,0.31,0.357,0.688,0.475,1.135c0.112,0.446,0.171,1.049,0.171,1.808c0,0.898-0.093,1.621-0.276,2.17
					c-0.184,0.554-0.458,0.979-0.823,1.278c-0.37,0.302-0.83,0.451-1.395,0.451c-0.734,0-1.315-0.263-1.735-0.791
					C318.999,186.326,318.748,185.288,318.748,183.854z M319.713,183.854c0,1.255,0.147,2.089,0.441,2.502
					c0.295,0.418,0.654,0.626,1.085,0.626c0.433,0,0.795-0.208,1.092-0.626c0.29-0.417,0.438-1.251,0.438-2.502
					c0-1.258-0.147-2.094-0.438-2.51c-0.297-0.414-0.664-0.619-1.099-0.619s-0.775,0.182-1.034,0.547
					C319.874,181.737,319.713,182.599,319.713,183.854z"/>
			</g>
			<g>
				<path fill="#005C84" d="M328.225,187.625h-0.938v-5.981c-0.229,0.213-0.521,0.428-0.884,0.643
					c-0.372,0.218-0.698,0.379-0.993,0.485v-0.904c0.524-0.249,0.981-0.548,1.377-0.898c0.393-0.353,0.672-0.693,0.835-1.023h0.604
					V187.625z"/>
			</g>
			<g>
				<path fill="#005C84" d="M333.371,187.625h-0.939v-5.981c-0.228,0.213-0.521,0.428-0.889,0.643
					c-0.366,0.218-0.693,0.379-0.989,0.485v-0.904c0.526-0.249,0.984-0.548,1.378-0.898c0.394-0.353,0.672-0.693,0.833-1.023h0.606
					V187.625L333.371,187.625z"/>
			</g>
			<g>
				<path fill="#005C84" d="M335.774,183.854c0-0.905,0.096-1.632,0.278-2.184c0.187-0.55,0.463-0.976,0.83-1.274
					s0.827-0.449,1.385-0.449c0.409,0,0.771,0.082,1.079,0.249c0.31,0.164,0.566,0.402,0.771,0.716
					c0.199,0.31,0.355,0.688,0.469,1.135c0.118,0.446,0.176,1.049,0.176,1.808c0,0.898-0.094,1.621-0.276,2.17
					c-0.184,0.554-0.46,0.979-0.825,1.278c-0.37,0.302-0.83,0.451-1.392,0.451c-0.737,0-1.317-0.263-1.737-0.791
					C336.027,186.326,335.774,185.288,335.774,183.854z M336.737,183.854c0,1.255,0.149,2.089,0.444,2.502
					c0.292,0.418,0.655,0.626,1.086,0.626c0.433,0,0.792-0.208,1.086-0.626c0.297-0.417,0.44-1.251,0.44-2.502
					c0-1.258-0.145-2.094-0.44-2.51c-0.294-0.414-0.662-0.619-1.096-0.619s-0.775,0.182-1.034,0.547
					C336.901,181.737,336.737,182.599,336.737,183.854z"/>
			</g>
			<g>
				<path fill="#005C84" d="M345.25,187.625h-0.938v-5.981c-0.228,0.213-0.522,0.428-0.889,0.643
					c-0.367,0.218-0.695,0.379-0.989,0.485v-0.904c0.527-0.249,0.981-0.548,1.378-0.898c0.392-0.353,0.67-0.693,0.835-1.023h0.604
					L345.25,187.625L345.25,187.625z"/>
			</g>
			<g>
				<path fill="#005C84" d="M350.396,187.625h-0.936v-5.981c-0.227,0.213-0.521,0.428-0.891,0.643
					c-0.364,0.218-0.697,0.379-0.989,0.485v-0.904c0.521-0.249,0.987-0.548,1.377-0.898c0.395-0.353,0.671-0.693,0.836-1.023h0.603
					V187.625z"/>
			</g>
			<g>
				<path fill="#005C84" d="M352.801,183.854c0-0.905,0.098-1.632,0.281-2.184c0.186-0.55,0.46-0.976,0.83-1.274
					c0.365-0.299,0.825-0.449,1.384-0.449c0.411,0,0.771,0.082,1.08,0.249c0.307,0.164,0.562,0.402,0.767,0.716
					c0.201,0.31,0.358,0.688,0.476,1.135c0.113,0.446,0.172,1.049,0.172,1.808c0,0.898-0.094,1.621-0.278,2.17
					c-0.186,0.554-0.46,0.979-0.825,1.278c-0.367,0.302-0.829,0.451-1.39,0.451c-0.739,0-1.316-0.263-1.737-0.791
					C353.055,186.326,352.801,185.288,352.801,183.854z M353.766,183.854c0,1.255,0.148,2.089,0.44,2.502
					c0.298,0.418,0.656,0.626,1.09,0.626c0.429,0,0.79-0.208,1.087-0.626c0.295-0.417,0.441-1.251,0.441-2.502
					c0-1.258-0.146-2.094-0.441-2.51c-0.297-0.414-0.664-0.619-1.099-0.619c-0.437,0-0.773,0.182-1.033,0.547
					C353.931,181.737,353.766,182.599,353.766,183.854z"/>
			</g>
			<g>
				<path fill="#005C84" d="M358.742,183.854c0-0.905,0.093-1.632,0.281-2.184c0.187-0.55,0.46-0.976,0.825-1.274
					c0.366-0.298,0.83-0.449,1.384-0.449c0.411,0,0.771,0.082,1.078,0.249c0.311,0.164,0.567,0.402,0.767,0.716
					c0.204,0.31,0.366,0.688,0.479,1.135c0.113,0.446,0.171,1.049,0.171,1.808c0,0.898-0.092,1.621-0.272,2.17
					c-0.187,0.554-0.462,0.979-0.832,1.278c-0.365,0.302-0.828,0.451-1.389,0.451c-0.734,0-1.313-0.263-1.732-0.791
					C358.996,186.326,358.742,185.288,358.742,183.854z M359.708,183.854c0,1.255,0.146,2.089,0.441,2.502
					c0.292,0.418,0.653,0.626,1.083,0.626c0.436,0,0.796-0.208,1.088-0.626c0.294-0.417,0.439-1.251,0.439-2.502
					c0-1.258-0.146-2.094-0.439-2.51c-0.292-0.414-0.659-0.619-1.097-0.619c-0.432,0-0.775,0.182-1.032,0.547
					C359.867,181.737,359.708,182.599,359.708,183.854z"/>
			</g>
			<g>
				<path fill="#005C84" d="M322.284,196.776h-0.938v-5.981c-0.224,0.216-0.523,0.434-0.889,0.648
					c-0.365,0.213-0.696,0.376-0.99,0.484v-0.908c0.528-0.249,0.984-0.544,1.378-0.896c0.393-0.352,0.673-0.69,0.836-1.021h0.604
					L322.284,196.776L322.284,196.776z"/>
			</g>
			<g>
				<path fill="#005C84" d="M324.688,193.008c0-0.905,0.094-1.631,0.279-2.183c0.188-0.552,0.463-0.976,0.828-1.276
					c0.369-0.301,0.833-0.448,1.387-0.448c0.411,0,0.771,0.08,1.079,0.246c0.311,0.166,0.564,0.404,0.766,0.716
					c0.204,0.31,0.362,0.69,0.478,1.136c0.114,0.448,0.173,1.049,0.173,1.809c0,0.896-0.094,1.62-0.279,2.171
					c-0.183,0.551-0.458,0.977-0.825,1.279c-0.367,0.298-0.829,0.45-1.39,0.45c-0.732,0-1.313-0.266-1.734-0.792
					C324.939,195.479,324.688,194.444,324.688,193.008z M325.656,193.008c0,1.255,0.143,2.088,0.438,2.505
					c0.294,0.415,0.652,0.624,1.086,0.624c0.433,0,0.796-0.209,1.085-0.626c0.295-0.417,0.439-1.253,0.439-2.503
					c0-1.261-0.146-2.096-0.439-2.508c-0.289-0.417-0.656-0.623-1.094-0.623c-0.433,0-0.775,0.181-1.033,0.546
					C325.815,190.893,325.656,191.752,325.656,193.008z"/>
			</g>
			<g>
				<path fill="#005C84" d="M334.163,196.776h-0.94v-5.981c-0.224,0.216-0.521,0.434-0.888,0.648
					c-0.365,0.213-0.695,0.376-0.987,0.484v-0.908c0.525-0.249,0.983-0.544,1.379-0.896c0.392-0.352,0.667-0.69,0.831-1.021h0.605
					V196.776z"/>
			</g>
			<g>
				<path fill="#005C84" d="M339.313,196.776h-0.94v-5.981c-0.226,0.216-0.521,0.434-0.89,0.648
					c-0.365,0.213-0.696,0.376-0.986,0.484v-0.908c0.522-0.249,0.98-0.544,1.378-0.896c0.392-0.352,0.669-0.69,0.833-1.021h0.605
					V196.776L339.313,196.776z"/>
			</g>
			<g>
				<path fill="#005C84" d="M341.714,193.008c0-0.905,0.092-1.631,0.28-2.183c0.186-0.552,0.462-0.976,0.827-1.276
					c0.369-0.301,0.829-0.448,1.386-0.448c0.412,0,0.771,0.08,1.08,0.246c0.308,0.166,0.563,0.404,0.765,0.716
					c0.203,0.31,0.363,0.69,0.477,1.136c0.111,0.448,0.172,1.049,0.172,1.809c0,0.896-0.093,1.62-0.277,2.171
					c-0.182,0.551-0.455,0.977-0.827,1.279c-0.362,0.298-0.831,0.45-1.388,0.45c-0.735,0-1.313-0.266-1.735-0.792
					C341.968,195.479,341.714,194.444,341.714,193.008z M342.68,193.008c0,1.255,0.146,2.088,0.441,2.505
					c0.294,0.415,0.654,0.624,1.086,0.624c0.436,0,0.796-0.209,1.085-0.626c0.295-0.417,0.442-1.253,0.442-2.503
					c0-1.261-0.147-2.096-0.442-2.508c-0.289-0.417-0.657-0.623-1.097-0.623c-0.43,0-0.776,0.181-1.032,0.546
					C342.845,190.893,342.68,191.752,342.68,193.008z"/>
			</g>
			<g>
				<path fill="#005C84" d="M351.191,196.776h-0.939v-5.981c-0.225,0.216-0.521,0.434-0.891,0.648
					c-0.365,0.213-0.695,0.376-0.987,0.484v-0.908c0.525-0.249,0.985-0.544,1.379-0.896s0.669-0.69,0.834-1.021h0.604V196.776
					L351.191,196.776z"/>
			</g>
			<g>
				<path fill="#005C84" d="M356.339,196.776h-0.939v-5.981c-0.224,0.216-0.522,0.434-0.889,0.648
					c-0.367,0.213-0.698,0.376-0.989,0.484v-0.908c0.524-0.249,0.984-0.544,1.378-0.896c0.396-0.352,0.67-0.69,0.835-1.021h0.604
					V196.776z"/>
			</g>
			<g>
				<path fill="#005C84" d="M358.742,193.008c0-0.905,0.093-1.631,0.281-2.183c0.187-0.552,0.46-0.976,0.825-1.276
					c0.366-0.301,0.83-0.448,1.384-0.448c0.411,0,0.771,0.08,1.078,0.246c0.311,0.166,0.567,0.404,0.767,0.716
					c0.204,0.31,0.366,0.69,0.479,1.136c0.113,0.448,0.171,1.049,0.171,1.809c0,0.896-0.092,1.62-0.272,2.171
					c-0.187,0.551-0.462,0.977-0.832,1.279c-0.365,0.298-0.828,0.45-1.389,0.45c-0.734,0-1.313-0.266-1.732-0.792
					C358.996,195.479,358.742,194.444,358.742,193.008z M359.708,193.008c0,1.255,0.146,2.088,0.441,2.505
					c0.292,0.415,0.653,0.624,1.083,0.624c0.436,0,0.796-0.209,1.088-0.626c0.294-0.417,0.439-1.253,0.439-2.503
					c0-1.261-0.146-2.096-0.439-2.508c-0.292-0.417-0.659-0.623-1.097-0.623c-0.432,0-0.775,0.181-1.032,0.546
					C359.867,190.893,359.708,191.752,359.708,193.008z"/>
			</g>
		</g>
	</g>
	<g>
		<g>
			<g>
				<path fill="#FFFFFF" d="M294.443,311.162h-2.316v-14.788c-0.555,0.526-1.294,1.063-2.201,1.601
					c-0.902,0.524-1.722,0.932-2.443,1.191v-2.245c1.304-0.606,2.438-1.34,3.408-2.215c0.969-0.869,1.656-1.702,2.066-2.528h1.486
					V311.162L294.443,311.162z"/>
			</g>
			<g>
				<path fill="#FFFFFF" d="M300.389,301.839c0-2.237,0.229-4.03,0.693-5.391c0.461-1.372,1.145-2.413,2.048-3.156
					c0.909-0.744,2.054-1.114,3.423-1.114c1.016,0,1.904,0.205,2.669,0.615c0.767,0.411,1.396,0.999,1.896,1.766
					c0.494,0.77,0.892,1.707,1.173,2.814c0.285,1.105,0.421,2.594,0.421,4.466c0,2.213-0.223,4.003-0.682,5.363
					c-0.454,1.362-1.134,2.42-2.042,3.164c-0.903,0.743-2.057,1.118-3.436,1.118c-1.818,0-3.248-0.659-4.287-1.965
					C301.016,307.943,300.389,305.384,300.389,301.839z M302.779,301.839c0,3.097,0.356,5.163,1.086,6.194
					c0.726,1.021,1.619,1.537,2.688,1.537c1.069,0,1.963-0.518,2.685-1.543c0.729-1.035,1.088-3.098,1.088-6.188
					c0-3.11-0.358-5.181-1.088-6.2c-0.722-1.029-1.622-1.537-2.709-1.537c-1.065,0-1.919,0.449-2.552,1.354
					C303.176,296.609,302.779,298.732,302.779,301.839z"/>
			</g>
			<g>
				<path fill="#FFFFFF" d="M323.813,311.162h-2.315v-14.788c-0.557,0.526-1.298,1.063-2.203,1.601
					c-0.903,0.524-1.719,0.932-2.438,1.191v-2.245c1.296-0.606,2.433-1.34,3.403-2.215c0.967-0.869,1.658-1.702,2.06-2.528h1.496
					v18.984H323.813z"/>
			</g>
			<g>
				<path fill="#FFFFFF" d="M329.758,301.839c0-2.237,0.229-4.03,0.689-5.391c0.462-1.372,1.139-2.413,2.049-3.156
					c0.907-0.744,2.046-1.114,3.419-1.114c1.013,0,1.912,0.205,2.677,0.615c0.76,0.411,1.392,0.999,1.887,1.766
					c0.503,0.77,0.896,1.707,1.182,2.814c0.279,1.105,0.421,2.594,0.421,4.466c0,2.213-0.229,4.003-0.688,5.363
					c-0.445,1.362-1.134,2.42-2.042,3.164c-0.904,0.743-2.051,1.118-3.437,1.118c-1.814,0-3.245-0.659-4.284-1.965
					C330.378,307.943,329.758,305.384,329.758,301.839z M332.142,301.839c0,3.097,0.362,5.163,1.094,6.194
					c0.727,1.021,1.617,1.537,2.681,1.537c1.072,0,1.97-0.518,2.691-1.543c0.729-1.035,1.084-3.098,1.084-6.188
					c0-3.11-0.355-5.181-1.084-6.2c-0.723-1.029-1.626-1.537-2.713-1.537c-1.063,0-1.925,0.449-2.557,1.354
					C332.543,296.609,332.142,298.732,332.142,301.839z"/>
			</g>
			<g>
				<path fill="#FFFFFF" d="M353.179,311.162h-2.318v-14.788c-0.558,0.526-1.295,1.063-2.199,1.601
					c-0.902,0.524-1.721,0.932-2.44,1.191v-2.245c1.297-0.606,2.433-1.34,3.402-2.215c0.969-0.869,1.66-1.702,2.063-2.528h1.492
					V311.162z"/>
			</g>
			<g>
				<path fill="#FFFFFF" d="M365.906,311.162h-2.323v-14.788c-0.554,0.526-1.288,1.063-2.197,1.601
					c-0.902,0.524-1.725,0.932-2.442,1.191v-2.245c1.299-0.606,2.432-1.34,3.405-2.215c0.974-0.869,1.657-1.702,2.063-2.528h1.495
					L365.906,311.162L365.906,311.162z"/>
			</g>
			<g>
				<path fill="#FFFFFF" d="M285.706,324.471c0-2.24,0.233-4.037,0.69-5.4c0.455-1.359,1.146-2.412,2.049-3.149
					c0.908-0.741,2.049-1.106,3.428-1.106c1.012,0,1.898,0.203,2.666,0.61c0.766,0.408,1.398,0.998,1.895,1.771
					c0.498,0.771,0.89,1.701,1.174,2.808c0.283,1.103,0.425,2.595,0.425,4.47c0,2.219-0.229,4.006-0.679,5.364
					c-0.461,1.366-1.143,2.417-2.043,3.157c-0.912,0.744-2.056,1.117-3.438,1.117c-1.831,0-3.259-0.65-4.301-1.953
					C286.328,330.578,285.706,328.018,285.706,324.471z M288.089,324.471c0,3.1,0.365,5.166,1.089,6.184
					c0.735,1.035,1.629,1.549,2.695,1.549c1.063,0,1.959-0.514,2.688-1.549c0.722-1.026,1.086-3.088,1.086-6.184
					c0-3.117-0.364-5.179-1.086-6.205c-0.729-1.024-1.631-1.529-2.716-1.529c-1.069,0-1.919,0.449-2.555,1.354
					C288.488,319.236,288.089,321.367,288.089,324.471z"/>
			</g>
			<g>
				<path fill="#FFFFFF" d="M309.126,333.787h-2.316V319c-0.56,0.532-1.288,1.064-2.193,1.6c-0.913,0.535-1.72,0.93-2.446,1.193
					v-2.236c1.303-0.611,2.434-1.352,3.4-2.216c0.972-0.873,1.665-1.714,2.063-2.526h1.494L309.126,333.787L309.126,333.787z"/>
			</g>
			<g>
				<path fill="#FFFFFF" d="M321.853,333.787h-2.317V319c-0.563,0.532-1.29,1.064-2.192,1.6c-0.912,0.535-1.725,0.93-2.448,1.193
					v-2.236c1.298-0.611,2.434-1.352,3.404-2.216c0.966-0.873,1.659-1.714,2.061-2.526h1.494L321.853,333.787L321.853,333.787z"/>
			</g>
			<g>
				<path fill="#FFFFFF" d="M327.799,324.471c0-2.24,0.233-4.037,0.688-5.4c0.456-1.359,1.145-2.412,2.053-3.149
					c0.904-0.741,2.041-1.106,3.421-1.106c1.014,0,1.896,0.203,2.67,0.61c0.762,0.408,1.392,0.998,1.896,1.771
					c0.492,0.771,0.887,1.701,1.165,2.808c0.286,1.103,0.431,2.595,0.431,4.47c0,2.219-0.229,4.006-0.682,5.364
					c-0.455,1.366-1.144,2.417-2.043,3.157c-0.907,0.744-2.053,1.117-3.437,1.117c-1.826,0-3.255-0.65-4.296-1.953
					C328.418,330.578,327.799,328.018,327.799,324.471z M330.179,324.471c0,3.1,0.366,5.166,1.097,6.184
					c0.722,1.035,1.614,1.549,2.687,1.549c1.063,0,1.954-0.514,2.686-1.549c0.728-1.026,1.094-3.088,1.094-6.184
					c0-3.117-0.366-5.179-1.094-6.205c-0.73-1.024-1.635-1.529-2.71-1.529c-1.072,0-1.921,0.449-2.554,1.354
					C330.583,319.236,330.179,321.367,330.179,324.471z"/>
			</g>
			<g>
				<path fill="#FFFFFF" d="M351.22,333.787H348.9V319c-0.56,0.532-1.287,1.064-2.193,1.6c-0.908,0.535-1.725,0.93-2.445,1.193
					v-2.236c1.296-0.611,2.432-1.352,3.402-2.216c0.968-0.873,1.659-1.714,2.063-2.526h1.494L351.22,333.787L351.22,333.787z"/>
			</g>
			<g>
				<path fill="#FFFFFF" d="M363.943,333.787h-2.316V319c-0.562,0.532-1.296,1.064-2.201,1.6c-0.902,0.535-1.721,0.93-2.441,1.193
					v-2.236c1.298-0.611,2.436-1.352,3.403-2.216c0.972-0.873,1.659-1.714,2.063-2.526h1.494L363.943,333.787L363.943,333.787z"/>
			</g>
			<g>
				<path fill="#FFFFFF" d="M294.443,356.414h-2.316v-14.785c-0.555,0.534-1.294,1.07-2.201,1.604
					c-0.902,0.525-1.722,0.933-2.443,1.195v-2.246c1.304-0.608,2.438-1.345,3.408-2.217c0.969-0.861,1.656-1.706,2.066-2.525h1.486
					V356.414L294.443,356.414z"/>
			</g>
			<g>
				<path fill="#FFFFFF" d="M300.389,347.094c0-2.229,0.229-4.025,0.693-5.394c0.461-1.362,1.145-2.41,2.048-3.146
					c0.909-0.75,2.054-1.115,3.423-1.115c1.016,0,1.904,0.201,2.669,0.611c0.767,0.407,1.396,0.999,1.896,1.768
					c0.494,0.769,0.892,1.709,1.173,2.81c0.285,1.106,0.421,2.597,0.421,4.467c0,2.218-0.223,4.013-0.682,5.373
					c-0.454,1.363-1.134,2.413-2.042,3.161c-0.903,0.736-2.057,1.113-3.436,1.113c-1.818,0-3.248-0.656-4.287-1.96
					C301.016,353.206,300.389,350.645,300.389,347.094z M302.779,347.094c0,3.106,0.356,5.17,1.086,6.199
					c0.726,1.023,1.619,1.539,2.688,1.539c1.069,0,1.963-0.516,2.685-1.545c0.729-1.033,1.088-3.1,1.088-6.193
					c0-3.111-0.358-5.171-1.088-6.191c-0.722-1.035-1.622-1.539-2.709-1.539c-1.065,0-1.919,0.443-2.552,1.349
					C303.176,341.872,302.779,343.989,302.779,347.094z"/>
			</g>
			<g>
				<path fill="#FFFFFF" d="M323.813,356.414h-2.315v-14.785c-0.557,0.534-1.298,1.07-2.203,1.604
					c-0.903,0.525-1.719,0.933-2.438,1.195v-2.246c1.296-0.608,2.433-1.345,3.403-2.217c0.967-0.861,1.658-1.706,2.06-2.525h1.496
					v18.975H323.813z"/>
			</g>
			<g>
				<path fill="#FFFFFF" d="M336.541,356.414h-2.325v-14.785c-0.557,0.534-1.288,1.07-2.2,1.604c-0.9,0.525-1.719,0.933-2.438,1.195
					v-2.246c1.298-0.608,2.434-1.345,3.403-2.217c0.977-0.861,1.662-1.706,2.063-2.525h1.499L336.541,356.414L336.541,356.414z"/>
			</g>
			<g>
				<path fill="#FFFFFF" d="M342.481,347.094c0-2.229,0.226-4.025,0.688-5.394c0.464-1.362,1.143-2.41,2.046-3.146
					c0.91-0.75,2.055-1.115,3.423-1.115c1.021,0,1.912,0.201,2.675,0.611c0.76,0.407,1.394,0.999,1.891,1.768
					c0.502,0.769,0.896,1.709,1.179,2.81c0.278,1.106,0.424,2.597,0.424,4.467c0,2.218-0.23,4.013-0.688,5.373
					c-0.451,1.363-1.13,2.413-2.044,3.161c-0.903,0.736-2.047,1.113-3.435,1.113c-1.815,0-3.249-0.656-4.287-1.96
					C343.101,353.206,342.481,350.645,342.481,347.094z M344.866,347.094c0,3.106,0.357,5.17,1.093,6.199
					c0.719,1.023,1.619,1.539,2.679,1.539c1.073,0,1.97-0.516,2.688-1.545c0.728-1.033,1.096-3.1,1.096-6.193
					c0-3.111-0.368-5.171-1.096-6.191c-0.721-1.035-1.625-1.539-2.707-1.539c-1.064,0-1.926,0.443-2.554,1.349
					C345.266,341.872,344.866,343.989,344.866,347.094z"/>
			</g>
			<g>
				<path fill="#FFFFFF" d="M365.906,356.414h-2.323v-14.785c-0.554,0.534-1.288,1.07-2.197,1.604
					c-0.902,0.525-1.725,0.933-2.442,1.195v-2.246c1.299-0.608,2.432-1.345,3.405-2.217c0.974-0.861,1.657-1.706,2.063-2.525h1.495
					L365.906,356.414L365.906,356.414z"/>
			</g>
		</g>
		<g>
			<g>
				<path fill="#103754" d="M380.35,380.516c1.287,1.969,0.734,4.607-1.237,5.896l-6.088,3.983c-1.971,1.283-4.608,0.729-5.899-1.24
					l-20.677-31.643c-1.286-1.971-0.732-4.613,1.232-5.896l6.096-3.984c1.967-1.285,4.607-0.729,5.896,1.239L380.35,380.516z"/>
			</g>
			<g>
				<path fill="#F2A71E" d="M337.813,358.786c-10.103,0-19.479-5.109-25.066-13.665c-9.01-13.786-5.322-32.201,8.217-41.051
					c4.718-3.077,10.19-4.707,15.83-4.707c10.104,0,19.475,5.109,25.065,13.666c9.009,13.787,5.322,32.201-8.217,41.05
					C348.924,357.156,343.451,358.786,337.813,358.786z M336.792,306.909c-4.17,0-8.217,1.206-11.702,3.479
					c-10.056,6.573-12.76,20.305-6.025,30.606c4.189,6.412,11.2,10.243,18.747,10.243c4.172,0,8.219-1.2,11.7-3.479
					c10.06-6.572,12.763-20.302,6.027-30.604C351.346,310.74,344.34,306.909,336.792,306.909z"/>
			</g>
		</g>
	</g>
	<g>
		<path fill="#FFFFFF" d="M228.135,384.02c-0.326,0-0.641-0.176-0.805-0.483c-0.238-0.444-0.069-0.998,0.377-1.231
			c1.589-0.848,3.138-1.777,4.595-2.766c0.414-0.286,0.984-0.178,1.266,0.24c0.282,0.416,0.176,0.984-0.243,1.267
			c-1.511,1.024-3.113,1.992-4.764,2.865C228.426,383.984,228.277,384.02,228.135,384.02z M237.149,377.882
			c-0.256,0-0.511-0.108-0.69-0.317c-0.329-0.381-0.285-0.957,0.097-1.285c1.349-1.164,2.646-2.418,3.848-3.723
			c0.341-0.367,0.921-0.394,1.288-0.055c0.372,0.344,0.395,0.921,0.055,1.291c-1.253,1.354-2.598,2.657-4.003,3.869
			C237.573,377.811,237.363,377.882,237.149,377.882z M244.546,369.866c-0.19,0-0.377-0.058-0.539-0.179
			c-0.407-0.295-0.496-0.867-0.197-1.271c1.038-1.412,2.026-2.923,2.94-4.49c0.254-0.437,0.814-0.582,1.248-0.326
			c0.432,0.252,0.581,0.812,0.326,1.244c-0.945,1.623-1.969,3.188-3.044,4.651C245.101,369.738,244.824,369.866,244.546,369.866z
			 M250.05,360.448c-0.126,0-0.257-0.027-0.377-0.087c-0.458-0.211-0.66-0.75-0.45-1.207c0.735-1.592,1.419-3.271,2.036-4.992
			c0.171-0.473,0.691-0.719,1.168-0.551c0.474,0.172,0.72,0.693,0.55,1.168c-0.636,1.77-1.34,3.5-2.098,5.137
			C250.727,360.249,250.394,360.448,250.05,360.448z M253.768,350.168c-0.082,0-0.162-0.014-0.24-0.031
			c-0.484-0.135-0.771-0.636-0.639-1.123c0.465-1.697,0.885-3.468,1.248-5.261c0.102-0.489,0.579-0.805,1.074-0.711
			c0.495,0.101,0.813,0.581,0.713,1.076c-0.373,1.831-0.802,3.64-1.279,5.38C254.534,349.9,254.166,350.168,253.768,350.168z
			 M255.956,339.459c-0.043,0-0.086-0.005-0.127-0.01c-0.499-0.071-0.847-0.531-0.777-1.03c0.251-1.771,0.455-3.582,0.615-5.39
			c0.041-0.5,0.496-0.873,0.987-0.827c0.501,0.044,0.869,0.485,0.826,0.989c-0.162,1.836-0.373,3.679-0.623,5.479
			C256.791,339.129,256.4,339.459,255.956,339.459z M256.927,328.563c-0.012,0-0.026,0-0.038-0.002
			c-0.5-0.02-0.895-0.443-0.873-0.947c0.072-1.785,0.109-3.572,0.109-5.363c0-0.505,0.405-0.945,0.91-0.945
			c0.502,0,0.91,0.373,0.91,0.877v0.068c0,1.814-0.035,3.63-0.108,5.436C257.814,328.176,257.413,328.563,256.927,328.563z"/>
	</g>
</g>
</svg>
