<?xml version="1.0" encoding="utf-8"?>
<!-- Generator: Adobe Illustrator 16.0.0, SVG Export Plug-In . SVG Version: 6.00 Build 0)  -->
<!DOCTYPE svg PUBLIC "-//W3C//DTD SVG 1.1//EN" "http://www.w3.org/Graphics/SVG/1.1/DTD/svg11.dtd">
<svg version="1.1" xmlns="http://www.w3.org/2000/svg" xmlns:xlink="http://www.w3.org/1999/xlink" x="0px" y="0px"
	 width="428.667px" height="181.667px" viewBox="0 0 428.667 181.667" enable-background="new 0 0 428.667 181.667"
	 xml:space="preserve">
<g id="BACKGROUND" display="none">
	<rect x="-38.333" y="-237.333" display="inline" fill="#FFF3F7" width="500" height="500"/>
</g>
<g id="Layer_4">
	<g>
		<path fill="#6F96C1" stroke="#231F20" stroke-width="2" stroke-miterlimit="10" d="M328.126,172.345H95.923
			c-4.368,0-7.91-3.541-7.91-7.909V15.283c0-4.369,3.542-7.91,7.91-7.91h232.204c4.368,0,7.909,3.542,7.909,7.91v149.152
			C336.036,168.804,332.495,172.345,328.126,172.345z"/>
	</g>
	<g>
		<g>
			
				<line fill="none" stroke="#FFF3F7" stroke-width="2" stroke-miterlimit="10" x1="223.074" y1="53.834" x2="223.074" y2="63.917"/>
			
				<line fill="none" stroke="#FFF3F7" stroke-width="2" stroke-miterlimit="10" x1="218.032" y1="58.875" x2="228.116" y2="58.875"/>
		</g>
		<g>
			
				<line fill="none" stroke="#FFF3F7" stroke-width="2" stroke-miterlimit="10" x1="272.064" y1="45.245" x2="272.064" y2="55.328"/>
			
				<line fill="none" stroke="#FFF3F7" stroke-width="2" stroke-miterlimit="10" x1="267.022" y1="50.287" x2="277.106" y2="50.287"/>
		</g>
		<g>
			
				<line fill="none" stroke="#FFF3F7" stroke-width="2" stroke-miterlimit="10" x1="293.363" y1="79.455" x2="293.363" y2="89.538"/>
			
				<line fill="none" stroke="#FFF3F7" stroke-width="2" stroke-miterlimit="10" x1="288.321" y1="84.497" x2="298.405" y2="84.497"/>
		</g>
		<g>
			
				<line fill="none" stroke="#FFF3F7" stroke-width="2" stroke-miterlimit="10" x1="203.905" y1="79.455" x2="203.905" y2="89.538"/>
			
				<line fill="none" stroke="#FFF3F7" stroke-width="2" stroke-miterlimit="10" x1="198.863" y1="84.497" x2="208.946" y2="84.497"/>
		</g>
		<g>
			
				<line fill="none" stroke="#FFF3F7" stroke-width="2" stroke-miterlimit="10" x1="136.837" y1="37.922" x2="136.837" y2="48.005"/>
			
				<line fill="none" stroke="#FFF3F7" stroke-width="2" stroke-miterlimit="10" x1="131.795" y1="42.963" x2="141.879" y2="42.963"/>
		</g>
		<g>
			
				<line fill="none" stroke="#FFF3F7" stroke-width="2" stroke-miterlimit="10" x1="157.901" y1="67.522" x2="157.901" y2="77.606"/>
			<line fill="none" stroke="#FFF3F7" stroke-width="2" stroke-miterlimit="10" x1="152.86" y1="72.564" x2="162.943" y2="72.564"/>
		</g>
		<g>
			
				<line fill="none" stroke="#FFF3F7" stroke-width="2" stroke-miterlimit="10" x1="141.879" y1="130.372" x2="141.879" y2="140.455"/>
			
				<line fill="none" stroke="#FFF3F7" stroke-width="2" stroke-miterlimit="10" x1="136.837" y1="135.413" x2="146.92" y2="135.413"/>
		</g>
	</g>
	<g>
		<path fill="#6F96C1" stroke="#231F20" stroke-width="2" stroke-miterlimit="10" d="M350.312,163.022H73.738
			c-2.093,0-3.79,1.697-3.79,3.79v5.532c0,5.148,4.173,9.322,9.322,9.322h265.508c5.148,0,9.322-4.174,9.322-9.322v-5.532
			C354.101,164.72,352.405,163.022,350.312,163.022z"/>
		
			<line fill="none" stroke="#231F20" stroke-width="2" stroke-miterlimit="10" x1="141.879" y1="172.345" x2="328.126" y2="172.345"/>
		<line fill="none" stroke="#231F20" stroke-width="2" stroke-miterlimit="10" x1="7.971" y1="181.667" x2="379.242" y2="181.667"/>
		<line fill="none" stroke="#231F20" stroke-width="2" stroke-miterlimit="10" x1="391" y1="181.667" x2="423" y2="181.667"/>
		<circle fill="#FFFFFF" stroke="#231F20" stroke-width="2" stroke-miterlimit="10" cx="119.25" cy="172.641" r="3.25"/>
		<circle fill="#FFFFFF" stroke="#231F20" stroke-width="2" stroke-miterlimit="10" cx="107.5" cy="172.345" r="3.25"/>
		<circle fill="#FFFFFF" stroke="#231F20" stroke-width="2" stroke-miterlimit="10" cx="212.024" cy="11.432" r="1.667"/>
	</g>
	<path fill="#E5BC55" stroke="#231F20" stroke-width="2" stroke-miterlimit="10" d="M96.488,23.063"/>
	<path fill="#E5BC55" d="M435-61.333"/>
	<path fill="#FFFFFF" stroke="#231F20" stroke-width="2" stroke-miterlimit="10" d="M320.216,160.331H103.833
		c-4.056,0-7.345-3.089-7.345-6.898V22.893c0-3.811,3.289-6.898,7.345-6.898h216.384c4.057,0,7.345,3.088,7.345,6.898v130.54
		C327.561,157.242,324.273,160.331,320.216,160.331z"/>
</g>
<g id="OBJECTS">
	<g>
		<defs>
			<path id="SVGID_1_" d="M97.333,24.735c0,0,1.5-6.482,6.167-6.153l217.167-0.165c0,0,7.167,0.988,5.667,8.397l0.167,135.187
				H97.333V24.735z"/>
		</defs>
		<clipPath id="SVGID_2_">
			<use xlink:href="#SVGID_1_"  overflow="visible"/>
		</clipPath>
		<rect x="133.667" y="17.667" clip-path="url(#SVGID_2_)" fill="#FFFFFF" width="156" height="141"/>
		<g clip-path="url(#SVGID_2_)">
			<g>
				<path fill="#E6EDEF" d="M276.472,93.173h-5.268c-1.425,0-3.086-1.157-3.629-2.528c-0.502-1.271-1.092-2.535-1.752-3.761
					c-0.701-1.302-0.443-3.166,0.564-4.07l3.749-3.367c2.628-2.356,2.628-6.195,0-8.553l-6.086-5.464
					c-1.272-1.142-2.965-1.772-4.764-1.772c-1.8,0-3.491,0.631-4.763,1.772l-3.751,3.366c-0.602,0.541-1.604,0.862-2.68,0.862
					c-0.674,0-1.315-0.123-1.853-0.356c-1.365-0.594-2.776-1.123-4.194-1.575c-1.526-0.488-2.816-1.979-2.816-3.259v-4.729
					c0-3.334-3.022-6.048-6.737-6.048h-8.608c-3.715,0-6.736,2.714-6.736,6.048v4.729c0,1.28-1.29,2.771-2.816,3.259
					c-1.418,0.451-2.828,0.979-4.191,1.571c-0.529,0.229-1.185,0.356-1.849,0.356c-1.08,0-2.085-0.323-2.688-0.866l-3.744-3.358
					c-1.272-1.143-2.965-1.772-4.764-1.772s-3.492,0.63-4.764,1.771l-6.092,5.466c-1.273,1.143-1.975,2.661-1.975,4.275
					c0,1.616,0.7,3.136,1.973,4.276l3.749,3.367c1.009,0.904,1.268,2.771,0.565,4.073c-0.658,1.223-1.247,2.486-1.749,3.759
					c-0.542,1.37-2.203,2.527-3.628,2.527h-5.267c-3.715,0-6.737,2.715-6.737,6.049v7.729c0,3.334,3.022,6.049,6.737,6.049h5.267
					c1.425,0,3.087,1.157,3.629,2.526c0.501,1.269,1.09,2.533,1.75,3.759c0.701,1.302,0.442,3.168-0.568,4.073l-3.749,3.366
					c-2.626,2.359-2.626,6.195,0,8.554l6.094,5.473c1.272,1.143,2.964,1.771,4.764,1.771c1.799,0,3.492-0.629,4.764-1.771
					l3.749-3.366c0.604-0.541,1.609-0.865,2.688-0.865c0.673,0,1.313,0.123,1.85,0.356c1.364,0.592,2.772,1.12,4.187,1.571
					c1.526,0.488,2.816,1.978,2.816,3.258v4.729c0,3.336,3.021,6.049,6.736,6.049h8.609c3.716,0,6.737-2.713,6.737-6.049v-4.729
					c0-1.28,1.289-2.77,2.816-3.258c1.417-0.451,2.826-0.979,4.189-1.57c0.529-0.23,1.187-0.356,1.85-0.356
					c1.08,0,2.084,0.323,2.688,0.864l3.751,3.367c1.271,1.143,2.962,1.771,4.762,1.771s3.492-0.629,4.766-1.771l6.087-5.47
					c2.626-2.358,2.626-6.197,0-8.555l-3.748-3.365c-1.006-0.903-1.265-2.771-0.563-4.072c0.659-1.224,1.248-2.488,1.75-3.761
					c0.542-1.37,2.202-2.527,3.628-2.527h5.267c3.715,0,6.738-2.714,6.738-6.049v-7.728
					C283.208,95.887,280.186,93.173,276.472,93.173z M247.933,103.086c0,9.773-8.856,17.725-19.744,17.725
					c-10.887,0-19.743-7.951-19.743-17.725s8.856-17.726,19.743-17.726C239.077,85.36,247.933,93.312,247.933,103.086z"/>
				<path fill="#E6EDEF" d="M187.369,54.369c0.128-0.322,0.554-0.593,0.754-0.593h2.638c2.477,0,4.492-1.81,4.492-4.034v-3.863
					c0-2.224-2.015-4.032-4.492-4.032h-2.637c-0.2,0-0.626-0.271-0.753-0.593c-0.265-0.671-0.575-1.339-0.924-1.981
					c-0.162-0.303-0.077-0.759,0.064-0.884l1.875-1.684c1.751-1.572,1.751-4.131,0-5.701l-3.043-2.733
					c-0.847-0.762-1.976-1.181-3.175-1.181c-1.2,0-2.328,0.42-3.176,1.183l-1.875,1.683c-0.059,0.052-0.259,0.136-0.547,0.136
					c-0.164,0-0.323-0.028-0.436-0.077c-0.72-0.313-1.462-0.592-2.208-0.829c-0.359-0.114-0.662-0.497-0.662-0.678v-2.368
					c0-2.223-2.015-4.031-4.491-4.031h-4.304c-2.476,0-4.492,1.809-4.492,4.031v2.368c0,0.182-0.302,0.563-0.661,0.677
					c-0.75,0.238-1.493,0.518-2.209,0.83c-0.114,0.049-0.273,0.077-0.437,0.077c-0.288,0-0.488-0.084-0.547-0.136l-1.875-1.683
					c-0.848-0.763-1.976-1.182-3.176-1.182c-1.2,0-2.327,0.419-3.176,1.182l-3.043,2.731c-1.75,1.571-1.75,4.13,0,5.703l1.875,1.683
					c0.141,0.125,0.228,0.58,0.065,0.883c-0.347,0.645-0.658,1.312-0.923,1.981c-0.127,0.322-0.554,0.595-0.754,0.595h-2.638
					c-2.476,0-4.491,1.808-4.491,4.031v3.865c0,2.222,2.014,4.031,4.49,4.031h2.638c0.201,0,0.627,0.271,0.754,0.593
					c0.265,0.672,0.576,1.338,0.924,1.983c0.163,0.302,0.077,0.756-0.064,0.883l-1.875,1.684c-0.848,0.761-1.315,1.773-1.315,2.853
					c0,1.075,0.467,2.088,1.315,2.85l3.043,2.731c0.849,0.761,1.977,1.182,3.176,1.182c1.2,0,2.327-0.421,3.175-1.182l1.875-1.684
					c0.059-0.053,0.259-0.136,0.548-0.136c0.164,0,0.322,0.028,0.436,0.077c0.72,0.313,1.462,0.592,2.208,0.83
					c0.359,0.113,0.662,0.496,0.662,0.675v2.369c0,2.224,2.016,4.032,4.492,4.032h4.304c2.477,0,4.491-1.809,4.491-4.032v-2.368
					c0-0.18,0.303-0.562,0.661-0.676c0.746-0.238,1.489-0.518,2.208-0.829c0.114-0.049,0.273-0.078,0.437-0.078
					c0.288,0,0.488,0.084,0.547,0.137l1.875,1.683c0.848,0.762,1.976,1.182,3.176,1.182s2.328-0.42,3.175-1.182l3.043-2.731
					c1.751-1.572,1.751-4.129,0-5.702l-1.874-1.683c-0.141-0.127-0.228-0.582-0.065-0.883
					C186.795,55.705,187.105,55.038,187.369,54.369z M175.369,47.811c0,4.331-3.925,7.854-8.749,7.854
					c-4.825,0-8.75-3.522-8.75-7.854c0-4.331,3.925-7.854,8.75-7.854C171.443,39.956,175.369,43.479,175.369,47.811z"/>
			</g>
		</g>
		<path clip-path="url(#SVGID_2_)" fill="#AFD648" d="M242.833,64.229c-0.191-0.298-0.299-0.642-0.295-1.007
			c0.015-1.108,1.05-1.996,2.313-1.983l0.097,0.004c0.249-0.485,0.919-0.829,1.704-0.822c0.882,0.01,1.608,0.46,1.749,1.045
			c0.151-0.017,0.309-0.025,0.467-0.023c0.519,0.005,1.003,0.11,1.417,0.285c0.319-0.465,0.896-0.772,1.55-0.766
			c0.714,0.008,1.325,0.389,1.609,0.933c0.38-0.208,0.835-0.328,1.32-0.323c1.339,0.015,2.413,0.961,2.398,2.117
			c-0.008,0.654-0.364,1.235-0.914,1.611c0.218,0.272,0.343,0.602,0.339,0.956c-0.012,0.922-0.906,1.66-1.998,1.649
			c-0.205-0.002-0.588-0.082-0.588-0.082c-0.854,1.232-3.257,0.653-3.051,0.436c-2.716,2.865-5.652,2.508-5.722,2.482
			c1.156-0.247,1.779-1.094,2.266-2.13c-0.313,0.093-0.651,0.145-1.007,0.141c-0.963-0.011-1.804-0.409-2.281-1.005
			c-0.284,0.092-0.599,0.14-0.926,0.136c-1.313-0.012-2.368-0.851-2.355-1.869C240.937,65.126,241.754,64.395,242.833,64.229z"/>
		<g clip-path="url(#SVGID_2_)">
			<path fill="#002B59" d="M268.421,104.1h-37.455c-0.514,0-0.938,0.311-0.938,0.771v23.205c0,0.461,0.424,0.889,0.938,0.889h37.457
				c0.513,0,0.844-0.428,0.844-0.889V104.87C269.267,104.41,268.934,104.1,268.421,104.1z"/>
			<path fill="#FFFFFF" d="M267.667,126.099c0,0.507-0.738,0.568-1.27,0.568h-33.266c-0.531,0-1.465-0.062-1.465-0.568v-19.273
				c0-0.505,0.934-0.158,1.465-0.158h33.266c0.531,0,1.27-0.347,1.27,0.158V126.099z"/>
			<path fill="#002B59" d="M272.588,131.433c0,0.193-0.174,0.351-0.391,0.351h-45.25c-0.216,0-0.39-0.157-0.39-0.351v-1.357
				c0-0.193,0.174-0.349,0.39-0.349h45.25c0.217,0,0.391,0.155,0.391,0.349V131.433z"/>
		</g>
		<g clip-path="url(#SVGID_2_)">
			<path fill="#002B59" d="M149.398,35.724l-0.011,16.547c-0.001,1.043,0.938,1.884,2.099,1.885l26.729,0.014
				c1.157,0.001,2.101-0.838,2.101-1.882l0.011-16.546c0.001-1.04-0.94-1.886-2.099-1.886L151.5,33.843
				C150.34,33.841,149.399,34.685,149.398,35.724z"/>
			<ellipse fill="#FFFFFF" cx="178.288" cy="44.013" rx="1.247" ry="1.119"/>
			
				<rect x="155.682" y="31.99" transform="matrix(6.805221e-004 -1 1 6.805221e-004 119.8162 207.9075)" fill="#FFFFFF" width="16.502" height="24.031"/>
		</g>
		<path clip-path="url(#SVGID_2_)" fill="#003160" d="M233.419,51.311c0,0.229-0.206,0.415-0.461,0.415h-13.154
			c-0.255,0-0.462-0.186-0.462-0.415V35.289c0-0.229,0.207-0.413,0.462-0.413h13.154c0.255,0,0.461,0.184,0.461,0.413V51.311z"/>
		<rect x="220.667" y="36.667" clip-path="url(#SVGID_2_)" fill="#FFFFFF" width="12" height="14"/>
		<path clip-path="url(#SVGID_2_)" fill="#00C0D1" d="M227.38,35.428c0,0,0.038-1.229-1.038-1.229s-1,1.229-1,1.229h-1.807v1.588
			h5.615v-1.588H227.38z M226.342,34.554c0.631-0.002,0.607,0.771,0.603,0.874l-1.188-0.005
			C225.721,34.499,226.342,34.554,226.342,34.554z"/>
		<g clip-path="url(#SVGID_2_)">
			<rect x="223.667" y="38.667" fill="#003160" width="7" height="0"/>
		</g>
		<g clip-path="url(#SVGID_2_)">
			<rect x="223.667" y="41.667" fill="#003160" width="7" height="0"/>
		</g>
		<g clip-path="url(#SVGID_2_)">
			<rect x="224.271" y="43.667" fill="#003160" width="6.321" height="0"/>
		</g>
		<g clip-path="url(#SVGID_2_)">
			<rect x="223.667" y="45.667" fill="#003160" width="7" height="1"/>
		</g>
		<path clip-path="url(#SVGID_2_)" fill="#AFD648" d="M223.128,38.693l-0.686,0.515l-0.229-0.245
			c-0.064-0.068-0.177-0.076-0.254-0.02c-0.074,0.058-0.085,0.158-0.021,0.226l0.345,0.369c0.063,0.069,0.176,0.077,0.253,0.021
			l0.822-0.62c0.076-0.057,0.086-0.157,0.021-0.227C223.317,38.645,223.204,38.636,223.128,38.693z"/>
		<path clip-path="url(#SVGID_2_)" fill="#AFD648" d="M223.128,41.316l-0.686,0.518l-0.229-0.247
			c-0.064-0.067-0.177-0.077-0.254-0.021c-0.074,0.058-0.085,0.159-0.021,0.228l0.345,0.369c0.063,0.067,0.176,0.077,0.253,0.019
			l0.822-0.619c0.076-0.058,0.086-0.158,0.021-0.226C223.317,41.269,223.204,41.26,223.128,41.316z"/>
		<path clip-path="url(#SVGID_2_)" fill="#AFD648" d="M223.128,43.733l-0.686,0.517l-0.229-0.246
			c-0.064-0.067-0.177-0.076-0.254-0.02c-0.074,0.057-0.085,0.158-0.021,0.226l0.345,0.369c0.063,0.07,0.176,0.078,0.253,0.021
			l0.822-0.62c0.076-0.058,0.086-0.157,0.021-0.226C223.317,43.686,223.204,43.677,223.128,43.733z"/>
		<path clip-path="url(#SVGID_2_)" fill="#AFD648" d="M223.113,46.182l-0.685,0.517l-0.23-0.246
			c-0.064-0.068-0.176-0.076-0.254-0.02c-0.074,0.058-0.084,0.157-0.021,0.227l0.346,0.369c0.063,0.068,0.176,0.077,0.252,0.021
			l0.822-0.621c0.077-0.057,0.086-0.158,0.023-0.227C223.301,46.134,223.188,46.125,223.113,46.182z"/>
		<g clip-path="url(#SVGID_2_)">
			<path fill="#002B59" d="M175.424,104.544l-18.432-0.011c-1.162-0.001-2.098,0.843-2.098,1.886l-0.016,23.995
				c0,1.04,0.934,1.887,2.097,1.887l18.432,0.01c1.158,0.001,2.098-0.845,2.099-1.884l0.016-23.995
				C177.523,105.389,176.583,104.544,175.424,104.544z"/>
			<ellipse fill="#FFFFFF" cx="166.193" cy="130.479" rx="1.248" ry="1.12"/>
			<rect x="157.011" y="106.805" fill="#FFFFFF" width="18.38" height="21.573"/>
		</g>
		<path id="MobileMe_13_" clip-path="url(#SVGID_2_)" fill="#AFD648" d="M206.392,52.278c0,1.318-1.182,2.388-2.639,2.388h-8.165
			c-1.457,0-2.638-1.069-2.638-2.388c0-1.191,0.963-2.176,2.223-2.356c-0.016-0.084-0.024-0.17-0.024-0.259
			c0-0.836,0.749-1.512,1.672-1.512c0.412,0,0.79,0.134,1.081,0.358c0.519-1.058,1.184-2.023,3.051-2.023
			c2.264,0,3.338,1.579,3.338,3.246c0,0.07-0.003,0.139-0.009,0.209C205.486,50.162,206.392,51.125,206.392,52.278z"/>
		<path id="MobileMe_15_" clip-path="url(#SVGID_2_)" fill="#AFD648" d="M213.383,125.337c0,2.176-1.952,3.941-4.359,3.941H195.54
			c-2.407,0-4.358-1.766-4.358-3.941c0-1.968,1.591-3.597,3.672-3.895c-0.026-0.138-0.041-0.279-0.041-0.426
			c0-1.38,1.236-2.497,2.762-2.497c0.68,0,1.304,0.222,1.785,0.592c0.857-1.747,1.956-3.344,5.04-3.344
			c3.74,0,5.512,2.609,5.512,5.364c0,0.115-0.005,0.229-0.014,0.342C211.887,121.84,213.383,123.429,213.383,125.337z"/>
		<path id="MobileMe_14_" clip-path="url(#SVGID_2_)" fill="#00C0D1" d="M249.044,92.712c0,2.145,1.922,3.883,4.293,3.883h13.282
			c2.37,0,4.292-1.738,4.292-3.883c0-1.937-1.566-3.541-3.618-3.835c0.026-0.137,0.041-0.275,0.041-0.42
			c0-1.358-1.218-2.46-2.721-2.46c-0.671,0-1.284,0.22-1.758,0.584c-0.844-1.721-1.928-3.293-4.964-3.293
			c-3.685,0-5.43,2.57-5.43,5.282c0,0.113,0.005,0.227,0.013,0.337C250.518,89.269,249.044,90.834,249.044,92.712z"/>
		<g clip-path="url(#SVGID_2_)">
			<g>
				<rect x="261.777" y="56.775" fill="none" width="1.264" height="1.135"/>
				<g>
					<ellipse fill="#003653" cx="262.554" cy="57.352" rx="0.573" ry="0.515"/>
				</g>
			</g>
			<g>
				<rect x="261.777" y="58.667" fill="none" width="1.264" height="1.136"/>
				<g>
					<ellipse fill="#003653" cx="262.546" cy="59.203" rx="0.573" ry="0.514"/>
				</g>
			</g>
			<g>
				<rect x="261.777" y="60.56" fill="none" width="1.264" height="1.135"/>
				<g>
					<ellipse fill="#003653" cx="262.539" cy="61.056" rx="0.573" ry="0.515"/>
				</g>
			</g>
			<g>
				<rect x="261.777" y="62.45" fill="none" width="1.264" height="0.757"/>
				<g>
					<ellipse fill="#003653" cx="262.53" cy="62.908" rx="0.573" ry="0.516"/>
				</g>
			</g>
			<g>
				<rect x="261.777" y="64.343" fill="none" width="1.264" height="0.755"/>
				<g>
					<ellipse fill="#003653" cx="262.522" cy="64.76" rx="0.573" ry="0.516"/>
				</g>
			</g>
			<g>
				<rect x="261.777" y="66.233" fill="none" width="1.264" height="0.757"/>
				<g>
					<ellipse fill="#003653" cx="262.513" cy="66.611" rx="0.573" ry="0.516"/>
				</g>
			</g>
			<g>
				<rect x="261.777" y="68.126" fill="none" width="1.264" height="0.756"/>
				<g>
					<ellipse fill="#003653" cx="262.506" cy="68.464" rx="0.573" ry="0.515"/>
				</g>
			</g>
			<g>
				<rect x="261.777" y="69.639" fill="none" width="1.264" height="1.136"/>
				<g>
					<ellipse fill="#003653" cx="262.498" cy="70.314" rx="0.573" ry="0.513"/>
				</g>
			</g>
			<g>
				<rect x="261.777" y="71.53" fill="none" width="1.264" height="1.135"/>
				<g>
					<path fill="#003653" d="M263.063,72.166c0-0.282-0.256-0.513-0.573-0.513c-0.315,0-0.573,0.23-0.573,0.513
						c0,0.286,0.258,0.516,0.573,0.516C262.807,72.682,263.063,72.452,263.063,72.166z"/>
				</g>
			</g>
			<g>
				<rect x="261.777" y="73.422" fill="none" width="1.264" height="1.135"/>
				<g>
					<ellipse fill="#003653" cx="262.482" cy="74.019" rx="0.573" ry="0.514"/>
				</g>
			</g>
			<g>
				<rect x="261.777" y="75.314" fill="none" width="1.264" height="1.134"/>
				<g>
					<ellipse fill="#003653" cx="262.474" cy="75.871" rx="0.572" ry="0.515"/>
				</g>
			</g>
			<g>
				<rect x="261.777" y="77.205" fill="none" width="1.264" height="1.136"/>
				<g>
					<ellipse fill="#003653" cx="262.466" cy="77.724" rx="0.573" ry="0.515"/>
				</g>
			</g>
			<g>
				<rect x="259.669" y="77.205" fill="none" width="1.265" height="1.136"/>
				<g>
					<ellipse fill="#003653" cx="260.454" cy="77.769" rx="0.573" ry="0.515"/>
				</g>
			</g>
			<g>
				<rect x="257.985" y="77.205" fill="none" width="0.842" height="1.136"/>
				<g>
					<ellipse fill="#003653" cx="258.391" cy="77.769" rx="0.573" ry="0.515"/>
				</g>
			</g>
			<g>
				<rect x="255.877" y="77.205" fill="none" width="0.843" height="1.136"/>
				<g>
					<ellipse fill="#003653" cx="256.329" cy="77.769" rx="0.573" ry="0.515"/>
				</g>
			</g>
			<g>
				<rect x="253.771" y="77.205" fill="none" width="0.842" height="1.136"/>
				<g>
					<ellipse fill="#003653" cx="254.266" cy="77.769" rx="0.573" ry="0.515"/>
				</g>
			</g>
			<g>
				<rect x="251.663" y="77.205" fill="none" width="0.843" height="1.136"/>
				<g>
					<ellipse fill="#003653" cx="252.202" cy="77.769" rx="0.573" ry="0.515"/>
				</g>
			</g>
			<g>
				<rect x="249.556" y="77.205" fill="none" width="0.842" height="1.136"/>
				<g>
					<ellipse fill="#003653" cx="250.14" cy="77.769" rx="0.573" ry="0.515"/>
				</g>
			</g>
			<g>
				<rect x="247.449" y="77.205" fill="none" width="1.265" height="1.136"/>
				<g>
					<ellipse fill="#003653" cx="248.077" cy="77.769" rx="0.573" ry="0.515"/>
				</g>
			</g>
			<g>
				<rect x="245.342" y="77.205" fill="none" width="1.264" height="1.136"/>
				<g>
					<ellipse fill="#003653" cx="246.014" cy="77.769" rx="0.572" ry="0.515"/>
				</g>
			</g>
			<g>
				<rect x="243.235" y="77.205" fill="none" width="1.264" height="1.136"/>
				<g>
					<ellipse fill="#003653" cx="243.951" cy="77.769" rx="0.573" ry="0.515"/>
				</g>
			</g>
			<g>
				<rect x="241.127" y="77.205" fill="none" width="1.264" height="1.136"/>
				<g>
					<ellipse fill="#003653" cx="241.888" cy="77.769" rx="0.573" ry="0.515"/>
				</g>
			</g>
			<g>
				<rect x="239.02" y="77.205" fill="none" width="1.265" height="1.136"/>
				<g>
					<ellipse fill="#003653" cx="239.826" cy="77.769" rx="0.573" ry="0.515"/>
				</g>
			</g>
			<g>
				<rect x="237.334" y="77.205" fill="none" width="0.843" height="1.136"/>
				<g>
					<ellipse fill="#003653" cx="237.763" cy="77.769" rx="0.573" ry="0.515"/>
				</g>
			</g>
		</g>
		<g clip-path="url(#SVGID_2_)">
			<path fill="#002B59" d="M234.687,63.782H189.6c-0.617,0-1.235,0.319-1.235,0.873v27.934c0,0.554,0.618,0.971,1.235,0.971h16.84
				c0,0,0.011,2.582,0.015,2.582h-2.321c-0.566,0-1.025,0.386-1.025,0.893c0,0.508,0.459,0.895,1.025,0.895h16.582
				c0.565,0,1.024-0.386,1.024-0.895c0-0.507-0.459-0.893-1.024-0.893h-2.398c0.004,0-0.023-2.582-0.023-2.582h16.396
				c0.616,0,1.219-0.417,1.219-0.971V64.655C235.909,64.102,235.305,63.782,234.687,63.782z"/>
			<path fill="#FFFFFF" d="M233.667,89.095c0,0.582-0.524,1.572-1.172,1.572h-40.656c-0.647,0-1.172-0.99-1.172-1.572V66.962
				c0-0.582,0.525-1.295,1.172-1.295h40.656c0.647,0,1.172,0.713,1.172,1.295V89.095z"/>
		</g>
		<g clip-path="url(#SVGID_2_)">
			<path fill="#003653" d="M267.407,34.792h-9.703c-0.928,0-1.678,0.674-1.678,1.508v17.686c0,0.831,0.75,1.507,1.678,1.507h9.703
				c0.927,0,1.678-0.676,1.678-1.507V36.3C269.083,35.466,268.333,34.792,267.407,34.792z"/>
			<rect x="257.286" y="37.335" fill="#FFFFFF" width="10.541" height="14.229"/>
			<polygon fill="#FFFFFF" points="264.804,36.321 260.306,36.321 260.306,35.882 264.805,35.882 264.805,36.321 			"/>
			<ellipse fill="#FFFFFF" cx="266.299" cy="36.121" rx="0.431" ry="0.385"/>
			<rect x="260.505" y="52.754" fill="#FFFFFF" width="4.097" height="1.131"/>
		</g>
		<path clip-path="url(#SVGID_2_)" fill="none" stroke="#002B59" stroke-width="3" stroke-miterlimit="10" d="M180.335,44.246
			h24.448c0,0,4.871-0.173,4.871,4.285v15.176"/>
		<rect x="179.857" y="42.702" clip-path="url(#SVGID_2_)" fill="#002B59" width="1.146" height="2.744"/>
		<rect x="187.879" y="67.908" clip-path="url(#SVGID_2_)" fill="#002B59" width="1.146" height="2.744"/>
		<path clip-path="url(#SVGID_2_)" fill="#003653" d="M244.337,45.954v-3.196l0,0c-1.968,0-3.561,1.431-3.561,3.195
			c0,0.885,0.398,1.685,1.047,2.264l2.52-2.263H244.337z"/>
		<path clip-path="url(#SVGID_2_)" fill="#003653" d="M242.123,48.598c0.646,0.576,1.533,0.935,2.514,0.935
			c1.967,0,3.561-1.432,3.562-3.195h-3.554L242.123,48.598z"/>
		<path clip-path="url(#SVGID_2_)" fill="#00C0D1" d="M244.814,42.758v3.196h3.559v-0.001
			C248.373,44.188,246.779,42.758,244.814,42.758z"/>
		<path clip-path="url(#SVGID_2_)" fill="#AFD648" d="M156.793,96.589l2.001,3.111c-0.539,0.24-1.142,0.379-1.784,0.379
			c-2.216,0-4.013-1.612-4.013-3.603c0-1.913,1.663-3.474,3.762-3.59v3.59C156.759,96.516,156.771,96.555,156.793,96.589z"/>
		<path clip-path="url(#SVGID_2_)" fill="#002B59" d="M157.224,92.887v3.4h3.786C160.885,94.402,159.325,92.997,157.224,92.887z
			 M157.796,93.402c1.337,0.262,2.347,1.171,2.638,2.371h-2.638V93.402z"/>
		<path clip-path="url(#SVGID_2_)" fill="#002B59" d="M159.229,99.477c1.015-0.606,1.701-1.616,1.78-2.776h-3.565L159.229,99.477z"
			/>
		<path clip-path="url(#SVGID_2_)" fill="#002B59" d="M171.045,75.046c0.269-0.663,0.821-1.234,1.589-1.556l1.296,2.501
			L171.045,75.046z"/>
		<path clip-path="url(#SVGID_2_)" fill="#002B59" d="M173.323,74.072l1.297,2.499l-2.887-0.944
			c-0.269,0.664-0.256,1.419,0.102,2.109c0.716,1.38,2.543,1.979,4.082,1.336s2.205-2.284,1.489-3.663
			C176.689,74.027,174.861,73.429,173.323,74.072z"/>
		<polygon clip-path="url(#SVGID_2_)" fill="#00C0D1" points="225.291,108.765 225.291,109.17 218.079,109.17 218.079,102.695 
			218.53,102.695 218.53,108.765 		"/>
		<polygon clip-path="url(#SVGID_2_)" fill="#AFD648" points="221.303,104.943 223.144,105.356 223.782,104.402 224.358,104.715 
			224.389,103.101 222.817,103.883 223.394,104.194 222.93,104.892 221.165,104.496 219.271,106.194 219.59,106.48 		"/>
		<polygon clip-path="url(#SVGID_2_)" fill="#00C0D1" points="220.784,108.359 221.685,108.359 221.685,105.445 221.442,105.392 
			220.784,105.981 		"/>
		<polygon clip-path="url(#SVGID_2_)" fill="#00C0D1" points="219.432,106.91 219.432,108.359 220.333,108.359 220.333,106.387 
			219.59,107.053 		"/>
		<polygon clip-path="url(#SVGID_2_)" fill="#00C0D1" points="223.487,105.63 223.487,108.359 224.389,108.359 224.389,105.201 
			223.936,104.959 		"/>
		<polygon clip-path="url(#SVGID_2_)" fill="#00C0D1" points="223.038,108.359 223.038,105.748 222.135,105.547 222.135,108.359 		
			"/>
		<path clip-path="url(#SVGID_2_)" fill="none" stroke="#002B59" stroke-width="3" stroke-miterlimit="10" d="M187.88,69.28h-16.903
			c-4.966,0-4.775,4.372-4.775,4.372v21.95l-0.001,9.722"/>
		<rect x="164.004" y="103.747" clip-path="url(#SVGID_2_)" fill="#002B59" width="4.584" height="1.543"/>
		<path clip-path="url(#SVGID_2_)" fill="none" stroke="#002B59" stroke-width="3" stroke-miterlimit="10" d="M231.141,115.665
			l-13.656-0.002c0,0-4.87,0.172-4.87-4.285V96.201"/>
		<rect x="229.135" y="114.208" clip-path="url(#SVGID_2_)" fill="#002B59" width="1.529" height="3.085"/>
		<rect x="193.705" y="69.195" clip-path="url(#SVGID_2_)" fill="#00C0D1" width="37.055" height="4.972"/>
		<rect x="234.005" y="109.663" clip-path="url(#SVGID_2_)" fill="#002B59" width="30.879" height="3.173"/>
		<rect x="234.667" y="113.667" clip-path="url(#SVGID_2_)" fill="#A0A0A0" width="30" height="2"/>
		<rect x="257.882" y="38.158" clip-path="url(#SVGID_2_)" fill="#00C0D1" width="9.264" height="8.928"/>
		<rect x="257.882" y="47.812" clip-path="url(#SVGID_2_)" fill="#AFD648" width="9.264" height="3.189"/>
		<rect x="193.667" y="85.667" clip-path="url(#SVGID_2_)" fill="#A0A0A0" width="28" height="2"/>
		<rect x="152.667" y="48.667" clip-path="url(#SVGID_2_)" fill="#A0A0A0" width="22" height="1"/>
		<rect x="222.667" y="85.667" clip-path="url(#SVGID_2_)" fill="#A0A0A0" width="8" height="2"/>
		<rect x="193.705" y="75.107" clip-path="url(#SVGID_2_)" fill="#AFD648" width="8.184" height="5.114"/>
		<rect x="166.392" y="117.977" clip-path="url(#SVGID_2_)" fill="#AFD648" width="7.801" height="5.49"/>
		<rect x="203.329" y="75.107" clip-path="url(#SVGID_2_)" fill="#AFD648" width="8.184" height="5.114"/>
		<rect x="212.953" y="75.107" clip-path="url(#SVGID_2_)" fill="#AFD648" width="8.184" height="5.114"/>
		<rect x="222.577" y="75.107" clip-path="url(#SVGID_2_)" fill="#AFD648" width="8.183" height="5.114"/>
		<rect x="158.179" y="108.635" clip-path="url(#SVGID_2_)" fill="#002B59" width="16.044" height="1.885"/>
		<rect x="158.198" y="123.667" clip-path="url(#SVGID_2_)" fill="#A0A0A0" width="16.099" height="0"/>
		<rect x="157.667" y="124.667" clip-path="url(#SVGID_2_)" fill="#A0A0A0" width="17" height="2"/>
		<rect x="153.149" y="37.497" clip-path="url(#SVGID_2_)" fill="#002B59" width="21.471" height="2.754"/>
		<rect x="158.179" y="111.378" clip-path="url(#SVGID_2_)" fill="#00C0D1" width="7.64" height="5.659"/>
		<polygon clip-path="url(#SVGID_2_)" fill="#00C0D1" points="237.667,91.101 237.667,88.101 239.53,89.602 		"/>
		<polygon clip-path="url(#SVGID_2_)" fill="#00C0D1" points="240.667,91.101 240.667,88.101 242.529,89.602 		"/>
		<polygon clip-path="url(#SVGID_2_)" fill="#00C0D1" points="243.667,91.101 243.667,88.101 245.528,89.602 		"/>
		<polygon clip-path="url(#SVGID_2_)" fill="#AFD648" points="197.932,54.447 201.272,54.447 199.603,56.12 		"/>
		<polygon clip-path="url(#SVGID_2_)" fill="#AFD648" points="197.932,57.535 201.272,57.535 199.603,59.207 		"/>
		<polygon clip-path="url(#SVGID_2_)" fill="#AFD648" points="197.932,60.62 201.272,60.62 199.603,62.292 		"/>
		<polygon clip-path="url(#SVGID_2_)" fill="#AFD648" points="178.807,124.022 178.807,121.023 180.669,122.524 		"/>
		<polygon clip-path="url(#SVGID_2_)" fill="#AFD648" points="182.245,124.022 182.245,121.023 184.107,122.524 		"/>
		<polygon clip-path="url(#SVGID_2_)" fill="#AFD648" points="185.683,124.022 185.683,121.023 187.545,122.524 		"/>
		<g clip-path="url(#SVGID_2_)">
			<g>
				<path fill="#00C0D1" d="M193.93,36.218h-1.879v2.177c0,0.317-0.288,0.573-0.64,0.573h-2.893v0.729
					c0,0.181,0.164,0.328,0.366,0.328h2.842l1.188,0.892c0.155,0.116,0.238,0.068,0.187-0.106l-0.232-0.78
					c-0.001,0-0.001-0.002-0.002-0.005h1.064c0.202,0,0.366-0.147,0.366-0.328v-3.15C194.295,36.364,194.132,36.218,193.93,36.218z"
					/>
				<path fill="#00C0D1" d="M186.365,38.724h0.559c-0.001,0.001-0.001,0.003-0.002,0.004l-0.232,0.779
					c-0.033,0.11-0.012,0.17,0.047,0.17c0.035,0,0.082-0.021,0.139-0.063l1.188-0.89h0.455h2.893c0.202,0,0.366-0.148,0.366-0.329
					v-2.177v-0.976c0-0.181-0.164-0.329-0.366-0.329h-5.046c-0.203,0-0.367,0.148-0.367,0.329v3.152
					C185.999,38.575,186.163,38.724,186.365,38.724z"/>
			</g>
		</g>
		<path clip-path="url(#SVGID_2_)" fill="#FFFFFF" d="M257.346,93.588c0.018,0.012,0.439,0.286,1.179,0.53
			c0.071,0.025,0.145,0.048,0.214,0.067c0.074,0.028,0.149,0.056,0.226,0.08c0.695,0.231,1.274,0.28,1.285,0.281
			c0.355-0.011,0.602-0.138,0.692-0.361l2.063-5.013c0.104-0.253-0.036-0.533-0.313-0.625l0,0c-0.053-0.025-0.546-0.255-1.371-0.529
			l-0.102-0.031c-0.94-0.306-1.386-0.388-1.385-0.387c-0.282-0.093-0.596,0.036-0.701,0.29l-2.063,5.014
			C256.962,93.17,257.068,93.433,257.346,93.588z M258.005,91.966l0.072,0.07c0.042,0.039,0.053,0.121,0.027,0.184
			c-0.026,0.063-0.048,0.113-0.048,0.113c-0.014,0.036-0.054,0.049-0.09,0.028l-0.095-0.055c-0.035-0.021-0.053-0.064-0.039-0.102
			l0.093-0.223C257.94,91.946,257.976,91.939,258.005,91.966z M258.011,91.773l0.093-0.223c0.015-0.034,0.049-0.041,0.079-0.016
			l0.072,0.07c0.041,0.038,0.054,0.119,0.027,0.183c-0.026,0.063-0.047,0.115-0.047,0.115c-0.015,0.034-0.056,0.047-0.091,0.026
			l-0.097-0.055C258.015,91.854,257.998,91.811,258.011,91.773z M257.89,92.772c-0.016,0.037-0.057,0.048-0.091,0.027l-0.096-0.056
			c-0.035-0.019-0.052-0.064-0.037-0.1l0.091-0.225c0.016-0.033,0.051-0.041,0.08-0.014l0.073,0.069
			c0.04,0.037,0.053,0.12,0.026,0.182C257.911,92.723,257.89,92.772,257.89,92.772z M258.375,92.148l0.073,0.067
			c0.042,0.038,0.054,0.121,0.026,0.186c-0.025,0.063-0.047,0.112-0.047,0.112c-0.015,0.036-0.054,0.048-0.09,0.028l-0.096-0.055
			c-0.034-0.021-0.052-0.066-0.038-0.101l0.092-0.224C258.312,92.127,258.347,92.121,258.375,92.148z M258.382,91.955l0.092-0.224
			c0.016-0.035,0.05-0.041,0.079-0.016l0.072,0.068c0.042,0.038,0.053,0.122,0.027,0.185c-0.026,0.063-0.047,0.115-0.047,0.115
			c-0.015,0.035-0.056,0.047-0.09,0.026l-0.098-0.055C258.384,92.034,258.369,91.99,258.382,91.955z M258.26,92.954
			c-0.015,0.034-0.055,0.047-0.09,0.025l-0.098-0.054c-0.033-0.021-0.05-0.065-0.036-0.102l0.092-0.223
			c0.016-0.035,0.05-0.041,0.08-0.016l0.071,0.069c0.042,0.039,0.053,0.121,0.027,0.185C258.281,92.901,258.26,92.954,258.26,92.954
			z M258.753,92.317l0.073,0.069c0.04,0.038,0.052,0.12,0.026,0.185c-0.026,0.062-0.047,0.113-0.047,0.113
			c-0.015,0.035-0.055,0.048-0.09,0.027l-0.096-0.057c-0.036-0.019-0.053-0.065-0.037-0.099l0.092-0.226
			C258.689,92.297,258.724,92.291,258.753,92.317z M258.76,92.125l0.093-0.225c0.014-0.035,0.049-0.042,0.078-0.014l0.073,0.068
			c0.04,0.039,0.052,0.12,0.025,0.184c-0.025,0.063-0.046,0.114-0.046,0.114c-0.015,0.035-0.056,0.048-0.09,0.027l-0.096-0.055
			C258.762,92.205,258.746,92.16,258.76,92.125z M258.637,93.124c-0.014,0.034-0.054,0.047-0.09,0.025l-0.096-0.054
			c-0.035-0.021-0.052-0.065-0.037-0.102l0.093-0.223c0.013-0.036,0.049-0.041,0.077-0.016l0.074,0.068
			c0.04,0.04,0.051,0.121,0.025,0.186C258.659,93.071,258.637,93.124,258.637,93.124z M259.137,92.478l0.073,0.068
			c0.041,0.039,0.053,0.12,0.026,0.186c-0.026,0.062-0.047,0.112-0.047,0.112c-0.014,0.036-0.055,0.049-0.09,0.027l-0.096-0.055
			c-0.035-0.02-0.053-0.064-0.038-0.101l0.093-0.223C259.073,92.457,259.109,92.451,259.137,92.478z M259.144,92.284l0.092-0.223
			c0.015-0.036,0.051-0.042,0.079-0.016l0.073,0.069c0.041,0.038,0.054,0.119,0.026,0.184c-0.026,0.063-0.047,0.114-0.047,0.114
			c-0.015,0.035-0.056,0.048-0.09,0.027l-0.097-0.054C259.147,92.364,259.13,92.32,259.144,92.284z M259.022,93.283
			c-0.015,0.036-0.056,0.048-0.091,0.026l-0.096-0.055c-0.034-0.021-0.051-0.064-0.037-0.101l0.093-0.224
			c0.015-0.034,0.05-0.041,0.078-0.015l0.073,0.068c0.041,0.039,0.053,0.121,0.026,0.185S259.022,93.283,259.022,93.283z
			 M259.512,91.781c0.04-0.095,0.158-0.145,0.266-0.109c0.106,0.035,0.162,0.142,0.122,0.238c-0.041,0.096-0.158,0.145-0.266,0.109
			C259.528,91.984,259.472,91.878,259.512,91.781z M259.448,93.37c-0.014,0.035-0.059,0.06-0.101,0.056l-0.112-0.015
			c-0.041-0.005-0.063-0.038-0.05-0.073c0,0,0.021-0.051,0.048-0.115c0.025-0.063,0.095-0.118,0.153-0.123l0.105-0.011
			c0.042-0.003,0.064,0.023,0.049,0.058L259.448,93.37z M259.638,92.938c-0.014,0.036-0.06,0.061-0.102,0.056l-0.111-0.014
			c-0.042-0.006-0.063-0.039-0.05-0.073c0,0,0.021-0.051,0.048-0.114c0.024-0.064,0.094-0.119,0.152-0.125l0.105-0.01
			c0.042-0.004,0.063,0.022,0.049,0.058L259.638,92.938L259.638,92.938z M259.816,92.507c-0.015,0.035-0.061,0.061-0.102,0.055
			l-0.112-0.013c-0.041-0.007-0.063-0.04-0.05-0.074c0,0,0.021-0.052,0.048-0.115c0.025-0.063,0.095-0.117,0.153-0.124l0.105-0.009
			c0.041-0.003,0.063,0.022,0.049,0.057L259.816,92.507L259.816,92.507z M259.857,93.473c-0.015,0.036-0.061,0.06-0.102,0.056
			l-0.112-0.016c-0.042-0.004-0.063-0.037-0.05-0.072c0,0,0.021-0.052,0.048-0.115c0.025-0.063,0.095-0.118,0.153-0.123l0.105-0.01
			c0.042-0.005,0.063,0.021,0.048,0.057L259.857,93.473L259.857,93.473z M260.046,93.042c-0.014,0.034-0.061,0.059-0.103,0.054
			l-0.111-0.015c-0.042-0.005-0.063-0.037-0.049-0.073c0,0,0.021-0.05,0.047-0.114c0.026-0.063,0.095-0.119,0.153-0.123l0.105-0.01
			c0.041-0.005,0.063,0.021,0.049,0.056L260.046,93.042L260.046,93.042z M260.224,92.609c-0.016,0.035-0.061,0.06-0.102,0.055
			l-0.113-0.014c-0.041-0.005-0.063-0.038-0.049-0.073c0,0,0.021-0.052,0.048-0.114c0.026-0.063,0.095-0.12,0.153-0.124l0.105-0.01
			c0.041-0.003,0.063,0.021,0.049,0.058L260.224,92.609L260.224,92.609z M260.267,93.563c-0.017,0.036-0.061,0.06-0.102,0.054
			l-0.112-0.012c-0.042-0.006-0.063-0.039-0.049-0.073c0,0,0.021-0.053,0.047-0.116c0.025-0.063,0.095-0.117,0.152-0.122l0.105-0.01
			c0.042-0.004,0.063,0.021,0.049,0.056L260.267,93.563z M260.457,93.133c-0.017,0.034-0.061,0.06-0.102,0.054l-0.112-0.014
			c-0.042-0.005-0.063-0.037-0.05-0.073c0,0,0.021-0.051,0.047-0.115c0.027-0.063,0.096-0.117,0.154-0.123l0.104-0.01
			c0.042-0.003,0.063,0.023,0.05,0.056L260.457,93.133L260.457,93.133z M260.634,92.701c-0.016,0.035-0.061,0.06-0.102,0.054
			l-0.113-0.014c-0.042-0.005-0.063-0.037-0.048-0.073c0,0,0.021-0.05,0.047-0.114c0.025-0.063,0.094-0.118,0.152-0.124l0.105-0.01
			c0.042-0.003,0.063,0.022,0.05,0.057L260.634,92.701L260.634,92.701z M260.678,93.643c-0.015,0.037-0.061,0.061-0.101,0.055
			l-0.113-0.014c-0.041-0.004-0.063-0.037-0.048-0.073c0,0,0.021-0.051,0.046-0.114c0.026-0.063,0.095-0.119,0.152-0.123l0.107-0.01
			c0.041-0.005,0.063,0.021,0.049,0.057L260.678,93.643L260.678,93.643z M260.868,93.213c-0.015,0.034-0.06,0.059-0.101,0.053
			l-0.113-0.013c-0.04-0.006-0.063-0.039-0.048-0.074c0,0,0.02-0.051,0.047-0.115c0.025-0.063,0.094-0.118,0.151-0.123l0.108-0.01
			c0.04-0.005,0.063,0.022,0.048,0.057L260.868,93.213L260.868,93.213z M261.045,92.78c-0.014,0.034-0.06,0.06-0.101,0.055
			l-0.112-0.015c-0.042-0.006-0.063-0.038-0.049-0.073c0,0,0.02-0.051,0.047-0.114c0.025-0.062,0.094-0.119,0.152-0.124l0.106-0.01
			c0.041-0.005,0.063,0.022,0.049,0.058L261.045,92.78L261.045,92.78z M260.66,88.374l0.836,0.277
			c0.031,0.011,0.046,0.042,0.035,0.07c-0.012,0.027-0.046,0.042-0.078,0.031l-0.835-0.275c-0.032-0.011-0.048-0.043-0.036-0.07
			C260.593,88.379,260.627,88.364,260.66,88.374z M259.227,88.653l3.154,1.046l-0.897,2.183l-3.153-1.047L259.227,88.653z"/>
		<g clip-path="url(#SVGID_2_)">
			<path fill="#FFFFFF" d="M202.477,51.717h-0.191c-0.052,0-0.112-0.042-0.132-0.092c-0.018-0.047-0.04-0.092-0.064-0.138
				c-0.025-0.047-0.016-0.114,0.021-0.147l0.136-0.123c0.096-0.085,0.096-0.226,0-0.311l-0.222-0.199
				c-0.046-0.042-0.107-0.064-0.173-0.064c-0.065,0-0.126,0.022-0.173,0.064l-0.136,0.122c-0.022,0.021-0.059,0.031-0.098,0.031
				c-0.025,0-0.048-0.004-0.068-0.013c-0.049-0.021-0.101-0.041-0.152-0.058c-0.055-0.018-0.103-0.071-0.103-0.119V50.5
				c0-0.122-0.11-0.222-0.245-0.222h-0.314c-0.135,0-0.245,0.1-0.245,0.222v0.171c0,0.048-0.047,0.102-0.103,0.119
				c-0.052,0.017-0.103,0.036-0.153,0.058c-0.02,0.009-0.043,0.013-0.067,0.013c-0.039,0-0.076-0.012-0.098-0.031l-0.136-0.122
				c-0.046-0.042-0.108-0.064-0.174-0.064c-0.065,0-0.127,0.022-0.173,0.064l-0.222,0.199c-0.046,0.042-0.072,0.096-0.072,0.155
				s0.025,0.114,0.072,0.155l0.137,0.123c0.037,0.033,0.046,0.101,0.021,0.147c-0.024,0.046-0.045,0.091-0.064,0.138
				c-0.02,0.05-0.08,0.092-0.132,0.092h-0.192c-0.135,0-0.246,0.099-0.246,0.222v0.28c0,0.121,0.11,0.219,0.246,0.219h0.192
				c0.052,0,0.112,0.044,0.132,0.093c0.019,0.048,0.04,0.092,0.064,0.139c0.025,0.047,0.016,0.114-0.021,0.146l-0.137,0.122
				c-0.095,0.087-0.095,0.227,0,0.313l0.222,0.199c0.046,0.041,0.108,0.064,0.174,0.064c0.065,0,0.127-0.023,0.173-0.064
				l0.136-0.123c0.021-0.02,0.059-0.031,0.098-0.031c0.024,0,0.047,0.005,0.067,0.015c0.05,0.021,0.101,0.04,0.153,0.057
				c0.055,0.017,0.103,0.07,0.103,0.117v0.173c0,0.121,0.11,0.22,0.245,0.22h0.314c0.135,0,0.245-0.099,0.245-0.22v-0.173
				c0-0.047,0.047-0.101,0.103-0.117c0.052-0.017,0.103-0.036,0.152-0.057c0.02-0.01,0.043-0.015,0.068-0.015
				c0.039,0,0.076,0.012,0.098,0.031l0.136,0.124c0.046,0.04,0.108,0.063,0.173,0.063c0.066,0,0.127-0.023,0.173-0.064l0.223-0.199
				c0.096-0.086,0.096-0.226,0-0.313l-0.136-0.122c-0.037-0.031-0.046-0.1-0.021-0.146c0.024-0.047,0.045-0.091,0.063-0.139
				c0.02-0.049,0.081-0.093,0.132-0.093h0.191c0.135,0,0.246-0.098,0.246-0.219v-0.28C202.723,51.815,202.612,51.717,202.477,51.717
				z M201.438,52.078c0,0.354-0.322,0.645-0.719,0.645c-0.396,0-0.719-0.29-0.719-0.645c0-0.355,0.323-0.646,0.719-0.646
				C201.116,51.433,201.438,51.723,201.438,52.078z"/>
			<path fill="#FFFFFF" d="M199.233,50.305c0.005-0.013,0.021-0.022,0.027-0.022h0.096c0.09,0,0.164-0.065,0.164-0.147v-0.14
				c0-0.082-0.073-0.146-0.164-0.146h-0.096c-0.007,0-0.022-0.01-0.027-0.022c-0.01-0.024-0.021-0.048-0.033-0.071
				c-0.006-0.013-0.003-0.028,0.002-0.033l0.068-0.06c0.063-0.058,0.063-0.152,0-0.209l-0.11-0.099
				c-0.031-0.028-0.072-0.045-0.116-0.045c-0.044,0-0.085,0.017-0.116,0.045l-0.068,0.061c-0.002,0.001-0.01,0.005-0.021,0.005
				c-0.006,0-0.011-0.001-0.015-0.002c-0.027-0.013-0.054-0.023-0.081-0.031c-0.014-0.003-0.024-0.018-0.024-0.023v-0.087
				c0-0.081-0.074-0.146-0.164-0.146h-0.157c-0.09,0-0.164,0.065-0.164,0.146v0.087c0,0.006-0.011,0.021-0.024,0.023
				c-0.027,0.008-0.055,0.019-0.081,0.031c-0.003,0.001-0.009,0.002-0.015,0.002c-0.011,0-0.018-0.004-0.02-0.005l-0.069-0.061
				c-0.031-0.028-0.072-0.045-0.116-0.045c-0.043,0-0.085,0.017-0.115,0.045l-0.111,0.099c-0.064,0.057-0.064,0.151,0,0.209
				l0.068,0.06c0.006,0.005,0.008,0.021,0.002,0.033c-0.012,0.023-0.024,0.047-0.034,0.071c-0.004,0.013-0.02,0.022-0.027,0.022
				h-0.097c-0.09,0-0.164,0.064-0.164,0.146v0.14c0,0.082,0.074,0.147,0.164,0.147h0.097c0.007,0,0.023,0.01,0.027,0.022
				c0.01,0.023,0.021,0.049,0.034,0.071c0.006,0.012,0.003,0.027-0.002,0.032l-0.068,0.062c-0.031,0.028-0.048,0.064-0.048,0.104
				c0,0.039,0.018,0.076,0.048,0.103l0.111,0.1c0.03,0.028,0.072,0.044,0.115,0.044c0.044,0,0.085-0.016,0.116-0.044l0.069-0.061
				c0.001-0.003,0.009-0.006,0.02-0.006c0.006,0,0.012,0.002,0.016,0.003c0.025,0.012,0.053,0.022,0.08,0.031
				c0.013,0.003,0.024,0.018,0.024,0.023v0.086c0,0.082,0.074,0.147,0.164,0.147h0.157c0.09,0,0.164-0.065,0.164-0.147v-0.086
				c0-0.006,0.01-0.021,0.023-0.023c0.027-0.009,0.055-0.02,0.082-0.031c0.004-0.001,0.009-0.003,0.015-0.003
				c0.011,0,0.018,0.003,0.021,0.006l0.068,0.061c0.031,0.028,0.072,0.044,0.116,0.044c0.043,0,0.084-0.016,0.116-0.044l0.11-0.1
				c0.063-0.057,0.063-0.149,0-0.207l-0.068-0.062c-0.005-0.005-0.008-0.021-0.002-0.032
				C199.212,50.353,199.223,50.328,199.233,50.305z M198.796,50.066c0,0.156-0.143,0.284-0.318,0.284
				c-0.175,0-0.319-0.128-0.319-0.284c0-0.158,0.144-0.288,0.319-0.288C198.653,49.778,198.796,49.908,198.796,50.066z"/>
		</g>
		
			<line clip-path="url(#SVGID_2_)" fill="none" stroke="#A0A0A0" stroke-miterlimit="10" x1="193.667" y1="81.167" x2="199.667" y2="81.167"/>
		
			<line clip-path="url(#SVGID_2_)" fill="none" stroke="#A0A0A0" stroke-miterlimit="10" x1="193.667" y1="81.167" x2="199.667" y2="81.167"/>
		
			<line clip-path="url(#SVGID_2_)" fill="none" stroke="#A0A0A0" stroke-miterlimit="10" x1="193.667" y1="82.167" x2="198.667" y2="82.167"/>
		
			<line clip-path="url(#SVGID_2_)" fill="none" stroke="#A0A0A0" stroke-miterlimit="10" x1="193.667" y1="82.167" x2="200.667" y2="82.167"/>
		
			<line clip-path="url(#SVGID_2_)" fill="none" stroke="#A0A0A0" stroke-miterlimit="10" x1="193.667" y1="84.167" x2="200.667" y2="84.167"/>
		
			<line clip-path="url(#SVGID_2_)" fill="none" stroke="#A0A0A0" stroke-miterlimit="10" x1="193.667" y1="85.167" x2="201.667" y2="85.167"/>
		
			<line clip-path="url(#SVGID_2_)" fill="none" stroke="#A0A0A0" stroke-miterlimit="10" x1="212.667" y1="81.167" x2="219.667" y2="81.167"/>
		
			<line clip-path="url(#SVGID_2_)" fill="none" stroke="#A0A0A0" stroke-miterlimit="10" x1="212.667" y1="81.167" x2="219.667" y2="81.167"/>
		
			<line clip-path="url(#SVGID_2_)" fill="none" stroke="#A0A0A0" stroke-miterlimit="10" x1="212.667" y1="82.167" x2="220.667" y2="82.167"/>
		
			<line clip-path="url(#SVGID_2_)" fill="none" stroke="#A0A0A0" stroke-miterlimit="10" x1="212.667" y1="82.167" x2="221.667" y2="82.167"/>
		
			<line clip-path="url(#SVGID_2_)" fill="none" stroke="#A0A0A0" stroke-miterlimit="10" x1="212.667" y1="84.167" x2="220.667" y2="84.167"/>
		
			<line clip-path="url(#SVGID_2_)" fill="none" stroke="#A0A0A0" stroke-miterlimit="10" x1="212.667" y1="85.167" x2="221.667" y2="85.167"/>
		
			<line clip-path="url(#SVGID_2_)" fill="none" stroke="#A0A0A0" stroke-miterlimit="10" x1="203.667" y1="81.167" x2="210.667" y2="81.167"/>
		
			<line clip-path="url(#SVGID_2_)" fill="none" stroke="#A0A0A0" stroke-miterlimit="10" x1="203.667" y1="81.167" x2="209.667" y2="81.167"/>
		
			<line clip-path="url(#SVGID_2_)" fill="none" stroke="#A0A0A0" stroke-miterlimit="10" x1="203.667" y1="82.167" x2="209.667" y2="82.167"/>
		
			<line clip-path="url(#SVGID_2_)" fill="none" stroke="#A0A0A0" stroke-miterlimit="10" x1="203.667" y1="82.167" x2="210.667" y2="82.167"/>
		
			<line clip-path="url(#SVGID_2_)" fill="none" stroke="#A0A0A0" stroke-miterlimit="10" x1="203.667" y1="84.167" x2="210.667" y2="84.167"/>
		
			<line clip-path="url(#SVGID_2_)" fill="none" stroke="#A0A0A0" stroke-miterlimit="10" x1="203.667" y1="85.167" x2="210.667" y2="85.167"/>
		
			<line clip-path="url(#SVGID_2_)" fill="none" stroke="#A0A0A0" stroke-miterlimit="10" x1="166.667" y1="112.167" x2="174.667" y2="112.167"/>
		
			<line clip-path="url(#SVGID_2_)" fill="none" stroke="#A0A0A0" stroke-miterlimit="10" x1="166.667" y1="112.167" x2="174.667" y2="112.167"/>
		
			<line clip-path="url(#SVGID_2_)" fill="none" stroke="#A0A0A0" stroke-miterlimit="10" x1="166.667" y1="112.167" x2="174.667" y2="112.167"/>
		
			<line clip-path="url(#SVGID_2_)" fill="none" stroke="#A0A0A0" stroke-miterlimit="10" x1="166.667" y1="113.167" x2="174.667" y2="113.167"/>
		
			<line clip-path="url(#SVGID_2_)" fill="none" stroke="#A0A0A0" stroke-miterlimit="10" x1="166.667" y1="114.167" x2="174.667" y2="114.167"/>
		
			<line clip-path="url(#SVGID_2_)" fill="none" stroke="#A0A0A0" stroke-miterlimit="10" x1="166.667" y1="115.167" x2="174.667" y2="115.167"/>
		
			<line clip-path="url(#SVGID_2_)" fill="none" stroke="#A0A0A0" stroke-miterlimit="10" x1="166.667" y1="116.167" x2="174.667" y2="116.167"/>
		
			<line clip-path="url(#SVGID_2_)" fill="none" stroke="#A0A0A0" stroke-miterlimit="10" x1="166.667" y1="116.167" x2="174.667" y2="116.167"/>
		
			<line clip-path="url(#SVGID_2_)" fill="none" stroke="#A0A0A0" stroke-miterlimit="10" x1="166.667" y1="117.167" x2="174.667" y2="117.167"/>
		
			<line clip-path="url(#SVGID_2_)" fill="none" stroke="#A0A0A0" stroke-miterlimit="10" x1="152.667" y1="41.167" x2="159.667" y2="41.167"/>
		
			<line clip-path="url(#SVGID_2_)" fill="none" stroke="#A0A0A0" stroke-miterlimit="10" x1="152.667" y1="41.167" x2="159.667" y2="41.167"/>
		
			<line clip-path="url(#SVGID_2_)" fill="none" stroke="#A0A0A0" stroke-miterlimit="10" x1="152.667" y1="42.167" x2="159.667" y2="42.167"/>
		
			<line clip-path="url(#SVGID_2_)" fill="none" stroke="#A0A0A0" stroke-miterlimit="10" x1="152.667" y1="42.167" x2="159.667" y2="42.167"/>
		
			<line clip-path="url(#SVGID_2_)" fill="none" stroke="#A0A0A0" stroke-miterlimit="10" x1="152.667" y1="43.167" x2="159.667" y2="43.167"/>
		
			<line clip-path="url(#SVGID_2_)" fill="none" stroke="#A0A0A0" stroke-miterlimit="10" x1="152.667" y1="44.167" x2="159.667" y2="44.167"/>
		
			<line clip-path="url(#SVGID_2_)" fill="none" stroke="#A0A0A0" stroke-miterlimit="10" x1="152.667" y1="44.167" x2="159.667" y2="44.167"/>
		
			<line clip-path="url(#SVGID_2_)" fill="none" stroke="#A0A0A0" stroke-miterlimit="10" x1="152.667" y1="46.167" x2="159.667" y2="46.167"/>
		
			<line clip-path="url(#SVGID_2_)" fill="none" stroke="#A0A0A0" stroke-miterlimit="10" x1="152.667" y1="46.167" x2="159.667" y2="46.167"/>
		
			<line clip-path="url(#SVGID_2_)" fill="none" stroke="#A0A0A0" stroke-miterlimit="10" x1="160.667" y1="41.167" x2="166.667" y2="41.167"/>
		
			<line clip-path="url(#SVGID_2_)" fill="none" stroke="#A0A0A0" stroke-miterlimit="10" x1="160.667" y1="41.167" x2="166.667" y2="41.167"/>
		
			<line clip-path="url(#SVGID_2_)" fill="none" stroke="#A0A0A0" stroke-miterlimit="10" x1="160.667" y1="42.167" x2="166.667" y2="42.167"/>
		
			<line clip-path="url(#SVGID_2_)" fill="none" stroke="#A0A0A0" stroke-miterlimit="10" x1="160.667" y1="42.167" x2="166.667" y2="42.167"/>
		
			<line clip-path="url(#SVGID_2_)" fill="none" stroke="#A0A0A0" stroke-miterlimit="10" x1="160.667" y1="43.167" x2="166.667" y2="43.167"/>
		
			<line clip-path="url(#SVGID_2_)" fill="none" stroke="#A0A0A0" stroke-miterlimit="10" x1="160.667" y1="44.167" x2="166.667" y2="44.167"/>
		
			<line clip-path="url(#SVGID_2_)" fill="none" stroke="#A0A0A0" stroke-miterlimit="10" x1="160.667" y1="44.167" x2="166.667" y2="44.167"/>
		
			<line clip-path="url(#SVGID_2_)" fill="none" stroke="#A0A0A0" stroke-miterlimit="10" x1="160.667" y1="46.167" x2="166.667" y2="46.167"/>
		
			<line clip-path="url(#SVGID_2_)" fill="none" stroke="#A0A0A0" stroke-miterlimit="10" x1="160.667" y1="46.167" x2="166.667" y2="46.167"/>
		
			<line clip-path="url(#SVGID_2_)" fill="none" stroke="#A0A0A0" stroke-miterlimit="10" x1="234.667" y1="116.167" x2="243.667" y2="116.167"/>
		
			<line clip-path="url(#SVGID_2_)" fill="none" stroke="#A0A0A0" stroke-miterlimit="10" x1="234.667" y1="117.167" x2="243.667" y2="117.167"/>
		
			<line clip-path="url(#SVGID_2_)" fill="none" stroke="#A0A0A0" stroke-miterlimit="10" x1="234.667" y1="118.167" x2="243.667" y2="118.167"/>
		
			<line clip-path="url(#SVGID_2_)" fill="none" stroke="#A0A0A0" stroke-miterlimit="10" x1="234.667" y1="120.167" x2="243.667" y2="120.167"/>
		
			<line clip-path="url(#SVGID_2_)" fill="none" stroke="#A0A0A0" stroke-miterlimit="10" x1="234.667" y1="120.167" x2="243.667" y2="120.167"/>
		
			<line clip-path="url(#SVGID_2_)" fill="none" stroke="#A0A0A0" stroke-miterlimit="10" x1="234.667" y1="120.167" x2="243.667" y2="120.167"/>
		
			<line clip-path="url(#SVGID_2_)" fill="none" stroke="#A0A0A0" stroke-miterlimit="10" x1="234.667" y1="120.167" x2="243.667" y2="120.167"/>
		
			<line clip-path="url(#SVGID_2_)" fill="none" stroke="#A0A0A0" stroke-miterlimit="10" x1="234.667" y1="121.167" x2="243.667" y2="121.167"/>
		
			<line clip-path="url(#SVGID_2_)" fill="none" stroke="#A0A0A0" stroke-miterlimit="10" x1="234.667" y1="121.167" x2="243.667" y2="121.167"/>
		
			<line clip-path="url(#SVGID_2_)" fill="none" stroke="#A0A0A0" stroke-miterlimit="10" x1="244.667" y1="116.167" x2="253.667" y2="116.167"/>
		
			<line clip-path="url(#SVGID_2_)" fill="none" stroke="#A0A0A0" stroke-miterlimit="10" x1="244.667" y1="117.167" x2="253.667" y2="117.167"/>
		
			<line clip-path="url(#SVGID_2_)" fill="none" stroke="#A0A0A0" stroke-miterlimit="10" x1="244.667" y1="118.167" x2="253.667" y2="118.167"/>
		
			<line clip-path="url(#SVGID_2_)" fill="none" stroke="#A0A0A0" stroke-miterlimit="10" x1="244.667" y1="120.167" x2="253.667" y2="120.167"/>
		
			<line clip-path="url(#SVGID_2_)" fill="none" stroke="#A0A0A0" stroke-miterlimit="10" x1="244.667" y1="120.167" x2="253.667" y2="120.167"/>
		
			<line clip-path="url(#SVGID_2_)" fill="none" stroke="#A0A0A0" stroke-miterlimit="10" x1="244.667" y1="120.167" x2="253.667" y2="120.167"/>
		
			<line clip-path="url(#SVGID_2_)" fill="none" stroke="#A0A0A0" stroke-miterlimit="10" x1="244.667" y1="120.167" x2="253.667" y2="120.167"/>
		
			<line clip-path="url(#SVGID_2_)" fill="none" stroke="#A0A0A0" stroke-miterlimit="10" x1="244.667" y1="121.167" x2="253.667" y2="121.167"/>
		
			<line clip-path="url(#SVGID_2_)" fill="none" stroke="#A0A0A0" stroke-miterlimit="10" x1="244.667" y1="121.167" x2="253.667" y2="121.167"/>
		
			<line clip-path="url(#SVGID_2_)" fill="none" stroke="#A0A0A0" stroke-miterlimit="10" x1="255.667" y1="116.167" x2="264.667" y2="116.167"/>
		
			<line clip-path="url(#SVGID_2_)" fill="none" stroke="#A0A0A0" stroke-miterlimit="10" x1="255.667" y1="117.167" x2="264.667" y2="117.167"/>
		
			<line clip-path="url(#SVGID_2_)" fill="none" stroke="#A0A0A0" stroke-miterlimit="10" x1="255.667" y1="118.167" x2="264.667" y2="118.167"/>
		
			<line clip-path="url(#SVGID_2_)" fill="none" stroke="#A0A0A0" stroke-miterlimit="10" x1="255.667" y1="120.167" x2="264.667" y2="120.167"/>
		
			<line clip-path="url(#SVGID_2_)" fill="none" stroke="#A0A0A0" stroke-miterlimit="10" x1="255.667" y1="120.167" x2="264.667" y2="120.167"/>
		
			<line clip-path="url(#SVGID_2_)" fill="none" stroke="#A0A0A0" stroke-miterlimit="10" x1="255.667" y1="120.167" x2="264.667" y2="120.167"/>
		
			<line clip-path="url(#SVGID_2_)" fill="none" stroke="#A0A0A0" stroke-miterlimit="10" x1="255.667" y1="120.167" x2="264.667" y2="120.167"/>
		
			<line clip-path="url(#SVGID_2_)" fill="none" stroke="#A0A0A0" stroke-miterlimit="10" x1="255.667" y1="121.167" x2="264.667" y2="121.167"/>
		
			<line clip-path="url(#SVGID_2_)" fill="none" stroke="#A0A0A0" stroke-miterlimit="10" x1="255.667" y1="121.167" x2="264.667" y2="121.167"/>
		
			<line clip-path="url(#SVGID_2_)" fill="none" stroke="#A0A0A0" stroke-miterlimit="10" x1="168.667" y1="41.167" x2="174.667" y2="41.167"/>
		
			<line clip-path="url(#SVGID_2_)" fill="none" stroke="#A0A0A0" stroke-miterlimit="10" x1="168.667" y1="41.167" x2="174.667" y2="41.167"/>
		
			<line clip-path="url(#SVGID_2_)" fill="none" stroke="#A0A0A0" stroke-miterlimit="10" x1="168.667" y1="42.167" x2="174.667" y2="42.167"/>
		
			<line clip-path="url(#SVGID_2_)" fill="none" stroke="#A0A0A0" stroke-miterlimit="10" x1="168.667" y1="42.167" x2="174.667" y2="42.167"/>
		
			<line clip-path="url(#SVGID_2_)" fill="none" stroke="#A0A0A0" stroke-miterlimit="10" x1="168.667" y1="43.167" x2="174.667" y2="43.167"/>
		
			<line clip-path="url(#SVGID_2_)" fill="none" stroke="#A0A0A0" stroke-miterlimit="10" x1="168.667" y1="44.167" x2="174.667" y2="44.167"/>
		
			<line clip-path="url(#SVGID_2_)" fill="none" stroke="#A0A0A0" stroke-miterlimit="10" x1="168.667" y1="44.167" x2="174.667" y2="44.167"/>
		
			<line clip-path="url(#SVGID_2_)" fill="none" stroke="#A0A0A0" stroke-miterlimit="10" x1="168.667" y1="46.167" x2="174.667" y2="46.167"/>
		
			<line clip-path="url(#SVGID_2_)" fill="none" stroke="#A0A0A0" stroke-miterlimit="10" x1="168.667" y1="46.167" x2="174.667" y2="46.167"/>
		
			<line clip-path="url(#SVGID_2_)" fill="none" stroke="#A0A0A0" stroke-miterlimit="10" x1="157.667" y1="118.167" x2="165.667" y2="118.167"/>
		
			<line clip-path="url(#SVGID_2_)" fill="none" stroke="#A0A0A0" stroke-miterlimit="10" x1="157.667" y1="120.167" x2="165.667" y2="120.167"/>
		
			<line clip-path="url(#SVGID_2_)" fill="none" stroke="#A0A0A0" stroke-miterlimit="10" x1="157.667" y1="120.167" x2="165.667" y2="120.167"/>
		
			<line clip-path="url(#SVGID_2_)" fill="none" stroke="#A0A0A0" stroke-miterlimit="10" x1="157.667" y1="120.167" x2="165.667" y2="120.167"/>
		
			<line clip-path="url(#SVGID_2_)" fill="none" stroke="#A0A0A0" stroke-miterlimit="10" x1="157.667" y1="120.167" x2="165.667" y2="120.167"/>
		
			<line clip-path="url(#SVGID_2_)" fill="none" stroke="#A0A0A0" stroke-miterlimit="10" x1="157.667" y1="121.167" x2="165.667" y2="121.167"/>
		
			<line clip-path="url(#SVGID_2_)" fill="none" stroke="#A0A0A0" stroke-miterlimit="10" x1="157.667" y1="121.167" x2="165.667" y2="121.167"/>
		
			<line clip-path="url(#SVGID_2_)" fill="none" stroke="#A0A0A0" stroke-miterlimit="10" x1="157.667" y1="122.167" x2="165.667" y2="122.167"/>
		
			<line clip-path="url(#SVGID_2_)" fill="none" stroke="#A0A0A0" stroke-miterlimit="10" x1="157.667" y1="123.167" x2="165.667" y2="123.167"/>
		<g clip-path="url(#SVGID_2_)">
			<g>
				<path fill="#002B59" d="M187.739,104.188l1.552-1.757c0.307,0.338,0.693,0.612,1.13,0.804l-1.551,1.758
					c-0.248,0.28-0.702,0.326-1.014,0.104C187.543,104.875,187.491,104.469,187.739,104.188z"/>
				<path fill="#002B59" d="M192.227,103.097c1.583-0.164,2.718-1.449,2.535-2.87c-0.182-1.421-1.614-2.44-3.197-2.276
					c-1.583,0.164-2.718,1.449-2.535,2.87C189.212,102.242,190.644,103.261,192.227,103.097z M189.746,100.747
					c-0.137-1.065,0.716-2.029,1.901-2.153c1.186-0.123,2.262,0.643,2.398,1.708c0.137,1.064-0.716,2.029-1.902,2.151
					C190.958,102.578,189.883,101.811,189.746,100.747z"/>
				<path fill="#002B59" d="M193.567,100.351l-0.477,0.049c-0.076-0.59-0.674-1.016-1.332-0.947l-0.055-0.43
					C192.625,98.928,193.462,99.523,193.567,100.351z"/>
			</g>
		</g>
		<path clip-path="url(#SVGID_2_)" fill="#FFFFFF" d="M198.913,121.597c0-0.741,0.669-1.343,1.496-1.343s1.496,0.602,1.496,1.343
			c0,0.742-0.669,1.343-1.496,1.343S198.913,122.339,198.913,121.597z M201.127,124.63c-0.132-0.19-0.209-0.415-0.209-0.655
			c0-0.364,0.175-0.689,0.451-0.917c-0.106-0.017-0.214-0.026-0.326-0.026h-1.27c-1.056,0-1.915,0.771-1.915,1.719v1.395
			l0.004,0.021l0.107,0.031c0.867,0.243,1.637,0.346,2.293,0.369v-0.636C200.263,125.369,200.613,124.881,201.127,124.63z
			 M204.54,122.939c0.826,0,1.495-0.601,1.495-1.343c0-0.741-0.669-1.343-1.495-1.343c-0.827,0-1.496,0.602-1.496,1.343
			C203.043,122.339,203.713,122.939,204.54,122.939z M205.174,123.031h-1.269c-0.208,0-0.409,0.031-0.598,0.086
			c0.237,0.224,0.383,0.525,0.383,0.857c0,0.24-0.078,0.465-0.21,0.655c0.515,0.251,0.864,0.739,0.864,1.302v0.633
			c0.123,0.004,0.244,0.009,0.36,0.009c1.407,0,2.223-0.361,2.274-0.383l0.1-0.046h0.011v-1.395
			C207.089,123.802,206.23,123.031,205.174,123.031z M201.376,124.02c0,0.461,0.415,0.833,0.928,0.833
			c0.512,0,0.927-0.372,0.927-0.833c0-0.459-0.415-0.833-0.927-0.833C201.791,123.187,201.376,123.561,201.376,124.02z
			 M202.698,124.91h-0.787c-0.655,0-1.188,0.479-1.188,1.065v0.865l0.002,0.015l0.066,0.018c0.625,0.174,1.167,0.233,1.615,0.233
			c0.873,0,1.379-0.223,1.41-0.237l0.062-0.028h0.007v-0.865C203.886,125.389,203.353,124.91,202.698,124.91z"/>
		<path clip-path="url(#SVGID_2_)" fill="#00C0D1" d="M155.397,60.381c-3.422,0-6.196,2.024-6.196,4.521s2.774,4.52,6.196,4.52
			c0.328,0,0.651-0.02,0.965-0.056c1.332,1.194,2.92,1.409,4.457,1.44v-0.292c-0.83-0.365-1.549-1.029-1.549-1.788
			c0-0.106,0.009-0.21,0.026-0.312c1.401-0.83,2.297-2.095,2.297-3.513C161.593,62.405,158.819,60.381,155.397,60.381z"/>
		<path clip-path="url(#SVGID_2_)" fill="#FFFFFF" d="M157.027,63.933l-0.239,0.073l-0.248-0.639
			c-0.27-0.697-1.081-1.081-1.858-0.84c-0.778,0.243-1.149,0.995-0.879,1.693l0.248,0.639l-0.26,0.082
			c-0.113,0.035-0.241,0.212-0.201,0.312l0.944,2.441c0.039,0.102,0.222,0.067,0.335,0.033l3.237-1.01
			c0.113-0.035,0.118-0.061,0.079-0.162l-0.944-2.439C157.201,64.015,157.14,63.896,157.027,63.933z M156.241,64.177l-1.643,0.514
			l-0.247-0.641c-0.168-0.434,0.031-0.894,0.516-1.044c0.485-0.152,0.959,0.098,1.127,0.533L156.241,64.177z"/>
		<g clip-path="url(#SVGID_2_)">
			<path fill="#FFFFFF" d="M249.186,65.807l-0.679-0.535l-1.942,1.495c0.071,0.06,0.165,0.096,0.27,0.096h4.701
				c0.105,0,0.201-0.036,0.271-0.096l-1.94-1.495L249.186,65.807z"/>
			<path fill="#FFFFFF" d="M251.808,63.437c-0.071-0.06-0.165-0.096-0.272-0.096h-4.701c-0.104,0-0.197,0.037-0.27,0.096
				l2.621,2.018L251.808,63.437z"/>
			<polygon fill="#FFFFFF" points="246.441,63.65 246.441,66.576 248.336,65.129 			"/>
			<polygon fill="#FFFFFF" points="250.037,65.129 251.932,66.576 251.932,63.649 			"/>
		</g>
	</g>
	<path opacity="0.8" fill="#FFFFFF" stroke="#231F20" stroke-width="2" stroke-miterlimit="10" d="M320.216,160.331H103.833
		c-4.056,0-7.345-3.095-7.345-6.911V22.629c0-3.817,3.289-6.911,7.345-6.911h216.384c4.057,0,7.345,3.094,7.345,6.911V153.42
		C327.561,157.236,324.273,160.331,320.216,160.331z"/>
</g>
<g id="DESIGNED_BY_FREEPIK">
</g>
</svg>
