<?xml version="1.0" encoding="utf-8"?>
<!-- Generator: Adobe Illustrator 16.0.0, SVG Export Plug-In . SVG Version: 6.00 Build 0)  -->
<!DOCTYPE svg PUBLIC "-//W3C//DTD SVG 1.1//EN" "http://www.w3.org/Graphics/SVG/1.1/DTD/svg11.dtd">
<svg version="1.1" xmlns="http://www.w3.org/2000/svg" xmlns:xlink="http://www.w3.org/1999/xlink" x="0px" y="0px" width="800px"
	 height="425px" viewBox="0 0 800 425" enable-background="new 0 0 800 425" xml:space="preserve">
<g id="background" display="none">
	
		<radialGradient id="SVGID_1_" cx="-618.7563" cy="359.0225" r="166.0911" gradientTransform="matrix(0 -3.7037 3.7037 0 -969.2129 -2327.4941)" gradientUnits="userSpaceOnUse">
		<stop  offset="0.129" style="stop-color:#1E97D0"/>
		<stop  offset="0.3169" style="stop-color:#14699A"/>
		<stop  offset="0.5021" style="stop-color:#0B426C"/>
		<stop  offset="0.6441" style="stop-color:#062A50"/>
		<stop  offset="0.7258" style="stop-color:#042145"/>
		<stop  offset="1" style="stop-color:#00072A"/>
	</radialGradient>
	<rect display="inline" fill="url(#SVGID_1_)" width="800" height="800"/>
</g>
<g id="objects">
	<g opacity="0.2">
		<g display="none">
			<g display="inline">
				<g>
					<path fill="#FFFFFF" d="M511.504-352.672v0.258c0.351-0.398,0.694-0.723,1.034-0.973c0.337-0.25,0.705-0.441,1.1-0.568
						c0.397-0.133,0.828-0.195,1.295-0.195c0.622,0,1.196,0.131,1.729,0.391c0.528,0.264,0.983,0.637,1.367,1.129
						c0.391,0.484,0.681,1.057,0.883,1.717c0.198,0.658,0.296,1.371,0.296,2.139c0,1.621-0.394,2.883-1.186,3.791
						c-0.789,0.904-1.83,1.355-3.125,1.355c-0.745,0-1.375-0.127-1.889-0.387c-0.514-0.254-1.012-0.65-1.504-1.18v3.828
						c0,0.535-0.102,0.932-0.318,1.207c-0.21,0.268-0.514,0.404-0.904,0.404s-0.695-0.123-0.908-0.375
						c-0.213-0.25-0.318-0.615-0.318-1.107v-11.434c0-0.494,0.112-0.863,0.344-1.109s0.521-0.369,0.883-0.369
						c0.354,0,0.647,0.123,0.879,0.383C511.392-353.514,511.504-353.145,511.504-352.672z M516.607-348.863
						c0-0.701-0.112-1.301-0.33-1.793c-0.217-0.496-0.517-0.869-0.896-1.113c-0.38-0.254-0.796-0.381-1.244-0.381
						c-0.456,0-0.871,0.119-1.252,0.357c-0.376,0.236-0.672,0.602-0.896,1.094c-0.229,0.492-0.34,1.105-0.34,1.836
						c0,0.691,0.111,1.285,0.34,1.783c0.225,0.496,0.527,0.873,0.911,1.141c0.384,0.26,0.804,0.391,1.259,0.391
						c0.471,0,0.896-0.135,1.27-0.402c0.373-0.271,0.662-0.654,0.872-1.16C516.502-347.611,516.607-348.197,516.607-348.863z"/>
					<path fill="#FFFFFF" d="M500.074-349.521h5.07c-0.007-0.586-0.123-1.105-0.357-1.555c-0.229-0.449-0.539-0.789-0.922-1.016
						c-0.384-0.229-0.804-0.344-1.267-0.344c-0.312,0-0.593,0.035-0.85,0.107c-0.257,0.076-0.507,0.189-0.749,0.348
						c-0.238,0.152-0.459,0.318-0.662,0.496c-0.202,0.178-0.467,0.424-0.788,0.723c-0.134,0.113-0.322,0.17-0.571,0.17
						c-0.264,0-0.478-0.072-0.645-0.217c-0.162-0.148-0.249-0.35-0.249-0.619c0-0.234,0.094-0.506,0.274-0.82
						c0.188-0.314,0.463-0.615,0.832-0.904c0.373-0.289,0.84-0.527,1.396-0.717c0.564-0.188,1.208-0.281,1.936-0.281
						c1.663,0,2.961,0.471,3.884,1.422s1.386,2.238,1.386,3.865c0,0.768-0.109,1.477-0.34,2.135
						c-0.232,0.654-0.564,1.215-0.999,1.686c-0.434,0.467-0.977,0.824-1.612,1.078c-0.641,0.246-1.354,0.375-2.127,0.375
						c-1.014,0-1.881-0.217-2.608-0.643c-0.727-0.428-1.27-0.98-1.631-1.656c-0.362-0.678-0.542-1.367-0.542-2.07
						c0-0.654,0.188-1.076,0.563-1.27C498.866-349.42,499.395-349.521,500.074-349.521z M505.145-348.045h-4.701
						c0.061,0.883,0.304,1.549,0.716,1.99c0.419,0.439,0.962,0.658,1.639,0.658c0.647,0,1.175-0.225,1.595-0.666
						C504.805-346.512,505.055-347.17,505.145-348.045z"/>
					<path fill="#FFFFFF" d="M488.262-350.762c0-0.713,0.17-1.326,0.521-1.838c0.347-0.51,0.86-0.896,1.541-1.16
						c0.68-0.26,1.508-0.391,2.481-0.391c0.933,0,1.729,0.141,2.395,0.428c0.665,0.281,1.156,0.639,1.475,1.063
						c0.314,0.434,0.479,0.861,0.479,1.291c0,0.285-0.105,0.527-0.312,0.73c-0.199,0.199-0.456,0.301-0.767,0.301
						c-0.271,0-0.481-0.064-0.626-0.195c-0.148-0.135-0.286-0.322-0.416-0.561c-0.268-0.467-0.586-0.807-0.958-1.039
						c-0.365-0.223-0.872-0.34-1.516-0.34c-0.518,0-0.944,0.117-1.273,0.348c-0.333,0.232-0.499,0.496-0.499,0.795
						c0,0.457,0.17,0.785,0.514,0.992c0.347,0.209,0.915,0.412,1.707,0.6c0.89,0.225,1.62,0.457,2.177,0.703
						c0.564,0.238,1.014,0.563,1.346,0.961c0.337,0.398,0.507,0.891,0.507,1.473c0,0.518-0.159,1.01-0.47,1.473
						c-0.309,0.463-0.768,0.832-1.371,1.105c-0.604,0.275-1.335,0.412-2.188,0.412c-0.673,0-1.273-0.068-1.809-0.209
						c-0.535-0.137-0.983-0.326-1.339-0.561c-0.361-0.232-0.633-0.492-0.816-0.777c-0.188-0.283-0.282-0.564-0.282-0.836
						c0-0.297,0.101-0.539,0.296-0.734c0.203-0.188,0.485-0.281,0.854-0.281c0.268,0,0.492,0.076,0.681,0.23
						c0.185,0.148,0.397,0.377,0.64,0.68c0.195,0.254,0.424,0.457,0.691,0.607c0.268,0.152,0.629,0.229,1.085,0.229
						c0.47,0,0.856-0.098,1.168-0.301c0.308-0.195,0.467-0.447,0.467-0.744c0-0.271-0.116-0.492-0.344-0.666
						c-0.228-0.178-0.532-0.322-0.923-0.434c-0.383-0.115-0.918-0.254-1.594-0.42c-0.804-0.195-1.458-0.426-1.972-0.701
						c-0.507-0.271-0.897-0.594-1.157-0.963C488.388-349.865,488.262-350.287,488.262-350.762z"/>
					<path fill="#FFFFFF" d="M485.606-342.402c0.362,0,0.673,0.107,0.926,0.332c0.261,0.217,0.388,0.535,0.388,0.941
						c0,0.365-0.135,0.664-0.395,0.904c-0.261,0.238-0.572,0.357-0.919,0.357c-0.333,0-0.63-0.105-0.89-0.322
						s-0.391-0.527-0.391-0.939c0-0.402,0.127-0.713,0.38-0.938S485.26-342.402,485.606-342.402z M484.326-345.078v-7.496
						c0-0.52,0.123-0.914,0.369-1.178c0.25-0.268,0.561-0.398,0.94-0.398c0.384,0,0.69,0.131,0.926,0.404
						c0.239,0.275,0.358,0.666,0.358,1.172v7.416c0,0.514-0.119,0.896-0.358,1.156c-0.235,0.262-0.542,0.391-0.926,0.391
						c-0.38,0-0.69-0.129-0.94-0.391C484.449-344.262,484.326-344.623,484.326-345.078z"/>
					<path fill="#FFFFFF" d="M472.969-345.51v-7.533c0-0.861,0.091-1.6,0.275-2.221c0.181-0.623,0.478-1.137,0.883-1.541
						c0.404-0.402,0.933-0.701,1.591-0.896c0.658-0.203,1.472-0.297,2.445-0.297c0.894,0,1.692,0.123,2.395,0.375
						c0.701,0.25,1.244,0.572,1.628,0.971c0.375,0.393,0.563,0.799,0.563,1.215c0,0.318-0.108,0.578-0.321,0.773
						c-0.214,0.203-0.475,0.305-0.778,0.305c-0.376,0-0.712-0.168-0.998-0.508c-0.138-0.166-0.282-0.34-0.435-0.514
						c-0.145-0.18-0.311-0.324-0.491-0.447s-0.397-0.217-0.651-0.275c-0.253-0.059-0.543-0.094-0.875-0.094
						c-0.669,0-1.189,0.094-1.563,0.281c-0.369,0.189-0.629,0.449-0.777,0.785s-0.235,0.691-0.261,1.078
						c-0.025,0.383-0.044,0.998-0.058,1.848c0.401-0.557,0.857-0.982,1.385-1.273c0.521-0.289,1.143-0.438,1.867-0.438
						c0.863,0,1.619,0.221,2.271,0.666s1.15,1.061,1.497,1.863c0.348,0.795,0.521,1.717,0.521,2.764
						c0,0.773-0.105,1.482-0.318,2.104c-0.21,0.631-0.514,1.158-0.904,1.592c-0.395,0.428-0.846,0.752-1.359,0.971
						c-0.514,0.221-1.078,0.328-1.693,0.328c-0.73,0-1.367-0.141-1.91-0.424c-0.535-0.281-1.033-0.723-1.497-1.322v0.35
						c0,0.449-0.108,0.801-0.333,1.045c-0.224,0.246-0.506,0.369-0.854,0.369c-0.498,0-0.832-0.162-0.998-0.488
						C473.049-344.428,472.969-344.898,472.969-345.51z M480.478-348.797c0-1.049-0.224-1.846-0.684-2.381
						c-0.459-0.543-1.052-0.811-1.782-0.811c-0.432,0-0.84,0.117-1.223,0.348c-0.384,0.232-0.695,0.58-0.934,1.045
						c-0.238,0.467-0.361,1.031-0.361,1.697c0,1.057,0.23,1.881,0.697,2.467s1.078,0.883,1.842,0.883
						c0.737,0,1.33-0.283,1.779-0.848C480.258-346.957,480.478-347.756,480.478-348.797z"/>
					<path fill="#FFFFFF" d="M468.846-345.043v-0.314c-0.455,0.604-0.955,1.045-1.497,1.328c-0.539,0.277-1.161,0.418-1.866,0.418
						c-0.68,0-1.295-0.148-1.83-0.447c-0.535-0.297-0.941-0.717-1.209-1.26c-0.166-0.318-0.281-0.658-0.332-1.027
						s-0.072-0.838-0.072-1.406v-4.822c0-0.52,0.115-0.914,0.354-1.178c0.238-0.268,0.546-0.398,0.926-0.398
						c0.384,0,0.698,0.131,0.94,0.404c0.238,0.275,0.361,0.666,0.361,1.172v4.32c0,0.854,0.116,1.508,0.354,1.959
						c0.239,0.453,0.709,0.68,1.422,0.68c0.459,0,0.882-0.137,1.263-0.412c0.379-0.273,0.658-0.654,0.835-1.135
						c0.126-0.383,0.191-1.107,0.191-2.164v-3.248c0-0.527,0.123-0.922,0.362-1.186c0.246-0.26,0.564-0.391,0.947-0.391
						c0.376,0,0.68,0.131,0.918,0.404c0.243,0.275,0.362,0.666,0.362,1.172v7.496c0,0.49-0.104,0.859-0.318,1.105
						c-0.217,0.238-0.514,0.361-0.886,0.361c-0.229,0-0.431-0.051-0.619-0.158c-0.181-0.109-0.332-0.271-0.441-0.484
						C468.904-344.471,468.846-344.732,468.846-345.043z"/>
					<path fill="#FFFFFF" d="M453.074-349.521h5.072c-0.01-0.586-0.13-1.105-0.361-1.555s-0.535-0.789-0.918-1.016
						c-0.384-0.229-0.807-0.344-1.267-0.344c-0.313,0-0.595,0.035-0.855,0.107c-0.253,0.076-0.506,0.189-0.745,0.348
						c-0.238,0.152-0.463,0.318-0.665,0.496s-0.463,0.424-0.788,0.723c-0.131,0.113-0.318,0.17-0.572,0.17
						c-0.26,0-0.477-0.072-0.644-0.217c-0.167-0.148-0.246-0.35-0.246-0.619c0-0.234,0.095-0.506,0.274-0.82
						c0.188-0.314,0.463-0.615,0.832-0.904s0.84-0.527,1.396-0.717c0.564-0.188,1.208-0.281,1.932-0.281
						c1.666,0,2.961,0.471,3.887,1.422s1.389,2.238,1.389,3.865c0,0.768-0.116,1.477-0.34,2.135
						c-0.232,0.654-0.564,1.215-0.998,1.686c-0.441,0.467-0.977,0.824-1.617,1.078c-0.641,0.246-1.35,0.375-2.131,0.375
						c-1.014,0-1.883-0.217-2.605-0.643c-0.724-0.428-1.266-0.98-1.628-1.656c-0.361-0.678-0.542-1.367-0.542-2.07
						c0-0.654,0.188-1.076,0.564-1.27C451.866-349.42,452.395-349.521,453.074-349.521z M458.146-348.045h-4.703
						c0.058,0.883,0.297,1.549,0.716,1.99c0.413,0.439,0.962,0.658,1.637,0.658c0.647,0,1.179-0.225,1.592-0.666
						C457.807-346.512,458.053-347.17,458.146-348.045z"/>
					<path fill="#FFFFFF" d="M442.498-352.672v0.258c0.355-0.398,0.695-0.723,1.035-0.973s0.701-0.441,1.1-0.568
						c0.397-0.133,0.832-0.195,1.295-0.195c0.621,0,1.2,0.131,1.729,0.391c0.528,0.264,0.984,0.637,1.367,1.129
						c0.391,0.484,0.68,1.057,0.883,1.717c0.195,0.658,0.297,1.371,0.297,2.139c0,1.621-0.398,2.883-1.188,3.791
						c-0.788,0.904-1.83,1.355-3.125,1.355c-0.744,0-1.374-0.127-1.888-0.387c-0.513-0.254-1.013-0.65-1.505-1.18v3.828
						c0,0.535-0.101,0.932-0.318,1.207c-0.209,0.268-0.514,0.404-0.904,0.404s-0.693-0.123-0.903-0.375
						c-0.218-0.25-0.318-0.615-0.318-1.107v-11.434c0-0.494,0.108-0.863,0.34-1.109c0.224-0.246,0.521-0.369,0.882-0.369
						c0.355,0,0.645,0.123,0.876,0.383C442.383-353.514,442.498-353.145,442.498-352.672z M447.599-348.863
						c0-0.701-0.108-1.301-0.325-1.793c-0.218-0.496-0.514-0.869-0.897-1.113c-0.384-0.254-0.796-0.381-1.244-0.381
						c-0.456,0-0.876,0.119-1.251,0.357c-0.377,0.236-0.674,0.602-0.897,1.094c-0.225,0.492-0.341,1.105-0.341,1.836
						c0,0.691,0.116,1.285,0.341,1.783c0.224,0.496,0.528,0.873,0.911,1.141c0.384,0.26,0.803,0.391,1.259,0.391
						c0.47,0,0.897-0.135,1.273-0.402c0.368-0.271,0.658-0.654,0.868-1.16C447.497-347.611,447.599-348.197,447.599-348.863z"/>
					<path fill="#FFFFFF" d="M431.9-341.238v-3.957c-0.484,0.508-0.983,0.898-1.489,1.166c-0.507,0.268-1.136,0.4-1.881,0.4
						c-0.86,0-1.613-0.205-2.265-0.611c-0.65-0.412-1.15-1.002-1.512-1.779c-0.354-0.773-0.535-1.693-0.535-2.756
						c0-0.789,0.102-1.504,0.297-2.164c0.202-0.654,0.492-1.221,0.867-1.703c0.384-0.48,0.847-0.854,1.39-1.117
						c0.535-0.26,1.136-0.391,1.786-0.391c0.398,0,0.774,0.043,1.129,0.141c0.348,0.094,0.65,0.221,0.896,0.373
						c0.246,0.158,0.456,0.318,0.63,0.48c0.174,0.164,0.405,0.412,0.687,0.742v-0.258c0-0.488,0.116-0.855,0.355-1.109
						c0.23-0.246,0.527-0.369,0.89-0.369c0.368,0,0.665,0.123,0.882,0.369c0.217,0.254,0.326,0.621,0.326,1.109v11.322
						c0,0.523-0.109,0.922-0.318,1.189c-0.21,0.271-0.506,0.404-0.89,0.404c-0.397,0-0.702-0.129-0.919-0.383
						C432.01-340.398,431.9-340.76,431.9-341.238z M431.778-348.941c0-1.027-0.231-1.824-0.709-2.373
						c-0.47-0.557-1.085-0.836-1.853-0.836c-0.65,0-1.215,0.285-1.686,0.85c-0.477,0.568-0.709,1.383-0.709,2.438
						c0,0.684,0.095,1.273,0.297,1.766c0.195,0.496,0.471,0.875,0.832,1.146c0.361,0.268,0.781,0.402,1.266,0.402
						c0.492,0,0.934-0.135,1.316-0.402c0.391-0.271,0.695-0.658,0.912-1.168C431.67-347.629,431.778-348.236,431.778-348.941z"/>
					<path fill="#FFFFFF" d="M420.855-354.477l-0.239,0.58l3.197,8.037c0.195,0.463,0.29,0.795,0.29,1.004
						c0,0.225-0.059,0.428-0.167,0.615c-0.116,0.195-0.274,0.348-0.47,0.459c-0.203,0.113-0.405,0.17-0.623,0.17
						c-0.375,0-0.658-0.115-0.846-0.354s-0.361-0.578-0.506-1.02l-2.192-6.385l-2.083,5.936c-0.16,0.48-0.312,0.857-0.441,1.129
						c-0.138,0.275-0.275,0.455-0.427,0.549c-0.146,0.098-0.354,0.145-0.63,0.145c-0.195,0-0.383-0.051-0.564-0.158
						c-0.181-0.102-0.317-0.242-0.419-0.42c-0.094-0.178-0.145-0.361-0.145-0.561c0.021-0.119,0.064-0.293,0.123-0.514
						c0.058-0.221,0.13-0.445,0.21-0.676l3.378-8.848c0.289-0.781,0.579-1.389,0.854-1.834c0.282-0.445,0.651-0.785,1.106-1.023
						c0.463-0.238,1.078-0.354,1.859-0.354c0.76,0,1.331,0.078,1.707,0.246c0.383,0.166,0.571,0.465,0.571,0.904
						c0,0.295-0.087,0.527-0.268,0.686c-0.181,0.16-0.448,0.246-0.803,0.246c-0.145,0-0.274-0.021-0.413-0.061
						c-0.166-0.037-0.303-0.055-0.426-0.055c-0.297,0-0.528,0.043-0.702,0.131c-0.173,0.086-0.325,0.242-0.463,0.463
						C421.195-355.221,421.036-354.902,420.855-354.477z"/>
				</g>
				<g>
					<path fill="#FFFFFF" d="M383.297-343.834h-0.622v0.781c0,0.809-0.101,1.453-0.304,1.934c-0.202,0.482-0.557,0.828-1.049,1.045
						c-0.492,0.219-1.164,0.326-2.019,0.326c-1.519,0-2.271-0.369-2.271-1.113c0-0.238,0.079-0.445,0.238-0.615
						s0.348-0.254,0.557-0.254c0.102,0,0.282,0.016,0.528,0.059c0.239,0.029,0.456,0.059,0.63,0.059c0.463,0,0.759-0.145,0.903-0.42
						c0.123-0.275,0.195-0.666,0.195-1.184v-0.617h-0.636c-0.991,0-1.483-0.297-1.483-0.898c0-0.416,0.13-0.688,0.397-0.803
						c0.261-0.115,0.623-0.17,1.086-0.17h0.636v-6.869c0-0.514,0.116-0.904,0.369-1.172c0.239-0.273,0.55-0.404,0.94-0.404
						c0.369,0,0.673,0.131,0.919,0.404c0.246,0.268,0.361,0.658,0.361,1.172v6.869h0.717c0.391,0,0.68,0.084,0.89,0.264
						c0.209,0.168,0.318,0.398,0.318,0.674C384.6-344.143,384.165-343.834,383.297-343.834"/>
					<path fill="#FFFFFF" d="M374.805-350.41v-2.164c0-0.527,0.13-0.922,0.376-1.182c0.246-0.264,0.558-0.395,0.934-0.395
						c0.383,0,0.687,0.131,0.926,0.398c0.238,0.268,0.361,0.658,0.361,1.178v7.221c0,1.164-0.419,1.75-1.259,1.75
						c-0.434,0-0.745-0.137-0.933-0.412c-0.188-0.271-0.297-0.672-0.318-1.205c-0.304,0.533-0.622,0.934-0.948,1.205
						c-0.332,0.275-0.759,0.412-1.309,0.412s-1.07-0.137-1.584-0.412c-0.514-0.271-0.774-0.637-0.774-1.082
						c0-0.314,0.108-0.582,0.325-0.781c0.225-0.209,0.456-0.314,0.709-0.314c0.102,0,0.333,0.064,0.694,0.182
						c0.362,0.115,0.688,0.174,0.962,0.174c0.377,0,0.688-0.102,0.927-0.297c0.245-0.207,0.434-0.5,0.571-0.891
						c0.123-0.391,0.217-0.861,0.268-1.402C374.783-348.971,374.805-349.629,374.805-350.41"/>
					<path fill="#FFFFFF" d="M362.884-349.514h5.078c-0.015-0.59-0.131-1.113-0.354-1.563c-0.239-0.445-0.543-0.785-0.926-1.016
						c-0.384-0.229-0.804-0.336-1.273-0.336c-0.312,0-0.594,0.027-0.847,0.107c-0.253,0.072-0.506,0.188-0.745,0.34
						c-0.246,0.152-0.455,0.318-0.665,0.5c-0.203,0.176-0.463,0.42-0.789,0.723c-0.138,0.111-0.325,0.174-0.571,0.174
						c-0.268,0-0.478-0.076-0.644-0.225c-0.167-0.145-0.246-0.348-0.246-0.615c0-0.238,0.087-0.51,0.268-0.82
						c0.188-0.318,0.463-0.619,0.832-0.908c0.376-0.281,0.839-0.527,1.403-0.713c0.557-0.191,1.201-0.285,1.932-0.285
						c1.671,0,2.966,0.471,3.885,1.422c0.926,0.951,1.389,2.242,1.389,3.865c0,0.768-0.116,1.48-0.348,2.135
						c-0.225,0.658-0.557,1.219-0.998,1.689c-0.434,0.473-0.97,0.828-1.613,1.082c-0.637,0.246-1.346,0.371-2.127,0.371
						c-1.013,0-1.881-0.213-2.604-0.646c-0.724-0.42-1.273-0.977-1.628-1.652c-0.361-0.682-0.543-1.367-0.543-2.074
						c0-0.65,0.188-1.07,0.558-1.266C361.683-349.42,362.203-349.514,362.884-349.514 M367.962-348.041h-4.702
						c0.058,0.887,0.297,1.551,0.709,1.986c0.419,0.439,0.962,0.66,1.642,0.66c0.644,0,1.18-0.221,1.592-0.668
						C367.614-346.512,367.875-347.17,367.962-348.041"/>
					<path fill="#FFFFFF" d="M352.098-349.514h5.071c-0.008-0.59-0.123-1.113-0.354-1.563c-0.231-0.445-0.535-0.785-0.919-1.016
						c-0.384-0.229-0.803-0.336-1.273-0.336c-0.304,0-0.593,0.027-0.839,0.107c-0.261,0.072-0.506,0.188-0.752,0.34
						s-0.463,0.318-0.666,0.5c-0.202,0.176-0.463,0.42-0.788,0.723c-0.138,0.111-0.325,0.174-0.571,0.174
						c-0.268,0-0.478-0.076-0.651-0.225c-0.159-0.145-0.239-0.348-0.239-0.615c0-0.238,0.087-0.51,0.275-0.82
						c0.174-0.318,0.456-0.619,0.832-0.908c0.369-0.281,0.839-0.527,1.396-0.713c0.557-0.191,1.207-0.285,1.931-0.285
						c1.671,0,2.959,0.471,3.885,1.422s1.396,2.242,1.396,3.865c0,0.768-0.123,1.48-0.354,2.135
						c-0.225,0.658-0.558,1.219-0.991,1.689c-0.441,0.473-0.977,0.828-1.62,1.082c-0.637,0.246-1.346,0.371-2.127,0.371
						c-1.006,0-1.874-0.213-2.611-0.646c-0.724-0.42-1.266-0.977-1.621-1.652c-0.361-0.682-0.542-1.367-0.542-2.074
						c0-0.65,0.188-1.07,0.557-1.266C350.896-349.42,351.418-349.514,352.098-349.514 M357.169-348.041h-4.702
						c0.065,0.887,0.304,1.551,0.716,1.986c0.42,0.439,0.962,0.66,1.643,0.66c0.644,0,1.179-0.221,1.591-0.668
						C356.836-346.512,357.089-347.17,357.169-348.041"/>
					<path fill="#FFFFFF" d="M346.419-345.064v-0.311c-0.491,0.6-0.998,1.041-1.526,1.322c-0.521,0.291-1.121,0.428-1.779,0.428
						c-0.796,0-1.541-0.207-2.206-0.615c-0.673-0.412-1.201-1.016-1.592-1.809c-0.391-0.795-0.586-1.729-0.586-2.814
						c0-0.795,0.108-1.529,0.333-2.197c0.225-0.67,0.543-1.23,0.934-1.68c0.391-0.451,0.854-0.803,1.389-1.049
						c0.542-0.238,1.113-0.361,1.729-0.361c0.738,0,1.36,0.148,1.859,0.449c0.506,0.289,0.983,0.73,1.446,1.301v-3.891
						c0-1.137,0.413-1.707,1.244-1.707c0.485,0,0.804,0.145,0.97,0.438c0.152,0.299,0.231,0.723,0.231,1.291v11.193
						c0,0.496-0.102,0.857-0.318,1.107c-0.21,0.238-0.514,0.365-0.883,0.365c-0.368,0-0.665-0.127-0.896-0.377
						C346.527-344.232,346.419-344.588,346.419-345.064 M341.334-348.834c0,0.688,0.108,1.273,0.311,1.766
						c0.21,0.492,0.5,0.867,0.868,1.129c0.369,0.26,0.781,0.396,1.23,0.396c0.716,0,1.323-0.285,1.815-0.846
						c0.492-0.564,0.737-1.396,0.737-2.492c0-1.027-0.245-1.834-0.737-2.404c-0.484-0.576-1.085-0.861-1.815-0.861
						c-0.427,0-0.825,0.127-1.194,0.377c-0.368,0.248-0.665,0.621-0.882,1.123C341.442-350.143,341.334-349.539,341.334-348.834"/>
					<path fill="#FFFFFF" d="M336.118-342.395c0.362,0,0.666,0.111,0.919,0.332c0.261,0.225,0.391,0.531,0.391,0.934
						c0,0.371-0.13,0.672-0.398,0.91c-0.26,0.236-0.563,0.355-0.911,0.355c-0.34,0-0.637-0.102-0.89-0.318
						c-0.268-0.217-0.391-0.535-0.391-0.947c0-0.398,0.123-0.709,0.376-0.934C335.467-342.283,335.764-342.395,336.118-342.395
						 M334.838-345.076v-7.504c0-0.514,0.116-0.904,0.369-1.172c0.246-0.268,0.557-0.398,0.94-0.398c0.376,0,0.68,0.131,0.926,0.404
						c0.231,0.275,0.354,0.666,0.354,1.166v7.428c0,0.514-0.123,0.898-0.354,1.158c-0.246,0.26-0.55,0.391-0.926,0.391
						c-0.384,0-0.694-0.131-0.94-0.391C334.954-344.254,334.838-344.615,334.838-345.076"/>
					<path fill="#FFFFFF" d="M326.476-352.965l2.286,3.762l1.403-1.326v-2.066c0-0.498,0.138-0.883,0.397-1.15
						c0.261-0.273,0.564-0.404,0.904-0.404c0.398,0,0.717,0.131,0.948,0.398c0.224,0.268,0.34,0.658,0.34,1.178v11.061
						c0,0.572-0.116,1.014-0.333,1.318c-0.225,0.303-0.543,0.447-0.955,0.447c-0.397,0-0.709-0.137-0.947-0.412
						c-0.231-0.268-0.354-0.672-0.354-1.201v-6.293l-2.915,3.064c-0.362,0.375-0.63,0.639-0.825,0.777
						c-0.188,0.137-0.419,0.209-0.687,0.209c-0.333,0-0.601-0.105-0.818-0.311c-0.209-0.203-0.317-0.463-0.317-0.773
						c0-0.377,0.347-0.891,1.049-1.52l1.382-1.264l-2.662-4.184c-0.195-0.311-0.341-0.543-0.428-0.701
						c-0.079-0.164-0.13-0.326-0.13-0.463c0-0.414,0.116-0.738,0.348-0.977c0.224-0.24,0.521-0.355,0.882-0.355
						c0.318,0,0.564,0.08,0.731,0.258C325.947-353.723,326.187-353.412,326.476-352.965"/>
					<path fill="#FFFFFF" d="M320.841-354.15c0.391,0,0.724,0.123,1.013,0.383c0.282,0.246,0.427,0.602,0.427,1.064
						c0,0.383-0.138,0.715-0.412,0.99c-0.275,0.283-0.608,0.42-1.006,0.42s-0.738-0.137-1.021-0.412
						c-0.281-0.275-0.419-0.611-0.419-0.998c0-0.457,0.138-0.811,0.419-1.064C320.124-354.027,320.457-354.15,320.841-354.15"/>
					<path fill="#FFFFFF" d="M307.942-350.939c0-0.324,0.095-0.672,0.29-1.033c0.188-0.373,0.484-0.721,0.882-1.053
						c0.398-0.33,0.897-0.604,1.498-0.803c0.601-0.203,1.28-0.309,2.032-0.309c1.606,0,2.857,0.471,3.755,1.404
						c0.896,0.934,1.345,2.188,1.345,3.758c0,1.066-0.202,2.008-0.614,2.824c-0.413,0.814-1.006,1.447-1.787,1.896
						c-0.774,0.447-1.714,0.668-2.792,0.668c-0.673,0-1.288-0.098-1.852-0.293c-0.564-0.195-1.035-0.455-1.426-0.76
						c-0.383-0.318-0.687-0.643-0.89-0.994c-0.21-0.35-0.304-0.68-0.304-0.986c0-0.309,0.108-0.572,0.34-0.789
						c0.231-0.209,0.514-0.322,0.84-0.322c0.217,0,0.397,0.055,0.542,0.166c0.138,0.113,0.304,0.289,0.478,0.539
						c0.318,0.482,0.644,0.848,0.991,1.082c0.347,0.242,0.788,0.361,1.316,0.361c0.76,0,1.389-0.297,1.852-0.896
						c0.471-0.598,0.702-1.422,0.702-2.457c0-0.484-0.059-0.939-0.182-1.344c-0.115-0.406-0.289-0.758-0.521-1.043
						c-0.224-0.289-0.499-0.506-0.824-0.658c-0.326-0.152-0.681-0.225-1.063-0.225c-0.521,0-0.97,0.123-1.338,0.363
						c-0.377,0.238-0.702,0.607-0.984,1.098c-0.159,0.293-0.325,0.521-0.506,0.688c-0.188,0.16-0.413,0.246-0.681,0.246
						c-0.318,0-0.578-0.123-0.788-0.361C308.051-350.41,307.942-350.67,307.942-350.939"/>
					<path fill="#FFFFFF" d="M296.752-348.881c0-0.77,0.116-1.486,0.354-2.137c0.246-0.652,0.593-1.215,1.049-1.68
						c0.456-0.469,1.006-0.828,1.635-1.08c0.637-0.25,1.346-0.373,2.134-0.373c0.789,0,1.498,0.123,2.12,0.383
						c0.622,0.246,1.172,0.611,1.627,1.078c0.464,0.479,0.811,1.035,1.057,1.678c0.224,0.645,0.347,1.354,0.347,2.131
						c0,0.785-0.123,1.508-0.361,2.16c-0.238,0.65-0.586,1.211-1.034,1.67c-0.456,0.463-0.998,0.818-1.635,1.07
						c-0.644,0.25-1.346,0.377-2.12,0.377c-0.781,0-1.497-0.127-2.134-0.383c-0.644-0.254-1.187-0.615-1.649-1.078
						c-0.455-0.479-0.803-1.031-1.041-1.672C296.868-347.387,296.752-348.096,296.752-348.881 M299.356-348.881
						c0,1.061,0.231,1.881,0.694,2.471c0.463,0.594,1.092,0.891,1.873,0.891c0.507,0,0.955-0.139,1.346-0.398
						c0.384-0.26,0.68-0.648,0.89-1.164c0.21-0.514,0.312-1.115,0.312-1.799c0-0.676-0.102-1.27-0.304-1.775
						c-0.21-0.506-0.507-0.893-0.89-1.164c-0.384-0.266-0.832-0.406-1.354-0.406c-0.781,0-1.41,0.297-1.873,0.896
						C299.588-350.744,299.356-349.922,299.356-348.881"/>
					<path fill="#FFFFFF" d="M286.856-349.072v-3.443c0-0.549,0.123-0.955,0.368-1.23c0.254-0.273,0.572-0.404,0.977-0.404
						c0.398,0,0.717,0.131,0.955,0.404c0.246,0.275,0.369,0.682,0.369,1.23v4.131c0,0.65,0.021,1.16,0.065,1.525
						c0.051,0.352,0.166,0.652,0.361,0.883c0.195,0.232,0.507,0.348,0.934,0.348c0.846,0,1.403-0.289,1.678-0.879
						c0.268-0.574,0.405-1.414,0.405-2.506v-3.502c0-0.539,0.123-0.947,0.361-1.223c0.246-0.275,0.564-0.412,0.963-0.412
						c0.397,0,0.716,0.137,0.969,0.412s0.376,0.684,0.376,1.223v7.418c0,0.488-0.115,0.857-0.34,1.111
						c-0.224,0.256-0.521,0.383-0.89,0.383c-0.354,0-0.651-0.123-0.89-0.354c-0.231-0.24-0.354-0.572-0.354-0.988v-0.242
						c-0.448,0.535-0.934,0.93-1.439,1.18c-0.521,0.26-1.085,0.383-1.715,0.383c-0.65,0-1.208-0.131-1.678-0.391
						c-0.471-0.258-0.854-0.65-1.165-1.172c-0.434,0.527-0.904,0.918-1.41,1.18c-0.499,0.256-1.049,0.383-1.657,0.383
						c-0.708,0-1.323-0.137-1.837-0.42c-0.507-0.275-0.89-0.68-1.143-1.193c-0.225-0.471-0.333-1.207-0.333-2.217v-5.061
						c0-0.549,0.123-0.955,0.369-1.23c0.246-0.273,0.571-0.404,0.977-0.404c0.397,0,0.716,0.137,0.962,0.412
						c0.253,0.275,0.376,0.684,0.376,1.223v4.361c0,0.559,0.029,1.002,0.072,1.336c0.051,0.336,0.174,0.621,0.384,0.85
						c0.21,0.225,0.528,0.34,0.954,0.34c0.341,0,0.666-0.105,0.97-0.305c0.312-0.201,0.55-0.477,0.724-0.816
						C286.762-347.184,286.856-347.959,286.856-349.072"/>
				</g>
				<g>
					<path fill="#FFFFFF" d="M407.56-348.252c0.007,0.004,0.007,0.012,0.007,0.02C407.566-348.24,407.566-348.248,407.56-348.252z"
						/>
					<path fill="#FFFFFF" d="M407.429-349.08L407.429-349.08c0.051,0.232,0.087,0.471,0.116,0.703
						C407.516-348.613,407.479-348.848,407.429-349.08z"/>
					<path fill="#FFFFFF" d="M406.575-351.488c0.008,0.008,0.008,0.021,0.015,0.037C406.583-351.467,406.583-351.48,406.575-351.488
						z"/>
					<path fill="#FFFFFF" d="M406.655-351.33c0.021,0.045,0.043,0.092,0.065,0.139C406.698-351.242,406.677-351.285,406.655-351.33z
						"/>
					<path fill="#FFFFFF" d="M407.19-350.006c-0.13-0.404-0.282-0.787-0.456-1.16C406.916-350.787,407.061-350.4,407.19-350.006
						L407.19-350.006z"/>
					<path fill="#FFFFFF" d="M397.526-338.316c-0.499,0-0.876-0.039-1.295-0.111l-0.123,0.764c0,0,1.172,0.361,2.713,0.234
						l0.122,0.416c-0.477,0.102-0.839,0.529-0.839,1.035c0,0.578,0.471,1.049,1.057,1.049s1.056-0.471,1.056-1.049
						c0-0.506-0.361-0.934-0.839-1.035l-0.13-0.463c1.635-0.225,2.937-0.861,2.937-0.861l-0.231-0.709
						c-0.991,0.33-1.852,0.529-2.626,0.615C398.567-338.352,397.989-338.316,397.526-338.316z"/>
					<path fill="#FFFFFF" d="M406.59-342.172v0.008c-0.043,0.047-0.079,0.094-0.115,0.141l0.311,0.225l0.492,0.357
						c0.021-0.039,0.788-0.744,1.396-2.047c0.028,0.037,0.058,0.08,0.094,0.117c0.181,0.201,0.434,0.303,0.76,0.295
						c0,0,0.007,0,0.014,0c0.195,0,0.333,0.066,0.427,0.146c-0.094,0.115-0.145,0.256-0.145,0.414c0,0.367,0.297,0.67,0.666,0.67
						c0.368,0,0.673-0.303,0.673-0.67c0-0.371-0.305-0.668-0.673-0.668c-0.058,0-0.108,0.008-0.167,0.021
						c-0.159-0.184-0.427-0.344-0.803-0.336c-0.202,0.004-0.347-0.047-0.441-0.156c-0.108-0.123-0.145-0.297-0.159-0.426
						c0-0.004,0-0.008,0-0.008c0.441-1.186,0.312-2.67,0.312-2.67l-1.057-0.043c-0.021,0.543-0.094,1.482-0.368,2.234
						C407.277-343.119,406.619-342.215,406.59-342.172z"/>
					<path fill="#FFFFFF" d="M388.324-339.197c0.369,0,0.673-0.301,0.673-0.674c0-0.055-0.015-0.107-0.028-0.162
						c0.188-0.162,0.347-0.428,0.34-0.811c0-0.199,0.051-0.34,0.151-0.438c0.087-0.072,0.195-0.115,0.297-0.137
						c0.788,1.1,1.758,1.771,1.758,1.771l0.76-0.811c-0.571-0.52-1.157-1.18-1.729-1.992c-0.397-0.564-0.803-1.291-1.135-2.016
						l-1.027,0.484c0,0,0.47,1.158,1.128,2.193c-0.115,0.043-0.231,0.104-0.333,0.195c-0.195,0.18-0.296,0.434-0.289,0.76
						c0,0.201-0.072,0.346-0.151,0.441c-0.116-0.092-0.254-0.146-0.413-0.146c-0.368,0-0.665,0.297-0.665,0.666
						C387.659-339.498,387.956-339.197,388.324-339.197z"/>
					<path fill="#FFFFFF" d="M390.979-348.4c1.41-0.686,3.732-1.598,6.785-2.021c1.201-0.166,2.358-0.227,3.429-0.227
						c1.389,0,2.619,0.104,3.56,0.223c1.077,0.135,1.917,0.301,2.438,0.42c-0.13-0.395-0.274-0.781-0.456-1.16
						c-0.007-0.012-0.007-0.018-0.014-0.025c-0.022-0.047-0.044-0.094-0.065-0.139c-0.021-0.043-0.044-0.086-0.065-0.121
						c-0.007-0.016-0.007-0.029-0.015-0.037c-0.304-0.572-0.665-1.092-1.085-1.549c-1.439-1.576-2.908-1.822-2.922-1.826
						l-0.022-0.004l-0.021-0.006c-0.007-0.008-1.31-0.428-3.291-0.428c-1.946,0-3.855,0.395-5.672,1.172
						c-1.345,0.688-2.618,1.736-3.255,2.67c-0.484,0.723-0.839,1.49-1.049,2.293c-0.108,0.426-0.202,1.107-0.145,1.822
						C389.504-347.611,390.133-347.986,390.979-348.4z"/>
					<path fill="#FFFFFF" d="M406.142-342.508c0.036-0.061,0.651-0.926,1.136-2.254c0.361-0.994,0.347-2.443,0.347-2.459v-0.004
						c0-0.34-0.021-0.676-0.058-1.008c0-0.008,0-0.016-0.007-0.02c0-0.043-0.008-0.082-0.015-0.125
						c-0.029-0.232-0.065-0.471-0.116-0.703c-0.701-0.18-4.875-1.156-9.548-0.506c-2.93,0.412-5.15,1.273-6.496,1.932
						c-1.121,0.543-1.845,1.035-2.127,1.236c0.282,1.027,1.042,2.641,1.743,3.646c2.011,2.865,4.167,3.602,5.281,3.783
						c0.427,0.068,0.759,0.109,1.244,0.109c0.448,0,1.005-0.037,1.743-0.117c0.745-0.072,1.569-0.268,2.531-0.592
						c1.346-0.453,2.568-1.158,3.523-2.049l0.036-0.031C405.505-341.799,405.802-342.074,406.142-342.508z M393.873-341.842
						c-0.962,0-1.743-0.781-1.743-1.74c0-0.961,0.781-1.742,1.743-1.742s1.736,0.781,1.736,1.742
						C395.609-342.623,394.835-341.842,393.873-341.842z M402.112-341.773c-1.556,0-2.813-1.258-2.813-2.814
						c0-1.555,1.258-2.816,2.813-2.816s2.813,1.262,2.813,2.816C404.926-343.031,403.668-341.773,402.112-341.773z"/>
				</g>
			</g>
		</g>
		<g>
			<g>
				<path display="none" opacity="0.5" fill="#FFFFFF" d="M552.11,426c20.22-49.553,32.835-119.295,32.835-196.623
					c0-150.33-47.594-272.197-106.298-272.197S372.353,79.047,372.353,229.377c0,77.328,12.612,147.07,32.834,196.623H552.11z"/>
				<path display="none" opacity="0.5" fill="#FFFFFF" d="M533.823,426c2.662-23.822,4.116-48.951,4.116-74.963
					c0-150.328-47.592-272.195-106.299-272.195c-58.702,0-106.293,121.867-106.293,272.195c0,26.012,1.453,51.141,4.115,74.963
					H533.823z"/>
				<path display="none" opacity="0.5" fill="#FFFFFF" d="M696.389,426c10.912-42.754,17.279-93.809,17.279-148.695
					c0-150.33-47.591-272.197-106.297-272.197c-58.705,0-106.297,121.867-106.297,272.197c0,54.887,6.367,105.941,17.279,148.695
					H696.389z"/>
				<path display="none" opacity="0.5" fill="#FFFFFF" d="M721.351,160.555c0,58.709-121.868,106.299-272.196,106.299
					c-150.33,0-272.197-47.59-272.197-106.299c0-58.703,121.867-106.293,272.197-106.293
					C599.482,54.262,721.351,101.852,721.351,160.555z"/>
				<ellipse display="none" opacity="0.5" fill="#FFFFFF" cx="261.135" cy="317.239" rx="243.011" ry="94.899"/>
				<ellipse display="none" opacity="0.5" fill="#FFFFFF" cx="290.628" cy="201.111" rx="243.012" ry="94.898"/>
				<g>
					<g>
						<g>
							<rect x="481.83" y="41.876" fill="#FFFFFF" width="1.844" height="384.124"/>
						</g>
						<g>
							<circle fill="#FFFFFF" cx="482.751" cy="42.267" r="6.93"/>
							<path fill="#FFFFFF" d="M490.604,42.267c0,4.333-3.523,7.856-7.853,7.856s-7.853-3.523-7.853-7.856
								c0-4.326,3.523-7.849,7.853-7.849S490.604,37.941,490.604,42.267C490.604,46.6,490.604,37.941,490.604,42.267z
								 M476.743,42.267c0,3.317,2.694,6.012,6.008,6.012c3.315,0,6.01-2.695,6.01-6.012c0-3.313-2.694-6.004-6.01-6.004
								C479.438,36.263,476.743,38.954,476.743,42.267C476.743,45.584,476.743,38.954,476.743,42.267z"/>
						</g>
					</g>
					<g>
						<polygon fill="#FFFFFF" points="116.812,426 118.656,426 118.656,281.438 328.414,281.438 328.414,157.563 529.728,157.563 
							529.728,264.921 721.32,264.921 721.32,426 723.164,426 723.164,263.078 531.57,263.078 531.57,155.723 326.573,155.723 
							326.573,279.595 116.812,279.595 						"/>
					</g>
					<g>
						<polygon fill="#FFFFFF" points="0,325.84 0,327.686 217.759,327.686 217.759,198.854 384.382,198.854 384.382,317.775 
							576.164,317.775 576.164,215.373 800,215.373 800,213.527 574.322,213.527 574.322,315.932 386.227,315.932 386.227,197.014 
							215.914,197.014 215.914,325.84 						"/>
					</g>
					<g>
						<g>
							<polygon fill="#FFFFFF" points="800,259.773 754.543,259.773 754.543,71.607 752.7,71.607 752.7,261.619 800,261.619 							
								"/>
						</g>
						<g>
							<circle fill="#FFFFFF" cx="753.622" cy="71.998" r="6.931"/>
							<path fill="#FFFFFF" d="M761.475,71.998c0,4.334-3.523,7.855-7.853,7.855s-7.853-3.521-7.853-7.855
								c0-4.326,3.523-7.848,7.853-7.848S761.475,67.672,761.475,71.998C761.475,76.332,761.475,67.672,761.475,71.998z
								 M747.613,71.998c0,3.316,2.694,6.012,6.009,6.012c3.313,0,6.008-2.695,6.008-6.012c0-3.313-2.694-6.004-6.008-6.004
								C750.308,65.994,747.613,68.686,747.613,71.998C747.613,75.314,747.613,68.686,747.613,71.998z"/>
						</g>
					</g>
					<g>
						<polygon fill="#FFFFFF" points="149.845,426 151.689,426 151.689,177.381 377.966,177.381 377.966,94.799 642.041,94.799 
							642.041,327.686 782.431,327.686 782.431,426 784.273,426 784.273,325.84 643.886,325.84 643.886,92.958 376.121,92.958 
							376.121,175.539 149.845,175.539 						"/>
					</g>
					<g>
						<g>
							<rect x="326.573" y="322.661" fill="#FFFFFF" width="1.841" height="103.339"/>
						</g>
						<g>
							<circle fill="#FFFFFF" cx="327.496" cy="323.052" r="6.93"/>
							<path fill="#FFFFFF" d="M335.348,323.052c0,4.329-3.522,7.853-7.852,7.853c-4.33,0-7.853-3.523-7.853-7.853
								s3.522-7.851,7.853-7.851C331.825,315.201,335.348,318.723,335.348,323.052S335.348,318.723,335.348,323.052z
								 M321.484,323.052c0,3.315,2.698,6.009,6.012,6.009c3.313,0,6.007-2.693,6.007-6.009c0-3.313-2.694-6.008-6.007-6.008
								C324.183,317.044,321.484,319.738,321.484,323.052C321.484,326.367,321.484,319.738,321.484,323.052z"/>
						</g>
					</g>
					<g>
						<g>
							<rect x="253.899" y="147.584" fill="#FFFFFF" width="1.845" height="278.416"/>
						</g>
						<g>
							<path fill="#FFFFFF" d="M261.755,147.975c0-3.826-3.104-6.93-6.93-6.93c-3.831,0-6.934,3.104-6.934,6.93
								c0,3.827,3.103,6.93,6.934,6.93C258.651,154.904,261.755,151.802,261.755,147.975z"/>
							<path fill="#FFFFFF" d="M262.674,147.975c0,4.334-3.523,7.856-7.849,7.856c-4.333,0-7.856-3.522-7.856-7.856
								c0-4.325,3.523-7.848,7.856-7.848C259.15,140.127,262.674,143.649,262.674,147.975
								C262.674,152.309,262.674,143.649,262.674,147.975z M248.813,147.975c0,3.313,2.694,6.012,6.012,6.012
								c3.313,0,6.004-2.698,6.004-6.012c0-3.313-2.691-6.008-6.004-6.008C251.508,141.967,248.813,144.662,248.813,147.975
								C248.813,151.288,248.813,144.662,248.813,147.975z"/>
						</g>
					</g>
					<g>
						<g>
							<polygon fill="#FFFFFF" points="30.925,426 32.77,426 32.77,226.932 80.668,226.932 80.668,111.249 78.823,111.249 
								78.823,225.088 30.925,225.088 							"/>
						</g>
						<g>
							<circle fill="#FFFFFF" cx="79.746" cy="111.64" r="6.93"/>
							<path fill="#FFFFFF" d="M87.598,111.64c0,4.333-3.522,7.856-7.853,7.856c-4.329,0-7.853-3.523-7.853-7.856
								c0-4.325,3.523-7.849,7.853-7.849C84.075,103.791,87.598,107.314,87.598,111.64C87.598,115.973,87.598,107.314,87.598,111.64
								z M73.734,111.64c0,3.313,2.698,6.011,6.011,6.011c3.313,0,6.008-2.697,6.008-6.011s-2.694-6.008-6.008-6.008
								C76.433,105.632,73.734,108.326,73.734,111.64S73.734,108.326,73.734,111.64z"/>
						</g>
					</g>
					<g>
						<polygon fill="#FFFFFF" points="561.299,426 561.299,159.217 605.702,159.217 605.702,426 607.547,426 607.547,157.371 
							559.457,157.371 559.457,426 						"/>
					</g>
					<g>
						<g>
							<rect x="686.636" y="149.234" fill="#FFFFFF" width="1.845" height="276.766"/>
						</g>
						<g>
							<path fill="#FFFFFF" d="M694.488,149.628c0-3.827-3.104-6.931-6.931-6.931c-3.826,0-6.93,3.104-6.93,6.931
								c0,3.831,3.104,6.934,6.93,6.934C691.385,156.562,694.488,153.459,694.488,149.628z"/>
							<path fill="#FFFFFF" d="M695.41,149.628c0,4.329-3.523,7.853-7.853,7.853s-7.853-3.523-7.853-7.853s3.523-7.853,7.853-7.853
								S695.41,145.299,695.41,149.628S695.41,145.299,695.41,149.628z M681.549,149.628c0,3.317,2.694,6.008,6.009,6.008
								c3.313,0,6.008-2.69,6.008-6.008c0-3.313-2.694-6.008-6.008-6.008C684.243,143.62,681.549,146.314,681.549,149.628
								C681.549,152.945,681.549,146.314,681.549,149.628z"/>
						</g>
					</g>
				</g>
				<g>
					<g>
						<g>
							<rect x="303.588" y="221.116" fill="#FFFFFF" width="1.841" height="204.884"/>
						</g>
						<g>
							<circle fill="#FFFFFF" cx="304.506" cy="221.507" r="6.93"/>
							<path fill="#FFFFFF" d="M312.359,221.507c0,4.329-3.523,7.853-7.853,7.853c-4.326,0-7.849-3.523-7.849-7.853
								s3.522-7.849,7.849-7.849C308.836,213.658,312.359,217.178,312.359,221.507S312.359,217.178,312.359,221.507z
								 M298.499,221.507c0,3.313,2.694,6.011,6.008,6.011c3.313,0,6.011-2.697,6.011-6.011s-2.698-6.007-6.011-6.007
								C301.193,215.5,298.499,218.193,298.499,221.507S298.499,218.193,298.499,221.507z"/>
						</g>
					</g>
					<g>
						<polygon fill="#FFFFFF" points="3.972,426 5.816,426 5.816,416.58 177.991,416.58 177.991,314.9 342.9,314.9 342.9,403.023 
							500.164,403.023 500.164,426 502.008,426 502.008,401.181 344.741,401.181 344.741,313.059 176.15,313.059 176.15,414.736 
							3.972,414.736 						"/>
					</g>
					<g>
						<polygon fill="#FFFFFF" points="381.348,426 381.348,362.352 593.709,362.352 593.709,426 595.551,426 595.551,360.508 
							379.503,360.508 379.503,426 						"/>
						<polygon fill="#FFFFFF" points="87.16,426 87.16,348.795 223.601,348.795 223.601,426 225.441,426 225.441,346.951 
							85.315,346.951 85.315,426 						"/>
					</g>
					<g>
						<g>
							<polygon fill="#FFFFFF" points="718.922,426 718.922,398.469 527.766,398.469 527.766,245.52 525.922,245.52 
								525.922,400.313 717.077,400.313 717.077,426 							"/>
						</g>
						<g>
							<circle fill="#FFFFFF" cx="526.844" cy="245.912" r="6.931"/>
							<path fill="#FFFFFF" d="M534.695,245.912c0,4.33-3.523,7.852-7.853,7.852s-7.853-3.521-7.853-7.852
								c0-4.332,3.523-7.854,7.853-7.854S534.695,241.58,534.695,245.912C534.695,250.242,534.695,241.58,534.695,245.912z
								 M520.835,245.912c0,3.313,2.694,6.01,6.008,6.01c3.315,0,6.01-2.697,6.01-6.01c0-3.314-2.694-6.01-6.01-6.01
								C523.529,239.902,520.835,242.598,520.835,245.912C520.835,249.225,520.835,242.598,520.835,245.912z"/>
						</g>
					</g>
					<g>
						<polyline fill="#FFFFFF" points="32.928,331.17 218.663,331.17 218.663,263.383 435.092,263.383 435.092,426 436.936,426 
							436.936,261.541 216.818,261.541 216.818,329.325 31.084,329.325 31.084,426 32.928,426 						"/>
					</g>
					<g>
						<g>
							<circle fill="#FFFFFF" cx="117.419" cy="308.273" r="6.93"/>
							<path fill="#FFFFFF" d="M125.271,308.273c0,4.329-3.523,7.852-7.853,7.852s-7.853-3.522-7.853-7.852
								c0-4.33,3.523-7.853,7.853-7.853S125.271,303.943,125.271,308.273C125.271,312.603,125.271,303.943,125.271,308.273z
								 M111.411,308.273c0,3.314,2.694,6.01,6.008,6.01s6.012-2.695,6.012-6.01c0-3.313-2.698-6.008-6.012-6.008
								S111.411,304.96,111.411,308.273C111.411,311.588,111.411,304.96,111.411,308.273z"/>
						</g>
					</g>
					<g>
						<polygon fill="#FFFFFF" points="369.147,426 369.147,316.258 405.267,316.258 405.267,426 407.107,426 407.107,314.414 
							367.303,314.414 367.303,426 						"/>
					</g>
					<g>
						<g>
							<rect x="633.022" y="329.573" fill="#FFFFFF" width="1.845" height="96.427"/>
						</g>
						<g>
							<circle fill="#FFFFFF" cx="633.945" cy="329.965" r="6.93"/>
							<path fill="#FFFFFF" d="M641.797,329.965c0,4.33-3.523,7.854-7.853,7.854s-7.853-3.523-7.853-7.854
								c0-4.328,3.523-7.852,7.853-7.852S641.797,325.637,641.797,329.965C641.797,334.295,641.797,325.637,641.797,329.965z
								 M627.938,329.965c0,3.314,2.693,6.008,6.007,6.008c3.315,0,6.01-2.693,6.01-6.008s-2.694-6.009-6.01-6.009
								C630.631,323.956,627.938,326.65,627.938,329.965S627.938,326.65,627.938,329.965z"/>
						</g>
					</g>
					<g>
						<g>
							<polygon fill="#FFFFFF" points="755.525,426 755.525,424.229 679.604,424.229 679.604,279.412 677.762,279.412 677.762,426 
															"/>
						</g>
						<g>
							<circle fill="#FFFFFF" cx="678.683" cy="279.805" r="6.931"/>
							<path fill="#FFFFFF" d="M686.534,279.805c0,4.329-3.522,7.852-7.851,7.852c-4.329,0-7.852-3.522-7.852-7.852
								c0-4.33,3.522-7.853,7.852-7.853C683.012,271.952,686.534,275.475,686.534,279.805
								C686.534,284.134,686.534,275.475,686.534,279.805z M672.674,279.805c0,3.314,2.695,6.01,6.01,6.01
								c3.313,0,6.008-2.695,6.008-6.01c0-3.313-2.694-6.008-6.008-6.008C675.369,273.797,672.674,276.491,672.674,279.805
								C672.674,283.119,672.674,276.491,672.674,279.805z"/>
						</g>
					</g>
					<g>
						<g>
							<rect x="471.694" y="309.236" fill="#FFFFFF" width="1.845" height="116.764"/>
						</g>
						<g>
							<circle fill="#FFFFFF" cx="472.617" cy="309.629" r="6.93"/>
							<path fill="#FFFFFF" d="M480.469,309.629c0,4.33-3.523,7.854-7.853,7.854s-7.853-3.523-7.853-7.854
								c0-4.328,3.523-7.852,7.853-7.852S480.469,305.301,480.469,309.629C480.469,313.959,480.469,305.301,480.469,309.629z
								 M466.609,309.629c0,3.313,2.693,6.008,6.007,6.008c3.315,0,6.01-2.694,6.01-6.008c0-3.314-2.694-6.01-6.01-6.01
								C469.303,303.619,466.609,306.314,466.609,309.629C466.609,312.942,466.609,306.314,466.609,309.629z"/>
						</g>
					</g>
				</g>
				<path display="none" fill="#FFFFFF" d="M384.791,352.268c-2.89,0-5.233-40.164-5.233-89.713c0-49.547,2.344-89.709,5.233-89.709
					s5.233,40.162,5.233,89.709C390.024,312.104,387.681,352.268,384.791,352.268z"/>
			</g>
			
				<text transform="matrix(-1 0 0 -1 311.9531 -62.6797)" display="none" fill="#FFFFFF" font-family="'Oswald-Light'" font-size="53.9339" letter-spacing="1">TECHNOLOGY</text>
			<g display="none" opacity="0.5">
				
					<text transform="matrix(-1 0 0 -1 268.6133 -98.8125)" display="inline" fill="#FFFFFF" font-family="'OpenSans-Light'" font-size="20.2749">VECTOR BACKGROUND</text>
			</g>
		</g>
	</g>
</g>
</svg>
